<?xml version="1.0" standalone="no"?>
<!DOCTYPE svg PUBLIC "-//W3C//DTD SVG 1.1//EN" "http://www.w3.org/Graphics/SVG/1.1/DTD/svg11.dtd" >
<svg xmlns="http://www.w3.org/2000/svg" xmlns:xlink="http://www.w3.org/1999/xlink" version="1.1">
<metadata>
Created by FontForge 20170731 at Fri Jun  3 17:02:56 2022
 By Aleksey,,,
Copyright (c) 2016 by Bazej Ostoja Lniski Typoforge Studio. All rights reserved.
</metadata>
<defs>
<font id="CervoNeue-RegularNeue" horiz-adv-x="942" >
  <font-face 
    font-family="Cervo Neue Neue"
    font-weight="400"
    font-stretch="normal"
    units-per-em="2048"
    panose-1="0 0 5 0 0 0 0 0 0 0"
    ascent="1638"
    descent="-410"
    x-height="1059"
    cap-height="1536"
    bbox="-1139 -550.091 2152.46 2096.5"
    underline-thickness="102"
    underline-position="-307"
    unicode-range="U+0020-25CA"
  />
<missing-glyph horiz-adv-x="1017" 
d="M836 1638v-2035h-648v2035h648zM678 1501h-336v-65h133v-76h-135v-68h338v68h-135v76h135v65zM543 1239h-203v-211h338v70h-135v141zM475 1169v-71h-67v71h67zM678 973h-338v-68h135v-76h-135v-65h203v141h135v68zM678 850h-68v-133h-270v-70h338v203zM678 602h-203v-115
h68v48h67v-95h-202v162h-68v-229h338v229zM678 250h-338v-230h338v230zM610 182v-94h-202v94h202zM678 -27h-338v-67h143l-143 -96v-66h338v66h-207l141 96h66v67z" />
    <glyph glyph-name=".notdef" horiz-adv-x="1017" 
d="M836 1638v-2035h-648v2035h648zM678 1501h-336v-65h133v-76h-135v-68h338v68h-135v76h135v65zM543 1239h-203v-211h338v70h-135v141zM475 1169v-71h-67v71h67zM678 973h-338v-68h135v-76h-135v-65h203v141h135v68zM678 850h-68v-133h-270v-70h338v203zM678 602h-203v-115
h68v48h67v-95h-202v162h-68v-229h338v229zM678 250h-338v-230h338v230zM610 182v-94h-202v94h202zM678 -27h-338v-67h143l-143 -96v-66h338v66h-207l141 96h66v67z" />
    <glyph glyph-name=".null" horiz-adv-x="0" 
 />
    <glyph glyph-name="nonmarkingreturn" horiz-adv-x="682" 
 />
    <glyph glyph-name="space" unicode=" " horiz-adv-x="460" 
 />
    <glyph glyph-name="exclam" unicode="!" horiz-adv-x="481" 
d="M182 512l-20 981q0 23 10 33t33 10h114q23 0 33 -10t10 -33l-20 -981q0 -23 -10 -33t-33 -10h-74q-23 0 -33 10t-10 33zM262 -18q-56 0 -93.5 38t-37.5 93q0 53 38 90t93 37q52 0 89.5 -37t37.5 -90q0 -55 -37 -93t-90 -38z" />
    <glyph glyph-name="quotedbl" unicode="&#x22;" horiz-adv-x="577" 
d="M90 1100l-14 395q0 24 8.5 32.5t32.5 8.5h76q24 0 32.5 -8.5t7.5 -32.5l-12 -395q-2 -23 -9.5 -32t-29.5 -9h-53q-23 0 -31 9.5t-8 31.5zM358 1100l-14 395q0 24 8.5 32.5t32.5 8.5h76q24 0 33 -8.5t8 -32.5l-13 -395q0 -23 -8 -32t-30 -9h-54q-23 0 -31 9.5t-8 31.5z
" />
    <glyph glyph-name="numbersign" unicode="#" horiz-adv-x="1226" 
d="M1122 1079q23 0 33 -10t10 -33v-90q0 -23 -10 -33t-33 -10h-204l-48 -268h174q23 0 33 -10t10 -33v-92q0 -23 -10 -33t-33 -10h-206l-74 -418q-4 -23 -14 -31t-33 -8h-92q-48 0 -39 47l73 410h-202l-74 -418q-4 -23 -14 -31t-33 -8h-92q-48 0 -39 47l74 410h-175
q-23 0 -33 10t-10 33v92q0 23 10 33t33 10h205l47 268h-174q-23 0 -33 10t-10 33v90q0 23 10 33t33 10h207l74 418q4 23 14.5 31t34.5 8h92q46 0 37 -47l-74 -410h203l74 418q4 23 14.5 31t34.5 8h92q46 0 37 -47l-74 -410h174zM690 635l47 268h-200l-48 -268h201z" />
    <glyph glyph-name="dollar" unicode="$" horiz-adv-x="925" 
d="M854 358q0 -146 -86.5 -244t-214.5 -124v-90q0 -23 -10 -33t-33 -10h-59q-23 0 -33 10t-10 33v88q-135 22 -222.5 120.5t-93.5 235.5q0 18 5 27.5t22 9.5h110q32 0 35 -27q10 -85 66.5 -146t144.5 -61q83 0 137.5 55.5t57.5 143.5q2 62 -27.5 124.5t-77.5 117t-107.5 111
t-119 115.5t-108.5 119.5t-80 134.5t-31 151q0 129 80 221.5t209 109.5v86q0 23 10 33t33 10h59q23 0 33 -10t10 -33v-94q110 -28 175 -114.5t73 -200.5q0 -18 -5 -27.5t-22 -9.5h-110q-18 0 -26 6t-9 23q-14 75 -56.5 122.5t-107.5 47.5q-70 0 -116.5 -49.5t-43.5 -118.5
q2 -50 34 -104.5t80.5 -106.5t106.5 -108t116 -118t105.5 -126t77 -142t29.5 -158z" />
    <glyph glyph-name="percent" unicode="%" horiz-adv-x="1419" 
d="M369 997q-115 0 -197 81.5t-82 197.5q0 115 81.5 196.5t197.5 81.5q115 0 196.5 -81t81.5 -197t-81.5 -197.5t-196.5 -81.5zM1149 1536q18 0 26 -10t-1 -33l-760 -1450q-13 -25 -23.5 -34t-32.5 -9h-90q-18 0 -25.5 10t1.5 33l762 1450q13 26 23 34.5t32 8.5h88z
M369 1126q61 0 105 44t44 106q0 60 -44 103.5t-105 43.5t-105.5 -43.5t-44.5 -103.5q0 -62 44.5 -106t105.5 -44zM1051 -18q-116 0 -197.5 81.5t-81.5 196.5q0 116 82 197.5t197 81.5t196.5 -81.5t81.5 -197.5t-81.5 -197t-196.5 -81zM1051 113q61 0 105 43.5t44 103.5
q0 62 -44 106t-105 44t-105.5 -44t-44.5 -106q0 -60 44.5 -103.5t105.5 -43.5z" />
    <glyph glyph-name="ampersand" unicode="&#x26;" horiz-adv-x="968" 
d="M864 801q23 0 33 -10t10 -33v-66q0 -23 -10 -33t-33 -10h-78q-23 0 -30.5 -8t-7.5 -31v-278q0 -76 -18.5 -137t-49.5 -100t-72.5 -65t-85.5 -37t-92 -11q-64 0 -120 20t-103 62t-74 115.5t-27 170.5v191q0 179 111 268q-111 89 -111 268v109q0 97 27 170.5t73.5 115.5
t102 62t119.5 20q114 0 198 -64t97 -181q4 -37 -27 -37h-98q-27 0 -35 24q-14 40 -48 66.5t-79 26.5q-61 0 -105 -43.5t-44 -133.5v-139q0 -90 44 -134t105 -44q23 0 33 -10t10 -33v-84q0 -23 -10 -33t-33 -10q-61 0 -105 -44t-44 -134v-223q0 -89 45 -133t106 -44
q63 0 108.5 43.5t45.5 133.5v434q0 23 10 33t33 10h229z" />
    <glyph glyph-name="quotesingle" unicode="'" horiz-adv-x="309" 
d="M90 1100l-14 395q0 24 8.5 32.5t32.5 8.5h76q24 0 32.5 -8.5t7.5 -32.5l-12 -395q-2 -23 -9.5 -32t-29.5 -9h-53q-23 0 -31 9.5t-8 31.5z" />
    <glyph glyph-name="parenleft" unicode="(" horiz-adv-x="653" 
d="M373 1366v-1329q0 -69 40 -110t101 -44q24 -2 33.5 -11t9.5 -32v-73q0 -23 -10 -33t-33 -10q-150 0 -235.5 82t-85.5 229v1333q0 147 85.5 229t235.5 82q23 0 33 -10t10 -33v-73q0 -23 -9.5 -32t-33.5 -11q-61 -2 -101 -43t-40 -111z" />
    <glyph glyph-name="parenright" unicode=")" horiz-adv-x="653" 
d="M281 1368q0 71 -40.5 112t-101.5 44q-23 0 -33 10t-10 33v71q0 23 10 33t33 10q150 2 236 -80.5t86 -228.5v-1337q0 -147 -86 -229t-236 -82q-23 0 -33 10t-10 33v73q0 23 9.5 32t33.5 11q61 3 101.5 44t40.5 110v1331z" />
    <glyph glyph-name="asterisk" unicode="*" horiz-adv-x="856" 
d="M743 1122q35 -21 17 -47l-51 -74q-21 -31 -52 -6l-165 123l14 -207q3 -43 -37 -43h-82q-40 0 -37 43l15 207l-166 -123q-31 -25 -52 6l-51 74q-18 28 19 47l186 107l-186 106q-37 19 -19 49l51 72q21 31 52 6l166 -123l-15 207q-3 43 37 43h82q40 0 37 -43l-14 -207
l165 123q31 25 52 -6l51 -72q17 -29 -17 -49l-188 -106z" />
    <glyph glyph-name="plus" unicode="+" horiz-adv-x="1085" 
d="M952 811q23 0 33 -10t10 -33v-57q0 -23 -10 -33t-33 -10h-299q-23 0 -31 -8t-8 -31v-299q0 -23 -10 -33t-33 -10h-57q-23 0 -33 10t-10 33v299q0 23 -8 31t-31 8h-299q-23 0 -33 10t-10 33v57q0 23 10 33t33 10h299q23 0 31 8t8 31v297q0 23 10 33t33 10h57q23 0 33 -10
t10 -33v-297q0 -23 8 -31t31 -8h299z" />
    <glyph glyph-name="comma" unicode="," horiz-adv-x="468" 
d="M213 -25q-4 4 -34 27t-43 45t-13 55q0 51 36.5 87t88.5 36q63 0 103 -47t44.5 -120.5t-26.5 -163.5q-45 -121 -131 -207q-25 -25 -48 -4l-32 26q-19 17 -2 41q29 41 48 73t30 62.5t6 53.5t-27 36z" />
    <glyph glyph-name="hyphen" unicode="-" horiz-adv-x="700" 
d="M567 664q23 0 33 -10t10 -33v-58q0 -23 -10 -33t-33 -10h-434q-23 0 -33 10t-10 33v58q0 23 10 33t33 10h434z" />
    <glyph glyph-name="period" unicode="." horiz-adv-x="481" 
d="M262 -18q-56 0 -93.5 38t-37.5 93q0 53 38 90t93 37q54 0 91.5 -37t37.5 -90q0 -55 -37.5 -93t-91.5 -38z" />
    <glyph glyph-name="slash" unicode="/" horiz-adv-x="972" 
d="M842 1597q38 0 24 -43l-579 -1749q-8 -23 -20.5 -33t-35.5 -10h-100q-17 0 -24.5 10.5t-0.5 32.5l580 1749q8 24 20 33.5t35 9.5h101z" />
    <glyph glyph-name="zero" unicode="0" 
d="M471 -18q-172 0 -268.5 113t-96.5 315v716q0 202 96.5 315t268.5 113t268.5 -113t96.5 -315v-716q0 -202 -96.5 -315t-268.5 -113zM471 156q80 0 129 66.5t49 187.5v716q0 120 -49 187t-129 67t-129 -67t-49 -187v-716q0 -121 49 -187.5t129 -66.5z" />
    <glyph glyph-name="one" unicode="1" horiz-adv-x="665" 
d="M471 1536q23 0 33 -10t10 -33v-1450q0 -23 -10 -33t-33 -10h-98q-23 0 -33 10t-10 33v1210l-152 -153q-17 -17 -30.5 -17t-30.5 17l-64 65q-18 18 -18 30.5t18 31.5l283 282q17 17 26 22t23 5h86z" />
    <glyph glyph-name="two" unicode="2" horiz-adv-x="802" 
d="M125 0q-24 0 -33.5 9.5t-9.5 33.5v225q0 114 24 212.5t62.5 169.5t85 132.5t95 112.5t89.5 98.5t70 101t35 109.5q10 87 -33 139t-111 52q-48 0 -83.5 -28.5t-47.5 -72.5q-5 -24 -35 -24h-98q-30 0 -26 37q6 115 90 181t204 66q146 0 237 -97.5t79 -256.5
q-6 -74 -34.5 -141.5t-70 -121t-90 -107t-95.5 -110t-86 -118.5t-63 -144t-24 -175v-80q0 -24 7.5 -31.5t31.5 -7.5h367q23 0 33 -10t10 -33v-78q0 -23 -10 -33t-33 -10h-537z" />
    <glyph glyph-name="three" unicode="3" horiz-adv-x="829" 
d="M401 -18q-114 0 -198 64t-97 181q-4 37 27 37h98q27 0 35 -24q14 -41 48 -67t81 -26q61 0 105.5 43.5t44.5 133.5v223q0 90 -44.5 134t-105.5 44h-82q-23 0 -33 10t-10 33v84q0 23 10 33t33 10h82q61 0 105.5 44t44.5 134v139q0 90 -44.5 133.5t-105.5 43.5
q-47 0 -80 -26t-49 -69q-5 -24 -35 -24h-98q-31 0 -27 37q13 118 97 182.5t198 64.5q64 0 120 -20t102 -62t73 -115.5t27 -170.5v-109q0 -176 -109 -268q109 -92 109 -268v-191q0 -97 -27 -170.5t-73 -115.5t-102 -62t-120 -20z" />
    <glyph glyph-name="four" unicode="4" horiz-adv-x="808" 
d="M705 573q23 0 33 -10t10 -33v-77q0 -23 -10 -33t-33 -10h-21q-23 0 -31 -8t-8 -31v-328q0 -23 -10 -33t-33 -10h-100q-23 0 -33 10t-10 33v328q0 23 -8 31t-31 8h-357q-23 0 -33 10t-10 33v69q0 8 1 15.5t3 14.5t4 11.5t5.5 13t5.5 13.5l424 919q11 27 49 27h90
q23 0 33 -10t10 -33v-881q0 -23 8 -31t31 -8h21zM459 612v562l-246 -601h207q23 0 31 8t8 31z" />
    <glyph glyph-name="five" unicode="5" horiz-adv-x="831" 
d="M440 1053q52 2 100.5 -17t91 -59.5t68 -114t25.5 -170.5v-342q0 -97 -27 -170.5t-73.5 -115.5t-102 -62t-119.5 -20q-114 0 -197.5 64t-96.5 181q-4 37 26 37h98q27 0 35 -24q14 -41 47 -67t80 -26q61 0 105.5 43.5t44.5 133.5v397q0 89 -44 131.5t-104 42.5
q-95 0 -133 -100q-9 -23 -35 -23h-79q-23 0 -33.5 10t-10.5 33v678q0 23 10.5 33t33.5 10h505q23 0 33 -10t10 -33v-78q0 -23 -10 -33t-33 -10h-344q-23 0 -31 -8t-8 -31v-364q68 79 168 84z" />
    <glyph glyph-name="six" unicode="6" horiz-adv-x="862" 
d="M457 965q53 5 104 -12.5t95.5 -56t72 -109.5t27.5 -164v-273q0 -96 -28.5 -169.5t-76.5 -115.5t-104 -62.5t-117 -20.5t-116 20.5t-103 62.5t-76.5 115.5t-28.5 169.5v836q0 97 27 170.5t73.5 115.5t102 62t119.5 20q114 0 198 -64t97 -181q4 -37 -27 -37h-98
q-27 0 -35 24q-14 40 -48 66.5t-79 26.5q-61 0 -105 -43.5t-44 -133.5v-333q67 78 170 86zM575 330v288q0 94 -42.5 138.5t-102.5 44.5q-58 0 -100.5 -45t-42.5 -138v-288q0 -93 42.5 -138t100.5 -45q60 0 102.5 44.5t42.5 138.5z" />
    <glyph glyph-name="seven" unicode="7" horiz-adv-x="694" 
d="M590 1536q23 0 33 -10t10 -33v-68q0 -11 -8 -67l-271 -1315q-4 -24 -16.5 -33.5t-36.5 -9.5h-106q-35 0 -27 43l264 1305q7 24 -14 24h-342q-23 0 -33 10t-10 33v78q0 23 10 33t33 10h514z" />
    <glyph glyph-name="eight" unicode="8" horiz-adv-x="864" 
d="M432 -18q-66 0 -122.5 20t-103 60.5t-73.5 111.5t-27 164v190q0 179 121 285q-114 96 -114 277v108q0 93 26.5 164t72.5 111.5t101.5 60.5t118.5 20t118.5 -20t101.5 -60.5t73 -111.5t27 -164v-108q0 -180 -115 -277q121 -106 121 -285v-190q0 -93 -27 -164t-73.5 -111.5
t-103 -60.5t-122.5 -20zM432 899q60 0 104 44t44 132v139q0 88 -44.5 133.5t-103.5 45.5q-59 -2 -102 -46.5t-43 -132.5v-139q0 -88 43 -132t102 -44zM432 147q60 0 104 44.5t44 132.5v223q0 91 -44 135.5t-104 44.5q-59 0 -102 -44.5t-43 -135.5v-223q0 -88 43 -132.5
t102 -44.5z" />
    <glyph glyph-name="nine" unicode="9" horiz-adv-x="862" 
d="M406 594q-53 -5 -104 12t-96 55.5t-72.5 109.5t-27.5 165v250q0 96 28.5 169.5t76.5 115.5t103 62.5t116 20.5t117 -20.5t104 -62.5t76.5 -115.5t28.5 -169.5v-836q0 -97 -27 -170.5t-73.5 -115.5t-102 -62t-119.5 -20q-114 0 -198 64t-97 181q-4 37 27 37h98
q27 0 35 -24q13 -40 46.5 -66.5t80.5 -26.5q61 0 105 43.5t44 133.5v356q-67 -78 -169 -86zM287 1206v-266q0 -95 42 -139.5t101 -44.5q60 0 102.5 44.5t42.5 139.5v266q0 94 -42.5 138.5t-102.5 44.5q-58 0 -100.5 -45t-42.5 -138z" />
    <glyph glyph-name="colon" unicode=":" horiz-adv-x="481" 
d="M262 621q-55 0 -93 37.5t-38 91.5t38 91.5t93 37.5q53 0 90 -37.5t37 -91.5t-37 -91.5t-90 -37.5zM262 -18q-56 0 -93.5 38t-37.5 93q0 53 38 90t93 37q52 0 89.5 -37t37.5 -90q0 -55 -37 -93t-90 -38z" />
    <glyph glyph-name="semicolon" unicode=";" horiz-adv-x="475" 
d="M256 621q-55 0 -93 37.5t-38 91.5t38 91.5t93 37.5q53 0 90 -37.5t37 -91.5t-37 -91.5t-90 -37.5zM215 -25q-4 4 -34 27t-43 45t-13 55q0 51 36.5 87t90.5 36q63 0 102.5 -47t43.5 -120.5t-27 -163.5q-45 -121 -131 -207q-23 -25 -47 -4l-31 26q-20 15 -2 41
q30 41 48.5 73t29.5 62.5t5.5 53.5t-28.5 36z" />
    <glyph glyph-name="less" unicode="&#x3c;" horiz-adv-x="772" 
d="M653 662l-309 -218q-9 -6 -9 -16t9 -16l309 -219q20 -14 24.5 -25t4.5 -37v-111q0 -15 -10 -19.5t-29 7.5l-537 389q-17 11 -17 30.5t17 31.5l537 387q19 12 29 7.5t10 -19.5v-111q0 -26 -4.5 -36.5t-24.5 -24.5z" />
    <glyph glyph-name="equal" unicode="=" horiz-adv-x="878" 
d="M745 1016q23 0 33 -10t10 -33v-58q0 -23 -10 -33t-33 -10h-612q-23 0 -33 10t-10 33v58q0 23 10 33t33 10h612zM745 606q23 0 33 -10t10 -33v-57q0 -23 -10 -33t-33 -10h-612q-23 0 -33 10t-10 33v57q0 23 10 33t33 10h612z" />
    <glyph glyph-name="greater" unicode="&#x3e;" horiz-adv-x="774" 
d="M119 662q-19 14 -24 25t-5 36v111q0 15 10 19.5t29 -7.5l539 -387q15 -12 15 -32t-15 -30l-539 -389q-19 -12 -29 -7.5t-10 19.5v111q0 25 5 36.5t24 25.5l311 219q9 6 9 16t-9 16z" />
    <glyph glyph-name="question" unicode="?" horiz-adv-x="917" 
d="M442 1556q160 0 272.5 -105.5t112.5 -268.5q0 -81 -32.5 -155.5t-79 -132.5t-93.5 -114t-80.5 -123t-35.5 -137q0 -23 -10 -33t-33 -10h-66q-23 0 -33 10t-10 33q0 69 16 130.5t42 108t57 88.5t62.5 80t57.5 74t42 78t16 86q0 92 -63 154.5t-154 62.5q-100 0 -180 -84
q-19 -20 -32 -22.5t-32 12.5l-59 58q-17 17 -16 29.5t16 31.5q52 62 132 105.5t183 43.5zM432 -18q-54 0 -91.5 37.5t-37.5 91.5t37.5 91.5t91.5 37.5t91.5 -37.5t37.5 -91.5t-37.5 -91.5t-91.5 -37.5z" />
    <glyph glyph-name="at" unicode="@" horiz-adv-x="2347" 
d="M1178 1552q200 0 379.5 -78t308 -209.5t205.5 -311.5t81 -378q4 -152 -27 -295.5t-89 -255.5t-147.5 -181.5t-196.5 -73.5q-145 -7 -230.5 76.5t-85.5 215.5v109q-111 -86 -235 -88q-181 -10 -305 114.5t-127 319.5q-2 198 123 329.5t321 131.5q119 0 223 -51v12
q0 41 43 41h70q23 0 33 -10t10 -33v-860q0 -83 44 -126t112 -40q74 3 136 66t100 160.5t57.5 211t17.5 221.5q-4 174 -68 328.5t-171.5 266t-259 176.5t-322.5 65q-230 0 -422 -112t-302 -304t-110 -420q0 -172 65 -326t175.5 -265.5t264.5 -176.5t325 -65q23 0 33 -10
t10 -33v-64q0 -23 -10 -33t-33 -10q-200 0 -382 78t-313 209.5t-208.5 313.5t-77.5 382q0 133 35 260.5t98.5 235t154 198.5t198.5 154.5t236 99t263 35.5zM1155 233q126 0 221 84v451q-104 51 -207 51q-130 0 -211 -83t-81 -214q0 -129 78.5 -209t199.5 -80z" />
    <glyph glyph-name="A" unicode="A" horiz-adv-x="933" 
d="M57 41l316 1454q6 25 17.5 33t37.5 8h78q26 0 37.5 -8t17.5 -33l316 -1454q8 -41 -31 -41h-107q-20 0 -30.5 9t-14.5 32l-57 274q-4 18 -12 23.5t-29 5.5h-258q-21 0 -29 -5.5t-12 -23.5l-57 -274q-4 -23 -14.5 -32t-30.5 -9h-107q-39 0 -31 41zM336 530q-3 -22 16 -22
h230q19 0 16 22l-119 607q-3 11 -13 11t-11 -11z" />
    <glyph glyph-name="B" unicode="B" horiz-adv-x="915" 
d="M160 0q-23 0 -33 10t-10 33v1450q0 23 10 33t33 10h297q167 0 263.5 -101.5t96.5 -281.5v-43q0 -63 -15.5 -117.5t-41 -90.5t-48.5 -58.5t-48 -38.5q85 -33 131.5 -126t46.5 -224v-62q0 -187 -98 -290t-273 -103h-311zM342 883h96q89 0 143 55.5t54 165.5v47
q0 110 -53.5 165.5t-143.5 55.5h-96q-23 0 -31 -8.5t-8 -34.5v-407q0 -23 8 -31t31 -8zM342 164h109q95 0 150.5 59t55.5 180v76q0 122 -55 181t-151 59h-109q-23 0 -31 -8t-8 -31v-477q0 -23 8 -31t31 -8z" />
    <glyph glyph-name="C" unicode="C" horiz-adv-x="927" 
d="M471 -18q-172 0 -268.5 113t-96.5 315v716q0 202 96.5 315t268.5 113q157 0 248 -91.5t102 -241.5q0 -12 -1 -18.5t-7 -12.5t-18 -6h-115q-18 0 -26 5.5t-9 22.5q-14 75 -59 121.5t-113 46.5q-81 0 -130.5 -67t-49.5 -187v-716q0 -120 49.5 -187t130.5 -67q68 0 113 46.5
t59 121.5q1 17 9 22.5t26 5.5h115q17 0 21.5 -9.5t4.5 -27.5q-11 -150 -102 -241.5t-248 -91.5z" />
    <glyph glyph-name="D" unicode="D" horiz-adv-x="958" 
d="M453 1536q198 0 298.5 -112.5t100.5 -329.5v-652q0 -217 -100.5 -329.5t-298.5 -112.5h-293q-23 0 -33 10t-10 33v1450q0 23 10 33t33 10h293zM668 432v672q0 268 -222 268h-104q-23 0 -31 -8t-8 -31v-1130q0 -23 8 -31t31 -8h104q222 0 222 268z" />
    <glyph glyph-name="E" unicode="E" horiz-adv-x="790" 
d="M303 1333v-420q0 -23 8 -31t31 -8h299q23 0 33 -10t10 -33v-77q0 -23 -10 -33t-33 -10h-299q-23 0 -31 -8t-8 -31v-469q0 -23 8 -31t31 -8h299q23 0 33 -10t10 -33v-78q0 -23 -10 -33t-33 -10h-481q-23 0 -33 10t-10 33v1450q0 23 10 33t33 10h481q23 0 33 -10t10 -33
v-78q0 -23 -10 -33t-33 -10h-299q-23 0 -31 -8t-8 -31z" />
    <glyph glyph-name="F" unicode="F" horiz-adv-x="747" 
d="M643 1536q23 0 33 -10t10 -33v-78q0 -23 -10 -33t-33 -10h-301q-23 0 -31 -8t-8 -31v-420q0 -23 8 -31t31 -8h199q23 0 33 -10t10 -33v-77q0 -23 -10 -33t-33 -10h-199q-23 0 -31 -8t-8 -31v-629q0 -23 -10 -33t-33 -10h-100q-23 0 -33 10t-10 33v1450q0 23 10 33t33 10
h483z" />
    <glyph glyph-name="G" unicode="G" horiz-adv-x="935" 
d="M788 868q23 0 32 -9t9 -32v-452q0 -182 -95.5 -287.5t-262.5 -105.5q-172 0 -268.5 113t-96.5 315v716q0 202 96.5 315t268.5 113q157 0 249 -92t101 -241q4 -37 -26 -37h-117q-18 0 -25 5.5t-10 22.5q-12 75 -57 121.5t-113 46.5q-81 0 -130.5 -67t-49.5 -187v-716
q0 -120 50 -187t130 -67q76 0 127 59t51 168v293q0 28 -6.5 34.5t-34.5 6.5h-102q-23 0 -32 9t-9 32v69q0 23 9 32t32 9h280z" />
    <glyph glyph-name="H" unicode="H" horiz-adv-x="958" 
d="M799 1536q23 0 33 -10t10 -33v-1450q0 -23 -10 -33t-33 -10h-101q-23 0 -33 10t-10 33v629q0 23 -8 31t-31 8h-274q-23 0 -31 -8t-8 -31v-629q0 -23 -10 -33t-33 -10h-100q-23 0 -33 10t-10 33v1450q0 23 10 33t33 10h100q23 0 33 -10t10 -33v-580q0 -23 8 -31t31 -8h274
q23 0 31 8t8 31v580q0 23 10 33t33 10h101z" />
    <glyph glyph-name="I" unicode="I" horiz-adv-x="419" 
d="M117 43v1450q0 23 10 33t33 10h100q23 0 33 -10t10 -33v-1450q0 -23 -10 -33t-33 -10h-100q-23 0 -33 10t-10 33z" />
    <glyph glyph-name="J" unicode="J" horiz-adv-x="552" 
d="M104 0q-23 0 -33 10t-10 33v84q0 23 10 33t33 10h31q125 0 125 137v1186q0 23 10 33t33 10h100q23 0 33 -10t10 -33v-1200q0 -141 -81 -217t-218 -76h-43z" />
    <glyph glyph-name="K" unicode="K" horiz-adv-x="899" 
d="M537 834l327 -799q6 -12 2 -23.5t-18 -11.5h-129q-38 0 -47 25l-264 637q-4 10 -13.5 10t-15.5 -10l-55 -111q-21 -41 -21 -78v-430q0 -23 -10 -33t-33 -10h-100q-23 0 -33 10t-10 33v1450q0 23 10 33t33 10h100q23 0 33 -10t10 -33v-633q0 -7 4.5 -10t10 -1.5t8.5 7.5
l325 655q10 25 47 25h127q16 0 20 -11t-3 -24l-305 -622q-9 -21 0 -45z" />
    <glyph glyph-name="L" unicode="L" horiz-adv-x="720" 
d="M639 164q23 0 33 -10t10 -33v-78q0 -23 -10 -33t-33 -10h-479q-23 0 -33 10t-10 33v1450q0 23 10 33t33 10h100q23 0 33 -10t10 -33v-1290q0 -23 8 -31t31 -8h297z" />
    <glyph glyph-name="M" unicode="M" horiz-adv-x="1218" 
d="M160 0q-23 0 -33 10t-10 33v1450q0 23 10 33t33 10h73q37 0 48 -43l315 -1124q3 -9 12.5 -9t12.5 9l315 1124q5 14 9 22t13.5 14.5t24.5 6.5h76q23 0 33 -10t10 -33v-1450q0 -23 -10 -33t-33 -10h-101q-23 0 -33 10t-10 33v817q0 8 -5 12t-11 1t-8 -11l-223 -821
q-6 -24 -17.5 -32.5t-36.5 -8.5h-12q-25 0 -36 8.5t-17 32.5l-221 821q-3 9 -9 11.5t-11 -1.5t-5 -12v-817q0 -23 -10 -33t-33 -10h-100z" />
    <glyph glyph-name="N" unicode="N" horiz-adv-x="1007" 
d="M848 1536q23 0 33 -10t10 -33v-1450q0 -23 -10 -33t-33 -10h-76q-23 0 -34.5 9t-22.5 34l-389 985q-4 10 -13.5 9.5t-9.5 -11.5v-983q0 -23 -10 -33t-33 -10h-100q-23 0 -33 10t-10 33v1450q0 23 10 33t33 10h76q24 0 36 -9t21 -34l391 -985q4 -10 13.5 -9.5t9.5 11.5
v983q0 23 10 33t33 10h98z" />
    <glyph glyph-name="O" unicode="O" 
d="M471 -18q-172 0 -268.5 113t-96.5 315v716q0 202 96.5 315t268.5 113t268.5 -113t96.5 -315v-716q0 -202 -96.5 -315t-268.5 -113zM471 156q80 0 129 66.5t49 187.5v716q0 120 -49 187t-129 67t-129 -67t-49 -187v-716q0 -121 49 -187.5t129 -66.5z" />
    <glyph glyph-name="P" unicode="P" horiz-adv-x="870" 
d="M160 0q-23 0 -33 10t-10 33v1450q0 23 10 33t33 10h297q157 0 254.5 -107t97.5 -296v-160q0 -188 -97.5 -296t-254.5 -108h-115q-23 0 -31 -8t-8 -31v-487q0 -23 -10 -33t-33 -10h-100zM342 739h102q76 0 128.5 59.5t52.5 174.5v166q0 115 -52.5 174t-128.5 59h-102
q-23 0 -31 -8t-8 -31v-555q0 -23 8 -31t31 -8z" />
    <glyph glyph-name="Q" unicode="Q" 
d="M836 410q0 -253 -148 -363l137 -231q10 -19 4 -30t-22 -11h-117q-34 0 -51 28l-109 183q-36 -4 -59 -4q-172 0 -268.5 113t-96.5 315v716q0 202 96.5 315t268.5 113t268.5 -113t96.5 -315v-716zM293 410q0 -121 49 -187.5t129 -66.5t129 66.5t49 187.5v716q0 120 -49 187
t-129 67t-129 -67t-49 -187v-716z" />
    <glyph glyph-name="R" unicode="R" horiz-adv-x="915" 
d="M866 41q7 -19 1 -30t-21 -11h-121q-35 0 -47 29l-221 573h-115q-23 0 -31 -8t-8 -31v-520q0 -23 -10 -33t-33 -10h-100q-23 0 -33 10t-10 33v1450q0 23 10 33t33 10h297q157 0 254.5 -107t97.5 -296v-129q0 -130 -47.5 -223t-132.5 -138zM303 811q0 -23 8 -31t31 -8h102
q76 0 128.5 59t52.5 173v135q0 115 -52.5 174t-128.5 59h-102q-23 0 -31 -8t-8 -31v-522z" />
    <glyph glyph-name="S" unicode="S" horiz-adv-x="946" 
d="M854 358q0 -86 -32.5 -158t-86 -119t-121.5 -73t-141 -26q-159 0 -267 103.5t-114 258.5q0 18 5 27.5t22 9.5h110q32 0 35 -27q10 -85 66.5 -146t144.5 -61q83 0 137.5 55.5t57.5 143.5q2 62 -27.5 124.5t-77.5 117t-107.5 111t-119 115.5t-108.5 119.5t-80 134.5
t-31 151q0 143 95.5 239t244.5 96q148 0 240.5 -94.5t101.5 -232.5q0 -18 -5 -27.5t-22 -9.5h-110q-18 0 -26 6t-9 23q-14 75 -56.5 122.5t-107.5 47.5q-70 0 -116.5 -49.5t-43.5 -118.5q2 -50 34 -104.5t80.5 -106.5t106.5 -108t116 -118t105.5 -126t77 -142t29.5 -158z
" />
    <glyph glyph-name="T" unicode="T" horiz-adv-x="823" 
d="M719 1536q23 0 33 -10t10 -33v-78q0 -23 -10 -33t-33 -10h-176q-23 0 -31 -8t-8 -31v-1290q0 -23 -10 -33t-33 -10h-99q-23 0 -33 10t-10 33v1290q0 23 -7.5 31t-30.5 8h-177q-23 0 -33 10t-10 33v78q0 23 10 33t33 10h615z" />
    <glyph glyph-name="U" unicode="U" 
d="M793 1536q23 0 33 -10t10 -33v-692v-391q0 -202 -96.5 -315t-268.5 -113t-268.5 113t-96.5 315v557v526q0 23 10.5 33t33.5 10h100q23 0 33 -10t10 -33v-672v-411q0 -121 49 -187.5t129 -66.5t129 66.5t49 187.5v548v535q0 23 10 33t33 10h101z" />
    <glyph glyph-name="V" unicode="V" horiz-adv-x="968" 
d="M739 1495q8 41 49 41h109q40 0 29 -41l-351 -1454q-6 -25 -16.5 -33t-36.5 -8h-78q-26 0 -36.5 8t-16.5 33l-348 1454q-8 41 29 41h108q41 0 49 -41l242 -1087q3 -10 13 -10t12 10z" />
    <glyph glyph-name="W" unicode="W" horiz-adv-x="1388" 
d="M367 0q-26 0 -38 8t-16 33l-256 1454q-4 23 3 32t26 9h109q44 0 49 -41l157 -1022q1 -12 11.5 -12t13.5 12l188 1022q4 25 16 33t38 8h53q26 0 37.5 -8t15.5 -33l189 -1022q1 -12 12 -12t12 12l158 1022q5 41 49 41h106q20 0 26.5 -8.5t2.5 -32.5l-254 -1454
q-4 -25 -15.5 -33t-37.5 -8h-68q-26 0 -37.5 8t-15.5 33l-194 1044q-1 11 -12 11t-13 -11l-195 -1044q-4 -25 -15.5 -33t-37.5 -8h-67z" />
    <glyph glyph-name="X" unicode="X" horiz-adv-x="899" 
d="M672 41l-211 553q-3 9 -12.5 9t-12.5 -9l-209 -553q-9 -23 -21 -32t-32 -9h-117q-37 0 -22 41l299 737l-293 717q-7 19 -1 30t23 11h117q36 0 53 -41l203 -530q3 -9 12.5 -9t12.5 9l205 530q14 41 53 41h117q17 0 23 -11t-1 -30l-293 -717l299 -737q15 -41 -22 -41h-117
q-40 0 -53 41z" />
    <glyph glyph-name="Y" unicode="Y" horiz-adv-x="886" 
d="M799 1536q39 0 24 -41l-286 -831v-621q0 -23 -10 -33t-33 -10h-99q-23 0 -33 10t-10 33v621l-286 831q-15 41 24 41h109q40 0 53 -41l180 -561q3 -9 12.5 -9t12.5 9l180 561q7 24 19.5 32.5t33.5 8.5h109z" />
    <glyph glyph-name="Z" unicode="Z" horiz-adv-x="829" 
d="M735 1343l-456 -1155q-4 -10 -0.5 -17t14.5 -7h418q23 0 33 -10t10 -33v-78q0 -23 -10 -33t-33 -10h-592q-23 0 -33 10t-10 33v80q0 14 18 70l461 1155q10 24 -12 24h-424q-23 0 -33 10t-10 33v78q0 23 10 33t33 10h592q23 0 33 -10t10 -33v-82q0 -21 -19 -68z" />
    <glyph glyph-name="bracketleft" unicode="[" horiz-adv-x="755" 
d="M373 1571v-1856q0 -23 8 -31t31 -8h204q23 0 33 -10t10 -33v-82q0 -23 -10 -33t-33 -10h-380q-23 0 -33 10t-10 33v2182q0 23 10 33t33 10h380q23 0 33 -10t10 -33v-80q0 -23 -10 -33t-33 -10h-204q-23 0 -31 -8t-8 -31z" />
    <glyph glyph-name="backslash" unicode="\" horiz-adv-x="972" 
d="M131 1597h100q23 0 35.5 -10t20.5 -33l579 -1749q14 -43 -24 -43h-101q-23 0 -35 9.5t-20 33.5l-580 1749q-7 22 0.5 32.5t24.5 10.5z" />
    <glyph glyph-name="bracketright" unicode="]" horiz-adv-x="755" 
d="M383 1571q0 23 -8 31t-31 8h-205q-23 0 -33 10t-10 33v80q0 23 10 33t33 10h381q23 0 33 -10t10 -33v-2182q0 -23 -10 -33t-33 -10h-381q-23 0 -33 10t-10 33v82q0 23 10 33t33 10h205q23 0 31 8t8 31v1856z" />
    <glyph glyph-name="asciicircum" unicode="^" horiz-adv-x="1007" 
d="M723 924l-203 348q-6 10 -16.5 10t-16.5 -10l-204 -348q-11 -19 -23.5 -24t-38.5 -5h-110q-14 0 -18.5 10t5.5 29l375 606q11 17 31.5 17t30.5 -17l372 -606q11 -19 7 -29t-19 -10h-111q-26 0 -38 5t-23 24z" />
    <glyph glyph-name="underscore" unicode="_" horiz-adv-x="960" 
d="M827 -18q23 0 33 -10t10 -33v-60q0 -23 -10 -33t-33 -10h-694q-23 0 -33 10t-10 33v60q0 23 10 33t33 10h694z" />
    <glyph glyph-name="grave" unicode="`" horiz-adv-x="604" 
d="M483 1360q31 -31 0 -62l-45 -45q-30 -31 -61 0l-258 244q-17 17 -17 29.5t17 29.5l43 48q18 16 30.5 16.5t30.5 -16.5z" />
    <glyph glyph-name="a" unicode="a" horiz-adv-x="845" 
d="M397 -14q-56 -7 -109 10t-96.5 55.5t-70.5 106t-27 153.5q0 83 24 145.5t62 102t102.5 68t127 43t153.5 28.5v58q0 83 -43 125.5t-104 42.5q-53 0 -87.5 -29.5t-47.5 -75.5q-5 -24 -35 -24h-92q-31 0 -27 36q6 115 90.5 180.5t206.5 65.5q60 0 114 -19.5t99 -60
t71.5 -111t26.5 -163.5l2 -520q0 -65 19 -162q8 -41 -41 -41h-84q-25 0 -34.5 15t-16.5 71q-32 -45 -80.5 -71t-102.5 -29zM420 141q60 3 101.5 51t41.5 132v258q-56 -10 -93.5 -19.5t-74 -24t-58.5 -32.5t-39.5 -44.5t-24.5 -62t-7 -82.5q1 -90 47.5 -134.5t106.5 -41.5z
" />
    <glyph glyph-name="b" unicode="b" horiz-adv-x="860" 
d="M459 1073q55 7 108 -10.5t96.5 -56t70 -106t26.5 -152.5v-220v-217q0 -85 -26.5 -152.5t-70 -106t-96.5 -56t-108 -10.5q-107 16 -185 116l-12 -57q-5 -25 -14 -35t-31 -10h-63q-23 0 -33 10t-10 33v1450q0 23 10 33t33 10h88q23 0 33 -10t10 -33v-522q78 89 174 102z
M586 735q0 95 -47 140.5t-109 42.5q-60 -2 -102.5 -49.5t-42.5 -133.5v-411q0 -85 42.5 -133t102.5 -50q61 -3 108.5 43t47.5 140v411z" />
    <glyph glyph-name="c" unicode="c" horiz-adv-x="815" 
d="M688 264q31 0 27 -37q-10 -79 -53.5 -135.5t-106 -83t-135.5 -26.5q-63 0 -118 20t-101.5 62t-73.5 115.5t-27 170.5v361q0 97 27 170t73.5 114.5t101.5 61.5t118 20q114 0 198 -64.5t97 -181.5q4 -36 -27 -36h-96q-27 0 -35 24q-15 43 -48.5 71t-84.5 28
q-61 0 -105.5 -43.5t-44.5 -133.5v-424q0 -89 44.5 -132.5t105.5 -43.5q51 0 85.5 28.5t47.5 70.5q8 24 35 24h96z" />
    <glyph glyph-name="d" unicode="d" horiz-adv-x="860" 
d="M707 1536q23 0 33 -10t10 -33v-1450q0 -23 -10 -33t-33 -10h-64q-22 0 -31 10t-14 35l-12 57q-78 -100 -185 -116q-55 -7 -108 10.5t-96.5 56t-70 106t-26.5 152.5v219v218q0 85 26.5 152.5t70 106t96.5 56t108 10.5q96 -13 174 -102v522q0 23 10 33t33 10h89zM430 141
q60 2 102.5 50t42.5 133v411q0 86 -42.5 133.5t-102.5 49.5q-62 3 -109 -42.5t-47 -140.5v-207v-204q0 -94 47.5 -140t108.5 -43z" />
    <glyph glyph-name="e" unicode="e" horiz-adv-x="841" 
d="M424 1077q60 0 113 -19t100 -59.5t74.5 -114.5t27.5 -173v-39q0 -33 -4 -111q-2 -24 -11 -33.5t-32 -9.5h-399q-12 0 -16.5 -4t-4.5 -16v-181q0 -90 44.5 -133t107.5 -43q50 0 84 28t49 71q8 24 35 24h98q31 0 27 -37q-13 -117 -96.5 -181t-196.5 -64q-63 0 -118 20.5
t-102.5 63.5t-75.5 120.5t-28 180.5v325q0 103 28 180.5t75.5 120.5t102.5 63.5t118 20.5zM582 741q0 94 -47 138.5t-109 44.5q-60 0 -107 -44.5t-47 -138.5v-71q0 -12 4.5 -16.5t16.5 -4.5h268q12 0 16.5 4.5t4.5 16.5v71z" />
    <glyph glyph-name="f" unicode="f" horiz-adv-x="544" 
d="M199 0q-23 0 -33 10t-10 33v844q0 15 -6 20.5t-21 5.5h-39q-23 0 -33 10t-10 33v60q0 23 10 33t33 10h41q25 0 25 24v181q0 272 301 272q23 0 33 -10t10 -33v-68q0 -23 -10 -33t-33 -10q-131 0 -131 -118v-181q0 -13 5 -18.5t19 -5.5h107q23 0 33 -10t10 -33v-60
q0 -23 -10 -33t-33 -10h-103q-15 0 -20.5 -5.5t-5.5 -20.5v-844q0 -23 -10 -33t-33 -10h-86z" />
    <glyph glyph-name="g" unicode="g" horiz-adv-x="860" 
d="M707 1059q23 0 33 -10t10 -33v-1065q0 -97 -27 -170t-73.5 -114.5t-101.5 -62t-118 -20.5q-115 0 -201.5 64.5t-99.5 181.5q-4 37 27 37h102q27 0 35 -25q15 -44 47.5 -72t83.5 -28q62 0 106.5 44t44.5 134v168q-78 -89 -174 -102q-55 -7 -108 10.5t-96.5 56t-70 106
t-26.5 152.5v219v218q0 86 26.5 153t70.5 105.5t97 55.5t109 11q109 -14 183 -110l12 53q5 24 14 33.5t31 9.5h64zM430 141q60 2 102.5 49.5t42.5 133.5v411q0 85 -42.5 133t-102.5 50q-61 3 -108.5 -43t-47.5 -140v-207v-204q0 -95 47 -140.5t109 -42.5z" />
    <glyph glyph-name="h" unicode="h" horiz-adv-x="870" 
d="M459 1073q55 7 108 -10.5t96.5 -56t70 -106t26.5 -152.5v-705q0 -23 -10 -33t-33 -10h-88q-23 0 -33 10t-10 33v692q0 95 -47 140.5t-109 42.5q-60 -2 -102.5 -49.5t-42.5 -133.5v-692q0 -23 -10 -33t-33 -10h-88q-23 0 -33 10t-10 33v1450q0 23 10 33t33 10h88
q23 0 33 -10t10 -33v-522q78 89 174 102z" />
    <glyph glyph-name="i" unicode="i" horiz-adv-x="395" 
d="M199 1305q-50 0 -84.5 34.5t-34.5 83.5q0 48 35 82.5t84 34.5q47 0 81.5 -35t34.5 -82q0 -49 -34 -83.5t-82 -34.5zM242 1059q23 0 33 -10t10 -33v-973q0 -23 -10 -33t-33 -10h-88q-23 0 -33 10t-10 33v973q0 23 10 33t33 10h88z" />
    <glyph glyph-name="j" unicode="j" horiz-adv-x="395" 
d="M199 1305q-50 0 -84.5 34.5t-34.5 83.5q0 48 35 82.5t84 34.5q47 0 81.5 -35t34.5 -82q0 -49 -34 -83.5t-82 -34.5zM-16 -240q63 0 95 36.5t32 101.5v1118q0 23 10 33t33 10h88q23 0 33 -10t10 -33v-1118q0 -295 -301 -295q-23 0 -33 10t-10 33v71q0 23 10 33t33 10z" />
    <glyph glyph-name="k" unicode="k" horiz-adv-x="776" 
d="M754 37q7 -12 1.5 -24.5t-22.5 -12.5h-102q-38 0 -51 29l-197 379q-5 9 -15 9.5t-16 -9.5l-49 -89q-18 -35 -18 -67v-209q0 -23 -10 -33t-33 -10h-88q-23 0 -33 10t-10 33v846v604q0 23 10 33t33 10h88q23 0 33 -10t10 -33v-889q0 -11 9 -13.5t15 9.5l246 432
q15 27 51 27h105q17 0 21.5 -11.5t-3.5 -25.5l-233 -424q-11 -21 0 -45z" />
    <glyph glyph-name="l" unicode="l" horiz-adv-x="493" 
d="M406 154q24 -2 33.5 -11t9.5 -32v-68q0 -23 -10 -33t-33 -10q-153 0 -224 70.5t-71 228.5v1194q0 23 10 33t33 10h88q23 0 33 -10t10 -33v-1204q0 -132 121 -135z" />
    <glyph glyph-name="m" unicode="m" horiz-adv-x="1316" 
d="M911 1073q55 7 107 -10.5t94 -56.5t67 -106t25 -152v-705q0 -23 -10 -33t-33 -10h-86q-23 0 -33 10t-10 33v692q0 95 -44 140.5t-103 42.5q-60 -2 -100 -50t-40 -139v-686q0 -23 -10 -33t-33 -10h-88q-23 0 -33 10t-10 33v692q0 96 -43.5 141t-103.5 42q-59 -2 -99 -49.5
t-40 -133.5v-692q0 -23 -10 -33t-33 -10h-88q-23 0 -33 10t-10 33v973q0 23 10 33t33 10h63q22 0 31 -9.5t14 -33.5l12 -58q75 102 179 115q76 9 144.5 -26t107.5 -111q84 122 206 137z" />
    <glyph glyph-name="n" unicode="n" horiz-adv-x="870" 
d="M459 1073q55 7 108 -10.5t96.5 -56t70 -106t26.5 -152.5v-705q0 -23 -10 -33t-33 -10h-88q-23 0 -33 10t-10 33v692q0 95 -47 140.5t-109 42.5q-60 -2 -102.5 -49.5t-42.5 -133.5v-692q0 -23 -10 -33t-33 -10h-88q-23 0 -33 10t-10 33v973q0 23 10 33t33 10h63
q22 0 31 -9.5t14 -33.5l12 -58q79 102 185 115z" />
    <glyph glyph-name="o" unicode="o" horiz-adv-x="849" 
d="M424 -18q-61 0 -116 20.5t-103 62.5t-76.5 115.5t-28.5 169.5v361q0 96 28.5 169t76 114.5t103 62t116.5 20.5t117 -20.5t104 -62t76.5 -114.5t28.5 -169v-361q0 -96 -28.5 -169.5t-76.5 -115.5t-104 -62.5t-117 -20.5zM575 735q0 94 -45 138.5t-106 44.5
q-60 0 -105 -44.5t-45 -138.5v-411q0 -93 45.5 -138t104.5 -45q61 0 106 45t45 138v411z" />
    <glyph glyph-name="p" unicode="p" horiz-adv-x="860" 
d="M459 1073q55 7 108 -10.5t96.5 -56t70 -106t26.5 -152.5v-220v-217q0 -85 -26.5 -152.5t-70 -106t-96.5 -56t-108 -10.5q-96 13 -174 102v-442q0 -23 -10 -33t-33 -10h-88q-23 0 -33 10t-10 33v1370q0 23 10 33t33 10h63q22 0 31 -9.5t14 -33.5l12 -58q79 102 185 115z
M586 735q0 95 -47 140.5t-109 42.5q-60 -2 -102.5 -49.5t-42.5 -133.5v-411q0 -86 42.5 -133.5t102.5 -49.5q62 -3 109 42.5t47 140.5v411z" />
    <glyph glyph-name="q" unicode="q" horiz-adv-x="860" 
d="M707 1059q23 0 33 -10t10 -33v-1370q0 -23 -10 -33t-33 -10h-89q-23 0 -33 10t-10 33v442q-78 -89 -174 -102q-55 -7 -108 10.5t-96.5 56t-70 106t-26.5 152.5v219v218q0 85 26.5 152.5t70 106t96.5 56t108 10.5q106 -13 185 -115l12 58q5 24 14 33.5t31 9.5h64zM430 141
q60 2 102.5 49.5t42.5 133.5v411q0 86 -42.5 133.5t-102.5 49.5q-62 3 -109 -42.5t-47 -140.5v-207v-204q0 -95 47 -140.5t109 -42.5z" />
    <glyph glyph-name="r" unicode="r" horiz-adv-x="536" 
d="M467 1065q23 0 33 -10t10 -33v-94q0 -23 -10 -33t-33 -10q-81 0 -131.5 -45t-50.5 -135v-662q0 -23 -10 -33t-33 -10h-88q-23 0 -33 10t-10 33v973q0 23 10 33t33 10h63q22 0 31 -9.5t14 -33.5l10 -49q40 49 91.5 73.5t103.5 24.5z" />
    <glyph glyph-name="s" unicode="s" horiz-adv-x="755" 
d="M377 -18q-120 0 -200.5 66t-100.5 179q-8 37 26 37h103q27 0 35 -24q15 -47 49 -76t86 -29q57 0 96 33.5t39 93.5q0 41 -22 79t-58.5 68.5t-80.5 61.5t-89 64.5t-82 71t-61.5 88t-26.5 108.5q-3 118 80 196t203 78q108 0 188.5 -67.5t87.5 -178.5q4 -36 -26 -36h-95
q-26 0 -34 24q-11 42 -40 73.5t-77 31.5q-51 1 -83 -32t-34 -77q0 -35 23 -68.5t61 -63t83.5 -60.5t91 -68t83.5 -78t61 -96.5t23 -118.5q-1 -129 -91.5 -204.5t-217.5 -75.5z" />
    <glyph glyph-name="t" unicode="t" horiz-adv-x="544" 
d="M457 0q-153 0 -227 69t-74 220v598q0 15 -6 20.5t-21 5.5h-39q-23 0 -33 10t-10 33v60q0 23 10 33t33 10h45q15 0 21 5.5t6 20.5v148q0 43 43 43h78q43 0 43 -43v-148q0 -15 5.5 -20.5t20.5 -5.5h105q23 0 33 -10t10 -33v-60q0 -23 -10 -33t-33 -10h-103
q-15 0 -20.5 -5.5t-5.5 -20.5v-598q0 -135 129 -135q23 0 33 -10t10 -33v-68q0 -23 -10 -33t-33 -10z" />
    <glyph glyph-name="u" unicode="u" horiz-adv-x="870" 
d="M717 1059q23 0 33 -10t10 -33v-973q0 -23 -10 -33t-33 -10h-64q-22 0 -31 9.5t-14 33.5l-12 57q-78 -101 -184 -114q-55 -7 -108 10.5t-96.5 56t-70 106t-26.5 152.5v705q0 23 10 33t33 10h88q23 0 33 -10t10 -33v-692q0 -95 46.5 -140.5t108.5 -42.5q60 2 103 49.5
t43 133.5v692q0 23 10 33t33 10h88z" />
    <glyph glyph-name="v" unicode="v" horiz-adv-x="782" 
d="M590 1018q12 41 47 41h102q36 0 27 -41l-289 -977q-6 -24 -17 -32.5t-36 -8.5h-66q-25 0 -35 8t-18 33l-289 977q-12 41 27 41h102q36 0 48 -41l186 -701q3 -11 12 -11t12 11z" />
    <glyph glyph-name="w" unicode="w" horiz-adv-x="1150" 
d="M1102 1059q35 0 26 -41l-223 -977q-6 -24 -17 -32.5t-36 -8.5h-64q-25 0 -37 9t-16 32l-147 633q-3 10 -12.5 10t-12.5 -10l-145 -633q-4 -23 -16 -32t-37 -9h-64q-26 0 -37.5 8.5t-15.5 32.5l-223 977q-9 41 26 41h101q38 0 47 -41l133 -643q1 -7 6 -10t10.5 -0.5
t7.5 10.5l144 643q4 24 15.5 32.5t37.5 8.5h47q25 0 36 -8.5t17 -32.5l144 -643q2 -8 7.5 -10.5t10.5 0.5t6 10l131 643q9 41 47 41h103z" />
    <glyph glyph-name="x" unicode="x" horiz-adv-x="761" 
d="M741 41q10 -20 1 -30.5t-25 -10.5h-99q-19 0 -29.5 9t-21.5 32l-176 371q-3 8 -9 8t-11 -8l-176 -371q-11 -22 -22.5 -31.5t-31.5 -9.5h-96q-16 0 -25.5 10.5t-1.5 30.5l232 481q9 18 0 35l-221 461q-8 20 0 30.5t24 10.5h99q21 0 32 -8.5t21 -32.5l166 -356q3 -8 10 -8
t10 8l164 356q10 24 21 32.5t32 8.5h99q16 0 25 -10.5t1 -30.5l-221 -461q-9 -17 0 -35z" />
    <glyph glyph-name="y" unicode="y" horiz-adv-x="772" 
d="M119 -397q-23 0 -33 10t-10 33v71q0 23 9.5 32t33.5 11q59 7 94 27t51 72q30 105 33.5 140t-10.5 77l-271 942q-9 41 27 41h102q39 0 48 -41l180 -701q3 -11 12 -11t12 11l181 701q12 41 47 41h102q39 0 27 -41l-359 -1235q-54 -180 -276 -180z" />
    <glyph glyph-name="z" unicode="z" horiz-adv-x="696" 
d="M61 43v63q0 22 15 52l362 733q4 6 1 12t-11 6h-324q-23 0 -33 10t-10 33v64q0 23 10 33t33 10h488q24 0 33.5 -9.5t9.5 -33.5v-62q0 -20 -14 -51l-363 -735q-4 -6 -1 -12t11 -6h324q23 0 33 -10.5t10 -33.5v-63q0 -23 -10 -33t-33 -10h-488q-24 0 -33.5 9.5t-9.5 33.5z
" />
    <glyph glyph-name="braceleft" unicode="{" horiz-adv-x="706" 
d="M432 823q0 -81 -19.5 -130t-58.5 -97q39 -48 58.5 -97t19.5 -130v-562q0 -70 39.5 -110.5t101.5 -42.5q24 -2 33.5 -11t9.5 -32v-74q0 -23 -10 -33t-33 -10q-150 0 -235.5 81.5t-85.5 227.5v537q0 33 -1 52t-7.5 46.5t-18 42.5t-35 26t-57.5 11q-23 0 -33 10t-10 33v72
q0 23 10 33t33 10q34 0 57.5 11t35 26t18 42.5t7.5 46.5t1 52v506q0 147 85.5 229t235.5 82q23 0 33 -10t10 -33v-74q0 -23 -9.5 -32t-33.5 -11q-62 -2 -101.5 -42.5t-39.5 -110.5v-535z" />
    <glyph glyph-name="bar" unicode="|" horiz-adv-x="528" 
d="M205 -469v2075q0 23 10 33t33 10h33q23 0 33 -10t10 -33v-2075q0 -23 -10 -33t-33 -10h-33q-23 0 -33 10t-10 33z" />
    <glyph glyph-name="braceright" unicode="}" horiz-adv-x="706" 
d="M274 823v535q0 70 -39.5 110.5t-101.5 42.5q-24 2 -33.5 11t-9.5 32v74q0 23 10 33t33 10q150 0 236 -82t86 -229v-506q0 -34 1 -52.5t7 -46.5t18 -42.5t35 -25.5t57 -11q23 0 33 -10t10 -33v-72q0 -23 -10 -33t-33 -10q-34 0 -57 -11t-35 -25.5t-18 -42.5t-7 -46.5
t-1 -52.5v-537q0 -146 -86 -227.5t-236 -81.5q-23 0 -33 10t-10 33v74q0 23 9.5 32t33.5 11q62 2 101.5 42.5t39.5 110.5v562q0 81 19.5 130t58.5 97q-39 48 -58.5 97t-19.5 130z" />
    <glyph glyph-name="asciitilde" unicode="~" horiz-adv-x="1075" 
d="M727 639q-54 0 -124 23.5t-134 48t-102 26.5q-54 1 -88 -20t-60 -58q-19 -25 -43 -10l-70 45q-26 15 -10 43q34 72 104 111t150 37q69 0 192.5 -48.5t168.5 -50.5q54 -1 87.5 20t57.5 58q20 27 43 10l72 -45q25 -16 10 -43q-36 -71 -105.5 -110t-148.5 -37z" />
    <glyph glyph-name="exclamdown" unicode="&#xa1;" horiz-adv-x="522" 
d="M262 1077q53 0 90 -37.5t37 -91.5t-37 -91.5t-90 -37.5q-55 0 -93 37.5t-38 91.5t38 91.5t93 37.5zM182 549q0 23 10 33t33 10h74q23 0 33 -10t10 -33l20 -983q0 -23 -10 -33t-33 -10h-114q-23 0 -33 10t-10 33z" />
    <glyph glyph-name="cent" unicode="&#xa2;" horiz-adv-x="815" 
d="M688 264q31 0 27 -37q-11 -95 -69.5 -155.5t-145.5 -81.5v-90q0 -23 -10 -33t-33 -10h-60q-23 0 -33 10t-10 33v88q-112 21 -183 109.5t-71 252.5v361q0 162 71 250.5t183 109.5v78q0 23 10 33t33 10h60q23 0 33 -10t10 -33v-80q88 -21 146.5 -82t68.5 -156
q4 -36 -27 -36h-96q-27 0 -35 24q-15 43 -48.5 71t-84.5 28q-61 0 -105.5 -43.5t-44.5 -133.5v-424q0 -89 44.5 -132.5t105.5 -43.5q51 0 85.5 28.5t47.5 70.5q8 24 35 24h96z" />
    <glyph glyph-name="sterling" unicode="&#xa3;" horiz-adv-x="905" 
d="M801 164q23 0 33 -10t10 -33v-78q0 -23 -10 -33t-33 -10h-553q-23 0 -33 10t-10 33v682h-101q-43 0 -43 43v61q0 43 43 43h101v371q0 142 80.5 217.5t218.5 75.5h43q23 0 33 -10t10 -33v-84q0 -23 -10 -33t-33 -10h-31q-65 0 -96 -33.5t-31 -103.5v-357h236q43 0 43 -43
v-61q0 -43 -43 -43h-236v-522q0 -23 8 -31t31 -8h373z" />
    <glyph glyph-name="currency" unicode="&#xa4;" horiz-adv-x="837" 
d="M653 610l76 -73q19 -20 18.5 -36t-24.5 -40t-40.5 -24.5t-33.5 18.5l-76 75q-68 -47 -153 -47q-91 0 -158 49l-74 -73q-17 -19 -33 -19t-40 23q-24 24 -24.5 41t18.5 35l75 75q-43 61 -43 148q0 84 43 145l-75 76q-19 18 -18.5 35t24.5 41q24 23 40 23t33 -19l74 -74
q70 51 158 51q82 0 153 -49l76 76q17 19 33.5 18.5t40.5 -24.5q24 -23 24.5 -39.5t-18.5 -36.5l-76 -74q45 -67 45 -149q0 -85 -45 -152zM420 612q60 0 103.5 44.5t43.5 105.5q0 60 -43.5 103.5t-103.5 43.5q-61 0 -105.5 -43.5t-44.5 -103.5q0 -62 44 -106t106 -44z" />
    <glyph glyph-name="yen" unicode="&#xa5;" horiz-adv-x="886" 
d="M823 1495l-286 -831v-158h159q23 0 33 -10t10 -33v-12q0 -23 -10 -33t-33 -10h-159v-123h159q23 0 33 -10t10 -33v-13q0 -23 -10 -33t-33 -10h-159v-143q0 -23 -10 -33t-33 -10h-99q-23 0 -33 10t-10 33v143h-164q-23 0 -33 10t-10 33v13q0 23 10 33t33 10h164v123h-164
q-23 0 -33 10t-10 33v12q0 23 10 33t33 10h164v158l-286 831q-15 41 24 41h109q40 0 53 -41l180 -561q3 -9 12.5 -9t12.5 9l180 561q7 24 19.5 32.5t33.5 8.5h109q39 0 24 -41z" />
    <glyph glyph-name="brokenbar" unicode="&#xa6;" horiz-adv-x="528" 
d="M281 1649q23 0 33 -10t10 -33v-723q0 -23 -10 -33t-33 -10h-33q-23 0 -33 10t-10 33v723q0 23 10 33t33 10h33zM281 223q23 0 33 -10t10 -33v-649q0 -23 -10 -33t-33 -10h-33q-23 0 -33 10t-10 33v649q0 23 10 33t33 10h33z" />
    <glyph glyph-name="section" unicode="&#xa7;" horiz-adv-x="976" 
d="M868 430q0 -134 -80 -227q80 -118 80 -244q0 -112 -55.5 -199.5t-141.5 -131.5t-184 -44q-160 0 -270.5 105t-110.5 258q0 37 27 37h111q32 0 35 -29q8 -84 65 -145.5t145 -61.5q83 0 137.5 56.5t57.5 144.5q2 62 -27 120.5t-77.5 108t-107.5 99.5t-118.5 102.5t-109 108
t-80.5 126.5t-31 148q0 136 88 221q-88 113 -88 236q0 142 96 238.5t244 96.5q149 0 241 -94t101 -233q0 -18 -5 -27.5t-22 -9.5h-110q-18 0 -26 6t-9 23q-14 75 -56 122.5t-108 47.5q-70 0 -116.5 -49.5t-43.5 -118.5q2 -50 34 -100.5t80.5 -96.5t106.5 -94t116 -102
t105.5 -112t77 -132t29.5 -154zM285 764q2 -44 27 -89t70.5 -89t92 -83t109.5 -91.5t106 -94.5q26 47 29 103q2 54 -20 104t-68 97t-89.5 82.5t-111 87.5t-106.5 86q-45 -45 -39 -113z" />
    <glyph glyph-name="dieresis" unicode="&#xa8;" horiz-adv-x="761" 
d="M217 1305q-47 0 -81 33t-34 79q0 47 34 81t81 34q46 0 79.5 -34t33.5 -81q0 -46 -33.5 -79t-79.5 -33zM547 1305q-47 0 -81 33t-34 79q0 47 34 81t81 34q46 0 79 -34t33 -81q0 -46 -33 -79t-79 -33z" />
    <glyph glyph-name="copyright" unicode="&#xa9;" horiz-adv-x="1794" 
d="M897 -16q-160 0 -305 62t-250 167.5t-167 250.5t-62 304t62 304t167 250.5t250 167.5t305 62t305 -62t250 -167.5t167 -250.5t62 -304t-62 -304t-167 -250.5t-250 -167.5t-305 -62zM897 96q182 0 336.5 90t244 244.5t89.5 337.5t-89.5 337.5t-244 244.5t-336.5 90
t-336.5 -90t-244 -244.5t-89.5 -337.5t89.5 -337.5t244 -244.5t336.5 -90zM926 319q-195 0 -327 131t-132 318t132 318t327 131q115 0 243 -64q39 -20 17 -57l-33 -58q-9 -19 -22 -22.5t-33 4.5q-85 39 -166 39q-127 0 -213 -85t-86 -206t86 -206t213 -85q81 0 166 39
q14 5 23.5 5.5t17.5 -5t14 -18.5l33 -58q22 -37 -17 -57q-128 -64 -243 -64z" />
    <glyph glyph-name="guillemotleft" unicode="&#xab;" horiz-adv-x="956" 
d="M424 602l-143 -164q-13 -16 0 -32l143 -164q19 -21 24 -30.5t5 -31.5v-129q0 -18 -12.5 -22.5t-26.5 12.5l-312 350q-25 31 0 62l312 350q14 15 26.5 11.5t12.5 -21.5v-129q0 -22 -5 -31.5t-24 -30.5zM838 602l-146 -164q-13 -16 0 -32l146 -164q2 -3 7 -8.5t6 -7.5
t4.5 -6.5t4 -6.5t2.5 -6t2.5 -7.5t1 -8.5t0.5 -11v-129q0 -18 -13 -22.5t-26 12.5l-313 350q-25 31 0 62l313 350q13 15 26 11.5t13 -21.5v-129q0 -6 -0.5 -11t-1 -8.5t-2.5 -7.5t-2.5 -6t-4 -6.5t-4.5 -6.5t-6 -7.5t-7 -8.5z" />
    <glyph glyph-name="logicalnot" unicode="&#xac;" horiz-adv-x="1050" 
d="M844 940q23 0 33 -10t10 -33v-412q0 -23 -10 -33t-33 -10h-58q-23 0 -33 10t-10 33v273q0 23 -7.5 31t-30.5 8h-572q-23 0 -33 10t-10 33v57q0 23 10 33t33 10h711z" />
    <glyph glyph-name="registered" unicode="&#xae;" horiz-adv-x="1769" 
d="M897 -14q-160 0 -305 62t-250 166.5t-167 249.5t-62 304q0 160 62 305t167 250t250 167t305 62t305 -62t250 -167t167 -250t62 -305q0 -159 -62 -304t-167 -249.5t-250 -166.5t-305 -62zM897 98q137 0 261 53t213.5 142.5t142.5 213.5t53 261t-53 261.5t-142.5 214.5
t-213.5 143t-261 53t-261 -53t-213.5 -143t-142.5 -214.5t-53 -261.5t53 -261t142.5 -213.5t213.5 -142.5t261 -53zM694 332q-25 0 -35 10t-10 35v784q0 23 10 33t35 10h242q108 0 186 -80t78 -188q0 -82 -39 -148t-108 -100l166 -313q9 -22 3 -32.5t-22 -10.5h-84
q-39 0 -51 28l-152 306h-84q-23 0 -30.5 -8t-7.5 -33v-248q0 -25 -10 -35t-33 -10h-54zM829 791h86q61 0 102.5 41.5t41.5 103.5q0 59 -41.5 101t-102.5 42h-86q-23 0 -30.5 -8t-7.5 -31v-211q0 -23 7.5 -30.5t30.5 -7.5z" />
    <glyph glyph-name="macron" unicode="&#xaf;" horiz-adv-x="694" 
d="M592 1182q0 -23 -10 -33t-33 -10h-404q-23 0 -33 10t-10 33v63q0 23 10 33t33 10h404q23 0 33 -10t10 -33v-63z" />
    <glyph glyph-name="degree" unicode="&#xb0;" horiz-adv-x="761" 
d="M381 997q-115 0 -197 81.5t-82 197.5q0 115 81.5 196.5t197.5 81.5q115 0 196.5 -81t81.5 -197t-81.5 -197.5t-196.5 -81.5zM381 1126q61 0 105 44t44 106q0 60 -44 103.5t-105 43.5t-105.5 -43.5t-44.5 -103.5q0 -62 44.5 -106t105.5 -44z" />
    <glyph glyph-name="plusminus" unicode="&#xb1;" horiz-adv-x="1085" 
d="M952 1016q23 0 33 -10t10 -33v-58q0 -23 -10 -33t-33 -10h-299q-23 0 -31 -7.5t-8 -30.5v-299q0 -23 -10 -33t-33 -10h-57q-23 0 -33 10t-10 33v299q0 23 -8 30.5t-31 7.5h-299q-23 0 -33 10t-10 33v58q0 23 10 33t33 10h299q23 0 31 8t8 31v297q0 23 10 33t33 10h57
q23 0 33 -10t10 -33v-297q0 -23 8 -31t31 -8h299zM950 215q23 0 33 -10t10 -33v-57q0 -23 -10 -33t-33 -10h-817q-23 0 -33 10t-10 33v57q0 23 10 33t33 10h817z" />
    <glyph glyph-name="uni00B2" unicode="&#xb2;" horiz-adv-x="675" 
d="M117 475q-20 0 -27.5 8t-7.5 29v141q0 66 18.5 124.5t49 102t67.5 83t75 75t70 69.5t54.5 75.5t27.5 85.5q9 69 -26 111t-90 42q-39 0 -66.5 -22t-40.5 -58q-8 -20 -28 -20h-80q-27 0 -23 31q4 92 73.5 147t168.5 55q118 0 192.5 -79.5t65.5 -210.5q-7 -83 -46.5 -154
t-90.5 -121t-101 -97.5t-84.5 -106.5t-34.5 -126v-16q0 -19 6 -25t25 -6h293q20 0 28.5 -8.5t8.5 -28.5v-63q0 -20 -8.5 -28.5t-28.5 -8.5h-440z" />
    <glyph glyph-name="uni00B3" unicode="&#xb3;" horiz-adv-x="718" 
d="M348 459q-93 0 -161 51.5t-81 148.5q-4 31 23 31h80q23 0 29 -18q11 -34 38.5 -56t65.5 -22q50 0 86.5 36.5t36.5 108.5v84q0 72 -36.5 108t-86.5 36h-66q-19 0 -26.5 7.5t-7.5 26.5v60q0 20 7.5 28.5t26.5 8.5h66q50 0 86.5 35.5t36.5 107.5v33q0 72 -36.5 107.5
t-86.5 35.5q-40 0 -69 -22t-35 -56q-3 -18 -29 -18h-80q-27 0 -23 31q14 97 82 149.5t160 52.5q52 0 97.5 -16.5t84 -50t60.5 -93t22 -137.5v-10q0 -144 -90 -217q90 -73 90 -219v-63q0 -146 -76.5 -217.5t-187.5 -71.5z" />
    <glyph glyph-name="acute" unicode="&#xb4;" horiz-adv-x="604" 
d="M119 1360l258 244q31 30 61 0l45 -48q17 -17 17 -29.5t-17 -29.5l-258 -244q-31 -31 -61 0l-45 45q-31 31 0 62z" />
    <glyph glyph-name="paragraph" unicode="&#xb6;" horiz-adv-x="1437" 
d="M1333 1565q23 0 33 -10t10 -33v-78q0 -23 -10 -33t-33 -10h-110q-23 0 -31 -8t-8 -31v-1831q0 -23 -10 -33t-33 -10h-101q-23 0 -33 10t-10 33v1831q0 23 -8 31t-31 8h-124q-23 0 -31 -8t-8 -31v-1831q0 -23 -10 -33t-33 -10h-99q-23 0 -33 10t-10 33v1100q0 23 -8 31
t-31 8h-45q-115 0 -216.5 57t-164.5 161t-63 230q0 122 57 225.5t153 162.5t206 59h835z" />
    <glyph glyph-name="periodcentered" unicode="&#xb7;" horiz-adv-x="522" 
d="M262 463q-55 0 -93 37.5t-38 91.5t38 91.5t93 37.5q53 0 90 -37.5t37 -91.5t-37 -91.5t-90 -37.5z" />
    <glyph glyph-name="cedilla" unicode="&#xb8;" horiz-adv-x="608" 
d="M238 -100q77 31 140.5 11.5t104.5 -77t41 -127.5q0 -92 -69 -157.5t-166 -65.5q-49 0 -99 20q-37 14 -24 50l22 57q7 18 17.5 22.5t27.5 -2.5q30 -10 56 -10q41 0 70.5 29.5t29.5 70.5q0 43 -29.5 72t-70.5 29q-43 0 -90 -47q-17 -20 -43 -8l-52 20q-26 11 -16 39l80 231
l121 -22z" />
    <glyph glyph-name="uni00B9" unicode="&#xb9;" horiz-adv-x="579" 
d="M393 1536q19 0 27 -8t8 -27v-983q0 -19 -8 -27t-27 -8h-82q-20 0 -27.5 8t-7.5 27v787l-124 -125q-28 -31 -52 0l-51 53q-13 15 -13 25t13 24l230 234q20 20 40 20h74z" />
    <glyph glyph-name="guillemotright" unicode="&#xbb;" horiz-adv-x="956" 
d="M119 602q-3 3 -8 9.5t-6.5 8.5t-5 7t-4.5 8l-2.5 7.5t-2 9.5t-0.5 12v129q0 18 13 21.5t26 -11.5l311 -350q25 -31 0 -62l-311 -350q-13 -17 -26 -12.5t-13 22.5v129q0 8 1 14t2 10t4.5 9.5t5 7.5t8 10t8.5 11l145 164q13 16 0 32zM530 602q-2 3 -7 8.5t-6 7.5t-4.5 6.5
t-4 6.5t-2.5 6t-2.5 7.5t-1 8.5t-0.5 11v129q0 18 13 21.5t26 -11.5l313 -350q25 -31 0 -62l-313 -350q-13 -17 -26 -12.5t-13 22.5v129q0 6 0.5 11t1 8.5t2.5 7.5t2.5 6t4 6.5t4.5 6.5t6 7.5t7 8.5l146 164q13 16 0 32z" />
    <glyph glyph-name="questiondown" unicode="&#xbf;" horiz-adv-x="917" 
d="M485 1077q54 0 92.5 -38t38.5 -93q0 -52 -38.5 -89.5t-92.5 -37.5t-91.5 37t-37.5 90q0 55 37.5 93t91.5 38zM475 -481q-160 0 -272.5 105.5t-112.5 266.5q1 81 33.5 156t79 133.5t93.5 114.5t80.5 123t35.5 137q0 23 10 33t33 10h67q23 0 33 -10t10 -33
q0 -69 -16 -130.5t-42 -108t-57.5 -88.5t-62.5 -80t-57 -74t-42 -78t-16 -86q0 -92 62 -154.5t153 -62.5q101 0 181 84q19 20 31.5 22.5t31.5 -12.5l60 -57q32 -25 0 -62q-49 -61 -130.5 -105t-185.5 -44z" />
    <glyph glyph-name="Agrave" unicode="&#xc0;" horiz-adv-x="933" 
d="M254 1966l31 45q14 22 25 26t32 -9l324 -218q21 -14 24 -25t-10 -32l-33 -47q-14 -21 -25 -24t-32 10l-322 217q-21 14 -24 24.5t10 32.5zM57 41l316 1454q6 25 17.5 33t37.5 8h78q26 0 37.5 -8t17.5 -33l316 -1454q8 -41 -31 -41h-107q-20 0 -30.5 9t-14.5 32l-57 274
q-4 18 -12 23.5t-29 5.5h-258q-21 0 -29 -5.5t-12 -23.5l-57 -274q-4 -23 -14.5 -32t-30.5 -9h-107q-39 0 -31 41zM336 530q-3 -22 16 -22h230q19 0 16 22l-119 607q-3 11 -13 11t-11 -11z" />
    <glyph glyph-name="Aacute" unicode="&#xc1;" horiz-adv-x="933" 
d="M680 1937q13 -22 10 -32.5t-24 -24.5l-324 -217q-19 -13 -30.5 -10t-26.5 24l-31 47q-13 21 -10 32.5t24 25.5l324 217q21 13 32 9t25 -26zM57 41l316 1454q6 25 17.5 33t37.5 8h78q26 0 37.5 -8t17.5 -33l316 -1454q8 -41 -31 -41h-107q-20 0 -30.5 9t-14.5 32l-57 274
q-4 18 -12 23.5t-29 5.5h-258q-21 0 -29 -5.5t-12 -23.5l-57 -274q-4 -23 -14.5 -32t-30.5 -9h-107q-39 0 -31 41zM336 530q-3 -22 16 -22h230q19 0 16 22l-119 607q-3 11 -13 11t-11 -11z" />
    <glyph glyph-name="Acircumflex" unicode="&#xc2;" horiz-adv-x="933" 
d="M731 1763q17 -17 17 -30.5t-17 -30.5l-35 -33q-32 -32 -59 0l-172 168l-172 -168q-28 -32 -60 0l-34 33q-17 17 -17 30.5t17 30.5l235 230q13 15 31 15t31 -15zM57 41l316 1454q6 25 17.5 33t37.5 8h78q26 0 37.5 -8t17.5 -33l316 -1454q8 -41 -31 -41h-107
q-20 0 -30.5 9t-14.5 32l-57 274q-4 18 -12 23.5t-29 5.5h-258q-21 0 -29 -5.5t-12 -23.5l-57 -274q-4 -23 -14.5 -32t-30.5 -9h-107q-39 0 -31 41zM336 530q-3 -22 16 -22h230q19 0 16 22l-119 607q-3 11 -13 11t-11 -11z" />
    <glyph glyph-name="Atilde" unicode="&#xc3;" horiz-adv-x="933" 
d="M717 1849q22 -15 10 -43q-62 -108 -168 -108q-39 0 -85.5 29.5t-65.5 33.5q-53 10 -93 -47q-19 -27 -43 -10l-57 37q-25 15 -10 43q62 108 166 108q41 0 87.5 -29.5t65.5 -33.5q48 -10 92 47q18 26 43 10zM57 41l316 1454q6 25 17.5 33t37.5 8h78q26 0 37.5 -8t17.5 -33
l316 -1454q8 -41 -31 -41h-107q-20 0 -30.5 9t-14.5 32l-57 274q-4 18 -12 23.5t-29 5.5h-258q-21 0 -29 -5.5t-12 -23.5l-57 -274q-4 -23 -14.5 -32t-30.5 -9h-107q-39 0 -31 41zM336 530q-3 -22 16 -22h230q19 0 16 22l-119 607q-3 11 -13 11t-11 -11z" />
    <glyph glyph-name="Adieresis" unicode="&#xc4;" horiz-adv-x="933" 
d="M307 1698q-46 0 -79 32.5t-33 79.5q0 46 33 78.5t79 32.5t79.5 -32.5t33.5 -78.5q0 -47 -33.5 -79.5t-79.5 -32.5zM621 1698q-46 0 -78.5 32.5t-32.5 79.5q0 46 32.5 78.5t78.5 32.5t79 -32.5t33 -78.5q0 -47 -33 -79.5t-79 -32.5zM57 41l316 1454q6 25 17.5 33t37.5 8
h78q26 0 37.5 -8t17.5 -33l316 -1454q8 -41 -31 -41h-107q-20 0 -30.5 9t-14.5 32l-57 274q-4 18 -12 23.5t-29 5.5h-258q-21 0 -29 -5.5t-12 -23.5l-57 -274q-4 -23 -14.5 -32t-30.5 -9h-107q-39 0 -31 41zM336 530q-3 -22 16 -22h230q19 0 16 22l-119 607q-3 11 -13 11
t-11 -11z" />
    <glyph glyph-name="Aring" unicode="&#xc5;" horiz-adv-x="933" 
d="M465 1653q-75 0 -126.5 52t-51.5 126t51.5 126t126.5 52q73 0 124.5 -52t51.5 -126t-51.5 -126t-124.5 -52zM465 1759q29 0 49.5 20.5t20.5 51.5q0 29 -20.5 50.5t-49.5 21.5q-30 0 -51 -21t-21 -51q0 -31 20.5 -51.5t51.5 -20.5zM57 41l316 1454q6 25 17.5 33t37.5 8h78
q26 0 37.5 -8t17.5 -33l316 -1454q8 -41 -31 -41h-107q-20 0 -30.5 9t-14.5 32l-57 274q-4 18 -12 23.5t-29 5.5h-258q-21 0 -29 -5.5t-12 -23.5l-57 -274q-4 -23 -14.5 -32t-30.5 -9h-107q-39 0 -31 41zM336 530q-3 -22 16 -22h230q19 0 16 22l-119 607q-3 11 -13 11
t-11 -11z" />
    <glyph glyph-name="AE" unicode="&#xc6;" horiz-adv-x="1275" 
d="M817 1372q-23 0 -31 -8t-8 -31v-420q0 -23 8 -31t31 -8h299q23 0 33 -10t10 -33v-77q0 -23 -10 -33t-33 -10h-299q-23 0 -31 -8t-8 -31v-469q0 -23 8 -31t31 -8h299q23 0 33 -10t10 -33v-78q0 -23 -10 -33t-33 -10h-481q-23 0 -33 10t-10 33v301h-221q-20 0 -27.5 -5
t-13.5 -24l-84 -274q-7 -23 -18 -32t-31 -9h-111q-40 0 -27 41l449 1454q9 26 18.5 33.5t34.5 7.5h555q23 0 33 -10t10 -33v-78q0 -23 -10 -33t-33 -10h-299zM406 508h186v682q-9 0 -12 -10l-189 -650q-4 -11 1 -16.5t14 -5.5z" />
    <glyph glyph-name="Ccedilla" unicode="&#xc7;" horiz-adv-x="927" 
d="M821 315q-9 -136 -87.5 -226t-211.5 -105l-33 -84q77 31 141 11.5t105 -77t41 -127.5q0 -92 -69 -157.5t-166 -65.5q-49 0 -99 20q-37 14 -24 50l22 57q7 18 17.5 22.5t27.5 -2.5q30 -10 56 -10q41 0 70.5 29.5t29.5 70.5q0 43 -29.5 72t-70.5 29q-43 0 -90 -47
q-17 -20 -43 -8l-52 20q-26 11 -16 39l55 162q-137 23 -213 133t-76 289v716q0 202 96.5 315t268.5 113q157 0 248 -91.5t102 -241.5q0 -12 -1 -18.5t-7 -12.5t-18 -6h-115q-18 0 -26 5.5t-9 22.5q-14 75 -59 121.5t-113 46.5q-81 0 -130.5 -67t-49.5 -187v-716
q0 -120 49.5 -187t130.5 -67q68 0 113 46.5t59 121.5q1 17 9 22.5t26 5.5h115q17 0 21.5 -9.5t4.5 -27.5z" />
    <glyph glyph-name="Egrave" unicode="&#xc8;" horiz-adv-x="790" 
d="M188 1966l31 45q14 22 25 26t32 -9l324 -218q21 -14 24 -25t-10 -32l-32 -47q-14 -21 -25.5 -24t-32.5 10l-321 217q-21 14 -24.5 24.5t9.5 32.5zM303 1333v-420q0 -23 8 -31t31 -8h299q23 0 33 -10t10 -33v-77q0 -23 -10 -33t-33 -10h-299q-23 0 -31 -8t-8 -31v-469
q0 -23 8 -31t31 -8h299q23 0 33 -10t10 -33v-78q0 -23 -10 -33t-33 -10h-481q-23 0 -33 10t-10 33v1450q0 23 10 33t33 10h481q23 0 33 -10t10 -33v-78q0 -23 -10 -33t-33 -10h-299q-23 0 -31 -8t-8 -31z" />
    <glyph glyph-name="Eacute" unicode="&#xc9;" horiz-adv-x="790" 
d="M614 1937q13 -22 10 -32.5t-24 -24.5l-324 -217q-19 -13 -30.5 -10t-26.5 24l-31 47q-13 21 -9.5 32.5t24.5 25.5l323 217q21 13 32.5 9t25.5 -26zM303 1333v-420q0 -23 8 -31t31 -8h299q23 0 33 -10t10 -33v-77q0 -23 -10 -33t-33 -10h-299q-23 0 -31 -8t-8 -31v-469
q0 -23 8 -31t31 -8h299q23 0 33 -10t10 -33v-78q0 -23 -10 -33t-33 -10h-481q-23 0 -33 10t-10 33v1450q0 23 10 33t33 10h481q23 0 33 -10t10 -33v-78q0 -23 -10 -33t-33 -10h-299q-23 0 -31 -8t-8 -31z" />
    <glyph glyph-name="Ecircumflex" unicode="&#xca;" horiz-adv-x="790" 
d="M666 1763q17 -17 17 -30.5t-17 -30.5l-35 -33q-32 -32 -60 0l-172 168l-172 -168q-27 -32 -59 0l-35 33q-17 17 -17 30.5t17 30.5l236 230q13 15 30 15t31 -15zM303 1333v-420q0 -23 8 -31t31 -8h299q23 0 33 -10t10 -33v-77q0 -23 -10 -33t-33 -10h-299q-23 0 -31 -8
t-8 -31v-469q0 -23 8 -31t31 -8h299q23 0 33 -10t10 -33v-78q0 -23 -10 -33t-33 -10h-481q-23 0 -33 10t-10 33v1450q0 23 10 33t33 10h481q23 0 33 -10t10 -33v-78q0 -23 -10 -33t-33 -10h-299q-23 0 -31 -8t-8 -31z" />
    <glyph glyph-name="Edieresis" unicode="&#xcb;" horiz-adv-x="790" 
d="M242 1698q-46 0 -79.5 32.5t-33.5 79.5q0 46 33.5 78.5t79.5 32.5t79 -32.5t33 -78.5q0 -47 -33 -79.5t-79 -32.5zM555 1698q-46 0 -78.5 32.5t-32.5 79.5q0 46 32.5 78.5t78.5 32.5t79.5 -32.5t33.5 -78.5q0 -47 -33.5 -79.5t-79.5 -32.5zM303 1333v-420q0 -23 8 -31
t31 -8h299q23 0 33 -10t10 -33v-77q0 -23 -10 -33t-33 -10h-299q-23 0 -31 -8t-8 -31v-469q0 -23 8 -31t31 -8h299q23 0 33 -10t10 -33v-78q0 -23 -10 -33t-33 -10h-481q-23 0 -33 10t-10 33v1450q0 23 10 33t33 10h481q23 0 33 -10t10 -33v-78q0 -23 -10 -33t-33 -10h-299
q-23 0 -31 -8t-8 -31z" />
    <glyph glyph-name="Igrave" unicode="&#xcc;" horiz-adv-x="419" 
d="M-2 1966l31 45q14 22 25 26t32 -9l324 -218q21 -14 24 -25t-10 -32l-33 -47q-14 -21 -25 -24t-32 10l-322 217q-21 14 -24 24.5t10 32.5zM117 43v1450q0 23 10 33t33 10h100q23 0 33 -10t10 -33v-1450q0 -23 -10 -33t-33 -10h-100q-23 0 -33 10t-10 33z" />
    <glyph glyph-name="Iacute" unicode="&#xcd;" horiz-adv-x="419" 
d="M424 1937q13 -22 10 -32.5t-24 -24.5l-324 -217q-19 -13 -30.5 -10t-26.5 24l-31 47q-13 21 -10 32.5t24 25.5l324 217q21 13 32 9t25 -26zM117 43v1450q0 23 10 33t33 10h100q23 0 33 -10t10 -33v-1450q0 -23 -10 -33t-33 -10h-100q-23 0 -33 10t-10 33z" />
    <glyph glyph-name="Icircumflex" unicode="&#xce;" horiz-adv-x="419" 
d="M475 1763q17 -17 17 -30.5t-17 -30.5l-35 -33q-32 -32 -59 0l-172 168l-172 -168q-28 -32 -60 0l-34 33q-17 17 -17 30.5t17 30.5l235 230q14 15 31 15t31 -15zM117 43v1450q0 23 10 33t33 10h100q23 0 33 -10t10 -33v-1450q0 -23 -10 -33t-33 -10h-100q-23 0 -33 10
t-10 33z" />
    <glyph glyph-name="Idieresis" unicode="&#xcf;" horiz-adv-x="419" 
d="M51 1698q-46 0 -79 32.5t-33 79.5q0 46 33 78.5t79 32.5t79.5 -32.5t33.5 -78.5q0 -47 -33.5 -79.5t-79.5 -32.5zM365 1698q-46 0 -78.5 32.5t-32.5 79.5q0 46 32.5 78.5t78.5 32.5t79 -32.5t33 -78.5q0 -47 -33 -79.5t-79 -32.5zM117 43v1450q0 23 10 33t33 10h100
q23 0 33 -10t10 -33v-1450q0 -23 -10 -33t-33 -10h-100q-23 0 -33 10t-10 33z" />
    <glyph glyph-name="Eth" unicode="&#xd0;" horiz-adv-x="985" 
d="M479 1536q198 0 299 -112.5t101 -329.5v-652q0 -217 -101 -329.5t-299 -112.5h-293q-23 0 -33 10t-10 33v768q0 23 -8 31t-31 8h-20q-23 0 -33 10t-10 33v49q0 23 10 33t33 10h20q23 0 31 8t8 31v469q0 23 10 33t33 10h293zM694 432v672q0 268 -221 268h-106
q-23 0 -31 -8t-8 -31v-309q0 -23 8 -31t31 -8h86q23 0 33 -10t10 -33v-49q0 -23 -10 -33t-33 -10h-86q-23 0 -31 -8t-8 -31v-608q0 -23 8 -31t31 -8h106q221 0 221 268z" />
    <glyph glyph-name="Ntilde" unicode="&#xd1;" horiz-adv-x="1007" 
d="M756 1849q22 -15 10 -43q-62 -108 -168 -108q-39 0 -86 29.5t-66 33.5q-53 10 -92 -47q-19 -27 -43 -10l-57 37q-25 15 -10 43q62 108 166 108q41 0 87.5 -29.5t65.5 -33.5q48 -10 92 47q18 26 43 10zM848 1536q23 0 33 -10t10 -33v-1450q0 -23 -10 -33t-33 -10h-76
q-23 0 -34.5 9t-22.5 34l-389 985q-4 10 -13.5 9.5t-9.5 -11.5v-983q0 -23 -10 -33t-33 -10h-100q-23 0 -33 10t-10 33v1450q0 23 10 33t33 10h76q24 0 36 -9t21 -34l391 -985q4 -10 13.5 -9.5t9.5 11.5v983q0 23 10 33t33 10h98z" />
    <glyph glyph-name="Ograve" unicode="&#xd2;" 
d="M260 1966l31 45q14 22 25 26t32 -9l324 -218q21 -14 24 -25t-10 -32l-33 -47q-14 -21 -25 -24t-32 10l-322 217q-21 14 -24 24.5t10 32.5zM471 -18q-172 0 -268.5 113t-96.5 315v716q0 202 96.5 315t268.5 113t268.5 -113t96.5 -315v-716q0 -202 -96.5 -315t-268.5 -113z
M471 156q80 0 129 66.5t49 187.5v716q0 120 -49 187t-129 67t-129 -67t-49 -187v-716q0 -121 49 -187.5t129 -66.5z" />
    <glyph glyph-name="Oacute" unicode="&#xd3;" 
d="M686 1937q13 -22 10 -32.5t-24 -24.5l-324 -217q-19 -13 -30.5 -10t-26.5 24l-31 47q-13 21 -10 32.5t24 25.5l324 217q21 13 32 9t25 -26zM471 -18q-172 0 -268.5 113t-96.5 315v716q0 202 96.5 315t268.5 113t268.5 -113t96.5 -315v-716q0 -202 -96.5 -315t-268.5 -113
zM471 156q80 0 129 66.5t49 187.5v716q0 120 -49 187t-129 67t-129 -67t-49 -187v-716q0 -121 49 -187.5t129 -66.5z" />
    <glyph glyph-name="Ocircumflex" unicode="&#xd4;" 
d="M737 1763q17 -17 17 -30.5t-17 -30.5l-35 -33q-32 -32 -59 0l-172 168l-172 -168q-27 -32 -59 0l-35 33q-17 17 -17 30.5t17 30.5l235 230q14 15 31 15t31 -15zM471 -18q-172 0 -268.5 113t-96.5 315v716q0 202 96.5 315t268.5 113t268.5 -113t96.5 -315v-716
q0 -202 -96.5 -315t-268.5 -113zM471 156q80 0 129 66.5t49 187.5v716q0 120 -49 187t-129 67t-129 -67t-49 -187v-716q0 -121 49 -187.5t129 -66.5z" />
    <glyph glyph-name="Otilde" unicode="&#xd5;" 
d="M723 1849q22 -15 10 -43q-62 -108 -168 -108q-39 0 -85.5 29.5t-65.5 33.5q-53 10 -92 -47q-19 -27 -43 -10l-58 37q-25 15 -10 43q62 108 166 108q41 0 87.5 -29.5t65.5 -33.5q49 -10 93 47q18 26 43 10zM471 -18q-172 0 -268.5 113t-96.5 315v716q0 202 96.5 315
t268.5 113t268.5 -113t96.5 -315v-716q0 -202 -96.5 -315t-268.5 -113zM471 156q80 0 129 66.5t49 187.5v716q0 120 -49 187t-129 67t-129 -67t-49 -187v-716q0 -121 49 -187.5t129 -66.5z" />
    <glyph glyph-name="Odieresis" unicode="&#xd6;" 
d="M313 1698q-46 0 -79 32.5t-33 79.5q0 46 33 78.5t79 32.5t79.5 -32.5t33.5 -78.5q0 -47 -33.5 -79.5t-79.5 -32.5zM627 1698q-46 0 -78.5 32.5t-32.5 79.5q0 46 32.5 78.5t78.5 32.5t79 -32.5t33 -78.5q0 -47 -33 -79.5t-79 -32.5zM471 -18q-172 0 -268.5 113t-96.5 315
v716q0 202 96.5 315t268.5 113t268.5 -113t96.5 -315v-716q0 -202 -96.5 -315t-268.5 -113zM471 156q80 0 129 66.5t49 187.5v716q0 120 -49 187t-129 67t-129 -67t-49 -187v-716q0 -121 49 -187.5t129 -66.5z" />
    <glyph glyph-name="multiply" unicode="&#xd7;" horiz-adv-x="917" 
d="M698 1077q29 33 62 0l39 -41q15 -17 15 -30.5t-15 -30.5l-211 -211q-17 -15 -17 -26.5t17 -28.5l211 -211q30 -30 0 -60l-39 -41q-33 -33 -62 0l-211 211q-17 15 -27.5 15t-27.5 -15l-213 -211q-29 -34 -59 0l-41 41q-30 30 0 60l211 211q17 17 17 28.5t-17 26.5
l-209 211q-29 29 0 59l39 41q33 33 61 0l211 -209q17 -17 27.5 -17t27.5 17z" />
    <glyph glyph-name="Oslash" unicode="&#xd8;" 
d="M874 1536q17 0 25 -10.5t0 -32.5l-88 -184q25 -83 25 -183v-716q0 -202 -96.5 -315t-268.5 -113q-158 0 -252 94l-16 -33q-11 -24 -24 -33.5t-36 -9.5h-61q-17 0 -25 11.5t0 31.5l80 166q-31 88 -31 201v716q0 202 96.5 315t268.5 113q170 0 262 -106l23 45
q11 24 23.5 33.5t35.5 9.5h59zM293 1126v-594l342 709q-20 67 -63 103t-101 36q-80 0 -129 -67t-49 -187zM649 410v563l-336 -699q47 -118 158 -118q80 0 129 66.5t49 187.5z" />
    <glyph glyph-name="Ugrave" unicode="&#xd9;" 
d="M274 1909q-21 14 -24 24.5t10 32.5l31 45q14 22 25 26t32 -9l324 -218q21 -14 24 -25t-10 -32l-33 -47q-14 -21 -25 -24t-32 10zM793 1536q23 0 33 -10t10 -33v-692v-391q0 -202 -96.5 -315t-268.5 -113t-268.5 113t-96.5 315v557v526q0 23 10.5 33t33.5 10h100
q23 0 33 -10t10 -33v-672v-411q0 -121 49 -187.5t129 -66.5t129 66.5t49 187.5v548v535q0 23 10 33t33 10h101z" />
    <glyph glyph-name="Uacute" unicode="&#xda;" 
d="M291 1677l-31 47q-13 21 -10 32.5t24 25.5l324 217q21 13 32 9t25 -26l31 -45q13 -22 10 -32.5t-24 -24.5l-324 -217q-19 -13 -30.5 -10t-26.5 24zM793 1536q23 0 33 -10t10 -33v-692v-391q0 -202 -96.5 -315t-268.5 -113t-268.5 113t-96.5 315v557v526q0 23 10.5 33
t33.5 10h100q23 0 33 -10t10 -33v-672v-411q0 -121 49 -187.5t129 -66.5t129 66.5t49 187.5v548v535q0 23 10 33t33 10h101z" />
    <glyph glyph-name="Ucircumflex" unicode="&#xdb;" 
d="M240 1669l-35 33q-17 17 -17 30.5t17 30.5l235 230q14 15 31 15t31 -15l235 -230q17 -17 17 -30.5t-17 -30.5l-35 -33q-32 -32 -59 0l-172 168l-172 -168q-27 -32 -59 0zM793 1536q23 0 33 -10t10 -33v-692v-391q0 -202 -96.5 -315t-268.5 -113t-268.5 113t-96.5 315v557
v526q0 23 10.5 33t33.5 10h100q23 0 33 -10t10 -33v-672v-411q0 -121 49 -187.5t129 -66.5t129 66.5t49 187.5v548v535q0 23 10 33t33 10h101z" />
    <glyph glyph-name="Udieresis" unicode="&#xdc;" 
d="M313 1698q-46 0 -79 32.5t-33 79.5q0 46 33 78.5t79 32.5t79.5 -32.5t33.5 -78.5q0 -47 -33.5 -79.5t-79.5 -32.5zM627 1698q-46 0 -78.5 32.5t-32.5 79.5q0 46 32.5 78.5t78.5 32.5t79 -32.5t33 -78.5q0 -47 -33 -79.5t-79 -32.5zM793 1536q23 0 33 -10t10 -33v-692
v-391q0 -202 -96.5 -315t-268.5 -113t-268.5 113t-96.5 315v557v526q0 23 10.5 33t33.5 10h100q23 0 33 -10t10 -33v-672v-411q0 -121 49 -187.5t129 -66.5t129 66.5t49 187.5v548v535q0 23 10 33t33 10h101z" />
    <glyph glyph-name="Yacute" unicode="&#xdd;" horiz-adv-x="886" 
d="M659 1937q13 -22 10 -32.5t-24 -24.5l-323 -217q-19 -13 -31 -10t-27 24l-31 47q-13 21 -9.5 32.5t24.5 25.5l323 217q21 13 32.5 9t25.5 -26zM799 1536q39 0 24 -41l-286 -831v-621q0 -23 -10 -33t-33 -10h-99q-23 0 -33 10t-10 33v621l-286 831q-15 41 24 41h109
q40 0 53 -41l180 -561q3 -9 12.5 -9t12.5 9l180 561q7 24 19.5 32.5t33.5 8.5h109z" />
    <glyph glyph-name="Thorn" unicode="&#xde;" horiz-adv-x="847" 
d="M430 1200q170 0 263 -111.5t93 -304.5v-69q0 -193 -93.5 -305.5t-262.5 -112.5h-88q-23 0 -31 -8t-8 -31v-215q0 -23 -10 -33t-33 -10h-100q-23 0 -33 10t-10 33v1450q0 23 10 33t33 10h100q23 0 33 -10t10 -33v-254q0 -23 8 -31t31 -8h88zM602 717v65q0 120 -49 187
t-129 67h-82q-23 0 -31 -8t-8 -31v-495q0 -23 8 -31t31 -8h82q80 0 129 66.5t49 187.5z" />
    <glyph glyph-name="germandbls" unicode="&#xdf;" horiz-adv-x="933" 
d="M602 786q-2 -42 20 -85.5t55.5 -83t67.5 -81t59 -95t27 -109.5q4 -91 -52.5 -168t-147.5 -123.5t-201 -63.5q-22 -4 -31 6.5t-12 36.5l-14 70q-3 22 6.5 32t32.5 15q99 22 171.5 77.5t71.5 127.5q-1 38 -25 78.5t-57.5 77.5t-67 77.5t-56 92.5t-21.5 108q1 46 19 91.5
t42.5 84.5t48.5 79t41 89t17 99q0 87 -45.5 131.5t-108.5 44.5q-67 0 -112 -57t-45 -171v-1124q0 -23 -10 -33t-33 -10h-88q-23 0 -33 10t-10 33v1143q0 96 28.5 169.5t76.5 115.5t104 62.5t118 20.5q61 0 117.5 -19t104.5 -56t77 -100t29 -142q0 -59 -16.5 -117
t-40.5 -102.5t-47.5 -84.5t-41 -78.5t-18.5 -68.5z" />
    <glyph glyph-name="agrave" unicode="&#xe0;" horiz-adv-x="845" 
d="M602 1360q31 -31 0 -62l-45 -45q-31 -31 -61 0l-258 244q-17 17 -17 29.5t17 29.5l43 48q18 16 30.5 16.5t30.5 -16.5zM397 -14q-56 -7 -109 10t-96.5 55.5t-70.5 106t-27 153.5q0 83 24 145.5t62 102t102.5 68t127 43t153.5 28.5v58q0 83 -43 125.5t-104 42.5
q-53 0 -87.5 -29.5t-47.5 -75.5q-5 -24 -35 -24h-92q-31 0 -27 36q6 115 90.5 180.5t206.5 65.5q60 0 114 -19.5t99 -60t71.5 -111t26.5 -163.5l2 -520q0 -65 19 -162q8 -41 -41 -41h-84q-25 0 -34.5 15t-16.5 71q-32 -45 -80.5 -71t-102.5 -29zM420 141q60 3 101.5 51
t41.5 132v258q-56 -10 -93.5 -19.5t-74 -24t-58.5 -32.5t-39.5 -44.5t-24.5 -62t-7 -82.5q1 -90 47.5 -134.5t106.5 -41.5z" />
    <glyph glyph-name="aacute" unicode="&#xe1;" horiz-adv-x="845" 
d="M229 1360l258 244q31 31 62 0l45 -48q17 -17 17 -29.5t-17 -29.5l-258 -244q-31 -31 -62 0l-45 45q-31 31 0 62zM397 -14q-56 -7 -109 10t-96.5 55.5t-70.5 106t-27 153.5q0 83 24 145.5t62 102t102.5 68t127 43t153.5 28.5v58q0 83 -43 125.5t-104 42.5
q-53 0 -87.5 -29.5t-47.5 -75.5q-5 -24 -35 -24h-92q-31 0 -27 36q6 115 90.5 180.5t206.5 65.5q60 0 114 -19.5t99 -60t71.5 -111t26.5 -163.5l2 -520q0 -65 19 -162q8 -41 -41 -41h-84q-25 0 -34.5 15t-16.5 71q-32 -45 -80.5 -71t-102.5 -29zM420 141q60 3 101.5 51
t41.5 132v258q-56 -10 -93.5 -19.5t-74 -24t-58.5 -32.5t-39.5 -44.5t-24.5 -62t-7 -82.5q1 -90 47.5 -134.5t106.5 -41.5z" />
    <glyph glyph-name="acircumflex" unicode="&#xe2;" horiz-adv-x="845" 
d="M682 1348q18 -15 18 -28.5t-18 -31.5l-33 -35q-18 -17 -30.5 -16.5t-30.5 16.5l-170 170l-172 -170q-18 -16 -31 -16.5t-31 16.5l-32 35q-32 32 0 60l235 231q29 29 62 0zM397 -14q-56 -7 -109 10t-96.5 55.5t-70.5 106t-27 153.5q0 83 24 145.5t62 102t102.5 68t127 43
t153.5 28.5v58q0 83 -43 125.5t-104 42.5q-53 0 -87.5 -29.5t-47.5 -75.5q-5 -24 -35 -24h-92q-31 0 -27 36q6 115 90.5 180.5t206.5 65.5q60 0 114 -19.5t99 -60t71.5 -111t26.5 -163.5l2 -520q0 -65 19 -162q8 -41 -41 -41h-84q-25 0 -34.5 15t-16.5 71q-32 -45 -80.5 -71
t-102.5 -29zM420 141q60 3 101.5 51t41.5 132v258q-56 -10 -93.5 -19.5t-74 -24t-58.5 -32.5t-39.5 -44.5t-24.5 -62t-7 -82.5q1 -90 47.5 -134.5t106.5 -41.5z" />
    <glyph glyph-name="atilde" unicode="&#xe3;" horiz-adv-x="845" 
d="M672 1466q25 -16 10 -43q-34 -62 -82.5 -86t-93.5 -24q-39 4 -93.5 27.5t-60.5 25.5q-64 16 -102 -37q-17 -26 -43 -10l-60 37q-25 16 -10 43q33 61 83 85.5t93 22.5q39 -2 91.5 -25.5t62.5 -25.5q61 -20 100 37q19 25 43 10zM397 -14q-56 -7 -109 10t-96.5 55.5
t-70.5 106t-27 153.5q0 83 24 145.5t62 102t102.5 68t127 43t153.5 28.5v58q0 83 -43 125.5t-104 42.5q-53 0 -87.5 -29.5t-47.5 -75.5q-5 -24 -35 -24h-92q-31 0 -27 36q6 115 90.5 180.5t206.5 65.5q60 0 114 -19.5t99 -60t71.5 -111t26.5 -163.5l2 -520q0 -65 19 -162
q8 -41 -41 -41h-84q-25 0 -34.5 15t-16.5 71q-32 -45 -80.5 -71t-102.5 -29zM420 141q60 3 101.5 51t41.5 132v258q-56 -10 -93.5 -19.5t-74 -24t-58.5 -32.5t-39.5 -44.5t-24.5 -62t-7 -82.5q1 -90 47.5 -134.5t106.5 -41.5z" />
    <glyph glyph-name="adieresis" unicode="&#xe4;" horiz-adv-x="845" 
d="M254 1305q-47 0 -81 33t-34 79q0 47 34 81t81 34q46 0 79.5 -34t33.5 -81q0 -46 -33.5 -79t-79.5 -33zM584 1305q-47 0 -81 33t-34 79q0 47 34 81t81 34q46 0 79 -34t33 -81q0 -46 -33 -79t-79 -33zM397 -14q-56 -7 -109 10t-96.5 55.5t-70.5 106t-27 153.5
q0 83 24 145.5t62 102t102.5 68t127 43t153.5 28.5v58q0 83 -43 125.5t-104 42.5q-53 0 -87.5 -29.5t-47.5 -75.5q-5 -24 -35 -24h-92q-31 0 -27 36q6 115 90.5 180.5t206.5 65.5q60 0 114 -19.5t99 -60t71.5 -111t26.5 -163.5l2 -520q0 -65 19 -162q8 -41 -41 -41h-84
q-25 0 -34.5 15t-16.5 71q-32 -45 -80.5 -71t-102.5 -29zM420 141q60 3 101.5 51t41.5 132v258q-56 -10 -93.5 -19.5t-74 -24t-58.5 -32.5t-39.5 -44.5t-24.5 -62t-7 -82.5q1 -90 47.5 -134.5t106.5 -41.5z" />
    <glyph glyph-name="aring" unicode="&#xe5;" horiz-adv-x="845" 
d="M418 1257q-88 0 -150.5 63.5t-62.5 152.5q0 88 62.5 150.5t150.5 62.5t150.5 -62.5t62.5 -150.5q0 -89 -62.5 -152.5t-150.5 -63.5zM418 1370q42 0 72 30t30 73q0 41 -30.5 70.5t-71.5 29.5q-42 0 -72.5 -29.5t-30.5 -70.5q0 -42 30.5 -72.5t72.5 -30.5zM397 -14
q-56 -7 -109 10t-96.5 55.5t-70.5 106t-27 153.5q0 83 24 145.5t62 102t102.5 68t127 43t153.5 28.5v58q0 83 -43 125.5t-104 42.5q-53 0 -87.5 -29.5t-47.5 -75.5q-5 -24 -35 -24h-92q-31 0 -27 36q6 115 90.5 180.5t206.5 65.5q60 0 114 -19.5t99 -60t71.5 -111
t26.5 -163.5l2 -520q0 -65 19 -162q8 -41 -41 -41h-84q-25 0 -34.5 15t-16.5 71q-32 -45 -80.5 -71t-102.5 -29zM420 141q60 3 101.5 51t41.5 132v258q-56 -10 -93.5 -19.5t-74 -24t-58.5 -32.5t-39.5 -44.5t-24.5 -62t-7 -82.5q1 -90 47.5 -134.5t106.5 -41.5z" />
    <glyph glyph-name="ae" unicode="&#xe6;" horiz-adv-x="1306" 
d="M887 1077q61 0 116 -20.5t101.5 -62t74 -114.5t27.5 -169v-39q0 -58 -6 -117q-2 -24 -11 -33.5t-32 -9.5h-399q-12 0 -16.5 -4t-4.5 -16v-175q0 -89 44.5 -132.5t105.5 -43.5q52 0 85 28t48 71q8 24 35 24h100q31 0 27 -37q-13 -117 -99.5 -181t-199.5 -64q-83 0 -154 36
t-113 109q-38 -65 -96 -100.5t-123 -40.5q-56 -6 -109 11t-97 55.5t-70.5 105.5t-26.5 153q0 60 12.5 109t33 85t55 65t71 48t88 35t98.5 25.5t111 19.5v43q0 90 -44 133.5t-107 43.5q-51 0 -84.5 -28t-48.5 -71q-8 -24 -35 -24h-94q-31 0 -27 36q13 117 97 181.5t198 64.5
q153 0 235 -106q42 53 104.5 79.5t129.5 26.5zM1038 664v71q0 94 -45 138.5t-106 44.5q-60 0 -105 -44.5t-45 -138.5v-71q0 -12 4.5 -16.5t16.5 -4.5h260q12 0 16 4.5t4 16.5zM563 324v258q-56 -10 -93.5 -19.5t-74 -24t-58.5 -32.5t-39.5 -44.5t-24.5 -62t-7 -82.5
q1 -90 47.5 -134.5t106.5 -41.5t101.5 51t41.5 132z" />
    <glyph glyph-name="ccedilla" unicode="&#xe7;" horiz-adv-x="815" 
d="M438 -100q77 31 141 11.5t105 -77t41 -127.5q0 -92 -69.5 -157.5t-166.5 -65.5q-48 0 -98 20q-37 14 -24 50l22 57q7 18 17.5 22.5t27.5 -2.5q30 -10 55 -10q41 0 71 29.5t30 70.5q0 42 -29.5 71.5t-71.5 29.5q-43 0 -90 -47q-17 -20 -43 -8l-51 20q-26 11 -16 39l57 164
q-109 22 -177.5 111t-68.5 249v361q0 97 27 170t73.5 114.5t101.5 61.5t118 20q114 0 198 -64.5t97 -181.5q4 -36 -27 -36h-96q-27 0 -35 24q-15 43 -48.5 71t-84.5 28q-61 0 -105.5 -43.5t-44.5 -133.5v-424q0 -89 44.5 -132.5t105.5 -43.5q51 0 85.5 28.5t47.5 70.5
q8 24 35 24h96q31 0 27 -37q-13 -103 -80 -165.5t-164 -75.5z" />
    <glyph glyph-name="egrave" unicode="&#xe8;" horiz-adv-x="841" 
d="M608 1360q31 -31 0 -62l-45 -45q-31 -31 -61 0l-258 244q-17 17 -17 29.5t17 29.5l43 48q18 16 30.5 16.5t30.5 -16.5zM424 1077q60 0 113 -19t100 -59.5t74.5 -114.5t27.5 -173v-39q0 -33 -4 -111q-2 -24 -11 -33.5t-32 -9.5h-399q-12 0 -16.5 -4t-4.5 -16v-181
q0 -90 44.5 -133t107.5 -43q50 0 84 28t49 71q8 24 35 24h98q31 0 27 -37q-13 -117 -96.5 -181t-196.5 -64q-63 0 -118 20.5t-102.5 63.5t-75.5 120.5t-28 180.5v325q0 103 28 180.5t75.5 120.5t102.5 63.5t118 20.5zM582 741q0 94 -47 138.5t-109 44.5q-60 0 -107 -44.5
t-47 -138.5v-71q0 -12 4.5 -16.5t16.5 -4.5h268q12 0 16.5 4.5t4.5 16.5v71z" />
    <glyph glyph-name="eacute" unicode="&#xe9;" horiz-adv-x="841" 
d="M236 1360l258 244q30 30 61 0l45 -48q17 -17 17 -29.5t-17 -29.5l-258 -244q-30 -31 -61 0l-45 45q-31 31 0 62zM424 1077q60 0 113 -19t100 -59.5t74.5 -114.5t27.5 -173v-39q0 -33 -4 -111q-2 -24 -11 -33.5t-32 -9.5h-399q-12 0 -16.5 -4t-4.5 -16v-181
q0 -90 44.5 -133t107.5 -43q50 0 84 28t49 71q8 24 35 24h98q31 0 27 -37q-13 -117 -96.5 -181t-196.5 -64q-63 0 -118 20.5t-102.5 63.5t-75.5 120.5t-28 180.5v325q0 103 28 180.5t75.5 120.5t102.5 63.5t118 20.5zM582 741q0 94 -47 138.5t-109 44.5q-60 0 -107 -44.5
t-47 -138.5v-71q0 -12 4.5 -16.5t16.5 -4.5h268q12 0 16.5 4.5t4.5 16.5v71z" />
    <glyph glyph-name="ecircumflex" unicode="&#xea;" horiz-adv-x="841" 
d="M688 1348q18 -15 18 -28.5t-18 -31.5l-33 -35q-18 -17 -30.5 -16.5t-30.5 16.5l-170 170l-172 -170q-18 -16 -31 -16.5t-31 16.5l-32 35q-32 32 0 60l235 231q29 29 62 0zM424 1077q60 0 113 -19t100 -59.5t74.5 -114.5t27.5 -173v-39q0 -33 -4 -111q-2 -24 -11 -33.5
t-32 -9.5h-399q-12 0 -16.5 -4t-4.5 -16v-181q0 -90 44.5 -133t107.5 -43q50 0 84 28t49 71q8 24 35 24h98q31 0 27 -37q-13 -117 -96.5 -181t-196.5 -64q-63 0 -118 20.5t-102.5 63.5t-75.5 120.5t-28 180.5v325q0 103 28 180.5t75.5 120.5t102.5 63.5t118 20.5zM582 741
q0 94 -47 138.5t-109 44.5q-60 0 -107 -44.5t-47 -138.5v-71q0 -12 4.5 -16.5t16.5 -4.5h268q12 0 16.5 4.5t4.5 16.5v71z" />
    <glyph glyph-name="edieresis" unicode="&#xeb;" horiz-adv-x="841" 
d="M260 1305q-47 0 -81 33t-34 79q0 47 34 81t81 34q46 0 79.5 -34t33.5 -81q0 -46 -33.5 -79t-79.5 -33zM590 1305q-47 0 -81 33t-34 79q0 47 34 81t81 34q46 0 79 -34t33 -81q0 -46 -33 -79t-79 -33zM424 1077q60 0 113 -19t100 -59.5t74.5 -114.5t27.5 -173v-39
q0 -33 -4 -111q-2 -24 -11 -33.5t-32 -9.5h-399q-12 0 -16.5 -4t-4.5 -16v-181q0 -90 44.5 -133t107.5 -43q50 0 84 28t49 71q8 24 35 24h98q31 0 27 -37q-13 -117 -96.5 -181t-196.5 -64q-63 0 -118 20.5t-102.5 63.5t-75.5 120.5t-28 180.5v325q0 103 28 180.5t75.5 120.5
t102.5 63.5t118 20.5zM582 741q0 94 -47 138.5t-109 44.5q-60 0 -107 -44.5t-47 -138.5v-71q0 -12 4.5 -16.5t16.5 -4.5h268q12 0 16.5 4.5t4.5 16.5v71z" />
    <glyph glyph-name="igrave" unicode="&#xec;" horiz-adv-x="395" 
d="M383 1360q31 -31 0 -62l-45 -45q-31 -31 -62 0l-258 244q-17 17 -17 29.5t17 29.5l43 48q18 16 31 16.5t31 -16.5zM242 1059q23 0 33 -10t10 -33v-973q0 -23 -10 -33t-33 -10h-88q-23 0 -33 10t-10 33v973q0 23 10 33t33 10h88z" />
    <glyph glyph-name="iacute" unicode="&#xed;" horiz-adv-x="395" 
d="M10 1360l258 244q31 31 62 0l45 -48q17 -17 17 -29.5t-17 -29.5l-258 -244q-31 -31 -62 0l-45 45q-31 31 0 62zM242 1059q23 0 33 -10t10 -33v-973q0 -23 -10 -33t-33 -10h-88q-23 0 -33 10t-10 33v973q0 23 10 33t33 10h88z" />
    <glyph glyph-name="icircumflex" unicode="&#xee;" horiz-adv-x="395" 
d="M463 1348q18 -15 18 -28.5t-18 -31.5l-33 -35q-18 -17 -30.5 -16.5t-30.5 16.5l-170 170l-172 -170q-18 -16 -31 -16.5t-31 16.5l-33 35q-32 32 0 60l236 231q29 29 61 0zM242 1059q23 0 33 -10t10 -33v-973q0 -23 -10 -33t-33 -10h-88q-23 0 -33 10t-10 33v973
q0 23 10 33t33 10h88z" />
    <glyph glyph-name="idieresis" unicode="&#xef;" horiz-adv-x="395" 
d="M35 1305q-47 0 -81 33t-34 79q0 47 34 81t81 34q46 0 79 -34t33 -81q0 -46 -33 -79t-79 -33zM365 1305q-47 0 -81 33t-34 79q0 47 34 81t81 34q46 0 79 -34t33 -81q0 -46 -33 -79t-79 -33zM242 1059q23 0 33 -10t10 -33v-973q0 -23 -10 -33t-33 -10h-88q-23 0 -33 10
t-10 33v973q0 23 10 33t33 10h88z" />
    <glyph glyph-name="eth" unicode="&#xf0;" horiz-adv-x="862" 
d="M430 -18q-61 0 -116 20.5t-103 62.5t-76.5 115.5t-28.5 169.5v273q0 93 27.5 164t72.5 109.5t96 56t104 12.5q108 -11 176 -86q0 170 -17.5 260.5t-64.5 152.5l-94 -90q-31 -31 -62 0l-45 45q-29 29 0 62l88 82q-49 19 -117 22q-24 3 -33.5 12t-9.5 31v66q0 23 10 33
t33 10q141 0 244 -56l80 78q19 17 32 16.5t29 -16.5l45 -47q32 -32 0 -59l-71 -68q69 -85 98 -197t29 -342v-524q0 -96 -28.5 -169.5t-76.5 -115.5t-104 -62.5t-117 -20.5zM430 141q61 0 106.5 45t45.5 138v299q0 94 -45.5 138t-106.5 44q-60 0 -104.5 -44t-44.5 -138v-299
q0 -93 45 -138t104 -45z" />
    <glyph glyph-name="ntilde" unicode="&#xf1;" horiz-adv-x="870" 
d="M162 1356q-25 16 -10 43q33 61 83 85.5t93 22.5q39 -2 91 -25.5t62 -25.5q62 -20 101 37q19 25 43 10l61 -37q25 -16 10 -43q-34 -62 -82.5 -86t-93.5 -24q-39 4 -93 27.5t-60 25.5q-65 16 -103 -37q-17 -26 -43 -10zM459 1073q55 7 108 -10.5t96.5 -56t70 -106
t26.5 -152.5v-705q0 -23 -10 -33t-33 -10h-88q-23 0 -33 10t-10 33v692q0 95 -47 140.5t-109 42.5q-60 -2 -102.5 -49.5t-42.5 -133.5v-692q0 -23 -10 -33t-33 -10h-88q-23 0 -33 10t-10 33v973q0 23 10 33t33 10h63q22 0 31 -9.5t14 -33.5l12 -58q79 102 185 115z" />
    <glyph glyph-name="ograve" unicode="&#xf2;" horiz-adv-x="849" 
d="M608 1360q31 -31 0 -62l-45 -45q-31 -31 -61 0l-258 244q-17 17 -17 29.5t17 29.5l43 48q18 16 30.5 16.5t30.5 -16.5zM424 -18q-61 0 -116 20.5t-103 62.5t-76.5 115.5t-28.5 169.5v361q0 96 28.5 169t76 114.5t103 62t116.5 20.5t117 -20.5t104 -62t76.5 -114.5
t28.5 -169v-361q0 -96 -28.5 -169.5t-76.5 -115.5t-104 -62.5t-117 -20.5zM575 735q0 94 -45 138.5t-106 44.5q-60 0 -105 -44.5t-45 -138.5v-411q0 -93 45.5 -138t104.5 -45q61 0 106 45t45 138v411z" />
    <glyph glyph-name="oacute" unicode="&#xf3;" horiz-adv-x="849" 
d="M236 1360l258 244q30 30 61 0l45 -48q17 -17 17 -29.5t-17 -29.5l-258 -244q-30 -31 -61 0l-45 45q-31 31 0 62zM424 -18q-61 0 -116 20.5t-103 62.5t-76.5 115.5t-28.5 169.5v361q0 96 28.5 169t76 114.5t103 62t116.5 20.5t117 -20.5t104 -62t76.5 -114.5t28.5 -169
v-361q0 -96 -28.5 -169.5t-76.5 -115.5t-104 -62.5t-117 -20.5zM575 735q0 94 -45 138.5t-106 44.5q-60 0 -105 -44.5t-45 -138.5v-411q0 -93 45.5 -138t104.5 -45q61 0 106 45t45 138v411z" />
    <glyph glyph-name="ocircumflex" unicode="&#xf4;" horiz-adv-x="849" 
d="M688 1348q18 -15 18 -28.5t-18 -31.5l-33 -35q-18 -17 -30.5 -16.5t-30.5 16.5l-170 170l-172 -170q-18 -16 -31 -16.5t-31 16.5l-32 35q-32 32 0 60l235 231q29 29 62 0zM424 -18q-61 0 -116 20.5t-103 62.5t-76.5 115.5t-28.5 169.5v361q0 96 28.5 169t76 114.5t103 62
t116.5 20.5t117 -20.5t104 -62t76.5 -114.5t28.5 -169v-361q0 -96 -28.5 -169.5t-76.5 -115.5t-104 -62.5t-117 -20.5zM575 735q0 94 -45 138.5t-106 44.5q-60 0 -105 -44.5t-45 -138.5v-411q0 -93 45.5 -138t104.5 -45q61 0 106 45t45 138v411z" />
    <glyph glyph-name="otilde" unicode="&#xf5;" horiz-adv-x="849" 
d="M678 1466q25 -16 10 -43q-34 -62 -82.5 -86t-93.5 -24q-39 4 -93.5 27.5t-60.5 25.5q-64 16 -102 -37q-17 -26 -43 -10l-59 37q-25 17 -11 43q33 61 83 85.5t93 22.5q39 -2 91.5 -25.5t62.5 -25.5q61 -20 100 37q19 25 43 10zM424 -18q-61 0 -116 20.5t-103 62.5
t-76.5 115.5t-28.5 169.5v361q0 96 28.5 169t76 114.5t103 62t116.5 20.5t117 -20.5t104 -62t76.5 -114.5t28.5 -169v-361q0 -96 -28.5 -169.5t-76.5 -115.5t-104 -62.5t-117 -20.5zM575 735q0 94 -45 138.5t-106 44.5q-60 0 -105 -44.5t-45 -138.5v-411q0 -93 45.5 -138
t104.5 -45q61 0 106 45t45 138v411z" />
    <glyph glyph-name="odieresis" unicode="&#xf6;" horiz-adv-x="849" 
d="M260 1305q-47 0 -81 33t-34 79q0 47 34 81t81 34q46 0 79.5 -34t33.5 -81q0 -46 -33.5 -79t-79.5 -33zM590 1305q-47 0 -81 33t-34 79q0 47 34 81t81 34q46 0 79 -34t33 -81q0 -46 -33 -79t-79 -33zM424 -18q-61 0 -116 20.5t-103 62.5t-76.5 115.5t-28.5 169.5v361
q0 96 28.5 169t76 114.5t103 62t116.5 20.5t117 -20.5t104 -62t76.5 -114.5t28.5 -169v-361q0 -96 -28.5 -169.5t-76.5 -115.5t-104 -62.5t-117 -20.5zM575 735q0 94 -45 138.5t-106 44.5q-60 0 -105 -44.5t-45 -138.5v-411q0 -93 45.5 -138t104.5 -45q61 0 106 45t45 138
v411z" />
    <glyph glyph-name="divide" unicode="&#xf7;" horiz-adv-x="1083" 
d="M543 1012q-55 0 -93 37.5t-38 91.5q0 53 38 90t93 37q54 0 91.5 -37t37.5 -90q0 -54 -37.5 -91.5t-91.5 -37.5zM950 811q23 0 33 -10t10 -33v-57q0 -23 -10 -33t-33 -10h-817q-23 0 -33 10t-10 33v57q0 23 10 33t33 10h817zM543 211q-55 0 -93 37.5t-38 91.5q0 53 38 90
t93 37q54 0 91.5 -37t37.5 -90q0 -54 -37.5 -91.5t-91.5 -37.5z" />
    <glyph glyph-name="oslash" unicode="&#xf8;" horiz-adv-x="849" 
d="M805 1059q16 0 22 -11.5t-6 -31.5l-98 -144q27 -76 27 -161v-361q0 -96 -28.5 -169.5t-76.5 -115.5t-104 -62.5t-117 -20.5q-146 0 -236 100l-26 -39q-16 -25 -29 -34t-35 -9h-53q-16 0 -22 11.5t6 31.5l98 143q-27 76 -27 164v361q0 96 28.5 169t76 114.5t103 62
t116.5 20.5q151 0 240 -102l28 41q19 26 30.5 34.5t31.5 8.5h51zM274 735v-332l287 420q-19 49 -56.5 72t-80.5 23q-60 0 -105 -44.5t-45 -138.5zM575 324v329l-284 -420q19 -47 55.5 -69.5t77.5 -22.5q61 0 106 45t45 138z" />
    <glyph glyph-name="ugrave" unicode="&#xf9;" horiz-adv-x="870" 
d="M512 1253l-258 244q-17 17 -17 29.5t17 29.5l43 48q18 16 30.5 16.5t30.5 -16.5l260 -244q31 -31 0 -62l-45 -45q-31 -31 -61 0zM717 1059q23 0 33 -10t10 -33v-973q0 -23 -10 -33t-33 -10h-64q-22 0 -31 9.5t-14 33.5l-12 57q-78 -101 -184 -114q-55 -7 -108 10.5
t-96.5 56t-70 106t-26.5 152.5v705q0 23 10 33t33 10h88q23 0 33 -10t10 -33v-692q0 -95 46.5 -140.5t108.5 -42.5q60 2 103 49.5t43 133.5v692q0 23 10 33t33 10h88z" />
    <glyph glyph-name="uacute" unicode="&#xfa;" horiz-adv-x="870" 
d="M291 1253l-45 45q-31 31 0 62l258 244q30 30 61 0l45 -48q17 -17 17 -29.5t-17 -29.5l-258 -244q-30 -31 -61 0zM717 1059q23 0 33 -10t10 -33v-973q0 -23 -10 -33t-33 -10h-64q-22 0 -31 9.5t-14 33.5l-12 57q-78 -101 -184 -114q-55 -7 -108 10.5t-96.5 56t-70 106
t-26.5 152.5v705q0 23 10 33t33 10h88q23 0 33 -10t10 -33v-692q0 -95 46.5 -140.5t108.5 -42.5q60 2 103 49.5t43 133.5v692q0 23 10 33t33 10h88z" />
    <glyph glyph-name="ucircumflex" unicode="&#xfb;" horiz-adv-x="870" 
d="M201 1253l-33 35q-32 32 0 60l235 231q29 29 62 0l233 -231q18 -15 18 -28.5t-18 -31.5l-32 -35q-18 -17 -31 -16.5t-31 16.5l-170 170l-172 -170q-18 -16 -30.5 -16.5t-30.5 16.5zM717 1059q23 0 33 -10t10 -33v-973q0 -23 -10 -33t-33 -10h-64q-22 0 -31 9.5t-14 33.5
l-12 57q-78 -101 -184 -114q-55 -7 -108 10.5t-96.5 56t-70 106t-26.5 152.5v705q0 23 10 33t33 10h88q23 0 33 -10t10 -33v-692q0 -95 46.5 -140.5t108.5 -42.5q60 2 103 49.5t43 133.5v692q0 23 10 33t33 10h88z" />
    <glyph glyph-name="udieresis" unicode="&#xfc;" horiz-adv-x="870" 
d="M270 1305q-47 0 -80.5 33t-33.5 79q0 47 33.5 81t80.5 34q46 0 79.5 -34t33.5 -81q0 -46 -33.5 -79t-79.5 -33zM600 1305q-47 0 -81 33t-34 79q0 47 34 81t81 34q46 0 79.5 -34t33.5 -81q0 -46 -33.5 -79t-79.5 -33zM717 1059q23 0 33 -10t10 -33v-973q0 -23 -10 -33
t-33 -10h-64q-22 0 -31 9.5t-14 33.5l-12 57q-78 -101 -184 -114q-55 -7 -108 10.5t-96.5 56t-70 106t-26.5 152.5v705q0 23 10 33t33 10h88q23 0 33 -10t10 -33v-692q0 -95 46.5 -140.5t108.5 -42.5q60 2 103 49.5t43 133.5v692q0 23 10 33t33 10h88z" />
    <glyph glyph-name="yacute" unicode="&#xfd;" horiz-adv-x="772" 
d="M197 1360l258 244q31 30 61 0l45 -48q17 -17 17 -29.5t-17 -29.5l-258 -244q-31 -31 -61 0l-45 45q-31 31 0 62zM119 -397q-23 0 -33 10t-10 33v71q0 23 9.5 32t33.5 11q59 7 94 27t51 72q30 105 33.5 140t-10.5 77l-271 942q-9 41 27 41h102q39 0 48 -41l180 -701
q3 -11 12 -11t12 11l181 701q12 41 47 41h102q39 0 27 -41l-359 -1235q-54 -180 -276 -180z" />
    <glyph glyph-name="thorn" unicode="&#xfe;" horiz-adv-x="860" 
d="M459 1073q55 7 108 -10.5t96.5 -56t70 -106t26.5 -152.5v-220v-217q0 -85 -26.5 -152.5t-70 -106t-96.5 -56t-108 -10.5q-96 13 -174 102v-442q0 -23 -10 -33t-33 -10h-88q-23 0 -33 10t-10 33v1847q0 23 10 33t33 10h86q45 0 45 -45v-520q78 89 174 102zM586 735
q0 95 -47 140.5t-109 42.5q-60 -2 -102.5 -49.5t-42.5 -133.5v-411q0 -86 42.5 -133.5t102.5 -49.5q62 -3 109 42.5t47 140.5v411z" />
    <glyph glyph-name="ydieresis" unicode="&#xff;" horiz-adv-x="772" 
d="M221 1305q-47 0 -81 33t-34 79q0 47 34 81t81 34q46 0 79.5 -34t33.5 -81q0 -46 -33.5 -79t-79.5 -33zM551 1305q-47 0 -81 33t-34 79q0 47 34 81t81 34q46 0 79.5 -34t33.5 -81q0 -46 -33.5 -79t-79.5 -33zM119 -397q-23 0 -33 10t-10 33v71q0 23 9.5 32t33.5 11
q59 7 94 27t51 72q30 105 33.5 140t-10.5 77l-271 942q-9 41 27 41h102q39 0 48 -41l180 -701q3 -11 12 -11t12 11l181 701q12 41 47 41h102q39 0 27 -41l-359 -1235q-54 -180 -276 -180z" />
    <glyph glyph-name="Amacron" unicode="&#x100;" horiz-adv-x="933" 
d="M645 1866q23 0 33 -10t10 -33v-56q0 -23 -10 -33t-33 -10h-362q-23 0 -33 10t-10 33v56q0 23 10 33t33 10h362zM57 41l316 1454q6 25 17.5 33t37.5 8h78q26 0 37.5 -8t17.5 -33l316 -1454q8 -41 -31 -41h-107q-20 0 -30.5 9t-14.5 32l-57 274q-4 18 -12 23.5t-29 5.5
h-258q-21 0 -29 -5.5t-12 -23.5l-57 -274q-4 -23 -14.5 -32t-30.5 -9h-107q-39 0 -31 41zM336 530q-3 -22 16 -22h230q19 0 16 22l-119 607q-3 11 -13 11t-11 -11z" />
    <glyph glyph-name="amacron" unicode="&#x101;" horiz-adv-x="845" 
d="M662 1386q0 -23 -10.5 -33t-33.5 -10h-403q-23 0 -33 10t-10 33v64q0 23 10 33t33 10h403q23 0 33.5 -10t10.5 -33v-64zM397 -14q-56 -7 -109 10t-96.5 55.5t-70.5 106t-27 153.5q0 83 24 145.5t62 102t102.5 68t127 43t153.5 28.5v58q0 83 -43 125.5t-104 42.5
q-53 0 -87.5 -29.5t-47.5 -75.5q-5 -24 -35 -24h-92q-31 0 -27 36q6 115 90.5 180.5t206.5 65.5q60 0 114 -19.5t99 -60t71.5 -111t26.5 -163.5l2 -520q0 -65 19 -162q8 -41 -41 -41h-84q-25 0 -34.5 15t-16.5 71q-32 -45 -80.5 -71t-102.5 -29zM420 141q60 3 101.5 51
t41.5 132v258q-56 -10 -93.5 -19.5t-74 -24t-58.5 -32.5t-39.5 -44.5t-24.5 -62t-7 -82.5q1 -90 47.5 -134.5t106.5 -41.5z" />
    <glyph glyph-name="Abreve" unicode="&#x102;" horiz-adv-x="933" 
d="M735 1868q17 -18 16.5 -31t-16.5 -31q-116 -116 -270 -116q-157 0 -268 116q-17 17 -17 31t17 31l39 39q11 11 21.5 11.5t18 -4t23.5 -16.5q26 -22 46 -34.5t52 -23.5t68 -11q37 0 69.5 11t51 23.5t45.5 34.5q16 12 23.5 16.5t18 4t21.5 -11.5zM57 41l316 1454
q6 25 17.5 33t37.5 8h78q26 0 37.5 -8t17.5 -33l316 -1454q8 -41 -31 -41h-107q-20 0 -30.5 9t-14.5 32l-57 274q-4 18 -12 23.5t-29 5.5h-258q-21 0 -29 -5.5t-12 -23.5l-57 -274q-4 -23 -14.5 -32t-30.5 -9h-107q-39 0 -31 41zM336 530q-3 -22 16 -22h230q19 0 16 22
l-119 607q-3 11 -13 11t-11 -11z" />
    <glyph glyph-name="abreve" unicode="&#x103;" horiz-adv-x="845" 
d="M676 1485q17 -17 17 -31t-17 -31q-50 -50 -119.5 -80t-148.5 -30q-80 0 -150.5 30t-120.5 80q-17 17 -17 31t17 31l43 41q11 11 22 11t17.5 -3.5t24.5 -17.5q43 -32 79 -48t85 -16q47 0 82.5 16t80.5 48q16 13 23.5 17.5t18.5 4t22 -11.5zM397 -14q-56 -7 -109 10
t-96.5 55.5t-70.5 106t-27 153.5q0 83 24 145.5t62 102t102.5 68t127 43t153.5 28.5v58q0 83 -43 125.5t-104 42.5q-53 0 -87.5 -29.5t-47.5 -75.5q-5 -24 -35 -24h-92q-31 0 -27 36q6 115 90.5 180.5t206.5 65.5q60 0 114 -19.5t99 -60t71.5 -111t26.5 -163.5l2 -520
q0 -65 19 -162q8 -41 -41 -41h-84q-25 0 -34.5 15t-16.5 71q-32 -45 -80.5 -71t-102.5 -29zM420 141q60 3 101.5 51t41.5 132v258q-56 -10 -93.5 -19.5t-74 -24t-58.5 -32.5t-39.5 -44.5t-24.5 -62t-7 -82.5q1 -90 47.5 -134.5t106.5 -41.5z" />
    <glyph glyph-name="Aogonek" unicode="&#x104;" horiz-adv-x="933" 
d="M950 -309q12 -36 -24 -49q-56 -24 -114.5 -15.5t-106.5 36.5t-78.5 80t-30.5 114q0 118 96 190l-55 268q-4 18 -12 23.5t-29 5.5h-258q-21 0 -29 -5.5t-12 -23.5l-57 -274q-4 -23 -14.5 -32t-30.5 -9h-107q-39 0 -31 41l316 1454q6 25 17.5 33t37.5 8h78q26 0 37.5 -8
t17.5 -33l316 -1454q8 -41 -31 -41h-86q-37 -59 -39 -104q-3 -64 47 -104.5t119 -18.5q34 12 45 -21zM582 508q19 0 16 22l-119 607q-3 11 -13 11t-11 -11l-119 -607q-3 -22 16 -22h230z" />
    <glyph glyph-name="aogonek" unicode="&#x105;" horiz-adv-x="845" 
d="M887 -297q12 -35 -25 -49q-56 -24 -114.5 -15.5t-106.5 36.5t-78.5 80t-30.5 114q0 90 60 156q-7 24 -12 61q-32 -45 -80.5 -71t-102.5 -29q-56 -7 -109 10t-96.5 55.5t-70.5 106t-27 153.5q0 83 24 145.5t62 102t102.5 68t127 43t153.5 28.5v58q0 83 -43 125.5
t-104 42.5q-53 0 -87.5 -29.5t-47.5 -75.5q-5 -24 -35 -24h-92q-31 0 -27 36q6 115 90.5 180.5t206.5 65.5q60 0 114 -19.5t99 -60t71.5 -111t26.5 -163.5l2 -520q0 -65 19 -162q8 -41 -41 -41h-27q-29 -55 -31 -92q-3 -64 47 -104.5t119 -18.5q34 12 45 -21zM563 324v258
q-56 -10 -93.5 -19.5t-74 -24t-58.5 -32.5t-39.5 -44.5t-24.5 -62t-7 -82.5q1 -90 47.5 -134.5t106.5 -41.5t101.5 51t41.5 132z" />
    <glyph glyph-name="Cacute" unicode="&#x106;" horiz-adv-x="927" 
d="M686 1937q13 -22 10 -32.5t-24 -24.5l-324 -217q-19 -13 -30.5 -10t-26.5 24l-31 47q-13 21 -10 32.5t24 25.5l324 217q21 13 32 9t25 -26zM471 -18q-172 0 -268.5 113t-96.5 315v716q0 202 96.5 315t268.5 113q157 0 248 -91.5t102 -241.5q0 -12 -1 -18.5t-7 -12.5
t-18 -6h-115q-18 0 -26 5.5t-9 22.5q-14 75 -59 121.5t-113 46.5q-81 0 -130.5 -67t-49.5 -187v-716q0 -120 49.5 -187t130.5 -67q68 0 113 46.5t59 121.5q1 17 9 22.5t26 5.5h115q17 0 21.5 -9.5t4.5 -27.5q-11 -150 -102 -241.5t-248 -91.5z" />
    <glyph glyph-name="cacute" unicode="&#x107;" horiz-adv-x="815" 
d="M231 1360l258 244q31 31 62 0l45 -48q17 -17 17 -29.5t-17 -29.5l-258 -244q-31 -31 -62 0l-45 45q-31 31 0 62zM688 264q31 0 27 -37q-10 -79 -53.5 -135.5t-106 -83t-135.5 -26.5q-63 0 -118 20t-101.5 62t-73.5 115.5t-27 170.5v361q0 97 27 170t73.5 114.5
t101.5 61.5t118 20q114 0 198 -64.5t97 -181.5q4 -36 -27 -36h-96q-27 0 -35 24q-15 43 -48.5 71t-84.5 28q-61 0 -105.5 -43.5t-44.5 -133.5v-424q0 -89 44.5 -132.5t105.5 -43.5q51 0 85.5 28.5t47.5 70.5q8 24 35 24h96z" />
    <glyph glyph-name="Ccircumflex" unicode="&#x108;" horiz-adv-x="927" 
d="M737 1763q17 -17 17 -30.5t-17 -30.5l-35 -33q-32 -32 -59 0l-172 168l-172 -168q-27 -32 -59 0l-35 33q-17 17 -17 30.5t17 30.5l235 230q14 15 31 15t31 -15zM471 -18q-172 0 -268.5 113t-96.5 315v716q0 202 96.5 315t268.5 113q157 0 248 -91.5t102 -241.5
q0 -12 -1 -18.5t-7 -12.5t-18 -6h-115q-18 0 -26 5.5t-9 22.5q-14 75 -59 121.5t-113 46.5q-81 0 -130.5 -67t-49.5 -187v-716q0 -120 49.5 -187t130.5 -67q68 0 113 46.5t59 121.5q1 17 9 22.5t26 5.5h115q17 0 21.5 -9.5t4.5 -27.5q-11 -150 -102 -241.5t-248 -91.5z" />
    <glyph glyph-name="ccircumflex" unicode="&#x109;" horiz-adv-x="815" 
d="M684 1348q18 -15 18 -28.5t-18 -31.5l-33 -35q-18 -17 -30.5 -16.5t-30.5 16.5l-170 170l-172 -170q-18 -16 -31 -16.5t-31 16.5l-32 35q-32 32 0 60l235 231q29 29 62 0zM688 264q31 0 27 -37q-10 -79 -53.5 -135.5t-106 -83t-135.5 -26.5q-63 0 -118 20t-101.5 62
t-73.5 115.5t-27 170.5v361q0 97 27 170t73.5 114.5t101.5 61.5t118 20q114 0 198 -64.5t97 -181.5q4 -36 -27 -36h-96q-27 0 -35 24q-15 43 -48.5 71t-84.5 28q-61 0 -105.5 -43.5t-44.5 -133.5v-424q0 -89 44.5 -132.5t105.5 -43.5q51 0 85.5 28.5t47.5 70.5q8 24 35 24
h96z" />
    <glyph glyph-name="Cdotaccent" unicode="&#x10a;" horiz-adv-x="927" 
d="M471 1698q-46 0 -79.5 32.5t-33.5 79.5q0 46 33.5 78.5t79.5 32.5t79.5 -32.5t33.5 -78.5q0 -47 -33.5 -79.5t-79.5 -32.5zM471 -18q-172 0 -268.5 113t-96.5 315v716q0 202 96.5 315t268.5 113q157 0 248 -91.5t102 -241.5q0 -12 -1 -18.5t-7 -12.5t-18 -6h-115
q-18 0 -26 5.5t-9 22.5q-14 75 -59 121.5t-113 46.5q-81 0 -130.5 -67t-49.5 -187v-716q0 -120 49.5 -187t130.5 -67q68 0 113 46.5t59 121.5q1 17 9 22.5t26 5.5h115q17 0 21.5 -9.5t4.5 -27.5q-11 -150 -102 -241.5t-248 -91.5z" />
    <glyph glyph-name="cdotaccent" unicode="&#x10b;" horiz-adv-x="815" 
d="M420 1305q-50 0 -84.5 34.5t-34.5 83.5q0 48 35 82.5t84 34.5q47 0 82 -35t35 -82q0 -49 -34.5 -83.5t-82.5 -34.5zM688 264q31 0 27 -37q-10 -79 -53.5 -135.5t-106 -83t-135.5 -26.5q-63 0 -118 20t-101.5 62t-73.5 115.5t-27 170.5v361q0 97 27 170t73.5 114.5
t101.5 61.5t118 20q114 0 198 -64.5t97 -181.5q4 -36 -27 -36h-96q-27 0 -35 24q-15 43 -48.5 71t-84.5 28q-61 0 -105.5 -43.5t-44.5 -133.5v-424q0 -89 44.5 -132.5t105.5 -43.5q51 0 85.5 28.5t47.5 70.5q8 24 35 24h96z" />
    <glyph glyph-name="Ccaron" unicode="&#x10c;" horiz-adv-x="927" 
d="M737 1898l-235 -229q-14 -15 -31.5 -15t-30.5 15l-233 229q-18 18 -18 31t18 31l33 33q18 17 30.5 16.5t30.5 -16.5l170 -170l172 170q18 16 31 16.5t31 -16.5l32 -33q17 -17 17 -31t-17 -31zM471 -18q-172 0 -268.5 113t-96.5 315v716q0 202 96.5 315t268.5 113
q157 0 248 -91.5t102 -241.5q0 -12 -1 -18.5t-7 -12.5t-18 -6h-115q-18 0 -26 5.5t-9 22.5q-14 75 -59 121.5t-113 46.5q-81 0 -130.5 -67t-49.5 -187v-716q0 -120 49.5 -187t130.5 -67q68 0 113 46.5t59 121.5q1 17 9 22.5t26 5.5h115q17 0 21.5 -9.5t4.5 -27.5
q-11 -150 -102 -241.5t-248 -91.5z" />
    <glyph glyph-name="ccaron" unicode="&#x10d;" horiz-adv-x="815" 
d="M684 1483l-233 -232q-33 -29 -62 0l-235 232q-32 27 0 59l32 35q18 17 31 16.5t31 -16.5l172 -170l170 170q18 16 30.5 16.5t30.5 -16.5l33 -35q18 -18 18 -31t-18 -28zM688 264q31 0 27 -37q-10 -79 -53.5 -135.5t-106 -83t-135.5 -26.5q-63 0 -118 20t-101.5 62
t-73.5 115.5t-27 170.5v361q0 97 27 170t73.5 114.5t101.5 61.5t118 20q114 0 198 -64.5t97 -181.5q4 -36 -27 -36h-96q-27 0 -35 24q-15 43 -48.5 71t-84.5 28q-61 0 -105.5 -43.5t-44.5 -133.5v-424q0 -89 44.5 -132.5t105.5 -43.5q51 0 85.5 28.5t47.5 70.5q8 24 35 24
h96z" />
    <glyph glyph-name="Dcaron" unicode="&#x10e;" horiz-adv-x="958" 
d="M709 1898l-236 -229q-13 -15 -30 -15t-31 15l-234 229q-18 18 -18 31t18 31l33 33q18 17 30.5 16.5t30.5 -16.5l170 -170l172 170q18 16 31 16.5t31 -16.5l33 -33q17 -17 17 -31t-17 -31zM453 1536q198 0 298.5 -112.5t100.5 -329.5v-652q0 -217 -100.5 -329.5
t-298.5 -112.5h-293q-23 0 -33 10t-10 33v1450q0 23 10 33t33 10h293zM668 432v672q0 268 -222 268h-104q-23 0 -31 -8t-8 -31v-1130q0 -23 8 -31t31 -8h104q222 0 222 268z" />
    <glyph glyph-name="dcaron" unicode="&#x10f;" horiz-adv-x="1128" 
d="M983 1554q95 0 130.5 -99t-13.5 -228q-45 -118 -127 -203q-22 -22 -47 -4l-31 27q-19 16 -2 40q29 40 47 71.5t29.5 62t6 53.5t-27.5 37q-7 6 -26 20.5t-30.5 25t-21.5 31t-10 44.5q0 51 35.5 86.5t87.5 35.5zM707 1536q23 0 33 -10t10 -33v-1450q0 -23 -10 -33t-33 -10
h-64q-22 0 -31 10t-14 35l-12 51q-74 -96 -183 -110q-56 -6 -109 11t-97 55.5t-70.5 105.5t-26.5 153v219v218q0 85 26.5 152.5t70 106t96.5 56t108 10.5q96 -13 174 -102v522q0 23 10 33t33 10h89zM430 141q60 2 102.5 50t42.5 133v411q0 86 -42.5 133.5t-102.5 49.5
q-62 3 -109 -42.5t-47 -140.5v-207v-204q0 -94 47.5 -140t108.5 -43z" />
    <glyph glyph-name="Dcroat" unicode="&#x110;" horiz-adv-x="985" 
d="M479 1536q198 0 299 -112.5t101 -329.5v-652q0 -217 -101 -329.5t-299 -112.5h-293q-23 0 -33 10t-10 33v768q0 23 -8 31t-31 8h-20q-23 0 -33 10t-10 33v49q0 23 10 33t33 10h20q23 0 31 8t8 31v469q0 23 10 33t33 10h293zM694 432v672q0 268 -221 268h-106
q-23 0 -31 -8t-8 -31v-309q0 -23 8 -31t31 -8h86q23 0 33 -10t10 -33v-49q0 -23 -10 -33t-33 -10h-86q-23 0 -31 -8t-8 -31v-608q0 -23 8 -31t31 -8h106q221 0 221 268z" />
    <glyph glyph-name="dcroat" unicode="&#x111;" horiz-adv-x="878" 
d="M815 1364q23 0 33 -10t10 -33v-8q0 -23 -10 -33t-33 -10h-41q-15 0 -19.5 -5.5t-4.5 -21.5v-1200q0 -23 -10 -33t-33 -10h-64q-22 0 -31 10t-14 35l-12 51q-74 -96 -183 -110q-56 -6 -109 11t-97 55.5t-70.5 105.5t-26.5 153v219v218q0 85 26.5 152.5t70 106t96.5 56
t108 10.5q96 -13 174 -102v272q0 16 -4.5 21.5t-21.5 5.5h-184q-23 0 -33 10t-10 33v8q0 23 10 33t33 10h184q17 0 21.5 5.5t4.5 21.5v102q0 23 10 33t33 10h89q23 0 33 -10t10 -33v-102q0 -16 4.5 -21.5t19.5 -5.5h41zM430 141q60 2 102.5 50t42.5 133v411
q0 86 -42.5 133.5t-102.5 49.5q-62 3 -109 -42.5t-47 -140.5v-207v-204q0 -94 47.5 -140t108.5 -43z" />
    <glyph glyph-name="Emacron" unicode="&#x112;" horiz-adv-x="790" 
d="M580 1866q23 0 33 -10t10 -33v-56q0 -23 -10 -33t-33 -10h-363q-23 0 -33 10t-10 33v56q0 23 10 33t33 10h363zM303 1333v-420q0 -23 8 -31t31 -8h299q23 0 33 -10t10 -33v-77q0 -23 -10 -33t-33 -10h-299q-23 0 -31 -8t-8 -31v-469q0 -23 8 -31t31 -8h299q23 0 33 -10
t10 -33v-78q0 -23 -10 -33t-33 -10h-481q-23 0 -33 10t-10 33v1450q0 23 10 33t33 10h481q23 0 33 -10t10 -33v-78q0 -23 -10 -33t-33 -10h-299q-23 0 -31 -8t-8 -31z" />
    <glyph glyph-name="emacron" unicode="&#x113;" horiz-adv-x="841" 
d="M668 1386q0 -23 -10 -33t-33 -10h-404q-23 0 -33 10t-10 33v64q0 23 10 33t33 10h404q23 0 33 -10t10 -33v-64zM424 1077q60 0 113 -19t100 -59.5t74.5 -114.5t27.5 -173v-39q0 -33 -4 -111q-2 -24 -11 -33.5t-32 -9.5h-399q-12 0 -16.5 -4t-4.5 -16v-181
q0 -90 44.5 -133t107.5 -43q50 0 84 28t49 71q8 24 35 24h98q31 0 27 -37q-13 -117 -96.5 -181t-196.5 -64q-63 0 -118 20.5t-102.5 63.5t-75.5 120.5t-28 180.5v325q0 103 28 180.5t75.5 120.5t102.5 63.5t118 20.5zM582 741q0 94 -47 138.5t-109 44.5q-60 0 -107 -44.5
t-47 -138.5v-71q0 -12 4.5 -16.5t16.5 -4.5h268q12 0 16.5 4.5t4.5 16.5v71z" />
    <glyph glyph-name="Ebreve" unicode="&#x114;" horiz-adv-x="790" 
d="M670 1868q17 -18 16.5 -31t-16.5 -31q-116 -116 -271 -116q-157 0 -268 116q-17 17 -17 31t17 31l39 39q11 11 21.5 11.5t18 -4t23.5 -16.5q26 -22 46 -34.5t52 -23.5t68 -11q37 0 69.5 11t51 23.5t45.5 34.5q15 12 23 17t19 4t22 -12zM303 1333v-420q0 -23 8 -31t31 -8
h299q23 0 33 -10t10 -33v-77q0 -23 -10 -33t-33 -10h-299q-23 0 -31 -8t-8 -31v-469q0 -23 8 -31t31 -8h299q23 0 33 -10t10 -33v-78q0 -23 -10 -33t-33 -10h-481q-23 0 -33 10t-10 33v1450q0 23 10 33t33 10h481q23 0 33 -10t10 -33v-78q0 -23 -10 -33t-33 -10h-299
q-23 0 -31 -8t-8 -31z" />
    <glyph glyph-name="ebreve" unicode="&#x115;" horiz-adv-x="841" 
d="M682 1485q17 -17 17 -31t-17 -31q-50 -50 -119.5 -80t-148.5 -30q-80 0 -150.5 30t-120.5 80q-17 17 -17 31t17 31l43 41q11 11 22 11t17.5 -3.5t24.5 -17.5q43 -32 79 -48t85 -16q47 0 83 16t81 48q16 13 23 17.5t18 4t22 -11.5zM424 1077q60 0 113 -19t100 -59.5
t74.5 -114.5t27.5 -173v-39q0 -33 -4 -111q-2 -24 -11 -33.5t-32 -9.5h-399q-12 0 -16.5 -4t-4.5 -16v-181q0 -90 44.5 -133t107.5 -43q50 0 84 28t49 71q8 24 35 24h98q31 0 27 -37q-13 -117 -96.5 -181t-196.5 -64q-63 0 -118 20.5t-102.5 63.5t-75.5 120.5t-28 180.5v325
q0 103 28 180.5t75.5 120.5t102.5 63.5t118 20.5zM582 741q0 94 -47 138.5t-109 44.5q-60 0 -107 -44.5t-47 -138.5v-71q0 -12 4.5 -16.5t16.5 -4.5h268q12 0 16.5 4.5t4.5 16.5v71z" />
    <glyph glyph-name="Edotaccent" unicode="&#x116;" horiz-adv-x="790" 
d="M399 1698q-46 0 -79 32.5t-33 79.5q0 46 33 78.5t79 32.5t79.5 -32.5t33.5 -78.5q0 -47 -33.5 -79.5t-79.5 -32.5zM303 1333v-420q0 -23 8 -31t31 -8h299q23 0 33 -10t10 -33v-77q0 -23 -10 -33t-33 -10h-299q-23 0 -31 -8t-8 -31v-469q0 -23 8 -31t31 -8h299
q23 0 33 -10t10 -33v-78q0 -23 -10 -33t-33 -10h-481q-23 0 -33 10t-10 33v1450q0 23 10 33t33 10h481q23 0 33 -10t10 -33v-78q0 -23 -10 -33t-33 -10h-299q-23 0 -31 -8t-8 -31z" />
    <glyph glyph-name="edotaccent" unicode="&#x117;" horiz-adv-x="841" 
d="M424 1305q-50 0 -84.5 34.5t-34.5 83.5q0 48 35 82.5t84 34.5q47 0 82 -35t35 -82q0 -49 -34.5 -83.5t-82.5 -34.5zM424 1077q60 0 113 -19t100 -59.5t74.5 -114.5t27.5 -173v-39q0 -33 -4 -111q-2 -24 -11 -33.5t-32 -9.5h-399q-12 0 -16.5 -4t-4.5 -16v-181
q0 -90 44.5 -133t107.5 -43q50 0 84 28t49 71q8 24 35 24h98q31 0 27 -37q-13 -117 -96.5 -181t-196.5 -64q-63 0 -118 20.5t-102.5 63.5t-75.5 120.5t-28 180.5v325q0 103 28 180.5t75.5 120.5t102.5 63.5t118 20.5zM582 741q0 94 -47 138.5t-109 44.5q-60 0 -107 -44.5
t-47 -138.5v-71q0 -12 4.5 -16.5t16.5 -4.5h268q12 0 16.5 4.5t4.5 16.5v71z" />
    <glyph glyph-name="Eogonek" unicode="&#x118;" horiz-adv-x="790" 
d="M733 -297q12 -36 -24 -49q-56 -24 -114.5 -15.5t-106.5 36.5t-78.5 80t-30.5 114q0 73 39 131h-258q-23 0 -33 10t-10 33v1450q0 23 10 33t33 10h481q23 0 33 -10t10 -33v-78q0 -23 -10 -33t-33 -10h-299q-23 0 -31 -8t-8 -31v-420q0 -23 8 -31t31 -8h299q23 0 33 -10
t10 -33v-77q0 -23 -10 -33t-33 -10h-299q-23 0 -31 -8t-8 -31v-469q0 -23 8 -31t31 -8h299q23 0 33 -10t10 -33v-78q0 -23 -10 -33t-33 -10h-106q-29 -55 -31 -92q-3 -64 47 -104.5t119 -18.5q34 12 45 -21z" />
    <glyph glyph-name="eogonek" unicode="&#x119;" horiz-adv-x="841" 
d="M424 1077q60 0 113 -19t100 -59.5t74.5 -114.5t27.5 -173v-39q0 -33 -4 -111q-2 -24 -11 -33.5t-32 -9.5h-399q-12 0 -16.5 -4t-4.5 -16v-181q0 -90 44.5 -133t107.5 -43q50 0 84 28t49 71q8 24 35 24h98q31 0 27 -37q-9 -82 -54 -138.5t-114 -84.5q-42 -60 -47 -115
q-3 -64 47 -104t119 -18q34 12 45 -21l18 -61q13 -36 -24 -50q-56 -24 -114.5 -15.5t-106.5 36.5t-78.5 80t-30.5 114q0 74 39 132q-62 2 -116 23t-100 64t-73 119.5t-27 178.5v325q0 103 28 180.5t75.5 120.5t102.5 63.5t118 20.5zM582 670v71q0 94 -47 138.5t-109 44.5
q-60 0 -107 -44.5t-47 -138.5v-71q0 -12 4.5 -16.5t16.5 -4.5h268q12 0 16.5 4.5t4.5 16.5z" />
    <glyph glyph-name="Ecaron" unicode="&#x11a;" horiz-adv-x="790" 
d="M666 1898l-236 -229q-14 -15 -31 -15t-30 15l-234 229q-18 18 -18 31t18 31l33 33q18 17 30.5 16.5t30.5 -16.5l170 -170l172 170q18 16 31 16.5t31 -16.5l33 -33q17 -17 17 -31t-17 -31zM303 1333v-420q0 -23 8 -31t31 -8h299q23 0 33 -10t10 -33v-77q0 -23 -10 -33
t-33 -10h-299q-23 0 -31 -8t-8 -31v-469q0 -23 8 -31t31 -8h299q23 0 33 -10t10 -33v-78q0 -23 -10 -33t-33 -10h-481q-23 0 -33 10t-10 33v1450q0 23 10 33t33 10h481q23 0 33 -10t10 -33v-78q0 -23 -10 -33t-33 -10h-299q-23 0 -31 -8t-8 -31z" />
    <glyph glyph-name="ecaron" unicode="&#x11b;" horiz-adv-x="841" 
d="M688 1483l-233 -232q-33 -29 -62 0l-235 232q-32 27 0 59l32 35q18 17 31 16.5t31 -16.5l172 -170l170 170q18 16 30.5 16.5t30.5 -16.5l33 -35q18 -18 18 -31t-18 -28zM424 1077q60 0 113 -19t100 -59.5t74.5 -114.5t27.5 -173v-39q0 -33 -4 -111q-2 -24 -11 -33.5
t-32 -9.5h-399q-12 0 -16.5 -4t-4.5 -16v-181q0 -90 44.5 -133t107.5 -43q50 0 84 28t49 71q8 24 35 24h98q31 0 27 -37q-13 -117 -96.5 -181t-196.5 -64q-63 0 -118 20.5t-102.5 63.5t-75.5 120.5t-28 180.5v325q0 103 28 180.5t75.5 120.5t102.5 63.5t118 20.5zM582 741
q0 94 -47 138.5t-109 44.5q-60 0 -107 -44.5t-47 -138.5v-71q0 -12 4.5 -16.5t16.5 -4.5h268q12 0 16.5 4.5t4.5 16.5v71z" />
    <glyph glyph-name="Gcircumflex" unicode="&#x11c;" horiz-adv-x="935" 
d="M737 1763q17 -17 17 -30.5t-17 -30.5l-35 -33q-32 -32 -59 0l-172 168l-172 -168q-27 -32 -59 0l-35 33q-17 17 -17 30.5t17 30.5l235 230q14 15 31 15t31 -15zM788 868q23 0 32 -9t9 -32v-452q0 -182 -95.5 -287.5t-262.5 -105.5q-172 0 -268.5 113t-96.5 315v716
q0 202 96.5 315t268.5 113q157 0 249 -92t101 -241q4 -37 -26 -37h-117q-18 0 -25 5.5t-10 22.5q-12 75 -57 121.5t-113 46.5q-81 0 -130.5 -67t-49.5 -187v-716q0 -120 50 -187t130 -67q76 0 127 59t51 168v293q0 28 -6.5 34.5t-34.5 6.5h-102q-23 0 -32 9t-9 32v69
q0 23 9 32t32 9h280z" />
    <glyph glyph-name="gcircumflex" unicode="&#x11d;" horiz-adv-x="860" 
d="M201 1253l-33 35q-32 32 0 60l235 231q29 29 62 0l233 -231q18 -15 18 -28.5t-18 -31.5l-32 -35q-18 -17 -31 -16.5t-31 16.5l-170 170l-172 -170q-18 -16 -30.5 -16.5t-30.5 16.5zM707 1059q23 0 33 -10t10 -33v-1065q0 -97 -27 -170t-73.5 -114.5t-101.5 -62
t-118 -20.5q-115 0 -201.5 64.5t-99.5 181.5q-4 37 27 37h102q27 0 35 -25q15 -44 47.5 -72t83.5 -28q62 0 106.5 44t44.5 134v168q-78 -89 -174 -102q-55 -7 -108 10.5t-96.5 56t-70 106t-26.5 152.5v219v218q0 86 26.5 153t70.5 105.5t97 55.5t109 11q109 -14 183 -110
l12 53q5 24 14 33.5t31 9.5h64zM430 141q60 2 102.5 49.5t42.5 133.5v411q0 85 -42.5 133t-102.5 50q-61 3 -108.5 -43t-47.5 -140v-207v-204q0 -95 47 -140.5t109 -42.5z" />
    <glyph glyph-name="Gbreve" unicode="&#x11e;" horiz-adv-x="935" 
d="M741 1868q17 -18 16.5 -31t-16.5 -31q-116 -116 -270 -116q-157 0 -268 116q-17 17 -17 31t17 31l39 39q11 11 21.5 11.5t18 -4t23.5 -16.5q26 -22 46 -34.5t52 -23.5t68 -11q37 0 69.5 11t51 23.5t45.5 34.5q16 12 23.5 16.5t18 4t21.5 -11.5zM788 868q23 0 32 -9t9 -32
v-452q0 -182 -95.5 -287.5t-262.5 -105.5q-172 0 -268.5 113t-96.5 315v716q0 202 96.5 315t268.5 113q157 0 249 -92t101 -241q4 -37 -26 -37h-117q-18 0 -25 5.5t-10 22.5q-12 75 -57 121.5t-113 46.5q-81 0 -130.5 -67t-49.5 -187v-716q0 -120 50 -187t130 -67
q76 0 127 59t51 168v293q0 28 -6.5 34.5t-34.5 6.5h-102q-23 0 -32 9t-9 32v69q0 23 9 32t32 9h280z" />
    <glyph glyph-name="gbreve" unicode="&#x11f;" horiz-adv-x="860" 
d="M424 1313q-80 0 -150 30t-120 80q-17 17 -17 31t17 31l43 41q11 11 22 11t16.5 -3.5t24.5 -17.5q43 -32 79 -48t85 -16q47 0 83 16t81 48q16 13 23 17.5t18 4t22 -11.5l41 -41q17 -17 17 -31t-17 -31q-50 -50 -119.5 -80t-148.5 -30zM707 1059q23 0 33 -10t10 -33v-1065
q0 -97 -27 -170t-73.5 -114.5t-101.5 -62t-118 -20.5q-115 0 -201.5 64.5t-99.5 181.5q-4 37 27 37h102q27 0 35 -25q15 -44 47.5 -72t83.5 -28q62 0 106.5 44t44.5 134v168q-78 -89 -174 -102q-55 -7 -108 10.5t-96.5 56t-70 106t-26.5 152.5v219v218q0 86 26.5 153
t70.5 105.5t97 55.5t109 11q109 -14 183 -110l12 53q5 24 14 33.5t31 9.5h64zM430 141q60 2 102.5 49.5t42.5 133.5v411q0 85 -42.5 133t-102.5 50q-61 3 -108.5 -43t-47.5 -140v-207v-204q0 -95 47 -140.5t109 -42.5z" />
    <glyph glyph-name="Gdotaccent" unicode="&#x120;" horiz-adv-x="935" 
d="M471 1698q-46 0 -79.5 32.5t-33.5 79.5q0 46 33.5 78.5t79.5 32.5t79.5 -32.5t33.5 -78.5q0 -47 -33.5 -79.5t-79.5 -32.5zM788 868q23 0 32 -9t9 -32v-452q0 -182 -95.5 -287.5t-262.5 -105.5q-172 0 -268.5 113t-96.5 315v716q0 202 96.5 315t268.5 113q157 0 249 -92
t101 -241q4 -37 -26 -37h-117q-18 0 -25 5.5t-10 22.5q-12 75 -57 121.5t-113 46.5q-81 0 -130.5 -67t-49.5 -187v-716q0 -120 50 -187t130 -67q76 0 127 59t51 168v293q0 28 -6.5 34.5t-34.5 6.5h-102q-23 0 -32 9t-9 32v69q0 23 9 32t32 9h280z" />
    <glyph glyph-name="gdotaccent" unicode="&#x121;" horiz-adv-x="860" 
d="M434 1305q-50 0 -84.5 34.5t-34.5 83.5q0 48 35 82.5t84 34.5q47 0 82 -35t35 -82q0 -49 -34.5 -83.5t-82.5 -34.5zM707 1059q23 0 33 -10t10 -33v-1065q0 -97 -27 -170t-73.5 -114.5t-101.5 -62t-118 -20.5q-115 0 -201.5 64.5t-99.5 181.5q-4 37 27 37h102q27 0 35 -25
q15 -44 47.5 -72t83.5 -28q62 0 106.5 44t44.5 134v168q-78 -89 -174 -102q-55 -7 -108 10.5t-96.5 56t-70 106t-26.5 152.5v219v218q0 86 26.5 153t70.5 105.5t97 55.5t109 11q109 -14 183 -110l12 53q5 24 14 33.5t31 9.5h64zM430 141q60 2 102.5 49.5t42.5 133.5v411
q0 85 -42.5 133t-102.5 50q-61 3 -108.5 -43t-47.5 -140v-207v-204q0 -95 47 -140.5t109 -42.5z" />
    <glyph glyph-name="Gcommaaccent" unicode="&#x122;" horiz-adv-x="935" 
d="M788 868q23 0 32 -9t9 -32v-452q0 -182 -95.5 -287.5t-262.5 -105.5q-172 0 -268.5 113t-96.5 315v716q0 202 96.5 315t268.5 113q157 0 249 -92t101 -241q4 -37 -26 -37h-117q-18 0 -25 5.5t-10 22.5q-12 75 -57 121.5t-113 46.5q-81 0 -130.5 -67t-49.5 -187v-716
q0 -120 50 -187t130 -67q76 0 127 59t51 168v293q0 28 -6.5 34.5t-34.5 6.5h-102q-23 0 -32 9t-9 32v69q0 23 9 32t32 9h280zM424 -311q-4 4 -30.5 27t-36 41t-9.5 46q0 51 36 86.5t87 34.5q75 0 114.5 -64.5t14.5 -174.5q-10 -54 -44 -116t-75 -106q-21 -24 -47 -4l-33 25
q-18 15 -2 41q46 64 52 99t-27 65z" />
    <glyph glyph-name="gcommaaccent" unicode="&#x123;" horiz-adv-x="860" 
d="M428 1247q-74 2 -114 66t-15 174q12 55 46 117.5t73 105.5q20 22 47 4l33 -24q21 -18 2 -43q-46 -62 -51.5 -97.5t26.5 -64.5q5 -6 30.5 -29t35.5 -41.5t10 -46.5q0 -50 -36 -85.5t-87 -35.5zM707 1059q23 0 33 -10t10 -33v-1065q0 -97 -27 -170t-73.5 -114.5t-101.5 -62
t-118 -20.5q-115 0 -201.5 64.5t-99.5 181.5q-4 37 27 37h102q27 0 35 -25q15 -44 47.5 -72t83.5 -28q62 0 106.5 44t44.5 134v168q-78 -89 -174 -102q-55 -7 -108 10.5t-96.5 56t-70 106t-26.5 152.5v219v218q0 86 26.5 153t70.5 105.5t97 55.5t109 11q109 -14 183 -110
l12 53q5 24 14 33.5t31 9.5h64zM430 141q60 2 102.5 49.5t42.5 133.5v411q0 85 -42.5 133t-102.5 50q-61 3 -108.5 -43t-47.5 -140v-207v-204q0 -95 47 -140.5t109 -42.5z" />
    <glyph glyph-name="Hcircumflex" unicode="&#x124;" horiz-adv-x="958" 
d="M745 1763q17 -17 17 -30.5t-17 -30.5l-34 -33q-32 -32 -60 0l-172 168l-172 -168q-27 -32 -59 0l-35 33q-17 17 -17 30.5t17 30.5l236 230q13 15 30.5 15t30.5 -15zM799 1536q23 0 33 -10t10 -33v-1450q0 -23 -10 -33t-33 -10h-101q-23 0 -33 10t-10 33v629q0 23 -8 31
t-31 8h-274q-23 0 -31 -8t-8 -31v-629q0 -23 -10 -33t-33 -10h-100q-23 0 -33 10t-10 33v1450q0 23 10 33t33 10h100q23 0 33 -10t10 -33v-580q0 -23 8 -31t31 -8h274q23 0 31 8t8 31v580q0 23 10 33t33 10h101z" />
    <glyph glyph-name="hcircumflex" unicode="&#x125;" horiz-adv-x="870" 
d="M369 1731l-170 170l-172 -170q-18 -16 -31 -16.5t-31 16.5l-33 34q-32 32 0 60l236 231q29 29 61 0l234 -231q18 -15 18 -28.5t-18 -31.5l-33 -34q-18 -17 -30.5 -16.5t-30.5 16.5zM459 1073q55 7 108 -10.5t96.5 -56t70 -106t26.5 -152.5v-705q0 -23 -10 -33t-33 -10
h-88q-23 0 -33 10t-10 33v692q0 95 -47 140.5t-109 42.5q-60 -2 -102.5 -49.5t-42.5 -133.5v-692q0 -23 -10 -33t-33 -10h-88q-23 0 -33 10t-10 33v1450q0 23 10 33t33 10h88q23 0 33 -10t10 -33v-522q78 89 174 102z" />
    <glyph glyph-name="Hbar" unicode="&#x126;" horiz-adv-x="1011" 
d="M928 1249q23 0 33 -10t10 -33v-37q0 -23 -10 -33t-33 -10h-21q-23 0 -31 -8.5t-8 -30.5v-1044q0 -23 -10 -33t-33 -10h-100q-23 0 -33 10t-10 33v629q0 23 -8 31t-31 8h-276q-23 0 -31 -8t-8 -31v-629q0 -23 -10 -33t-33 -10h-99q-23 0 -33 10t-10 33v1044q0 22 -8 30.5
t-31 8.5h-20q-23 0 -33 10t-10 33v37q0 23 10 33t33 10h20q23 0 31 8t8 31v205q0 23 10 33t33 10h99q23 0 33 -10t10 -33v-205q0 -23 8 -31t31 -8h276q23 0 31 8t8 31v205q0 23 10 33t33 10h100q23 0 33 -10t10 -33v-205q0 -23 8 -31t31 -8h21zM682 913v174q0 22 -8 30.5
t-31 8.5h-276q-23 0 -31 -8.5t-8 -30.5v-174q0 -23 8 -31t31 -8h276q23 0 31 8t8 31z" />
    <glyph glyph-name="hbar" unicode="&#x127;" horiz-adv-x="888" 
d="M477 1073q55 7 108 -10.5t96.5 -56t70 -106t26.5 -152.5v-220h-2v-485q0 -23 -10 -33t-33 -10h-86q-23 0 -33 10t-10 33v692q0 95 -46.5 140.5t-108.5 42.5q-60 -2 -103 -49.5t-43 -133.5v-690q0 -45 -45 -45h-86q-23 0 -33 10t-10 33v1200q0 15 -6 21t-21 6h-39
q-23 0 -33 10t-10 33v8q0 23 10 33t33 10h39q15 0 21 6t6 21v102q0 23 10 33t33 10h88q23 0 33 -10t10 -33v-102q0 -15 5 -21t20 -6h186q23 0 33 -10t10 -33v-8q0 -23 -10 -33t-33 -10h-186q-15 0 -20 -6t-5 -21v-272q78 89 174 102z" />
    <glyph glyph-name="Itilde" unicode="&#x128;" horiz-adv-x="419" 
d="M461 1849q22 -15 10 -43q-62 -108 -168 -108q-39 0 -85.5 29.5t-65.5 33.5q-53 10 -93 -47q-19 -27 -43 -10l-57 37q-25 15 -10 43q62 108 166 108q41 0 87.5 -29.5t65.5 -33.5q48 -10 92 47q18 26 43 10zM117 43v1450q0 23 10 33t33 10h100q23 0 33 -10t10 -33v-1450
q0 -23 -10 -33t-33 -10h-100q-23 0 -33 10t-10 33z" />
    <glyph glyph-name="itilde" unicode="&#x129;" horiz-adv-x="395" 
d="M453 1466q25 -16 10 -43q-34 -62 -82.5 -86t-93.5 -24q-39 4 -93.5 27.5t-60.5 25.5q-64 16 -102 -37q-17 -26 -43 -10l-60 37q-25 16 -10 43q33 61 83 85.5t93 22.5q39 -2 91.5 -25.5t62.5 -25.5q61 -20 100 37q19 25 43 10zM242 1059q23 0 33 -10t10 -33v-973
q0 -23 -10 -33t-33 -10h-88q-23 0 -33 10t-10 33v973q0 23 10 33t33 10h88z" />
    <glyph glyph-name="Imacron" unicode="&#x12a;" horiz-adv-x="419" 
d="M389 1866q23 0 33 -10t10 -33v-56q0 -23 -10 -33t-33 -10h-362q-23 0 -33 10t-10 33v56q0 23 10 33t33 10h362zM117 43v1450q0 23 10 33t33 10h100q23 0 33 -10t10 -33v-1450q0 -23 -10 -33t-33 -10h-100q-23 0 -33 10t-10 33z" />
    <glyph glyph-name="imacron" unicode="&#x12b;" horiz-adv-x="395" 
d="M442 1386q0 -23 -10 -33t-33 -10h-403q-23 0 -33 10t-10 33v64q0 23 10 33t33 10h403q23 0 33 -10t10 -33v-64zM242 1059q23 0 33 -10t10 -33v-973q0 -23 -10 -33t-33 -10h-88q-23 0 -33 10t-10 33v973q0 23 10 33t33 10h88z" />
    <glyph glyph-name="Ibreve" unicode="&#x12c;" horiz-adv-x="419" 
d="M479 1868q17 -18 16.5 -31t-16.5 -31q-116 -116 -270 -116q-157 0 -268 116q-17 17 -17 31t17 31l39 39q11 11 21.5 11.5t18 -4t23.5 -16.5q26 -22 46 -34.5t52 -23.5t68 -11q37 0 69.5 11t51 23.5t45.5 34.5q16 12 23.5 16.5t18 4t21.5 -11.5zM117 43v1450q0 23 10 33
t33 10h100q23 0 33 -10t10 -33v-1450q0 -23 -10 -33t-33 -10h-100q-23 0 -33 10t-10 33z" />
    <glyph glyph-name="ibreve" unicode="&#x12d;" horiz-adv-x="395" 
d="M457 1485q17 -17 17 -31t-17 -31q-50 -50 -120 -80t-149 -30q-80 0 -150 30t-120 80q-17 17 -17 31t17 31l43 41q11 11 22 11t17.5 -3.5t24.5 -17.5q43 -32 78.5 -48t84.5 -16q47 0 83 16t81 48q16 13 23.5 17.5t18.5 4t22 -11.5zM242 1059q23 0 33 -10t10 -33v-973
q0 -23 -10 -33t-33 -10h-88q-23 0 -33 10t-10 33v973q0 23 10 33t33 10h88z" />
    <glyph glyph-name="Iogonek" unicode="&#x12e;" horiz-adv-x="419" 
d="M453 -297q12 -35 -25 -49q-56 -24 -114.5 -15.5t-106.5 36.5t-78.5 80t-30.5 114q0 77 41 133q-22 8 -22 41v1450q0 23 10 33t33 10h100q23 0 33 -10t10 -33v-1450q0 -23 -10 -33t-33 -10h-6q-29 -55 -31 -92q-3 -64 47 -104.5t119 -18.5q34 12 45 -21z" />
    <glyph glyph-name="iogonek" unicode="&#x12f;" horiz-adv-x="395" 
d="M199 1305q-50 0 -84.5 34.5t-34.5 83.5q0 48 35 82.5t84 34.5q47 0 81.5 -35t34.5 -82q0 -49 -34 -83.5t-82 -34.5zM418 -297q12 -35 -25 -49q-56 -24 -114.5 -15.5t-106.5 36.5t-78.5 80t-30.5 114q0 82 52 147q-4 12 -4 27v973q0 23 10 33t33 10h88q23 0 33 -10t10 -33
v-973q0 -23 -10 -33t-33 -10h-23q-29 -55 -31 -92q-3 -64 47 -104.5t119 -18.5q34 12 45 -21z" />
    <glyph glyph-name="Idotaccent" unicode="&#x130;" horiz-adv-x="419" 
d="M209 1698q-46 0 -79.5 32.5t-33.5 79.5q0 46 33.5 78.5t79.5 32.5t79.5 -32.5t33.5 -78.5q0 -47 -33.5 -79.5t-79.5 -32.5zM117 43v1450q0 23 10 33t33 10h100q23 0 33 -10t10 -33v-1450q0 -23 -10 -33t-33 -10h-100q-23 0 -33 10t-10 33z" />
    <glyph glyph-name="dotlessi" unicode="&#x131;" horiz-adv-x="395" 
d="M242 1059q23 0 33 -10t10 -33v-973q0 -23 -10 -33t-33 -10h-88q-23 0 -33 10t-10 33v973q0 23 10 33t33 10h88z" />
    <glyph glyph-name="Jcircumflex" unicode="&#x134;" horiz-adv-x="552" 
d="M618 1763q17 -17 17 -30.5t-17 -30.5l-34 -33q-32 -32 -60 0l-172 168l-172 -168q-27 -32 -59 0l-35 33q-17 17 -17 30.5t17 30.5l236 230q14 15 31 15t30 -15zM104 0q-23 0 -33 10t-10 33v84q0 23 10 33t33 10h31q125 0 125 137v1186q0 23 10 33t33 10h100q23 0 33 -10
t10 -33v-1200q0 -141 -81 -217t-218 -76h-43z" />
    <glyph glyph-name="jcircumflex" unicode="&#x135;" horiz-adv-x="395" 
d="M463 1348q18 -15 18 -28.5t-18 -31.5l-33 -35q-18 -17 -30.5 -16.5t-30.5 16.5l-170 170l-172 -170q-18 -16 -31 -16.5t-31 16.5l-33 35q-32 32 0 60l236 231q29 29 61 0zM-16 -240q63 0 95 36.5t32 101.5v1118q0 23 10 33t33 10h88q23 0 33 -10t10 -33v-1118
q0 -295 -301 -295q-23 0 -33 10t-10 33v71q0 23 10 33t33 10z" />
    <glyph glyph-name="Kcommaaccent" unicode="&#x136;" horiz-adv-x="899" 
d="M537 834l327 -799q6 -12 2 -23.5t-18 -11.5h-129q-38 0 -47 25l-264 637q-4 10 -13.5 10t-15.5 -10l-55 -111q-21 -41 -21 -78v-430q0 -23 -10 -33t-33 -10h-100q-23 0 -33 10t-10 33v1450q0 23 10 33t33 10h100q23 0 33 -10t10 -33v-633q0 -7 4.5 -10t10 -1.5t8.5 7.5
l325 655q10 25 47 25h127q16 0 20 -11t-3 -24l-305 -622q-9 -21 0 -45zM412 -311q-4 4 -30.5 27t-36 41t-9.5 46q0 51 36 86.5t87 34.5q75 0 114.5 -64.5t14.5 -174.5q-10 -54 -44 -116t-75 -106q-21 -24 -47 -4l-33 25q-18 15 -2 41q46 64 52 99t-27 65z" />
    <glyph glyph-name="kcommaaccent" unicode="&#x137;" horiz-adv-x="776" 
d="M754 37q7 -12 1.5 -24.5t-22.5 -12.5h-102q-38 0 -51 29l-197 379q-5 9 -15 9.5t-16 -9.5l-49 -89q-18 -35 -18 -67v-209q0 -23 -10 -33t-33 -10h-88q-23 0 -33 10t-10 33v846v604q0 23 10 33t33 10h88q23 0 33 -10t10 -33v-889q0 -11 9 -13.5t15 9.5l246 432
q15 27 51 27h105q17 0 21.5 -11.5t-3.5 -25.5l-233 -424q-11 -21 0 -45zM420 -76q75 0 114.5 -64.5t14.5 -174.5q-10 -54 -44 -116t-75 -106q-21 -24 -47 -4l-33 25q-18 15 -2 41q46 64 52 99t-27 65q-4 4 -30.5 27t-36 41t-9.5 46q0 51 36 86.5t87 34.5z" />
    <glyph glyph-name="Lacute" unicode="&#x139;" horiz-adv-x="720" 
d="M426 1937q13 -22 10 -32.5t-24 -24.5l-324 -217q-19 -13 -30.5 -10t-26.5 24l-31 47q-13 21 -10 32.5t24 25.5l324 217q21 13 32 9t25 -26zM639 164q23 0 33 -10t10 -33v-78q0 -23 -10 -33t-33 -10h-479q-23 0 -33 10t-10 33v1450q0 23 10 33t33 10h100q23 0 33 -10
t10 -33v-1290q0 -23 8 -31t31 -8h297z" />
    <glyph glyph-name="lacute" unicode="&#x13a;" horiz-adv-x="493" 
d="M10 1837l258 244q31 31 62 0l45 -47q17 -17 17 -30t-17 -30l-258 -243q-31 -31 -62 0l-45 45q-30 30 0 61zM406 154q24 -2 33.5 -11t9.5 -32v-68q0 -23 -10 -33t-33 -10q-153 0 -224 70.5t-71 228.5v1194q0 23 10 33t33 10h88q23 0 33 -10t10 -33v-1204q0 -132 121 -135z
" />
    <glyph glyph-name="Lcommaaccent" unicode="&#x13b;" horiz-adv-x="720" 
d="M639 164q23 0 33 -10t10 -33v-78q0 -23 -10 -33t-33 -10h-479q-23 0 -33 10t-10 33v1450q0 23 10 33t33 10h100q23 0 33 -10t10 -33v-1290q0 -23 8 -31t31 -8h297zM350 -311q-4 4 -30.5 27t-36 41t-9.5 46q0 51 36 86.5t87 34.5q75 0 114.5 -64.5t14.5 -174.5
q-10 -55 -44 -117t-74 -105q-22 -24 -48 -4l-32 25q-18 15 -2 41q46 64 51.5 99t-27.5 65z" />
    <glyph glyph-name="lcommaaccent" unicode="&#x13c;" horiz-adv-x="493" 
d="M406 154q24 -2 33.5 -11t9.5 -32v-68q0 -23 -10 -33t-33 -10q-153 0 -224 70.5t-71 228.5v1194q0 23 10 33t33 10h88q23 0 33 -10t10 -33v-1204q0 -132 121 -135zM240 -311q-4 4 -30.5 27t-36 41t-9.5 46q0 51 36 86.5t87 34.5q75 0 114.5 -64.5t14.5 -174.5
q-10 -54 -44 -116t-75 -106q-21 -24 -47 -4l-33 25q-18 15 -2 41q46 64 52 99t-27 65z" />
    <glyph glyph-name="Lcaron" unicode="&#x13d;" horiz-adv-x="755" 
d="M573 1317q-6 7 -32.5 28t-39.5 43t-12 54q3 51 40.5 83.5t88.5 30.5q81 -3 117.5 -79t3.5 -189q-15 -55 -52 -116t-79 -101q-22 -24 -47 -2l-29 23q-18 18 0 43q52 71 62 111t-21 71zM639 164q23 0 33 -10t10 -33v-78q0 -23 -10 -33t-33 -10h-479q-23 0 -33 10t-10 33
v1450q0 23 10 33t33 10h100q23 0 33 -10t10 -33v-1290q0 -23 8 -31t31 -8h297z" />
    <glyph glyph-name="lcaron" unicode="&#x13e;" horiz-adv-x="493" 
d="M463 1960l-234 -231q-32 -29 -61 0l-236 231q-32 27 0 59l33 35q18 17 31 16.5t31 -16.5l172 -170l170 170q18 16 30.5 16.5t30.5 -16.5l33 -35q18 -18 18 -31t-18 -28zM406 154q24 -2 33.5 -11t9.5 -32v-68q0 -23 -10 -33t-33 -10q-153 0 -224 70.5t-71 228.5v1194
q0 23 10 33t33 10h88q23 0 33 -10t10 -33v-1204q0 -132 121 -135z" />
    <glyph glyph-name="Lslash" unicode="&#x141;" horiz-adv-x="745" 
d="M662 164q23 0 33 -10t10 -33v-78q0 -23 -10 -33t-33 -10h-478q-23 0 -33 10t-10 33v625l-45 -25q-20 -13 -32.5 -11t-22.5 21l-33 58q-11 20 -7 31.5t26 21.5l114 67v662q0 23 10 33t33 10h99q23 0 33 -10t10 -33v-557l168 98q20 12 33.5 10.5t21.5 -20.5l35 -59
q9 -19 5 -30.5t-24 -23.5l-239 -137v-571q0 -23 8 -31t31 -8h297z" />
    <glyph glyph-name="lslash" unicode="&#x142;" horiz-adv-x="602" 
d="M563 961l-190 -175v-497q0 -132 121 -135q24 -2 33.5 -11t9.5 -32v-68q0 -23 -10 -33t-33 -10q-153 0 -224 70.5t-71 228.5v330l-78 -72q-35 -31 -58 -2l-38 45q-22 31 6 55l168 154v684q0 23 10 33t33 10h88q23 0 33 -10t10 -33v-526l100 92q20 16 31 17t26 -15l39 -45
q13 -13 12 -25.5t-18 -29.5z" />
    <glyph glyph-name="Nacute" unicode="&#x143;" horiz-adv-x="1007" 
d="M719 1937q13 -22 10 -32.5t-24 -24.5l-324 -217q-19 -13 -30.5 -10t-26.5 24l-31 47q-13 21 -10 32.5t24 25.5l324 217q21 13 32 9t25 -26zM848 1536q23 0 33 -10t10 -33v-1450q0 -23 -10 -33t-33 -10h-76q-23 0 -34.5 9t-22.5 34l-389 985q-4 10 -13.5 9.5t-9.5 -11.5
v-983q0 -23 -10 -33t-33 -10h-100q-23 0 -33 10t-10 33v1450q0 23 10 33t33 10h76q24 0 36 -9t21 -34l391 -985q4 -10 13.5 -9.5t9.5 11.5v983q0 23 10 33t33 10h98z" />
    <glyph glyph-name="nacute" unicode="&#x144;" horiz-adv-x="870" 
d="M289 1253l-45 45q-31 31 0 62l258 244q30 30 61 0l45 -48q17 -17 17 -29.5t-17 -29.5l-258 -244q-30 -31 -61 0zM459 1073q55 7 108 -10.5t96.5 -56t70 -106t26.5 -152.5v-705q0 -23 -10 -33t-33 -10h-88q-23 0 -33 10t-10 33v692q0 95 -47 140.5t-109 42.5
q-60 -2 -102.5 -49.5t-42.5 -133.5v-692q0 -23 -10 -33t-33 -10h-88q-23 0 -33 10t-10 33v973q0 23 10 33t33 10h63q22 0 31 -9.5t14 -33.5l12 -58q79 102 185 115z" />
    <glyph glyph-name="Ncommaaccent" unicode="&#x145;" horiz-adv-x="1007" 
d="M848 1536q23 0 33 -10t10 -33v-1450q0 -23 -10 -33t-33 -10h-76q-23 0 -34.5 9t-22.5 34l-389 985q-4 10 -13.5 9.5t-9.5 -11.5v-983q0 -23 -10 -33t-33 -10h-100q-23 0 -33 10t-10 33v1450q0 23 10 33t33 10h76q24 0 36 -9t21 -34l391 -985q4 -10 13.5 -9.5t9.5 11.5
v983q0 23 10 33t33 10h98zM465 -311q-4 4 -30.5 27t-36 41t-9.5 46q0 51 36 86.5t87 34.5q75 0 114.5 -64.5t14.5 -174.5q-10 -54 -44 -116t-75 -106q-21 -24 -47 -4l-33 25q-18 15 -2 41q46 64 52 99t-27 65z" />
    <glyph glyph-name="ncommaaccent" unicode="&#x146;" horiz-adv-x="870" 
d="M459 1073q55 7 108 -10.5t96.5 -56t70 -106t26.5 -152.5v-705q0 -23 -10 -33t-33 -10h-88q-23 0 -33 10t-10 33v692q0 95 -47 140.5t-109 42.5q-60 -2 -102.5 -49.5t-42.5 -133.5v-692q0 -23 -10 -33t-33 -10h-88q-23 0 -33 10t-10 33v973q0 23 10 33t33 10h63
q22 0 31 -9.5t14 -33.5l12 -58q79 102 185 115zM428 -76q75 0 114.5 -64.5t14.5 -174.5q-10 -54 -44 -116t-75 -106q-21 -24 -47 -4l-33 25q-18 15 -2 41q46 64 52 99t-27 65q-4 4 -30.5 27t-36 41t-9.5 46q0 51 36 86.5t87 34.5z" />
    <glyph glyph-name="Ncaron" unicode="&#x147;" horiz-adv-x="1007" 
d="M770 1898l-235 -229q-14 -15 -31 -15t-31 15l-233 229q-18 18 -18 31t18 31l32 33q18 17 31 16.5t31 -16.5l170 -170l172 170q18 16 30.5 16.5t30.5 -16.5l33 -33q17 -17 17 -31t-17 -31zM848 1536q23 0 33 -10t10 -33v-1450q0 -23 -10 -33t-33 -10h-76q-23 0 -34.5 9
t-22.5 34l-389 985q-4 10 -13.5 9.5t-9.5 -11.5v-983q0 -23 -10 -33t-33 -10h-100q-23 0 -33 10t-10 33v1450q0 23 10 33t33 10h76q24 0 36 -9t21 -34l391 -985q4 -10 13.5 -9.5t9.5 11.5v983q0 23 10 33t33 10h98z" />
    <glyph glyph-name="ncaron" unicode="&#x148;" horiz-adv-x="870" 
d="M166 1483q-32 27 0 59l33 35q18 17 30.5 16.5t30.5 -16.5l172 -170l170 170q18 16 31 16.5t31 -16.5l32 -35q18 -18 18 -31t-18 -28l-233 -232q-33 -29 -62 0zM459 1073q55 7 108 -10.5t96.5 -56t70 -106t26.5 -152.5v-705q0 -23 -10 -33t-33 -10h-88q-23 0 -33 10
t-10 33v692q0 95 -47 140.5t-109 42.5q-60 -2 -102.5 -49.5t-42.5 -133.5v-692q0 -23 -10 -33t-33 -10h-88q-23 0 -33 10t-10 33v973q0 23 10 33t33 10h63q22 0 31 -9.5t14 -33.5l12 -58q79 102 185 115z" />
    <glyph glyph-name="Eng" unicode="&#x14a;" horiz-adv-x="978" 
d="M848 1536q23 0 33 -10t10 -33v-1450q0 -38 -29 -41v-123q0 -295 -301 -295q-23 0 -33 10t-10 33v80q0 23 9.5 32t33.5 11q117 3 117 135v252l-352 891q-4 10 -13.5 9.5t-9.5 -11.5v-983q0 -23 -10 -33t-33 -10h-100q-23 0 -33 10t-10 33v1450q0 23 10 33t33 10h76
q24 0 36 -9t21 -34l391 -985q4 -10 13.5 -9.5t9.5 11.5v983q0 23 10 33t33 10h98z" />
    <glyph glyph-name="eng" unicode="&#x14b;" horiz-adv-x="860" 
d="M459 1073q55 7 108 -10.5t96.5 -56t70 -106t26.5 -152.5v-906q0 -146 -84 -227.5t-232 -81.5q-23 0 -33 10t-10 33v70q0 23 9.5 32t33.5 11q61 2 101.5 42.5t40.5 110.5v893q0 95 -47 140.5t-109 42.5q-60 -2 -102.5 -49.5t-42.5 -133.5v-692q0 -23 -10 -33t-33 -10h-88
q-23 0 -33 10t-10 33v973q0 23 10 33t33 10h63q22 0 31 -9.5t14 -33.5l12 -58q79 102 185 115z" />
    <glyph glyph-name="Omacron" unicode="&#x14c;" 
d="M651 1866q23 0 33 -10t10 -33v-56q0 -23 -10 -33t-33 -10h-362q-23 0 -33 10t-10 33v56q0 23 10 33t33 10h362zM471 -18q-172 0 -268.5 113t-96.5 315v716q0 202 96.5 315t268.5 113t268.5 -113t96.5 -315v-716q0 -202 -96.5 -315t-268.5 -113zM471 156q80 0 129 66.5
t49 187.5v716q0 120 -49 187t-129 67t-129 -67t-49 -187v-716q0 -121 49 -187.5t129 -66.5z" />
    <glyph glyph-name="omacron" unicode="&#x14d;" horiz-adv-x="849" 
d="M668 1386q0 -23 -10 -33t-33 -10h-404q-23 0 -33 10t-10 33v64q0 23 10 33t33 10h404q23 0 33 -10t10 -33v-64zM424 -18q-61 0 -116 20.5t-103 62.5t-76.5 115.5t-28.5 169.5v361q0 96 28.5 169t76 114.5t103 62t116.5 20.5t117 -20.5t104 -62t76.5 -114.5t28.5 -169
v-361q0 -96 -28.5 -169.5t-76.5 -115.5t-104 -62.5t-117 -20.5zM575 735q0 94 -45 138.5t-106 44.5q-60 0 -105 -44.5t-45 -138.5v-411q0 -93 45.5 -138t104.5 -45q61 0 106 45t45 138v411z" />
    <glyph glyph-name="Obreve" unicode="&#x14e;" 
d="M741 1868q17 -18 16.5 -31t-16.5 -31q-116 -116 -270 -116q-157 0 -268 116q-17 17 -17 31t17 31l39 39q11 11 21.5 11.5t18 -4t23.5 -16.5q26 -22 46 -34.5t52 -23.5t68 -11q37 0 69.5 11t51 23.5t45.5 34.5q16 12 23.5 16.5t18 4t21.5 -11.5zM471 -18
q-172 0 -268.5 113t-96.5 315v716q0 202 96.5 315t268.5 113t268.5 -113t96.5 -315v-716q0 -202 -96.5 -315t-268.5 -113zM471 156q80 0 129 66.5t49 187.5v716q0 120 -49 187t-129 67t-129 -67t-49 -187v-716q0 -121 49 -187.5t129 -66.5z" />
    <glyph glyph-name="obreve" unicode="&#x14f;" horiz-adv-x="849" 
d="M682 1485q17 -17 17 -31t-17 -31q-50 -50 -119.5 -80t-148.5 -30q-80 0 -150.5 30t-120.5 80q-17 17 -17 31t17 31l43 41q11 11 22 11t17.5 -3.5t24.5 -17.5q43 -32 79 -48t85 -16q47 0 83 16t81 48q16 13 23 17.5t18 4t22 -11.5zM424 -18q-61 0 -116 20.5t-103 62.5
t-76.5 115.5t-28.5 169.5v361q0 96 28.5 169t76 114.5t103 62t116.5 20.5t117 -20.5t104 -62t76.5 -114.5t28.5 -169v-361q0 -96 -28.5 -169.5t-76.5 -115.5t-104 -62.5t-117 -20.5zM575 735q0 94 -45 138.5t-106 44.5q-60 0 -105 -44.5t-45 -138.5v-411q0 -93 45.5 -138
t104.5 -45q61 0 106 45t45 138v411z" />
    <glyph glyph-name="Ohungarumlaut" unicode="&#x150;" 
d="M213 1669l-33 33q-17 17 -17 30.5t17 30.5l219 230q17 17 31 17t31 -17l35 -35q17 -17 17 -31t-17 -31l-222 -227q-17 -17 -30.5 -17t-30.5 17zM561 1669l-33 33q-17 17 -17 30.5t17 30.5l220 230q17 17 30.5 17t30.5 -17l33 -35q17 -17 17 -31t-17 -31l-219 -227
q-17 -17 -31 -17t-31 17zM471 -18q-172 0 -268.5 113t-96.5 315v716q0 202 96.5 315t268.5 113t268.5 -113t96.5 -315v-716q0 -202 -96.5 -315t-268.5 -113zM471 156q80 0 129 66.5t49 187.5v716q0 120 -49 187t-129 67t-129 -67t-49 -187v-716q0 -121 49 -187.5t129 -66.5z
" />
    <glyph glyph-name="ohungarumlaut" unicode="&#x151;" horiz-adv-x="849" 
d="M119 1360l260 244q18 17 30.5 16.5t30.5 -16.5l43 -48q17 -17 17 -29.5t-17 -29.5l-258 -244q-31 -31 -61 0l-45 45q-31 31 0 62zM479 1360l260 244q18 17 31 16.5t31 -16.5l43 -48q17 -17 17 -29.5t-17 -29.5l-258 -244q-31 -31 -62 0l-45 45q-31 31 0 62zM424 -18
q-61 0 -116 20.5t-103 62.5t-76.5 115.5t-28.5 169.5v361q0 96 28.5 169t76 114.5t103 62t116.5 20.5t117 -20.5t104 -62t76.5 -114.5t28.5 -169v-361q0 -96 -28.5 -169.5t-76.5 -115.5t-104 -62.5t-117 -20.5zM575 735q0 94 -45 138.5t-106 44.5q-60 0 -105 -44.5
t-45 -138.5v-411q0 -93 45.5 -138t104.5 -45q61 0 106 45t45 138v411z" />
    <glyph glyph-name="OE" unicode="&#x152;" horiz-adv-x="1323" 
d="M874 1372q-23 0 -30.5 -8t-7.5 -31v-420q0 -23 7.5 -31t30.5 -8h300q23 0 33 -10t10 -33v-77q0 -23 -10 -33t-33 -10h-300q-23 0 -30.5 -8t-7.5 -31v-469q0 -23 7.5 -31t30.5 -8h300q23 0 33 -10t10 -33v-78q0 -23 -10 -33t-33 -10h-463q-20 0 -29 7t-12 24l-4 10
q-80 -59 -195 -59q-172 0 -268.5 113t-96.5 315v716q0 202 96.5 315t268.5 113q115 0 195 -59l4 10q5 31 41 31h463q23 0 33 -10t10 -33v-78q0 -23 -10 -33t-33 -10h-300zM649 410v716q0 120 -49 187t-129 67t-129 -67t-49 -187v-716q0 -121 49 -187.5t129 -66.5t129 66.5
t49 187.5z" />
    <glyph glyph-name="oe" unicode="&#x153;" horiz-adv-x="1318" 
d="M899 1077q61 0 116 -20.5t102 -62t74.5 -114.5t27.5 -169v-39q0 -49 -7 -117q-2 -24 -11 -33.5t-32 -9.5h-399q-12 0 -16 -4t-4 -16v-175q0 -90 44 -133t105 -43q52 0 85 28t48 71q8 24 35 24h102q31 0 27 -37q-14 -117 -100.5 -181t-200.5 -64q-151 0 -236 98
q-88 -98 -235 -98q-61 0 -116 20.5t-103 62.5t-76.5 115.5t-28.5 169.5v361q0 96 28.5 169t76 114.5t103 62t116.5 20.5q148 0 238 -100q90 100 237 100zM575 324v387v24q0 94 -45 138.5t-106 44.5q-60 0 -105 -44.5t-45 -138.5v-411q0 -93 45.5 -138t104.5 -45q61 0 106 45
t45 138zM1051 664v71q0 94 -45.5 138.5t-106.5 44.5q-60 0 -104.5 -44.5t-44.5 -138.5v-71q0 -12 4 -16.5t16 -4.5h260q12 0 16.5 4.5t4.5 16.5z" />
    <glyph glyph-name="Racute" unicode="&#x154;" horiz-adv-x="915" 
d="M256 1677l-31 47q-13 21 -9.5 32.5t24.5 25.5l323 217q21 13 32.5 9t25.5 -26l30 -45q13 -22 10 -32.5t-24 -24.5l-324 -217q-19 -13 -30.5 -10t-26.5 24zM866 41q7 -19 1 -30t-21 -11h-121q-35 0 -47 29l-221 573h-115q-23 0 -31 -8t-8 -31v-520q0 -23 -10 -33t-33 -10
h-100q-23 0 -33 10t-10 33v1450q0 23 10 33t33 10h297q157 0 254.5 -107t97.5 -296v-129q0 -130 -47.5 -223t-132.5 -138zM303 811q0 -23 8 -31t31 -8h102q76 0 128.5 59t52.5 173v135q0 115 -52.5 174t-128.5 59h-102q-23 0 -31 -8t-8 -31v-522z" />
    <glyph glyph-name="racute" unicode="&#x155;" horiz-adv-x="536" 
d="M147 1253q-31 -31 -61 0l-45 45q-31 31 0 62l258 244q31 30 61 0l46 -48q17 -17 17 -29.5t-17 -29.5zM467 1065q23 0 33 -10t10 -33v-94q0 -23 -10 -33t-33 -10q-81 0 -131.5 -45t-50.5 -135v-662q0 -23 -10 -33t-33 -10h-88q-23 0 -33 10t-10 33v973q0 23 10 33t33 10
h63q22 0 31 -9.5t14 -33.5l10 -49q40 49 91.5 73.5t103.5 24.5z" />
    <glyph glyph-name="Rcommaaccent" unicode="&#x156;" horiz-adv-x="915" 
d="M866 41q7 -19 1 -30t-21 -11h-121q-35 0 -47 29l-221 573h-115q-23 0 -31 -8t-8 -31v-520q0 -23 -10 -33t-33 -10h-100q-23 0 -33 10t-10 33v1450q0 23 10 33t33 10h297q157 0 254.5 -107t97.5 -296v-129q0 -130 -47.5 -223t-132.5 -138zM303 811q0 -23 8 -31t31 -8h102
q76 0 128.5 59t52.5 173v135q0 115 -52.5 174t-128.5 59h-102q-23 0 -31 -8t-8 -31v-522zM487 -76q75 0 114.5 -64.5t14.5 -174.5q-10 -55 -44 -117t-74 -105q-21 -24 -47 -4l-33 25q-18 15 -2 41q46 64 51.5 99t-27.5 65q-7 8 -24 23t-26 24.5t-17 27.5t-8 39
q0 51 35.5 86.5t86.5 34.5z" />
    <glyph glyph-name="rcommaaccent" unicode="&#x157;" horiz-adv-x="536" 
d="M467 1065q23 0 33 -10t10 -33v-94q0 -23 -10 -33t-33 -10q-81 0 -131.5 -45t-50.5 -135v-662q0 -23 -10 -33t-33 -10h-88q-23 0 -33 10t-10 33v973q0 23 10 33t33 10h63q22 0 31 -9.5t14 -33.5l10 -49q40 49 91.5 73.5t103.5 24.5zM199 -76q75 0 114.5 -64.5t14.5 -174.5
q-10 -54 -44 -116t-75 -106q-21 -24 -47 -4l-33 25q-18 15 -2 41q46 64 52 99t-27 65q-4 4 -30.5 27t-36 41t-9.5 46q0 51 36 86.5t87 34.5z" />
    <glyph glyph-name="Rcaron" unicode="&#x158;" horiz-adv-x="915" 
d="M172 1898q-18 18 -18 31t18 31l33 33q18 17 30.5 16.5t30.5 -16.5l170 -170l172 170q18 16 31 16.5t31 -16.5l32 -33q17 -17 17 -31t-17 -31l-235 -229q-13 -15 -30 -15t-31 15zM866 41q7 -19 1 -30t-21 -11h-121q-35 0 -47 29l-221 573h-115q-23 0 -31 -8t-8 -31v-520
q0 -23 -10 -33t-33 -10h-100q-23 0 -33 10t-10 33v1450q0 23 10 33t33 10h297q157 0 254.5 -107t97.5 -296v-129q0 -130 -47.5 -223t-132.5 -138zM303 811q0 -23 8 -31t31 -8h102q76 0 128.5 59t52.5 173v135q0 115 -52.5 174t-128.5 59h-102q-23 0 -31 -8t-8 -31v-522z" />
    <glyph glyph-name="rcaron" unicode="&#x159;" horiz-adv-x="536" 
d="M260 1251q-32 -29 -61 0l-236 232q-32 27 0 59l33 35q18 17 30.5 16.5t30.5 -16.5l172 -170l170 170q18 16 31 16.5t31 -16.5l33 -35q18 -18 18 -31t-18 -28zM467 1065q23 0 33 -10t10 -33v-94q0 -23 -10 -33t-33 -10q-81 0 -131.5 -45t-50.5 -135v-662q0 -23 -10 -33
t-33 -10h-88q-23 0 -33 10t-10 33v973q0 23 10 33t33 10h63q22 0 31 -9.5t14 -33.5l10 -49q40 49 91.5 73.5t103.5 24.5z" />
    <glyph glyph-name="Sacute" unicode="&#x15a;" horiz-adv-x="946" 
d="M674 1937q13 -22 9.5 -32.5t-24.5 -24.5l-323 -217q-19 -13 -30.5 -10t-26.5 24l-31 47q-13 21 -10 32.5t24 25.5l324 217q21 13 32 9t25 -26zM854 358q0 -86 -32.5 -158t-86 -119t-121.5 -73t-141 -26q-159 0 -267 103.5t-114 258.5q0 18 5 27.5t22 9.5h110q32 0 35 -27
q10 -85 66.5 -146t144.5 -61q83 0 137.5 55.5t57.5 143.5q2 62 -27.5 124.5t-77.5 117t-107.5 111t-119 115.5t-108.5 119.5t-80 134.5t-31 151q0 143 95.5 239t244.5 96q148 0 240.5 -94.5t101.5 -232.5q0 -18 -5 -27.5t-22 -9.5h-110q-18 0 -26 6t-9 23
q-14 75 -56.5 122.5t-107.5 47.5q-70 0 -116.5 -49.5t-43.5 -118.5q2 -50 34 -104.5t80.5 -106.5t106.5 -108t116 -118t105.5 -126t77 -142t29.5 -158z" />
    <glyph glyph-name="sacute" unicode="&#x15b;" horiz-adv-x="755" 
d="M186 1360l258 244q31 31 62 0l45 -48q17 -17 17 -29.5t-17 -29.5l-258 -244q-31 -31 -62 0l-45 45q-31 31 0 62zM377 -18q-120 0 -200.5 66t-100.5 179q-8 37 26 37h103q27 0 35 -24q15 -47 49 -76t86 -29q57 0 96 33.5t39 93.5q0 41 -22 79t-58.5 68.5t-80.5 61.5
t-89 64.5t-82 71t-61.5 88t-26.5 108.5q-3 118 80 196t203 78q108 0 188.5 -67.5t87.5 -178.5q4 -36 -26 -36h-95q-26 0 -34 24q-11 42 -40 73.5t-77 31.5q-51 1 -83 -32t-34 -77q0 -35 23 -68.5t61 -63t83.5 -60.5t91 -68t83.5 -78t61 -96.5t23 -118.5
q-1 -129 -91.5 -204.5t-217.5 -75.5z" />
    <glyph glyph-name="Scircumflex" unicode="&#x15c;" horiz-adv-x="946" 
d="M725 1763q17 -17 17 -30.5t-17 -30.5l-35 -33q-32 -32 -59 0l-172 168l-172 -168q-28 -32 -60 0l-34 33q-17 17 -17 30.5t17 30.5l235 230q14 15 31 15t30 -15zM854 358q0 -86 -32.5 -158t-86 -119t-121.5 -73t-141 -26q-159 0 -267 103.5t-114 258.5q0 18 5 27.5t22 9.5
h110q32 0 35 -27q10 -85 66.5 -146t144.5 -61q83 0 137.5 55.5t57.5 143.5q2 62 -27.5 124.5t-77.5 117t-107.5 111t-119 115.5t-108.5 119.5t-80 134.5t-31 151q0 143 95.5 239t244.5 96q148 0 240.5 -94.5t101.5 -232.5q0 -18 -5 -27.5t-22 -9.5h-110q-18 0 -26 6t-9 23
q-14 75 -56.5 122.5t-107.5 47.5q-70 0 -116.5 -49.5t-43.5 -118.5q2 -50 34 -104.5t80.5 -106.5t106.5 -108t116 -118t105.5 -126t77 -142t29.5 -158z" />
    <glyph glyph-name="scircumflex" unicode="&#x15d;" horiz-adv-x="755" 
d="M639 1348q18 -15 18 -28.5t-18 -31.5l-33 -35q-18 -17 -30.5 -16.5t-30.5 16.5l-170 170l-172 -170q-18 -16 -31 -16.5t-31 16.5l-32 35q-32 32 0 60l235 231q29 29 62 0zM377 -18q-120 0 -200.5 66t-100.5 179q-8 37 26 37h103q27 0 35 -24q15 -47 49 -76t86 -29
q57 0 96 33.5t39 93.5q0 41 -22 79t-58.5 68.5t-80.5 61.5t-89 64.5t-82 71t-61.5 88t-26.5 108.5q-3 118 80 196t203 78q108 0 188.5 -67.5t87.5 -178.5q4 -36 -26 -36h-95q-26 0 -34 24q-11 42 -40 73.5t-77 31.5q-51 1 -83 -32t-34 -77q0 -35 23 -68.5t61 -63t83.5 -60.5
t91 -68t83.5 -78t61 -96.5t23 -118.5q-1 -129 -91.5 -204.5t-217.5 -75.5z" />
    <glyph glyph-name="Scedilla" unicode="&#x15e;" horiz-adv-x="946" 
d="M492 -100q77 31 140.5 11.5t104.5 -77t41 -127.5q0 -92 -69 -157.5t-166 -65.5q-49 0 -99 20q-37 14 -24 50l22 57q7 18 17.5 22.5t27.5 -2.5q30 -10 56 -10q41 0 70.5 29.5t29.5 70.5q0 43 -29.5 72t-70.5 29q-43 0 -90 -47q-17 -20 -43 -8l-52 20q-26 11 -16 39l55 162
q-131 25 -215 123t-90 233q0 18 5 27.5t22 9.5h110q32 0 35 -27q10 -85 66.5 -146t144.5 -61q83 0 137.5 55.5t57.5 143.5q2 62 -27.5 124.5t-77.5 117t-107.5 111t-119 115.5t-108.5 119.5t-80 134.5t-31 151q0 143 95.5 239t244.5 96q148 0 240.5 -94.5t101.5 -232.5
q0 -18 -5 -27.5t-22 -9.5h-110q-18 0 -26 6t-9 23q-14 75 -56.5 122.5t-107.5 47.5q-70 0 -116.5 -49.5t-43.5 -118.5q2 -50 34 -104.5t80.5 -106.5t106.5 -108t116 -118t105.5 -126t77 -142t29.5 -158q0 -154 -96 -254t-234 -118z" />
    <glyph glyph-name="scedilla" unicode="&#x15f;" horiz-adv-x="755" 
d="M686 262q-1 -115 -74.5 -188.5t-181.5 -87.5l-33 -86q77 31 141 11.5t105 -77t41 -127.5q0 -92 -69 -157.5t-166 -65.5q-49 0 -99 20q-37 14 -24 50l22 57q7 18 17.5 22.5t27.5 -2.5q30 -10 56 -10q41 0 70.5 29.5t29.5 70.5q0 43 -29.5 72t-70.5 29q-44 0 -91 -47
q-17 -20 -43 -8l-51 20q-26 11 -16 39l55 164q-91 19 -150.5 81t-76.5 156q-8 37 26 37h103q27 0 35 -24q15 -47 49 -76t86 -29q57 0 96 33.5t39 93.5q0 41 -22 79t-58.5 68.5t-80.5 61.5t-89 64.5t-82 71t-61.5 88t-26.5 108.5q-3 118 80 196t203 78q108 0 188.5 -67.5
t87.5 -178.5q4 -36 -26 -36h-95q-26 0 -34 24q-11 42 -40 73.5t-77 31.5q-51 1 -83 -32t-34 -77q0 -35 23 -68.5t61 -63t83.5 -60.5t91 -68t83.5 -78t61 -96.5t23 -118.5z" />
    <glyph glyph-name="Scaron" unicode="&#x160;" horiz-adv-x="946" 
d="M725 1898l-236 -229q-13 -15 -30 -15t-31 15l-233 229q-18 18 -18 31t18 31l32 33q18 17 31 16.5t31 -16.5l170 -170l172 170q18 16 30.5 16.5t30.5 -16.5l33 -33q17 -17 17 -31t-17 -31zM854 358q0 -86 -32.5 -158t-86 -119t-121.5 -73t-141 -26q-159 0 -267 103.5
t-114 258.5q0 18 5 27.5t22 9.5h110q32 0 35 -27q10 -85 66.5 -146t144.5 -61q83 0 137.5 55.5t57.5 143.5q2 62 -27.5 124.5t-77.5 117t-107.5 111t-119 115.5t-108.5 119.5t-80 134.5t-31 151q0 143 95.5 239t244.5 96q148 0 240.5 -94.5t101.5 -232.5q0 -18 -5 -27.5
t-22 -9.5h-110q-18 0 -26 6t-9 23q-14 75 -56.5 122.5t-107.5 47.5q-70 0 -116.5 -49.5t-43.5 -118.5q2 -50 34 -104.5t80.5 -106.5t106.5 -108t116 -118t105.5 -126t77 -142t29.5 -158z" />
    <glyph glyph-name="scaron" unicode="&#x161;" horiz-adv-x="755" 
d="M639 1483l-233 -232q-33 -29 -62 0l-235 232q-32 27 0 59l32 35q18 17 31 16.5t31 -16.5l172 -170l170 170q18 16 30.5 16.5t30.5 -16.5l33 -35q18 -18 18 -31t-18 -28zM377 -18q-120 0 -200.5 66t-100.5 179q-8 37 26 37h103q27 0 35 -24q15 -47 49 -76t86 -29
q57 0 96 33.5t39 93.5q0 41 -22 79t-58.5 68.5t-80.5 61.5t-89 64.5t-82 71t-61.5 88t-26.5 108.5q-3 118 80 196t203 78q108 0 188.5 -67.5t87.5 -178.5q4 -36 -26 -36h-95q-26 0 -34 24q-11 42 -40 73.5t-77 31.5q-51 1 -83 -32t-34 -77q0 -35 23 -68.5t61 -63t83.5 -60.5
t91 -68t83.5 -78t61 -96.5t23 -118.5q-1 -129 -91.5 -204.5t-217.5 -75.5z" />
    <glyph glyph-name="uni0162" unicode="&#x162;" horiz-adv-x="823" 
d="M719 1536q23 0 33 -10t10 -33v-78q0 -23 -10 -33t-33 -10h-176q-23 0 -31 -8t-8 -31v-1290q0 -22 -8 -31.5t-27 -11.5l-39 -100q77 31 141 11.5t105 -77t41 -127.5q0 -92 -69.5 -157.5t-166.5 -65.5q-48 0 -98 20q-38 14 -25 50l23 57q7 18 17.5 22.5t27.5 -2.5
q30 -10 55 -10q41 0 71 29.5t30 70.5q0 42 -29.5 71.5t-71.5 29.5q-43 0 -90 -47q-17 -20 -43 -8l-51 20q-26 11 -16 39l61 176q-23 9 -23 41v1290q0 23 -7.5 31t-30.5 8h-177q-23 0 -33 10t-10 33v78q0 23 10 33t33 10h615z" />
    <glyph glyph-name="uni0163" unicode="&#x163;" horiz-adv-x="544" 
d="M350 -100q77 31 141 11.5t105 -77t41 -127.5q0 -92 -69.5 -157.5t-166.5 -65.5q-48 0 -98 20q-37 14 -24 50l22 57q7 18 17.5 22.5t27.5 -2.5q30 -10 55 -10q41 0 71 29.5t30 70.5q0 42 -29.5 71.5t-71.5 29.5q-43 0 -90 -47q-17 -20 -43 -8l-51 20q-26 11 -16 39l73 211
q-118 63 -118 252v598q0 15 -6 20.5t-21 5.5h-39q-23 0 -33 10t-10 33v60q0 23 10 33t33 10h45q15 0 21 5.5t6 20.5v148q0 43 43 43h78q43 0 43 -43v-148q0 -15 5.5 -20.5t20.5 -5.5h105q23 0 33 -10t10 -33v-60q0 -23 -10 -33t-33 -10h-103q-15 0 -20.5 -5.5t-5.5 -20.5
v-598q0 -135 129 -135q23 0 33 -10t10 -33v-68q0 -23 -10 -33t-33 -10q-28 0 -68 4z" />
    <glyph glyph-name="Tcaron" unicode="&#x164;" horiz-adv-x="823" 
d="M678 1898l-236 -229q-14 -15 -30.5 -15t-30.5 15l-234 229q-18 18 -18 31t18 31l33 33q18 17 31 16.5t31 -16.5l170 -170l172 170q18 16 30.5 16.5t30.5 -16.5l33 -33q17 -17 17 -31t-17 -31zM719 1536q23 0 33 -10t10 -33v-78q0 -23 -10 -33t-33 -10h-176q-23 0 -31 -8
t-8 -31v-1290q0 -23 -10 -33t-33 -10h-99q-23 0 -33 10t-10 33v1290q0 23 -7.5 31t-30.5 8h-177q-23 0 -33 10t-10 33v78q0 23 10 33t33 10h615z" />
    <glyph glyph-name="tcaron" unicode="&#x165;" horiz-adv-x="802" 
d="M623 1311q-4 4 -32.5 25.5t-42 42.5t-13.5 53q0 51 36 86.5t88 35.5q61 0 100 -46.5t42.5 -119t-25.5 -161.5q-46 -120 -129 -203q-21 -24 -47 -4l-29 27q-20 15 -2 40q29 41 47 71.5t29.5 61.5t6 54t-28.5 37zM457 0q-153 0 -227 69t-74 220v598q0 15 -6 20.5t-21 5.5
h-39q-23 0 -33 10t-10 33v60q0 23 10 33t33 10h45q15 0 21 5.5t6 20.5v148q0 43 43 43h78q43 0 43 -43v-148q0 -15 5.5 -20.5t20.5 -5.5h105q23 0 33 -10t10 -33v-60q0 -23 -10 -33t-33 -10h-103q-15 0 -20.5 -5.5t-5.5 -20.5v-598q0 -135 129 -135q23 0 33 -10t10 -33v-68
q0 -23 -10 -33t-33 -10z" />
    <glyph glyph-name="Tbar" unicode="&#x166;" horiz-adv-x="800" 
d="M719 1536q23 0 33 -10t10 -33v-78q0 -23 -10 -33t-33 -10h-176q-23 0 -31 -8t-8 -31v-297q9 -6 28 -6h70q23 0 33 -10t10 -33v-63q0 -23 -10 -33t-33 -10h-70q-18 0 -28 -7v-831q0 -23 -10 -33t-33 -10h-99q-23 0 -33 10t-10 33v709h-12v90q0 22 -8 30.5t-31 8.5h-69
q-23 0 -33 10t-10 33v63q0 23 10 33t33 10h69q23 0 31 8t8 31v74h12v190q0 23 -7.5 31t-30.5 8h-177q-23 0 -33 10t-10 33v78q0 23 10 33t33 10h615z" />
    <glyph glyph-name="tbar" unicode="&#x167;" horiz-adv-x="550" 
d="M457 0q-301 0 -301 295v330q0 15 -6 20.5t-21 5.5h-39q-23 0 -33 10t-10 33v60q0 23 10 33t33 10h39q15 0 21 5.5t6 20.5v64q0 15 -6 20.5t-21 5.5h-39q-23 0 -33 10t-10 33v60q0 23 10 33t33 10h45q15 0 21 5.5t6 20.5v129q0 23 10 33t33 10h78q23 0 33 -10t10 -33v-129
q0 -15 5.5 -20.5t20.5 -5.5h105q23 0 33 -10t10 -33v-60q0 -23 -10 -33t-33 -10h-103q-15 0 -20.5 -5.5t-5.5 -20.5v-64q0 -15 5.5 -20.5t20.5 -5.5h103q23 0 33 -10t10 -33v-60q0 -23 -10 -33t-33 -10h-103q-15 0 -20.5 -5.5t-5.5 -20.5v-330q0 -63 33 -99t96 -36
q23 0 33 -10t10 -33v-74q0 -23 -10 -33t-33 -10z" />
    <glyph glyph-name="Utilde" unicode="&#x168;" 
d="M221 1741q-25 15 -10 43q62 108 166 108q41 0 87.5 -29.5t65.5 -33.5q49 -10 93 47q18 26 43 10l57 -37q22 -15 10 -43q-62 -108 -168 -108q-39 0 -85.5 29.5t-65.5 33.5q-53 10 -92 -47q-19 -27 -43 -10zM793 1536q23 0 33 -10t10 -33v-692v-391q0 -202 -96.5 -315
t-268.5 -113t-268.5 113t-96.5 315v557v526q0 23 10.5 33t33.5 10h100q23 0 33 -10t10 -33v-672v-411q0 -121 49 -187.5t129 -66.5t129 66.5t49 187.5v548v535q0 23 10 33t33 10h101z" />
    <glyph glyph-name="utilde" unicode="&#x169;" horiz-adv-x="870" 
d="M164 1356q-25 16 -10 43q33 61 83 85.5t93 22.5q39 -2 91 -25.5t62 -25.5q62 -20 101 37q19 25 43 10l61 -37q25 -16 10 -43q-34 -62 -82.5 -86t-93.5 -24q-39 4 -93 27.5t-60 25.5q-65 16 -103 -37q-17 -26 -43 -10zM717 1059q23 0 33 -10t10 -33v-973q0 -23 -10 -33
t-33 -10h-64q-22 0 -31 9.5t-14 33.5l-12 57q-78 -101 -184 -114q-55 -7 -108 10.5t-96.5 56t-70 106t-26.5 152.5v705q0 23 10 33t33 10h88q23 0 33 -10t10 -33v-692q0 -95 46.5 -140.5t108.5 -42.5q60 2 103 49.5t43 133.5v692q0 23 10 33t33 10h88z" />
    <glyph glyph-name="Umacron" unicode="&#x16a;" 
d="M289 1724q-23 0 -33 10t-10 33v56q0 23 10 33t33 10h362q23 0 33 -10t10 -33v-56q0 -23 -10 -33t-33 -10h-362zM793 1536q23 0 33 -10t10 -33v-692v-391q0 -202 -96.5 -315t-268.5 -113t-268.5 113t-96.5 315v557v526q0 23 10.5 33t33.5 10h100q23 0 33 -10t10 -33v-672
v-411q0 -121 49 -187.5t129 -66.5t129 66.5t49 187.5v548v535q0 23 10 33t33 10h101z" />
    <glyph glyph-name="umacron" unicode="&#x16b;" horiz-adv-x="870" 
d="M231 1343q-23 0 -33 10t-10 33v64q0 23 10 33t33 10h404q23 0 33 -10t10 -33v-64q0 -23 -10 -33t-33 -10h-404zM717 1059q23 0 33 -10t10 -33v-973q0 -23 -10 -33t-33 -10h-64q-22 0 -31 9.5t-14 33.5l-12 57q-78 -101 -184 -114q-55 -7 -108 10.5t-96.5 56t-70 106
t-26.5 152.5v705q0 23 10 33t33 10h88q23 0 33 -10t10 -33v-692q0 -95 46.5 -140.5t108.5 -42.5q60 2 103 49.5t43 133.5v692q0 23 10 33t33 10h88z" />
    <glyph glyph-name="Ubreve" unicode="&#x16c;" 
d="M471 1690q-157 0 -268 116q-17 17 -17 31t17 31l39 39q11 11 21.5 11.5t18 -4t23.5 -16.5q26 -22 46 -34.5t52 -23.5t68 -11q37 0 69.5 11t51 23.5t45.5 34.5q16 12 23.5 16.5t18 4t21.5 -11.5l41 -39q17 -18 16.5 -31t-16.5 -31q-116 -116 -270 -116zM793 1536
q23 0 33 -10t10 -33v-692v-391q0 -202 -96.5 -315t-268.5 -113t-268.5 113t-96.5 315v557v526q0 23 10.5 33t33.5 10h100q23 0 33 -10t10 -33v-672v-411q0 -121 49 -187.5t129 -66.5t129 66.5t49 187.5v548v535q0 23 10 33t33 10h101z" />
    <glyph glyph-name="ubreve" unicode="&#x16d;" horiz-adv-x="870" 
d="M424 1313q-80 0 -150 30t-120 80q-17 17 -17 31t17 31l43 41q11 11 22 11t16.5 -3.5t24.5 -17.5q43 -32 79 -48t85 -16q47 0 83 16t81 48q16 13 23 17.5t18 4t22 -11.5l41 -41q17 -17 17 -31t-17 -31q-50 -50 -119.5 -80t-148.5 -30zM717 1059q23 0 33 -10t10 -33v-973
q0 -23 -10 -33t-33 -10h-64q-22 0 -31 9.5t-14 33.5l-12 57q-78 -101 -184 -114q-55 -7 -108 10.5t-96.5 56t-70 106t-26.5 152.5v705q0 23 10 33t33 10h88q23 0 33 -10t10 -33v-692q0 -95 46.5 -140.5t108.5 -42.5q60 2 103 49.5t43 133.5v692q0 23 10 33t33 10h88z" />
    <glyph glyph-name="Uring" unicode="&#x16e;" 
d="M471 1653q-75 0 -126.5 52t-51.5 126t51.5 126t126.5 52q73 0 124.5 -52t51.5 -126t-51.5 -126t-124.5 -52zM471 1903q-30 0 -51 -21t-21 -51q0 -31 20.5 -51.5t51.5 -20.5q29 0 49.5 20.5t20.5 51.5q0 29 -20.5 50.5t-49.5 21.5zM793 1536q23 0 33 -10t10 -33v-692v-391
q0 -202 -96.5 -315t-268.5 -113t-268.5 113t-96.5 315v557v526q0 23 10.5 33t33.5 10h100q23 0 33 -10t10 -33v-672v-411q0 -121 49 -187.5t129 -66.5t129 66.5t49 187.5v548v535q0 23 10 33t33 10h101z" />
    <glyph glyph-name="uring" unicode="&#x16f;" horiz-adv-x="870" 
d="M434 1257q-88 0 -150.5 63.5t-62.5 152.5q0 88 62.5 150.5t150.5 62.5t150.5 -62.5t62.5 -150.5q0 -89 -62.5 -152.5t-150.5 -63.5zM434 1573q-41 0 -71.5 -29.5t-30.5 -70.5q0 -43 30 -73t72 -30t72.5 30.5t30.5 72.5q0 41 -30.5 70.5t-72.5 29.5zM717 1059q23 0 33 -10
t10 -33v-973q0 -23 -10 -33t-33 -10h-64q-22 0 -31 9.5t-14 33.5l-12 57q-78 -101 -184 -114q-55 -7 -108 10.5t-96.5 56t-70 106t-26.5 152.5v705q0 23 10 33t33 10h88q23 0 33 -10t10 -33v-692q0 -95 46.5 -140.5t108.5 -42.5q60 2 103 49.5t43 133.5v692q0 23 10 33
t33 10h88z" />
    <glyph glyph-name="Uhungarumlaut" unicode="&#x170;" 
d="M213 1669l-33 33q-17 17 -17 30.5t17 30.5l219 230q17 17 31 17t31 -17l35 -35q17 -17 17 -31t-17 -31l-222 -227q-17 -17 -30.5 -17t-30.5 17zM842 1958q17 -17 17 -31t-17 -31l-219 -227q-17 -17 -31 -17t-31 17l-33 33q-17 17 -17 30.5t17 30.5l220 230q17 17 30.5 17
t30.5 -17zM793 1536q23 0 33 -10t10 -33v-692v-391q0 -202 -96.5 -315t-268.5 -113t-268.5 113t-96.5 315v557v526q0 23 10.5 33t33.5 10h100q23 0 33 -10t10 -33v-672v-411q0 -121 49 -187.5t129 -66.5t129 66.5t49 187.5v548v535q0 23 10 33t33 10h101z" />
    <glyph glyph-name="uhungarumlaut" unicode="&#x171;" horiz-adv-x="870" 
d="M174 1253l-45 45q-31 31 0 62l260 244q18 17 31 16.5t31 -16.5l43 -48q17 -17 17 -29.5t-17 -29.5l-258 -244q-31 -31 -62 0zM854 1556q17 -17 17 -29.5t-17 -29.5l-258 -244q-30 -31 -61 0l-46 45q-31 31 0 62l261 244q18 17 30.5 16.5t30.5 -16.5zM717 1059
q23 0 33 -10t10 -33v-973q0 -23 -10 -33t-33 -10h-64q-22 0 -31 9.5t-14 33.5l-12 57q-78 -101 -184 -114q-55 -7 -108 10.5t-96.5 56t-70 106t-26.5 152.5v705q0 23 10 33t33 10h88q23 0 33 -10t10 -33v-692q0 -95 46.5 -140.5t108.5 -42.5q60 2 103 49.5t43 133.5v692
q0 23 10 33t33 10h88z" />
    <glyph glyph-name="Uogonek" unicode="&#x172;" 
d="M793 1536q23 0 33 -10t10 -33v-692v-391q0 -184 -80.5 -294.5t-227.5 -129.5q-27 -53 -30 -92q-3 -64 47 -104.5t119 -18.5q34 12 45 -21l18 -61q12 -35 -25 -49q-56 -24 -114.5 -15.5t-106 36.5t-78 80t-30.5 114q0 73 39 131q-145 19 -225.5 129.5t-80.5 294.5v557v526
q0 23 10.5 33t33.5 10h100q23 0 33 -10t10 -33v-672v-411q0 -121 49 -187.5t129 -66.5t129 66.5t49 187.5v548v535q0 23 10 33t33 10h101z" />
    <glyph glyph-name="uogonek" unicode="&#x173;" horiz-adv-x="870" 
d="M893 -297q12 -35 -25 -49q-56 -24 -114.5 -15.5t-106 36.5t-78 80t-30.5 114q0 103 71 168q-2 2 -2 6l-12 57q-78 -101 -184 -114q-55 -7 -108 10.5t-96.5 56t-70 106t-26.5 152.5v705q0 23 10 33t33 10h88q23 0 33 -10t10 -33v-692q0 -95 46.5 -140.5t108.5 -42.5
q60 2 103 49.5t43 133.5v692q0 23 10 33t33 10h88q23 0 33 -10t10 -33v-973q0 -23 -10 -33t-33 -10h-23q-27 -53 -30 -92q-3 -64 46.5 -104.5t118.5 -18.5q34 12 45 -21z" />
    <glyph glyph-name="Wcircumflex" unicode="&#x174;" horiz-adv-x="1388" 
d="M961 1763q17 -17 17 -30.5t-17 -30.5l-35 -33q-32 -32 -60 0l-172 168l-172 -168q-27 -32 -59 0l-35 33q-17 17 -17 30.5t17 30.5l236 230q14 15 31 15t30 -15zM367 0q-26 0 -38 8t-16 33l-256 1454q-4 23 3 32t26 9h109q44 0 49 -41l157 -1022q1 -12 11.5 -12t13.5 12
l188 1022q4 25 16 33t38 8h53q26 0 37.5 -8t15.5 -33l189 -1022q1 -12 12 -12t12 12l158 1022q5 41 49 41h106q20 0 26.5 -8.5t2.5 -32.5l-254 -1454q-4 -25 -15.5 -33t-37.5 -8h-68q-26 0 -37.5 8t-15.5 33l-194 1044q-1 11 -12 11t-13 -11l-195 -1044q-4 -25 -15.5 -33
t-37.5 -8h-67z" />
    <glyph glyph-name="wcircumflex" unicode="&#x175;" horiz-adv-x="1150" 
d="M840 1348q18 -15 18 -28.5t-18 -31.5l-33 -35q-18 -17 -31 -16.5t-31 16.5l-170 170l-172 -170q-18 -16 -30.5 -16.5t-30.5 16.5l-33 35q-32 32 0 60l236 231q29 29 61 0zM1102 1059q35 0 26 -41l-223 -977q-6 -24 -17 -32.5t-36 -8.5h-64q-25 0 -37 9t-16 32l-147 633
q-3 10 -12.5 10t-12.5 -10l-145 -633q-4 -23 -16 -32t-37 -9h-64q-26 0 -37.5 8.5t-15.5 32.5l-223 977q-9 41 26 41h101q38 0 47 -41l133 -643q1 -7 6 -10t10.5 -0.5t7.5 10.5l144 643q4 24 15.5 32.5t37.5 8.5h47q25 0 36 -8.5t17 -32.5l144 -643q2 -8 7.5 -10.5t10.5 0.5
t6 10l131 643q9 41 47 41h103z" />
    <glyph glyph-name="Ycircumflex" unicode="&#x176;" horiz-adv-x="886" 
d="M711 1763q17 -17 17 -30.5t-17 -30.5l-35 -33q-32 -32 -60 0l-172 168l-172 -168q-27 -32 -59 0l-35 33q-17 17 -17 30.5t17 30.5l236 230q14 15 31 15t30 -15zM799 1536q39 0 24 -41l-286 -831v-621q0 -23 -10 -33t-33 -10h-99q-23 0 -33 10t-10 33v621l-286 831
q-15 41 24 41h109q40 0 53 -41l180 -561q3 -9 12.5 -9t12.5 9l180 561q7 24 19.5 32.5t33.5 8.5h109z" />
    <glyph glyph-name="ycircumflex" unicode="&#x177;" horiz-adv-x="772" 
d="M649 1348q18 -15 18 -28.5t-18 -31.5l-33 -35q-18 -17 -30.5 -16.5t-30.5 16.5l-170 170l-172 -170q-18 -16 -30.5 -16.5t-30.5 16.5l-33 35q-32 32 0 60l235 231q29 29 62 0zM119 -397q-23 0 -33 10t-10 33v71q0 23 9.5 32t33.5 11q59 7 94 27t51 72q30 105 33.5 140
t-10.5 77l-271 942q-9 41 27 41h102q39 0 48 -41l180 -701q3 -11 12 -11t12 11l181 701q12 41 47 41h102q39 0 27 -41l-359 -1235q-54 -180 -276 -180z" />
    <glyph glyph-name="Ydieresis" unicode="&#x178;" horiz-adv-x="886" 
d="M287 1698q-46 0 -79.5 32.5t-33.5 79.5q0 46 33.5 78.5t79.5 32.5t79 -32.5t33 -78.5q0 -47 -33 -79.5t-79 -32.5zM600 1698q-46 0 -78.5 32.5t-32.5 79.5q0 46 32.5 78.5t78.5 32.5t79.5 -32.5t33.5 -78.5q0 -47 -33.5 -79.5t-79.5 -32.5zM799 1536q39 0 24 -41
l-286 -831v-621q0 -23 -10 -33t-33 -10h-99q-23 0 -33 10t-10 33v621l-286 831q-15 41 24 41h109q40 0 53 -41l180 -561q3 -9 12.5 -9t12.5 9l180 561q7 24 19.5 32.5t33.5 8.5h109z" />
    <glyph glyph-name="Zacute" unicode="&#x179;" horiz-adv-x="829" 
d="M635 1937q13 -22 10 -32.5t-24 -24.5l-324 -217q-19 -13 -30.5 -10t-26.5 24l-31 47q-13 21 -10 32.5t24 25.5l324 217q21 13 32 9t25 -26zM735 1343l-456 -1155q-4 -10 -0.5 -17t14.5 -7h418q23 0 33 -10t10 -33v-78q0 -23 -10 -33t-33 -10h-592q-23 0 -33 10t-10 33v80
q0 14 18 70l461 1155q10 24 -12 24h-424q-23 0 -33 10t-10 33v78q0 23 10 33t33 10h592q23 0 33 -10t10 -33v-82q0 -21 -19 -68z" />
    <glyph glyph-name="zacute" unicode="&#x17a;" horiz-adv-x="696" 
d="M160 1360l258 244q30 30 61 0l45 -48q17 -17 17 -29.5t-17 -29.5l-258 -244q-30 -31 -61 0l-45 45q-31 31 0 62zM61 43v63q0 22 15 52l362 733q4 6 1 12t-11 6h-324q-23 0 -33 10t-10 33v64q0 23 10 33t33 10h488q24 0 33.5 -9.5t9.5 -33.5v-62q0 -20 -14 -51l-363 -735
q-4 -6 -1 -12t11 -6h324q23 0 33 -10.5t10 -33.5v-63q0 -23 -10 -33t-33 -10h-488q-24 0 -33.5 9.5t-9.5 33.5z" />
    <glyph glyph-name="Zdotaccent" unicode="&#x17b;" horiz-adv-x="829" 
d="M420 1698q-46 0 -79.5 32.5t-33.5 79.5q0 46 33.5 78.5t79.5 32.5t79 -32.5t33 -78.5q0 -47 -33 -79.5t-79 -32.5zM735 1343l-456 -1155q-4 -10 -0.5 -17t14.5 -7h418q23 0 33 -10t10 -33v-78q0 -23 -10 -33t-33 -10h-592q-23 0 -33 10t-10 33v80q0 14 18 70l461 1155
q10 24 -12 24h-424q-23 0 -33 10t-10 33v78q0 23 10 33t33 10h592q23 0 33 -10t10 -33v-82q0 -21 -19 -68z" />
    <glyph glyph-name="zdotaccent" unicode="&#x17c;" horiz-adv-x="696" 
d="M348 1305q-50 0 -84.5 34.5t-34.5 83.5q0 48 35 82.5t84 34.5q47 0 82 -35t35 -82q0 -49 -34.5 -83.5t-82.5 -34.5zM61 43v63q0 22 15 52l362 733q4 6 1 12t-11 6h-324q-23 0 -33 10t-10 33v64q0 23 10 33t33 10h488q24 0 33.5 -9.5t9.5 -33.5v-62q0 -20 -14 -51
l-363 -735q-4 -6 -1 -12t11 -6h324q23 0 33 -10.5t10 -33.5v-63q0 -23 -10 -33t-33 -10h-488q-24 0 -33.5 9.5t-9.5 33.5z" />
    <glyph glyph-name="Zcaron" unicode="&#x17d;" horiz-adv-x="829" 
d="M686 1898l-235 -229q-14 -15 -31.5 -15t-30.5 15l-233 229q-18 18 -18 31t18 31l32 33q18 17 31 16.5t31 -16.5l170 -170l172 170q18 16 30.5 16.5t30.5 -16.5l33 -33q17 -17 17 -31t-17 -31zM735 1343l-456 -1155q-4 -10 -0.5 -17t14.5 -7h418q23 0 33 -10t10 -33v-78
q0 -23 -10 -33t-33 -10h-592q-23 0 -33 10t-10 33v80q0 14 18 70l461 1155q10 24 -12 24h-424q-23 0 -33 10t-10 33v78q0 23 10 33t33 10h592q23 0 33 -10t10 -33v-82q0 -21 -19 -68z" />
    <glyph glyph-name="zcaron" unicode="&#x17e;" horiz-adv-x="696" 
d="M612 1483l-233 -232q-33 -29 -62 0l-235 232q-32 27 0 59l33 35q18 17 30.5 16.5t30.5 -16.5l172 -170l170 170q18 16 31 16.5t31 -16.5l32 -35q18 -18 18 -31t-18 -28zM61 43v63q0 22 15 52l362 733q4 6 1 12t-11 6h-324q-23 0 -33 10t-10 33v64q0 23 10 33t33 10h488
q24 0 33.5 -9.5t9.5 -33.5v-62q0 -20 -14 -51l-363 -735q-4 -6 -1 -12t11 -6h324q23 0 33 -10.5t10 -33.5v-63q0 -23 -10 -33t-33 -10h-488q-24 0 -33.5 9.5t-9.5 33.5z" />
    <glyph glyph-name="AEacute" unicode="&#x1fc;" horiz-adv-x="1275" 
d="M1053 1937q13 -22 9.5 -32.5t-24.5 -24.5l-323 -217q-19 -13 -31 -10t-27 24l-30 47q-13 21 -10 32.5t24 25.5l324 217q21 13 32 9t25 -26zM817 1372q-23 0 -31 -8t-8 -31v-420q0 -23 8 -31t31 -8h299q23 0 33 -10t10 -33v-77q0 -23 -10 -33t-33 -10h-299q-23 0 -31 -8
t-8 -31v-469q0 -23 8 -31t31 -8h299q23 0 33 -10t10 -33v-78q0 -23 -10 -33t-33 -10h-481q-23 0 -33 10t-10 33v301h-221q-20 0 -27.5 -5t-13.5 -24l-84 -274q-7 -23 -18 -32t-31 -9h-111q-40 0 -27 41l449 1454q9 26 18.5 33.5t34.5 7.5h555q23 0 33 -10t10 -33v-78
q0 -23 -10 -33t-33 -10h-299zM406 508h186v682q-9 0 -12 -10l-189 -650q-4 -11 1 -16.5t14 -5.5z" />
    <glyph glyph-name="aeacute" unicode="&#x1fd;" horiz-adv-x="1306" 
d="M465 1360l258 244q31 30 61 0l45 -48q17 -17 17 -29.5t-17 -29.5l-258 -244q-31 -31 -61 0l-45 45q-31 31 0 62zM887 1077q61 0 116 -20.5t101.5 -62t74 -114.5t27.5 -169v-39q0 -58 -6 -117q-2 -24 -11 -33.5t-32 -9.5h-399q-12 0 -16.5 -4t-4.5 -16v-175
q0 -89 44.5 -132.5t105.5 -43.5q52 0 85 28t48 71q8 24 35 24h100q31 0 27 -37q-13 -117 -99.5 -181t-199.5 -64q-83 0 -154 36t-113 109q-38 -65 -96 -100.5t-123 -40.5q-56 -6 -109 11t-97 55.5t-70.5 105.5t-26.5 153q0 60 12.5 109t33 85t55 65t71 48t88 35t98.5 25.5
t111 19.5v43q0 90 -44 133.5t-107 43.5q-51 0 -84.5 -28t-48.5 -71q-8 -24 -35 -24h-94q-31 0 -27 36q13 117 97 181.5t198 64.5q153 0 235 -106q42 53 104.5 79.5t129.5 26.5zM1038 664v71q0 94 -45 138.5t-106 44.5q-60 0 -105 -44.5t-45 -138.5v-71q0 -12 4.5 -16.5
t16.5 -4.5h260q12 0 16 4.5t4 16.5zM563 324v258q-56 -10 -93.5 -19.5t-74 -24t-58.5 -32.5t-39.5 -44.5t-24.5 -62t-7 -82.5q1 -90 47.5 -134.5t106.5 -41.5t101.5 51t41.5 132z" />
    <glyph glyph-name="Scommaaccent" unicode="&#x218;" horiz-adv-x="946" 
d="M854 358q0 -86 -32.5 -158t-86 -119t-121.5 -73t-141 -26q-159 0 -267 103.5t-114 258.5q0 18 5 27.5t22 9.5h110q32 0 35 -27q10 -85 66.5 -146t144.5 -61q83 0 137.5 55.5t57.5 143.5q2 62 -27.5 124.5t-77.5 117t-107.5 111t-119 115.5t-108.5 119.5t-80 134.5
t-31 151q0 143 95.5 239t244.5 96q148 0 240.5 -94.5t101.5 -232.5q0 -18 -5 -27.5t-22 -9.5h-110q-18 0 -26 6t-9 23q-14 75 -56.5 122.5t-107.5 47.5q-70 0 -116.5 -49.5t-43.5 -118.5q2 -50 34 -104.5t80.5 -106.5t106.5 -108t116 -118t105.5 -126t77 -142t29.5 -158z
M426 -311q-4 4 -30.5 27t-36 41t-9.5 46q0 51 36 86.5t87 34.5q75 0 114.5 -64.5t14.5 -174.5q-10 -54 -44 -116t-75 -106q-21 -24 -47 -4l-33 25q-18 15 -2 41q46 64 52 99t-27 65z" />
    <glyph glyph-name="scommaaccent" unicode="&#x219;" horiz-adv-x="755" 
d="M377 -18q-120 0 -200.5 66t-100.5 179q-8 37 26 37h103q27 0 35 -24q15 -47 49 -76t86 -29q57 0 96 33.5t39 93.5q0 41 -22 79t-58.5 68.5t-80.5 61.5t-89 64.5t-82 71t-61.5 88t-26.5 108.5q-3 118 80 196t203 78q108 0 188.5 -67.5t87.5 -178.5q4 -36 -26 -36h-95
q-26 0 -34 24q-11 42 -40 73.5t-77 31.5q-51 1 -83 -32t-34 -77q0 -35 23 -68.5t61 -63t83.5 -60.5t91 -68t83.5 -78t61 -96.5t23 -118.5q-1 -129 -91.5 -204.5t-217.5 -75.5zM332 -311q-4 4 -30.5 27t-36 41t-9.5 46q0 51 36 86.5t87 34.5q75 0 114.5 -64.5t14.5 -174.5
q-10 -54 -44 -116t-75 -106q-21 -24 -47 -4l-33 25q-18 15 -2 41q46 64 52 99t-27 65z" />
    <glyph glyph-name="uni021A" unicode="&#x21a;" horiz-adv-x="823" 
d="M719 1536q23 0 33 -10t10 -33v-78q0 -23 -10 -33t-33 -10h-176q-23 0 -31 -8t-8 -31v-1290q0 -23 -10 -33t-33 -10h-99q-23 0 -33 10t-10 33v1290q0 23 -7.5 31t-30.5 8h-177q-23 0 -33 10t-10 33v78q0 23 10 33t33 10h615zM365 -311q-4 4 -30.5 27t-36 41t-9.5 46
q0 51 36 86.5t87 34.5q75 0 114.5 -64.5t14.5 -174.5q-10 -54 -44 -116t-75 -106q-21 -24 -47 -4l-33 25q-18 15 -2 41q46 64 52 99t-27 65z" />
    <glyph glyph-name="uni021B" unicode="&#x21b;" horiz-adv-x="544" 
d="M457 0q-153 0 -227 69t-74 220v598q0 15 -6 20.5t-21 5.5h-39q-23 0 -33 10t-10 33v60q0 23 10 33t33 10h45q15 0 21 5.5t6 20.5v148q0 43 43 43h78q43 0 43 -43v-148q0 -15 5.5 -20.5t20.5 -5.5h105q23 0 33 -10t10 -33v-60q0 -23 -10 -33t-33 -10h-103
q-15 0 -20.5 -5.5t-5.5 -20.5v-598q0 -135 129 -135q23 0 33 -10t10 -33v-68q0 -23 -10 -33t-33 -10zM285 -311q-4 4 -30.5 27t-36 41t-9.5 46q0 51 36 86.5t87 34.5q75 0 114.5 -64.5t14.5 -174.5q-10 -54 -44 -116t-75 -106q-21 -24 -47 -4l-33 25q-18 15 -2 41
q46 64 52 99t-27 65z" />
    <glyph glyph-name="uni0237" unicode="&#x237;" horiz-adv-x="395" 
d="M-16 -240q63 0 95 36.5t32 101.5v1118q0 23 10 33t33 10h88q23 0 33 -10t10 -33v-1118q0 -295 -301 -295q-23 0 -33 10t-10 33v71q0 23 10 33t33 10z" />
    <glyph glyph-name="circumflex" unicode="&#x2c6;" horiz-adv-x="825" 
d="M678 1348q18 -15 18 -28.5t-18 -31.5l-33 -35q-18 -17 -30.5 -16.5t-30.5 16.5l-170 170l-172 -170q-18 -16 -31 -16.5t-31 16.5l-33 35q-32 32 0 60l236 231q29 29 61 0z" />
    <glyph glyph-name="caron" unicode="&#x2c7;" horiz-adv-x="825" 
d="M678 1483l-234 -232q-32 -29 -61 0l-236 232q-32 27 0 59l33 35q18 17 31 16.5t31 -16.5l172 -170l170 170q18 16 30.5 16.5t30.5 -16.5l33 -35q18 -18 18 -31t-18 -28z" />
    <glyph glyph-name="breve" unicode="&#x2d8;" horiz-adv-x="845" 
d="M692 1485q17 -17 17 -31t-17 -31q-50 -50 -119.5 -80t-148.5 -30q-80 0 -150 30t-120 80q-17 17 -17 31t17 31l43 41q11 11 22 11t16.5 -3.5t24.5 -17.5q43 -32 79 -48t85 -16q47 0 83 16t81 48q16 13 23 17.5t18 4t22 -11.5z" />
    <glyph glyph-name="dotaccent" unicode="&#x2d9;" horiz-adv-x="432" 
d="M217 1305q-50 0 -84.5 34.5t-34.5 83.5q0 48 35 82.5t84 34.5q47 0 82 -35t35 -82q0 -49 -34.5 -83.5t-82.5 -34.5z" />
    <glyph glyph-name="ring" unicode="&#x2da;" horiz-adv-x="593" 
d="M297 1053q-88 0 -150.5 63t-62.5 152q0 88 62.5 150.5t150.5 62.5t150.5 -62.5t62.5 -150.5q0 -89 -62.5 -152t-150.5 -63zM297 1165q41 0 71.5 30.5t30.5 72.5q0 41 -30.5 70.5t-71.5 29.5t-71.5 -29.5t-30.5 -70.5q0 -42 30.5 -72.5t71.5 -30.5z" />
    <glyph glyph-name="ogonek" unicode="&#x2db;" horiz-adv-x="559" 
d="M289 43q-20 -17 -40.5 -57.5t-23.5 -77.5q-3 -64 47 -104.5t119 -18.5q34 12 45 -21l19 -61q12 -35 -25 -49q-56 -24 -114.5 -15.5t-106.5 36.5t-78.5 80t-30.5 114q0 83 51.5 146t129.5 81z" />
    <glyph glyph-name="tilde" unicode="&#x2dc;" horiz-adv-x="731" 
d="M629 1262q25 -16 10 -43q-34 -62 -83 -86.5t-93 -24.5q-39 4 -93.5 27.5t-60.5 25.5q-64 16 -102 -37q-17 -26 -43 -10l-60 37q-25 16 -10 43q33 61 83 86t93 23q39 -2 91.5 -26t62.5 -26q61 -20 100 37q19 25 43 10z" />
    <glyph glyph-name="hungarumlaut" unicode="&#x2dd;" horiz-adv-x="999" 
d="M154 1360l260 244q18 17 30.5 16.5t30.5 -16.5l43 -48q17 -17 17 -29.5t-17 -29.5l-258 -244q-30 -31 -61 0l-45 45q-31 31 0 62zM514 1360l260 244q18 17 31 16.5t31 -16.5l43 -48q17 -17 17 -29.5t-17 -29.5l-258 -244q-31 -31 -62 0l-45 45q-31 31 0 62z" />
    <glyph glyph-name="gravecomb" unicode="&#x300;" horiz-adv-x="0" 
d="M-561 1864l31 45q14 22 25 25.5t32 -9.5l323 -217q21 -14 24.5 -25t-9.5 -32l-33 -47q-14 -21 -25 -24.5t-32 9.5l-322 217q-21 14 -24 25t10 33z" />
    <glyph glyph-name="acutecomb" unicode="&#x301;" horiz-adv-x="0" 
d="M-131 1864q13 -22 10 -33t-24 -25l-324 -217q-19 -13 -30 -9.5t-27 24.5l-31 47q-13 21 -10 32t24 25l324 217q21 13 32 9.5t25 -25.5z" />
    <glyph glyph-name="uni0302" unicode="&#x302;" horiz-adv-x="0" 
d="M-176 1690q17 -17 17 -31t-17 -31l-35 -33q-32 -32 -59 0l-172 168l-172 -168q-28 -32 -60 0l-35 33q-17 17 -17 31t17 31l236 229q13 15 30 15t31 -15z" />
    <glyph glyph-name="tildecomb" unicode="&#x303;" horiz-adv-x="0" 
d="M-150 1776q23 -15 11 -43q-62 -109 -168 -109q-39 0 -86 30t-66 34q-52 10 -92 -48q-19 -27 -43 -10l-57 37q-26 16 -11 43q62 109 166 109q41 0 88 -30t66 -34q48 -10 92 47q18 26 43 10z" />
    <glyph glyph-name="uni0304" unicode="&#x304;" horiz-adv-x="0" 
d="M-166 1792q23 0 33 -10t10 -33v-55q0 -23 -10 -33t-33 -10h-362q-23 0 -33 10t-10 33v55q0 23 10 33t33 10h362z" />
    <glyph glyph-name="uni0306" unicode="&#x306;" horiz-adv-x="0" 
d="M-158 1794q17 -18 16.5 -30.5t-16.5 -30.5q-117 -117 -270 -117q-156 0 -268 117q-17 17 -17 30.5t17 30.5l39 39q11 11 21.5 12t18.5 -3.5t23 -16.5q27 -22 46 -34.5t51.5 -24t68.5 -11.5t69 11.5t51 23.5t46 35q15 12 23 16.5t18.5 3.5t21.5 -12z" />
    <glyph glyph-name="uni0307" unicode="&#x307;" horiz-adv-x="0" 
d="M-215 1624q-46 0 -79.5 33t-33.5 80q0 45 33.5 77.5t79.5 32.5t79.5 -32.5t33.5 -77.5q0 -47 -33.5 -80t-79.5 -33z" />
    <glyph glyph-name="uni0308" unicode="&#x308;" horiz-adv-x="0" 
d="M-565 1624q-46 0 -79.5 33t-33.5 80q0 45 33.5 77.5t79.5 32.5t79 -32t33 -78q0 -47 -33 -80t-79 -33zM-252 1624q-46 0 -78 33t-32 80q0 46 32 78t78 32t79.5 -32.5t33.5 -77.5q0 -47 -33.5 -80t-79.5 -33z" />
    <glyph glyph-name="uni030A" unicode="&#x30a;" horiz-adv-x="0" 
d="M-326 1579q-75 0 -126.5 52t-51.5 126t51.5 126t126.5 52q73 0 124.5 -52t51.5 -126t-51.5 -126t-124.5 -52zM-326 1686q30 0 50 20t20 51q0 29 -20.5 50.5t-49.5 21.5q-30 0 -50.5 -21t-20.5 -51q0 -31 20 -51t51 -20z" />
    <glyph glyph-name="uni030B" unicode="&#x30b;" horiz-adv-x="0" 
d="M-901 1595l-33 33q-17 17 -17 31t17 31l219 229q17 17 31 17t31 -17l35 -35q17 -17 17 -30.5t-17 -30.5l-222 -228q-17 -17 -30.5 -17t-30.5 17zM-553 1595l-33 33q-17 17 -17 31t17 31l219 229q17 17 31 17t31 -17l33 -35q17 -17 17 -30.5t-17 -30.5l-220 -228
q-17 -17 -30.5 -17t-30.5 17z" />
    <glyph glyph-name="uni030C" unicode="&#x30c;" horiz-adv-x="0" 
d="M-188 1825l-236 -230q-14 -15 -31 -15t-30 15l-234 230q-18 18 -18 30.5t18 30.5l33 33q18 17 30.5 16.5t30.5 -16.5l170 -170l172 170q18 16 31 16.5t31 -16.5l33 -33q17 -17 17 -30.5t-17 -30.5z" />
    <glyph glyph-name="uni0312" unicode="&#x312;" horiz-adv-x="0" 
d="M-178 1280q5 -6 30.5 -29t35.5 -41.5t10 -46.5q0 -50 -36 -85.5t-87 -35.5q-74 2 -114 66t-15 174q12 56 45.5 118.5t72.5 104.5q20 23 48 4l32 -24q21 -18 2 -43q-46 -61 -51 -97t27 -65z" />
    <glyph glyph-name="uni0326" unicode="&#x326;" horiz-adv-x="0" 
d="M-285 -311q-7 8 -24 23t-26 24.5t-17 27.5t-8 39q0 51 35.5 86.5t86.5 34.5q75 0 114.5 -64.5t14.5 -174.5q-10 -55 -44 -117t-74 -105q-21 -24 -47 -4l-33 25q-18 15 -2 41q46 64 51.5 99t-27.5 65z" />
    <glyph glyph-name="uni0327" unicode="&#x327;" horiz-adv-x="0" 
d="M-371 -100q77 31 141 11.5t105 -77t41 -127.5q0 -92 -69 -157.5t-166 -65.5q-49 0 -99 20q-37 14 -24 50l22 57q7 18 17.5 22.5t27.5 -2.5q30 -10 56 -10q41 0 70.5 29.5t29.5 70.5q0 43 -29.5 72t-70.5 29q-44 0 -91 -47q-17 -20 -43 -8l-51 20q-26 11 -16 39l80 231
l121 -22z" />
    <glyph glyph-name="uni0328" unicode="&#x328;" horiz-adv-x="0" 
d="M-270 43q-20 -17 -40.5 -57.5t-23.5 -77.5q-3 -64 47 -104.5t119 -18.5q34 12 45 -21l19 -61q12 -35 -25 -49q-56 -24 -114.5 -15.5t-106.5 36.5t-78.5 80t-30.5 114q0 83 51 146t129 81z" />
    <glyph glyph-name="uni0335" unicode="&#x335;" horiz-adv-x="0" 
 />
    <glyph glyph-name="uni0336" unicode="&#x336;" horiz-adv-x="0" 
 />
    <glyph glyph-name="uni0337" unicode="&#x337;" horiz-adv-x="0" 
d="M-119 983q20 12 34 10.5t22 -20.5l34 -60q9 -19 5.5 -30t-23.5 -23l-469 -268q-20 -13 -32.5 -11t-22.5 21l-33 60q-11 19 -7 30t25 23z" />
    <glyph glyph-name="uni0338" unicode="&#x338;" horiz-adv-x="0" 
d="M-317 1536q17 0 25 -10.5t-1 -32.5l-696 -1450q-11 -24 -24 -33.5t-36 -9.5h-61q-17 0 -25 11.5t0 31.5l699 1450q11 24 23.5 33.5t35.5 9.5h60z" />
    <glyph glyph-name="Wgrave" unicode="&#x1e80;" horiz-adv-x="1388" 
d="M483 1966l31 45q14 22 25 26t32 -9l324 -218q21 -14 24 -25t-10 -32l-32 -47q-14 -21 -25.5 -24t-32.5 10l-321 217q-21 14 -24.5 24.5t9.5 32.5zM367 0q-26 0 -38 8t-16 33l-256 1454q-4 23 3 32t26 9h109q44 0 49 -41l157 -1022q1 -12 11.5 -12t13.5 12l188 1022
q4 25 16 33t38 8h53q26 0 37.5 -8t15.5 -33l189 -1022q1 -12 12 -12t12 12l158 1022q5 41 49 41h106q20 0 26.5 -8.5t2.5 -32.5l-254 -1454q-4 -25 -15.5 -33t-37.5 -8h-68q-26 0 -37.5 8t-15.5 33l-194 1044q-1 11 -12 11t-13 -11l-195 -1044q-4 -25 -15.5 -33t-37.5 -8
h-67z" />
    <glyph glyph-name="wgrave" unicode="&#x1e81;" horiz-adv-x="1150" 
d="M760 1360q31 -31 0 -62l-45 -45q-31 -31 -62 0l-258 244q-17 17 -17 29.5t17 29.5l43 48q18 16 31 16.5t31 -16.5zM1102 1059q35 0 26 -41l-223 -977q-6 -24 -17 -32.5t-36 -8.5h-64q-25 0 -37 9t-16 32l-147 633q-3 10 -12.5 10t-12.5 -10l-145 -633q-4 -23 -16 -32
t-37 -9h-64q-26 0 -37.5 8.5t-15.5 32.5l-223 977q-9 41 26 41h101q38 0 47 -41l133 -643q1 -7 6 -10t10.5 -0.5t7.5 10.5l144 643q4 24 15.5 32.5t37.5 8.5h47q25 0 36 -8.5t17 -32.5l144 -643q2 -8 7.5 -10.5t10.5 0.5t6 10l131 643q9 41 47 41h103z" />
    <glyph glyph-name="Wacute" unicode="&#x1e82;" horiz-adv-x="1388" 
d="M909 1937q13 -22 10 -32.5t-24 -24.5l-324 -217q-19 -13 -30.5 -10t-26.5 24l-31 47q-13 21 -9.5 32.5t24.5 25.5l323 217q21 13 32.5 9t25.5 -26zM367 0q-26 0 -38 8t-16 33l-256 1454q-4 23 3 32t26 9h109q44 0 49 -41l157 -1022q1 -12 11.5 -12t13.5 12l188 1022
q4 25 16 33t38 8h53q26 0 37.5 -8t15.5 -33l189 -1022q1 -12 12 -12t12 12l158 1022q5 41 49 41h106q20 0 26.5 -8.5t2.5 -32.5l-254 -1454q-4 -25 -15.5 -33t-37.5 -8h-68q-26 0 -37.5 8t-15.5 33l-194 1044q-1 11 -12 11t-13 -11l-195 -1044q-4 -25 -15.5 -33t-37.5 -8
h-67z" />
    <glyph glyph-name="wacute" unicode="&#x1e83;" horiz-adv-x="1150" 
d="M387 1360l258 244q31 31 62 0l45 -48q17 -17 17 -29.5t-17 -29.5l-258 -244q-31 -31 -62 0l-45 45q-31 31 0 62zM1102 1059q35 0 26 -41l-223 -977q-6 -24 -17 -32.5t-36 -8.5h-64q-25 0 -37 9t-16 32l-147 633q-3 10 -12.5 10t-12.5 -10l-145 -633q-4 -23 -16 -32
t-37 -9h-64q-26 0 -37.5 8.5t-15.5 32.5l-223 977q-9 41 26 41h101q38 0 47 -41l133 -643q1 -7 6 -10t10.5 -0.5t7.5 10.5l144 643q4 24 15.5 32.5t37.5 8.5h47q25 0 36 -8.5t17 -32.5l144 -643q2 -8 7.5 -10.5t10.5 0.5t6 10l131 643q9 41 47 41h103z" />
    <glyph glyph-name="Wdieresis" unicode="&#x1e84;" horiz-adv-x="1388" 
d="M537 1698q-46 0 -79.5 32.5t-33.5 79.5q0 46 33.5 78.5t79.5 32.5t79 -32.5t33 -78.5q0 -47 -33 -79.5t-79 -32.5zM850 1698q-46 0 -78.5 32.5t-32.5 79.5q0 46 32.5 78.5t78.5 32.5t79.5 -32.5t33.5 -78.5q0 -47 -33.5 -79.5t-79.5 -32.5zM367 0q-26 0 -38 8t-16 33
l-256 1454q-4 23 3 32t26 9h109q44 0 49 -41l157 -1022q1 -12 11.5 -12t13.5 12l188 1022q4 25 16 33t38 8h53q26 0 37.5 -8t15.5 -33l189 -1022q1 -12 12 -12t12 12l158 1022q5 41 49 41h106q20 0 26.5 -8.5t2.5 -32.5l-254 -1454q-4 -25 -15.5 -33t-37.5 -8h-68
q-26 0 -37.5 8t-15.5 33l-194 1044q-1 11 -12 11t-13 -11l-195 -1044q-4 -25 -15.5 -33t-37.5 -8h-67z" />
    <glyph glyph-name="wdieresis" unicode="&#x1e85;" horiz-adv-x="1150" 
d="M412 1305q-47 0 -81 33t-34 79q0 47 34 81t81 34q46 0 79 -34t33 -81q0 -46 -33 -79t-79 -33zM741 1305q-47 0 -80.5 33t-33.5 79q0 47 33.5 81t80.5 34q46 0 79.5 -34t33.5 -81q0 -46 -33.5 -79t-79.5 -33zM1102 1059q35 0 26 -41l-223 -977q-6 -24 -17 -32.5t-36 -8.5
h-64q-25 0 -37 9t-16 32l-147 633q-3 10 -12.5 10t-12.5 -10l-145 -633q-4 -23 -16 -32t-37 -9h-64q-26 0 -37.5 8.5t-15.5 32.5l-223 977q-9 41 26 41h101q38 0 47 -41l133 -643q1 -7 6 -10t10.5 -0.5t7.5 10.5l144 643q4 24 15.5 32.5t37.5 8.5h47q25 0 36 -8.5t17 -32.5
l144 -643q2 -8 7.5 -10.5t10.5 0.5t6 10l131 643q9 41 47 41h103z" />
    <glyph glyph-name="Ygrave" unicode="&#x1ef2;" horiz-adv-x="886" 
d="M233 1966l31 45q14 22 25.5 26t32.5 -9l323 -218q21 -14 24 -25t-10 -32l-32 -47q-14 -21 -25.5 -24t-32.5 10l-321 217q-21 14 -24.5 24.5t9.5 32.5zM799 1536q39 0 24 -41l-286 -831v-621q0 -23 -10 -33t-33 -10h-99q-23 0 -33 10t-10 33v621l-286 831q-15 41 24 41
h109q40 0 53 -41l180 -561q3 -9 12.5 -9t12.5 9l180 561q7 24 19.5 32.5t33.5 8.5h109z" />
    <glyph glyph-name="ygrave" unicode="&#x1ef3;" horiz-adv-x="772" 
d="M569 1360q31 -31 0 -62l-45 -45q-30 -31 -61 0l-258 244q-17 17 -17 29.5t17 29.5l43 48q18 16 30.5 16.5t30.5 -16.5zM119 -397q-23 0 -33 10t-10 33v71q0 23 9.5 32t33.5 11q59 7 94 27t51 72q30 105 33.5 140t-10.5 77l-271 942q-9 41 27 41h102q39 0 48 -41l180 -701
q3 -11 12 -11t12 11l181 701q12 41 47 41h102q39 0 27 -41l-359 -1235q-54 -180 -276 -180z" />
    <glyph glyph-name="endash" unicode="&#x2013;" horiz-adv-x="1165" 
d="M1032 664q23 0 33 -10t10 -33v-58q0 -23 -10 -33t-33 -10h-899q-23 0 -33 10t-10 33v58q0 23 10 33t33 10h899z" />
    <glyph glyph-name="emdash" unicode="&#x2014;" horiz-adv-x="1431" 
d="M1298 664q23 0 33 -10t10 -33v-58q0 -23 -10 -33t-33 -10h-1165q-23 0 -33 10t-10 33v58q0 23 10 33t33 10h1165z" />
    <glyph glyph-name="quoteleft" unicode="&#x2018;" horiz-adv-x="462" 
d="M254 1251q5 -5 34 -26.5t42.5 -43.5t13.5 -55q0 -51 -36.5 -86.5t-90.5 -35.5q-63 0 -102.5 46.5t-43.5 120.5t27 164q45 121 131 207q22 22 47 4l31 -26q19 -16 2 -43q-30 -42 -47.5 -73t-29.5 -62t-6.5 -54t28.5 -37z" />
    <glyph glyph-name="quoteright" unicode="&#x2019;" horiz-adv-x="462" 
d="M209 1309q-6 6 -33.5 26.5t-42 43t-14.5 55.5q0 51 36.5 86.5t90.5 35.5q63 0 102.5 -47t43.5 -120.5t-27 -163.5q-44 -119 -129 -207q-25 -25 -50 -4l-30 26q-19 17 -2 41q29 42 47 73t30 63t6.5 55t-28.5 37z" />
    <glyph glyph-name="quotesinglbase" unicode="&#x201a;" horiz-adv-x="462" 
d="M209 -25q-5 6 -33.5 27.5t-42.5 44t-14 55.5q0 51 36.5 87t90.5 36q63 0 102.5 -47t43.5 -120.5t-27 -163.5q-44 -119 -129 -207q-25 -25 -50 -4l-30 26q-20 15 -2 41q30 41 48.5 73t29.5 62.5t5.5 53.5t-28.5 36z" />
    <glyph glyph-name="quotedblleft" unicode="&#x201c;" horiz-adv-x="837" 
d="M254 1251q6 -6 33.5 -27t41 -43t13.5 -55q0 -51 -36.5 -86.5t-88.5 -35.5q-63 0 -103 47t-44 120.5t28 163.5q48 129 129 207q25 26 47 4l33 -26q19 -17 2 -41q-29 -42 -47 -73t-30 -63t-6.5 -55t28.5 -37zM627 1251q5 -5 34 -26.5t42.5 -43.5t13.5 -55
q0 -51 -36.5 -86.5t-88.5 -35.5q-63 0 -103 47t-44.5 120.5t26.5 163.5q47 126 131 207q24 24 47 4l31 -26q19 -17 2 -41q-29 -41 -47 -73t-29.5 -63t-6 -54.5t27.5 -37.5z" />
    <glyph glyph-name="quotedblright" unicode="&#x201d;" horiz-adv-x="837" 
d="M209 1309q-6 6 -33.5 26.5t-42 43t-14.5 55.5q0 51 36.5 86.5t90.5 35.5q63 0 102.5 -47t43.5 -120.5t-27 -163.5q-48 -129 -129 -207q-25 -25 -50 -4l-30 26q-19 17 -2 41q29 41 47 73t29.5 63t6 54.5t-27.5 37.5zM584 1309q-5 5 -34 26.5t-42.5 43.5t-13.5 55
q0 51 36 86.5t88 35.5q63 0 103 -47t44.5 -120.5t-26.5 -163.5q-47 -126 -131 -207q-26 -26 -47 -4l-31 26q-19 17 -2 41q29 43 46.5 73.5t29.5 62.5t7 55t-27 37z" />
    <glyph glyph-name="quotedblbase" unicode="&#x201e;" horiz-adv-x="837" 
d="M160 -25q-5 5 -34 26.5t-42.5 43.5t-13.5 55q0 51 36.5 87t88.5 36q64 0 104 -47.5t43.5 -121t-27.5 -163.5q-44 -119 -131 -206q-22 -22 -47 -4l-31 26q-19 17 -2 41q29 41 47 73t29.5 63.5t6.5 54.5t-27 36zM535 -27q-5 5 -34.5 27t-43 44t-13.5 54q0 51 36.5 87
t88.5 36q63 0 103 -47t44.5 -120.5t-26.5 -164.5q-47 -116 -131 -206q-26 -23 -47 -5l-33 27q-19 16 -2 43q29 40 48 72t30.5 63t6.5 54t-27 36z" />
    <glyph glyph-name="dagger" unicode="&#x2020;" horiz-adv-x="1009" 
d="M864 1059q23 0 33 -10t10 -33v-80q0 -23 -10 -33t-33 -10h-250q-12 0 -16 -4.5t-4 -16.5v-1314q0 -23 -10 -33t-33 -10h-92q-23 0 -33 10t-10 33v1314q0 12 -4.5 16.5t-16.5 4.5h-250q-23 0 -33 10t-10 33v80q0 23 10 33t33 10h250q12 0 16.5 4t4.5 16v414q0 23 10 33
t33 10h92q23 0 33 -10t10 -33v-414q0 -12 4 -16t16 -4h250z" />
    <glyph glyph-name="daggerdbl" unicode="&#x2021;" horiz-adv-x="999" 
d="M590 258q0 -12 4 -16t16 -4h244q23 0 33 -10t10 -33v-80q0 -23 -10 -33t-33 -10h-244q-12 0 -16 -4.5t-4 -16.5v-493q0 -23 -10 -33t-33 -10h-94q-23 0 -33 10t-10 33v493q0 12 -4.5 16.5t-16.5 4.5h-244q-23 0 -33 10t-10 33v80q0 23 10 33t33 10h244q12 0 16.5 4
t4.5 16v610q0 12 -4.5 16.5t-16.5 4.5h-244q-23 0 -33 10t-10 33v82q0 23 10 33t33 10h244q12 0 16.5 4t4.5 16v416q0 23 10 33t33 10h94q23 0 33 -10t10 -33v-416q0 -12 4 -16t16 -4h244q23 0 33 -10t10 -33v-82q0 -23 -10 -33t-33 -10h-244q-12 0 -16 -4.5t-4 -16.5v-610z
" />
    <glyph glyph-name="bullet" unicode="&#x2022;" horiz-adv-x="686" 
d="M344 326q-103 0 -175.5 72t-72.5 173q0 102 73 175t175 73q101 0 173.5 -73.5t72.5 -174.5t-72.5 -173t-173.5 -72z" />
    <glyph glyph-name="ellipsis" unicode="&#x2026;" horiz-adv-x="1275" 
d="M262 -18q-56 0 -93.5 38t-37.5 93q0 53 38 90t93 37q54 0 91.5 -37t37.5 -90q0 -55 -37.5 -93t-91.5 -38zM659 -18q-55 0 -93 38t-38 93q0 53 38 90t93 37q54 0 91.5 -37t37.5 -90q0 -55 -37.5 -93t-91.5 -38zM1057 -18q-55 0 -93 38t-38 93q0 53 38 90t93 37
q54 0 91.5 -37t37.5 -90q0 -55 -37.5 -93t-91.5 -38z" />
    <glyph glyph-name="perthousand" unicode="&#x2030;" horiz-adv-x="2103" 
d="M369 997q-115 0 -197 81.5t-82 197.5q0 115 81.5 196.5t197.5 81.5q115 0 196.5 -81t81.5 -197t-81.5 -197.5t-196.5 -81.5zM1149 1536q18 0 26 -10t-1 -33l-760 -1450q-13 -25 -23.5 -34t-32.5 -9h-90q-18 0 -25.5 10t1.5 33l762 1450q13 26 23 34.5t32 8.5h88z
M369 1126q61 0 105 44t44 106q0 60 -44 103.5t-105 43.5t-105.5 -43.5t-44.5 -103.5q0 -62 44.5 -106t105.5 -44zM1051 -18q-116 0 -197.5 81.5t-81.5 196.5q0 116 82 197.5t197 81.5t196.5 -81.5t81.5 -197.5t-81.5 -197t-196.5 -81zM1735 -18q-116 0 -197.5 81.5
t-81.5 196.5q0 116 82 197.5t197 81.5t196.5 -81.5t81.5 -197.5t-81.5 -197t-196.5 -81zM1051 113q61 0 105 43.5t44 103.5q0 62 -44 106t-105 44t-105.5 -44t-44.5 -106q0 -60 44.5 -103.5t105.5 -43.5zM1735 113q61 0 105 43.5t44 103.5q0 62 -44 106t-105 44t-105.5 -44
t-44.5 -106q0 -60 44.5 -103.5t105.5 -43.5z" />
    <glyph glyph-name="guilsinglleft" unicode="&#x2039;" horiz-adv-x="544" 
d="M424 602l-143 -164q-13 -16 0 -32l143 -164q19 -21 24 -30.5t5 -31.5v-129q0 -18 -12.5 -22.5t-26.5 12.5l-312 350q-25 31 0 62l312 350q14 15 26.5 11.5t12.5 -21.5v-129q0 -22 -5 -31.5t-24 -30.5z" />
    <glyph glyph-name="guilsinglright" unicode="&#x203a;" horiz-adv-x="544" 
d="M119 602q-3 3 -8 9.5t-6.5 8.5t-5 7t-4.5 8l-2.5 7.5t-2 9.5t-0.5 12v129q0 18 13 21.5t26 -11.5l311 -350q25 -31 0 -62l-311 -350q-13 -17 -26 -12.5t-13 22.5v129q0 8 1 14t2 10t4.5 9.5t5 7.5t8 10t8.5 11l145 164q13 16 0 32z" />
    <glyph glyph-name="uni2070" unicode="&#x2070;" horiz-adv-x="776" 
d="M387 459q-130 0 -205.5 88t-75.5 252v415q0 164 75.5 252t205.5 88q132 0 207.5 -88t75.5 -252v-415q0 -164 -75.5 -252t-207.5 -88zM387 600q58 0 93.5 50t35.5 147v417q0 99 -35 148t-94 49q-58 0 -92.5 -49t-34.5 -148v-417q0 -98 34.5 -147.5t92.5 -49.5z" />
    <glyph glyph-name="uni2074" unicode="&#x2074;" horiz-adv-x="679" 
d="M582 805q20 0 28 -8t8 -27v-57q0 -19 -8 -27t-28 -8h-17q-18 0 -24 -7t-6 -26v-145q0 -19 -8.5 -27t-28.5 -8h-80q-20 0 -28.5 8t-8.5 27v145q0 19 -6.5 26t-24.5 7h-293q-20 0 -28.5 8t-8.5 27v51q0 21 17 55l346 697q10 20 41 20h74q20 0 28.5 -8t8.5 -27v-663
q0 -20 5.5 -26.5t24.5 -6.5h17zM381 838v417l-207 -450h176q19 0 25 6.5t6 26.5z" />
    <glyph glyph-name="uni2075" unicode="&#x2075;" horiz-adv-x="720" 
d="M381 1210q42 2 81.5 -13.5t74.5 -49t56 -94.5t21 -140v-147q0 -80 -22 -140t-60.5 -94t-84 -50.5t-97.5 -16.5q-94 0 -161.5 52.5t-79.5 148.5q-4 30 20 30h82q24 0 29 -20q9 -33 37 -54.5t67 -21.5q49 0 85 36t36 109v193q0 72 -36 107.5t-85 35.5q-71 0 -106 -84
q-9 -18 -29 -18h-68q-19 0 -27 8.5t-8 28.5v483q0 20 8 28.5t27 8.5h416q19 0 27 -8.5t8 -28.5v-61q0 -20 -8 -28.5t-27 -8.5h-283q-19 0 -24.5 -6t-5.5 -25v-229q53 63 137 69z" />
    <glyph glyph-name="uni2076" unicode="&#x2076;" horiz-adv-x="745" 
d="M395 1130q43 3 84.5 -11t78 -45.5t59 -89.5t22.5 -134v-90q0 -79 -23.5 -139t-62.5 -94t-84.5 -51t-95.5 -17t-95.5 17t-85 51t-63 94t-23.5 139v493q0 80 22.5 140t60.5 94t84 50.5t98 16.5q93 0 160.5 -52.5t80.5 -149.5q4 -31 -22 -31h-80q-23 0 -29 20
q-11 34 -38.5 55t-67.5 21q-48 0 -84.5 -35.5t-36.5 -107.5v-215q56 63 141 71zM492 743v103q0 76 -35.5 112.5t-83.5 36.5t-83.5 -36.5t-35.5 -112.5v-103q0 -76 35.5 -112.5t83.5 -36.5t83.5 36.5t35.5 112.5z" />
    <glyph glyph-name="uni2077" unicode="&#x2077;" horiz-adv-x="579" 
d="M483 1536q19 0 27 -8t8 -27v-55q0 -19 -6 -55l-219 -879q-4 -20 -15 -27.5t-32 -7.5h-80q-31 0 -23 35l217 868q6 21 -12 21h-280q-19 0 -27 8t-8 27v65q0 19 8 27t27 8h415z" />
    <glyph glyph-name="uni2078" unicode="&#x2078;" horiz-adv-x="749" 
d="M375 459q-52 0 -99 17t-86 50.5t-61.5 90.5t-22.5 131v57q0 147 101 229q-88 68 -88 221v13q0 140 74 213t182 73t182 -73t74 -213v-13q0 -151 -90 -221q100 -81 100 -229v-57q0 -74 -22.5 -131t-60.5 -90.5t-84.5 -50.5t-98.5 -17zM375 1102q48 0 81 36.5t33 110.5v27
q0 73 -33 109t-81 36q-48 -2 -81.5 -37.5t-33.5 -107.5v-27q0 -74 33.5 -110.5t81.5 -36.5zM375 594q48 0 83.5 36.5t35.5 108.5v78q0 74 -35.5 111t-83.5 37t-83.5 -37t-35.5 -111v-78q0 -72 35.5 -108.5t83.5 -36.5z" />
    <glyph glyph-name="uni2079" unicode="&#x2079;" horiz-adv-x="745" 
d="M350 883q-43 -4 -84.5 10t-78 45.5t-59 90t-22.5 134.5v90q0 79 23.5 139t63 94t85 51t95.5 17t95.5 -17t84.5 -51t62.5 -94t23.5 -139v-493q0 -80 -22 -140t-60.5 -94t-84 -50.5t-97.5 -16.5q-93 0 -161 51.5t-81 148.5q-4 31 23 31h80q22 0 28 -20q11 -34 39 -55
t68 -21q49 0 85 36t36 109v215q-54 -66 -142 -71zM254 1270v-103q0 -78 35.5 -114.5t83.5 -36.5t83.5 36.5t35.5 114.5v103q0 76 -35.5 111.5t-83.5 35.5t-83.5 -35.5t-35.5 -111.5z" />
    <glyph glyph-name="uni2080" unicode="&#x2080;" horiz-adv-x="776" 
d="M387 -416q-130 0 -205.5 87.5t-75.5 250.5v418q0 164 75.5 251t205.5 87q132 0 207.5 -87t75.5 -251v-418q0 -163 -76 -250.5t-207 -87.5zM387 -274q58 0 93.5 49.5t35.5 146.5v418q0 99 -35 148t-94 49q-58 0 -92.5 -49t-34.5 -148v-418q0 -98 34.5 -147t92.5 -49z" />
    <glyph glyph-name="uni2081" unicode="&#x2081;" horiz-adv-x="579" 
d="M393 674q19 0 27 -8t8 -27v-1001q0 -19 -8 -27t-27 -8h-82q-20 0 -27.5 8t-7.5 27v804l-124 -127q-28 -28 -52 0l-51 54q-13 17 -13 27t13 24l230 233q21 21 40 21h74z" />
    <glyph glyph-name="uni2082" unicode="&#x2082;" horiz-adv-x="675" 
d="M117 -397q-20 0 -27.5 7.5t-7.5 27.5v141q0 66 18.5 124.5t49 102t67.5 82.5t75 74.5t70 69.5t54.5 75.5t27.5 85.5q9 69 -26 111.5t-90 42.5q-39 0 -66.5 -22t-40.5 -58q-8 -21 -28 -21h-80q-27 0 -23 31q4 92 73.5 146.5t168.5 54.5q119 0 193 -79.5t65 -211.5
q-5 -61 -27 -115t-54 -94t-69 -77t-73.5 -72t-66.5 -70.5t-48.5 -80t-18.5 -93.5v-16q0 -19 6 -25t25 -6h293q20 0 28.5 -8.5t8.5 -28.5v-63q0 -20 -8 -27.5t-29 -7.5h-440z" />
    <glyph glyph-name="uni2083" unicode="&#x2083;" horiz-adv-x="718" 
d="M348 -416q-93 0 -161 52t-81 149q-4 31 23 31h80q23 0 29 -19q11 -34 38.5 -56t65.5 -22q50 0 86.5 36t36.5 110v84q0 72 -36.5 107.5t-86.5 35.5h-66q-19 0 -26.5 8t-7.5 27v59q0 20 7.5 28.5t26.5 8.5h66q50 0 86.5 36t36.5 108v32q0 72 -36.5 108t-86.5 36
q-40 0 -69 -22t-35 -56q-3 -19 -29 -19h-80q-27 0 -23 31q14 97 81.5 149t160.5 52q111 0 187.5 -72.5t76.5 -222.5v-12q0 -142 -90 -215q90 -73 90 -222v-61q0 -146 -76.5 -217.5t-187.5 -71.5z" />
    <glyph glyph-name="uni2084" unicode="&#x2084;" horiz-adv-x="679" 
d="M582 -57q20 0 28 -8t8 -27v-60q0 -19 -8 -26.5t-28 -7.5h-17q-18 0 -24 -7t-6 -26v-143q0 -19 -8.5 -27t-28.5 -8h-80q-20 0 -28.5 8t-8.5 27v143q0 19 -6.5 26t-24.5 7h-293q-20 0 -28.5 7.5t-8.5 26.5v52q0 24 17 55l346 698q12 21 41 21h74q20 0 28.5 -8t8.5 -27v-664
q0 -20 5.5 -26t24.5 -6h17zM381 -27v418l-207 -448h176q19 0 25 5.5t6 24.5z" />
    <glyph glyph-name="uni2085" unicode="&#x2085;" horiz-adv-x="720" 
d="M381 330q42 2 81.5 -13.5t74.5 -49t56 -94.5t21 -140v-148q0 -80 -22 -140t-60.5 -94t-84 -50.5t-97.5 -16.5q-94 0 -161.5 52.5t-79.5 148.5q-4 31 20 31h82q24 0 29 -21q9 -33 37 -54.5t67 -21.5q49 0 85 36.5t36 109.5v192q0 72 -36 108t-85 36q-71 0 -106 -84
q-10 -19 -29 -19h-68q-19 0 -27 8.5t-8 28.5v490q0 20 8 28.5t27 8.5h416q19 0 27 -8.5t8 -28.5v-62q0 -20 -8 -28.5t-27 -8.5h-283q-19 0 -24.5 -5.5t-5.5 -24.5v-236q53 65 137 70z" />
    <glyph glyph-name="uni2086" unicode="&#x2086;" horiz-adv-x="745" 
d="M395 256q43 3 84.5 -11.5t78 -46.5t59 -89.5t22.5 -133.5v-90q0 -79 -23.5 -139t-62.5 -94t-84.5 -51t-95.5 -17t-95.5 17t-85 51t-63 94t-23.5 139v492q0 80 22.5 140t60.5 94t84 50.5t98 16.5q93 0 160.5 -52t80.5 -149q4 -31 -22 -31h-80q-23 0 -29 21
q-11 34 -38.5 55t-67.5 21q-48 0 -84.5 -36t-36.5 -108v-215q57 64 141 72zM492 -131v100q0 78 -35.5 115t-83.5 37t-83.5 -37t-35.5 -115v-100q0 -78 35.5 -114t83.5 -36t83.5 36t35.5 114z" />
    <glyph glyph-name="uni2087" unicode="&#x2087;" horiz-adv-x="575" 
d="M477 662q20 0 28.5 -8t8.5 -27v-56q0 -7 -8 -55l-219 -878q-4 -20 -15 -27.5t-32 -7.5h-80q-31 0 -23 35l217 868q6 20 -12 20h-281q-19 0 -26.5 8t-7.5 27v66q0 19 7.5 27t26.5 8h416z" />
    <glyph glyph-name="uni2088" unicode="&#x2088;" horiz-adv-x="749" 
d="M375 -416q-52 0 -99 17t-86 50.5t-61.5 90.5t-22.5 131v57q0 148 101 230q-88 68 -88 221v12q0 139 74 212t182 73t182 -73t74 -212v-12q0 -151 -90 -221q100 -81 100 -230v-57q0 -74 -22.5 -131t-60.5 -90.5t-84.5 -50.5t-98.5 -17zM375 227q48 0 81 37t33 111v26
q0 73 -33.5 109.5t-80.5 36.5q-48 -2 -81.5 -38t-33.5 -108v-26q0 -74 33.5 -111t81.5 -37zM375 -281q48 0 83.5 37t35.5 109v78q0 74 -35.5 110.5t-83.5 36.5t-83.5 -36.5t-35.5 -110.5v-78q0 -72 35.5 -109t83.5 -37z" />
    <glyph glyph-name="uni2089" unicode="&#x2089;" horiz-adv-x="745" 
d="M350 8q-43 -4 -84.5 10.5t-78 46t-59 90t-22.5 134.5v88q0 79 23.5 139.5t63 94.5t85 50.5t95.5 16.5t95.5 -16.5t84.5 -50.5t62.5 -94.5t23.5 -139.5v-492q0 -80 -22 -140t-60.5 -94t-84 -50.5t-97.5 -16.5q-93 0 -161 52t-81 149q-4 31 23 31h80q22 0 28 -21
q11 -34 39 -55t68 -21q49 0 85 36.5t36 109.5v215q-55 -67 -142 -72zM254 393v-100q0 -78 35.5 -115t83.5 -37t83.5 37t35.5 115v100q0 78 -35.5 114t-83.5 36t-83.5 -36t-35.5 -114z" />
    <glyph glyph-name="Euro" unicode="&#x20ac;" horiz-adv-x="946" 
d="M807 352q27 0 27 -37q-11 -150 -102.5 -241.5t-248.5 -91.5q-172 0 -268 113t-96 315v202h-76q-23 0 -33 10t-10 33v13q0 23 10 33t33 10h76v123h-76q-23 0 -33 10t-10 33v12q0 23 10 33t33 10h76v194q0 202 96 315t268 113q157 0 248.5 -91.5t102.5 -241.5
q0 -37 -27 -37h-115q-18 0 -26 5.5t-9 22.5q-14 75 -59 121.5t-113 46.5q-81 0 -130.5 -67t-49.5 -187v-194h256q23 0 33 -10t10 -33v-12q0 -23 -10 -33t-33 -10h-256v-123h256q23 0 33 -10t10 -33v-13q0 -23 -10 -33t-33 -10h-256v-202q0 -120 49.5 -187t130.5 -67
q68 0 113 46.5t59 121.5q1 17 9 22.5t26 5.5h115z" />
    <glyph glyph-name="trademark" unicode="&#x2122;" horiz-adv-x="1531" 
d="M553 1536q17 0 24 -7t7 -26v-47q0 -33 -31 -33h-123q-17 0 -23 -5.5t-6 -22.5v-441q0 -18 -7 -25t-25 -7h-56q-18 0 -25 7t-7 25v441q0 17 -6 22.5t-23 5.5h-123q-33 0 -33 33v47q0 18 7.5 25.5t25.5 7.5h424zM1436 954q3 -18 -4 -25t-25 -7h-55q-19 0 -26.5 6.5
t-10.5 25.5l-49 340q-2 9 -10 10t-11 -8l-147 -344q-8 -19 -14.5 -24.5t-24.5 -5.5h-29q-18 0 -24.5 5.5t-14.5 24.5l-147 344q-3 9 -11 8t-10 -10l-49 -340q-3 -19 -10.5 -25.5t-26.5 -6.5h-55q-18 0 -25 7t-4 25l86 549q3 19 10.5 26t24.5 7h55q18 0 24.5 -6.5t14.5 -26.5
l166 -393q3 -8 10.5 -8t10.5 8l166 393q8 20 14.5 26.5t24.5 6.5h55q17 0 24.5 -7t10.5 -26z" />
    <glyph glyph-name="partialdiff" unicode="&#x2202;" horiz-adv-x="862" 
d="M430 -18q-61 0 -116 20.5t-103 62.5t-76.5 115.5t-28.5 169.5v273q0 93 27.5 164t72.5 109.5t96 56t104 12.5q108 -11 176 -86v102q0 227 -62.5 314t-238.5 87q-23 0 -33 10t-10 33v68q0 23 10 33t33 10q86 0 152 -11.5t116.5 -34t86 -60.5t59 -84t37 -112.5t19 -139
t5.5 -168.5v-576q0 -96 -28.5 -169.5t-76.5 -115.5t-104 -62.5t-117 -20.5zM430 141q61 0 106.5 45t45.5 138v299q0 94 -45.5 138t-106.5 44q-60 0 -104.5 -44t-44.5 -138v-299q0 -93 45 -138t104 -45z" />
    <glyph glyph-name="emptyset" unicode="&#x2205;" horiz-adv-x="1126" 
d="M918 717q98 -125 98 -283q0 -187 -132.5 -319.5t-320.5 -132.5q-158 0 -280 98l-80 -80q-17 -17 -31 -17t-31 17l-10 10q-17 17 -17 31t17 31l80 80q-100 124 -100 282q0 187 132 319t320 132q158 0 281 -99l82 82q17 17 30.5 17t30.5 -17l10 -10q17 -17 17 -30.5
t-17 -30.5zM279 434q0 -92 49 -166l401 404q-71 55 -166 55q-120 0 -202 -86.5t-82 -206.5zM563 141q120 0 202.5 86t82.5 207q0 90 -49 164l-402 -403q77 -54 166 -54z" />
    <glyph glyph-name="product" unicode="&#x220f;" horiz-adv-x="1001" 
d="M842 1536q23 0 33 -10t10 -33v-1450q0 -23 -10 -33t-33 -10h-101q-23 0 -33 10t-10 33v1290q0 23 -8 31t-31 8h-317q-23 0 -31 -8t-8 -31v-1290q0 -23 -10 -33t-33 -10h-100q-23 0 -33 10t-10 33v1450q0 23 10 33t33 10h682z" />
    <glyph glyph-name="summation" unicode="&#x2211;" horiz-adv-x="1187" 
d="M111 1489q0 47 43 47h880q23 0 33 -10t10 -33v-78q0 -23 -10 -33t-33 -10h-602q-11 0 -13.5 -8t7.5 -16l610 -504q5 -4 13 -11t10.5 -9t7.5 -7.5t6 -9t2.5 -9.5t1.5 -14v-32q0 -8 -1.5 -14t-2.5 -9.5t-6 -9t-7.5 -7.5t-10.5 -9t-13 -11l-610 -504q-10 -8 -7.5 -16
t13.5 -8h602q23 0 33 -10t10 -33v-78q0 -23 -10 -33t-33 -10h-880q-43 0 -43 47v82q0 9 2 16t8 14t9 10t12.5 10.5t11.5 8.5l696 568q6 4 6 12t-6 12l-696 568q-2 1 -11.5 8.5t-12.5 10.5t-9 10t-8 14t-2 16v82z" />
    <glyph glyph-name="minus" unicode="&#x2212;" horiz-adv-x="1083" 
d="M950 811q23 0 33 -10t10 -33v-57q0 -23 -10 -33t-33 -10h-817q-23 0 -33 10t-10 33v57q0 23 10 33t33 10h817z" />
    <glyph glyph-name="radical" unicode="&#x221a;" horiz-adv-x="1468" 
d="M1350 1536q23 0 33 -10t10 -33v-78q0 -23 -10 -33t-33 -10h-277q-21 0 -29.5 -8.5t-15.5 -30.5l-467 -1292q-9 -26 -18.5 -33.5t-34.5 -7.5h-62q-25 0 -34.5 7.5t-18.5 33.5l-313 772q-16 41 26 41h107q20 0 30 -8.5t19 -32.5l203 -534q3 -11 12 -11t12 11l420 1216
q13 41 52 41h389z" />
    <glyph glyph-name="infinity" unicode="&#x221e;" horiz-adv-x="1220" 
d="M838 1018q115 0 196.5 -81.5t81.5 -197.5q0 -115 -81 -196.5t-197 -81.5q-70 0 -130.5 32t-97.5 87q-39 -55 -99.5 -87t-129.5 -32q-116 0 -197.5 81.5t-81.5 196.5t82 197t197 82q69 0 129.5 -32t99.5 -87q37 55 97.5 87t130.5 32zM381 590q61 0 105 44t44 105
q0 62 -44 106t-105 44t-105.5 -44.5t-44.5 -105.5t44 -105t106 -44zM838 590q62 0 105.5 44t43.5 105q0 62 -44 106t-105 44q-62 0 -106 -44.5t-44 -105.5t44 -105t106 -44z" />
    <glyph glyph-name="integral" unicode="&#x222b;" horiz-adv-x="1110" 
d="M1004 1444q15 -19 15.5 -30.5t-15.5 -27.5l-64 -57q-16 -14 -28.5 -12t-30.5 18q-47 45 -101 45q-59 0 -96 -39t-37 -106v-1444q0 -128 -87.5 -212.5t-213.5 -84.5q-75 0 -138 32t-102 77q-15 20 -15.5 31t15.5 28l64 55q15 15 27.5 13.5t31.5 -19.5q45 -43 101 -43
q59 0 96 38.5t37 107.5v1443q0 127 87 212t212 85q77 0 140 -32t102 -78z" />
    <glyph glyph-name="approxequal" unicode="&#x2248;" horiz-adv-x="1075" 
d="M727 854q-60 0 -188.5 48t-171.5 50q-55 1 -88.5 -19t-59.5 -56q-18 -27 -43 -11l-70 45q-25 14 -10 43q34 71 103.5 109.5t150.5 36.5q55 0 124 -23t133 -47t104 -26q93 -5 145 75q19 28 43 11l72 -46q24 -15 10 -43q-35 -71 -104.5 -109t-149.5 -38zM727 465
q-54 0 -124 23.5t-134 48t-102 26.5q-54 1 -88 -20t-60 -58q-17 -26 -43 -10l-70 45q-25 14 -10 43q34 71 103.5 109.5t150.5 38.5q69 0 192.5 -48.5t168.5 -50.5q55 -1 88 19.5t57 56.5q18 28 43 10l72 -45q24 -15 10 -43q-36 -71 -105 -109t-149 -36z" />
    <glyph glyph-name="notequal" unicode="&#x2260;" horiz-adv-x="878" 
d="M745 872h-192l-86 -266h278q23 0 33 -10t10 -33v-57q0 -23 -10 -33t-33 -10h-325l-60 -182q-8 -24 -20 -33.5t-35 -9.5h-61q-17 0 -24.5 10.5t-0.5 32.5l60 182h-146q-23 0 -33 10t-10 33v57q0 23 10 33t33 10h193l86 266h-279q-23 0 -33 10t-10 33v58q0 23 10 33t33 10
h326l59 182q8 24 20 33.5t35 9.5h62q38 0 24 -43l-59 -182h145q23 0 33 -10t10 -33v-58q0 -23 -10 -33t-33 -10z" />
    <glyph glyph-name="lessequal" unicode="&#x2264;" horiz-adv-x="804" 
d="M686 995l-326 -202q-9 -6 -9 -16.5t9 -16.5l326 -205q19 -13 24 -24.5t5 -36.5v-111q0 -15 -10 -19t-29 7l-567 374q-19 11 -19 30.5t19 31.5l567 373q19 12 29 7t10 -20v-110q0 -25 -5 -37t-24 -25zM133 215h539q23 0 33 -10t10 -33v-57q0 -23 -10 -33t-33 -10h-539
q-23 0 -33 10t-10 33v57q0 23 10 33t33 10z" />
    <glyph glyph-name="greaterequal" unicode="&#x2265;" horiz-adv-x="804" 
d="M121 995q-14 9 -20.5 18t-7.5 17t-1 27v110q0 15 10 20t29 -7l565 -373q19 -12 19 -31.5t-19 -30.5l-565 -374q-19 -11 -29 -7t-10 19v111q0 26 4.5 37t24.5 24l323 205q9 6 9 16.5t-9 16.5zM672 215q23 0 33 -10t10 -33v-57q0 -23 -10 -33t-33 -10h-539q-23 0 -33 10
t-10 33v57q0 23 10 33t33 10h539z" />
    <glyph glyph-name="lozenge" unicode="&#x25ca;" horiz-adv-x="1112" 
d="M1010 805q22 -39 0 -78l-424 -729q-9 -17 -30.5 -17t-31.5 17l-422 729q-25 39 0 78l422 733q10 17 31.5 17t30.5 -17zM823 737q11 19 11 30t-11 28l-252 450q-6 12 -15.5 12t-16.5 -12l-252 -450q-9 -17 -9 -28t9 -30l252 -446q7 -12 16.5 -12t15.5 12z" />
    <glyph glyph-name="i.loclTRK" horiz-adv-x="395" 
d="M199 1305q-50 0 -84.5 34.5t-34.5 83.5q0 48 35 82.5t84 34.5q47 0 81.5 -35t34.5 -82q0 -49 -34 -83.5t-82 -34.5zM242 1059q23 0 33 -10t10 -33v-973q0 -23 -10 -33t-33 -10h-88q-23 0 -33 10t-10 33v973q0 23 10 33t33 10h88z" />
    <glyph glyph-name="zero.tf" horiz-adv-x="849" 
d="M424 -18q-64 0 -120.5 22t-103 66t-73.5 120t-27 175v331q0 98 27 173.5t73.5 119.5t103 66t120.5 22q65 0 121.5 -22t103.5 -66t74 -119.5t27 -173.5v-331q0 -99 -27 -175t-74 -120t-103.5 -66t-121.5 -22zM424 147q61 0 104 47.5t43 153.5v365q0 106 -43 153t-104 47
q-60 0 -102.5 -47t-42.5 -153v-365q0 -106 42.5 -153.5t102.5 -47.5z" />
    <glyph glyph-name="one.tf" horiz-adv-x="657" 
d="M465 1059q22 0 31.5 -9.5t9.5 -31.5v-975q0 -23 -9.5 -33t-31.5 -10h-96q-23 0 -33 10t-10 33v770l-138 -139q-18 -18 -31 -18t-28 18l-53 53q-18 20 -17 30t17 29l243 248q25 25 50 25h96z" />
    <glyph glyph-name="two.tf" horiz-adv-x="790" 
d="M102 0q-22 0 -31.5 9.5t-9.5 31.5v65q0 33 25 58q23 24 74 74.5t87.5 87t85 92t80 102t56.5 102.5t31 107q10 86 -33 137.5t-111 51.5q-49 0 -84 -28t-47 -73q-5 -22 -35 -22h-98q-30 0 -26 36q6 113 90 179.5t204 66.5q146 0 237 -96.5t79 -255.5q-4 -47 -18 -95
t-33 -87.5t-49 -83t-55.5 -74.5t-62.5 -69.5t-60.5 -61.5t-59.5 -56.5t-51 -47.5h366q22 0 31.5 -9.5t9.5 -31.5v-68q0 -22 -9.5 -31.5t-31.5 -9.5h-551z" />
    <glyph glyph-name="three.tf" horiz-adv-x="829" 
d="M403 -313q-114 0 -197.5 64t-96.5 181q-4 37 26 37h98q27 0 35 -24q14 -42 48 -68.5t79 -26.5q61 0 105.5 44.5t44.5 134.5v125q0 90 -44.5 134t-105.5 44h-80q-23 0 -33 10t-10 33v67q0 23 10 33t33 10h80q61 0 105.5 43.5t44.5 133.5v73q0 90 -44.5 134t-105.5 44
q-46 0 -81 -26.5t-46 -67.5q-5 -24 -35 -24h-98q-30 0 -26 36q13 117 96.5 181.5t197.5 64.5q50 0 95.5 -12t87.5 -40t72.5 -69t48.5 -104t18 -141v-37q0 -176 -109 -268q109 -92 109 -269v-84q0 -78 -18 -141t-48.5 -104t-72.5 -69t-87.5 -40t-95.5 -12z" />
    <glyph glyph-name="four.tf" horiz-adv-x="835" 
d="M754 154q23 0 32 -9.5t9 -33.5v-70q0 -22 -9 -31.5t-32 -9.5h-49q-23 0 -31 -8t-8 -31v-215q0 -22 -9.5 -31.5t-31.5 -9.5h-90q-22 0 -31.5 9.5t-9.5 31.5v215q0 23 -8 31t-31 8h-365q-23 0 -33 9.5t-10 31.5v68q0 23 19 59l421 866q12 25 48 25h90q22 0 31.5 -9.5
t9.5 -31.5v-828q0 -22 8 -29t31 -7h49zM494 190v527l-256 -563h217q23 0 31 7t8 29z" />
    <glyph glyph-name="five.tf" horiz-adv-x="831" 
d="M440 635q41 2 80 -8.5t76.5 -38t66 -69t45.5 -104.5t17 -141v-221q0 -78 -18 -141t-48.5 -104t-72.5 -69t-87.5 -40t-95.5 -12q-114 0 -197.5 64t-96.5 181q-4 37 26 37h98q27 0 35 -24q14 -42 47 -68.5t80 -26.5q61 0 105.5 44.5t44.5 134.5v274q0 89 -44 131.5
t-104 42.5q-95 0 -133 -100q-9 -23 -35 -23h-79q-23 0 -33.5 10t-10.5 33v619q0 23 10.5 33t33.5 10h505q23 0 33 -10t10 -33v-78q0 -23 -10 -33t-33 -10h-344q-23 0 -31 -8t-8 -31v-305q68 79 168 84z" />
    <glyph glyph-name="six.tf" horiz-adv-x="862" 
d="M457 827q53 4 104 -13.5t95.5 -55.5t72 -109t27.5 -164v-135q0 -96 -28.5 -169.5t-76.5 -115.5t-104 -62.5t-117 -20.5t-116 20.5t-103 62.5t-76.5 115.5t-28.5 169.5v627q0 78 18 141t48.5 104t72.5 69t87.5 40t95.5 12q114 0 198 -64t97 -181q4 -37 -27 -37h-98
q-27 0 -35 24q-14 42 -48 68.5t-79 26.5q-61 0 -105 -44.5t-44 -134.5v-260q67 78 170 86zM575 330v151q0 94 -42.5 138.5t-102.5 44.5q-58 0 -100.5 -45t-42.5 -138v-151q0 -93 42.5 -138t100.5 -45q60 0 102.5 44.5t42.5 138.5z" />
    <glyph glyph-name="seven.tf" horiz-adv-x="749" 
d="M618 1059q23 0 33.5 -10t10.5 -33v-68q0 -34 -9 -65l-270 -1133q-6 -24 -17.5 -33.5t-35.5 -9.5h-107q-36 0 -26 43l266 1120q6 25 -17 25h-342q-23 0 -33 10t-10 33v78q0 23 10 33t33 10h514z" />
    <glyph glyph-name="eight.tf" horiz-adv-x="864" 
d="M432 -18q-64 0 -120.5 20.5t-103.5 61.5t-74.5 110.5t-27.5 159.5v69q0 183 121 281q-112 91 -112 272v37q0 88 26.5 156.5t71.5 110t101 62.5t118 21t118 -21t101.5 -62.5t72 -110t26.5 -156.5v-37q0 -181 -113 -272q121 -98 121 -281v-69q0 -90 -27 -159t-74 -110.5
t-104 -62t-121 -20.5zM432 770q60 0 104 44t44 132v60q0 88 -44.5 133t-103.5 43q-60 -2 -102.5 -45t-42.5 -131v-60q0 -88 43 -132t102 -44zM432 147q60 0 104 44.5t44 132.5v96q0 89 -44 133.5t-104 44.5q-59 0 -102 -44t-43 -134v-96q0 -88 43 -132.5t102 -44.5z" />
    <glyph glyph-name="nine.tf" horiz-adv-x="870" 
d="M406 203q-53 -4 -104 13.5t-96 55.5t-72.5 109t-27.5 164v166q0 96 28.5 169t76 114.5t103 62t116.5 20.5t117 -20.5t104 -62t76.5 -114.5t28.5 -169v-658q0 -78 -18 -141t-48.5 -104t-72.5 -69t-87.5 -40t-95.5 -12q-114 0 -198 64t-97 181q-4 37 27 37h98q27 0 35 -24
q13 -42 46 -68.5t81 -26.5q61 0 105 44.5t44 134.5v260q-67 -78 -169 -86zM287 729v-180q0 -93 42 -137.5t101 -44.5q60 0 102.5 44.5t42.5 137.5v180q0 95 -42.5 139.5t-102.5 44.5q-59 0 -101 -44.5t-42 -139.5z" />
    <glyph glyph-name="GC_koniec" horiz-adv-x="1284" 
 />
    <glyph glyph-name="brzuch_bdpq_gora" horiz-adv-x="1071" 
d="M627 528v207q0 95 -47 140.5t-109 42.5q-60 -2 -102.5 -49.5t-42.5 -133.5v25l-43 59v86q30 59 86.5 108.5t130.5 59.5q55 7 108 -10.5t96.5 -56t70 -106t26.5 -152.5v-220h-174z" />
    <glyph glyph-name="Brzuchy_nh" horiz-adv-x="1089" 
d="M311 766q146 113 303 113q142 0 239 -90t97 -246v-162h-174v123q0 104 -59.5 160.5t-153.5 56.5q-123 0 -237 -92l-11 82z" />
    <glyph glyph-name="brzuch_mu" horiz-adv-x="1505" 
d="M311 768q135 111 287 111q143 0 240.5 -89.5t97.5 -246.5v-162h-174v123q0 104 -59.5 160.5t-155.5 56.5q-120 0 -221 -90z" />
    <glyph glyph-name="brzuch_bdpq_dol" horiz-adv-x="1228" 
d="M627 530h174v-219q0 -86 -26.5 -153t-70.5 -105.5t-97 -55.5t-109 -11q-76 9 -133.5 59t-88.5 109v86l50 61v23q0 -85 42.5 -133t102.5 -50q61 -3 108.5 43t47.5 140v206z" />
    <glyph glyph-name="noga_dluga_male" horiz-adv-x="1228" 
d="M242 1536q23 0 33 -10t10 -33v-1348l-23 -100q-5 -25 -14 -35t-31 -10h-63q-23 0 -33 10t-10 33v1450q0 23 10 33t33 10h88z" />
    <glyph glyph-name="noga_krotka_male" horiz-adv-x="1228" 
d="M217 1059q22 0 31 -9.5t14 -33.5l23 -103v-870q0 -23 -10 -33t-33 -10h-88q-23 0 -33 10t-10 33v973q0 23 10 33t33 10h63z" />
    </font>
</defs>
</svg>
