<?xml version="1.0" standalone="no"?>
<!DOCTYPE svg PUBLIC "-//W3C//DTD SVG 1.1//EN" "http://www.w3.org/Graphics/SVG/1.1/DTD/svg11.dtd" >
<svg xmlns="http://www.w3.org/2000/svg" xmlns:xlink="http://www.w3.org/1999/xlink" version="1.1">
<metadata>
Created by FontForge 20170731 at Fri Jun  3 17:02:56 2022
 By Aleksey,,,
Copyright (c) 2016 by Bazej Ostoja Lniski Typoforge Studio. All rights reserved.
</metadata>
<defs>
<font id="CervoNeue-BoldNeue" horiz-adv-x="1091" >
  <font-face 
    font-family="Cervo Neue Bold Neue"
    font-weight="700"
    font-stretch="normal"
    units-per-em="2048"
    panose-1="0 0 8 0 0 0 0 0 0 0"
    ascent="1638"
    descent="-410"
    x-height="1112"
    cap-height="1536"
    bbox="-1265.26 -609.308 2139.24 2156.56"
    underline-thickness="102"
    underline-position="-307"
    unicode-range="U+0020-25CA"
  />
<missing-glyph horiz-adv-x="1040" 
d="M854 1638v-2080h-661v2080h661zM692 1499h-342v-69h135v-76h-137v-70h344v70h-137v76h137v69zM555 1231h-207v-217h344v71h-137v146zM485 1159v-74h-69v74h69zM692 958h-344v-69h137v-76h-137v-70h207v146h137v69zM692 834h-67v-138h-277v-71h344v209zM692 580h-207v-117
h70v47h70v-96h-209v166h-68v-236h344v236zM692 219h-344v-235h344v235zM625 152v-99h-209v99h209zM692 -63h-344v-70h146l-146 -96v-70h344v70h-211l146 96h65v70z" />
    <glyph glyph-name=".notdef" horiz-adv-x="1040" 
d="M854 1638v-2080h-661v2080h661zM692 1499h-342v-69h135v-76h-137v-70h344v70h-137v76h137v69zM555 1231h-207v-217h344v71h-137v146zM485 1159v-74h-69v74h69zM692 958h-344v-69h137v-76h-137v-70h207v146h137v69zM692 834h-67v-138h-277v-71h344v209zM692 580h-207v-117
h70v47h70v-96h-209v166h-68v-236h344v236zM692 219h-344v-235h344v235zM625 152v-99h-209v99h209zM692 -63h-344v-70h146l-146 -96v-70h344v70h-211l146 96h65v70z" />
    <glyph glyph-name=".null" horiz-adv-x="0" 
 />
    <glyph glyph-name="nonmarkingreturn" horiz-adv-x="682" 
 />
    <glyph glyph-name="space" unicode=" " horiz-adv-x="460" 
 />
    <glyph glyph-name="exclam" unicode="!" horiz-adv-x="528" 
d="M162 539l-27 954q0 23 10 33t33 10h215q23 0 33 -10t10 -33l-26 -954q0 -23 -10 -33t-33 -10h-162q-23 0 -33 10t-10 33zM285 -18q-71 0 -120.5 50t-49.5 120q0 69 50 118t120 49t120 -49t50 -118q0 -70 -49.5 -120t-120.5 -50z" />
    <glyph glyph-name="quotedbl" unicode="&#x22;" horiz-adv-x="694" 
d="M84 1071l-16 424q-1 24 8 32.5t33 8.5h145q24 0 33 -8.5t8 -32.5l-16 -424q-2 -23 -9.5 -32t-29.5 -9h-117q-22 0 -29.5 9t-9.5 32zM418 1071l-19 424q-1 24 8 32.5t33 8.5h148q24 0 32.5 -8.5t8.5 -32.5l-19 -424q-2 -23 -9.5 -32t-29.5 -9h-114q-22 0 -29.5 9t-9.5 32z
" />
    <glyph glyph-name="numbersign" unicode="#" horiz-adv-x="1349" 
d="M1245 1163q23 0 33 -10t10 -33v-207q0 -23 -10 -33t-33 -10h-176l-37 -206h135q23 0 33 -10t10 -33v-207q0 -23 -10 -33t-33 -10h-186l-59 -332q-4 -23 -14.5 -31t-33.5 -8h-204q-48 0 -39 47l57 324h-166l-59 -332q-4 -23 -14 -31t-33 -8h-207q-48 0 -39 47l57 324h-123
q-23 0 -33 10t-10 33v207q0 23 10 33t33 10h177l36 206h-135q-23 0 -33 10t-10 33v207q0 23 10 33t33 10h187l59 334q4 23 14.5 31t34.5 8h207q46 0 37 -47l-57 -326h165l60 334q4 23 14.5 31t34.5 8h205q46 0 37 -47l-58 -326h123zM741 664l37 206h-168l-37 -206h168z" />
    <glyph glyph-name="dollar" unicode="$" horiz-adv-x="1052" 
d="M981 387q0 -83 -28 -152.5t-76.5 -117t-107 -78.5t-124.5 -45v-115q0 -23 -10 -33t-33 -10h-129q-23 0 -33 10t-10 33v113q-150 32 -243.5 143t-94.5 275q0 18 5 27t22 9h209q34 0 37 -30q7 -71 50 -128t122 -57q63 0 102.5 38t42.5 100q6 54 -22 106t-78 97.5t-111 93
t-123.5 101t-114.5 111.5t-85 135t-33 161q0 144 84.5 245t230.5 127v105q0 23 10 33t33 10h129q23 0 33 -10t10 -33v-111q134 -34 206 -139t75 -248q4 -37 -27 -37h-209q-17 0 -25.5 7t-9.5 24q-27 156 -127 156q-57 0 -88.5 -39t-25.5 -93q6 -41 40.5 -86.5t85 -88.5
t110 -91t117.5 -103.5t106.5 -115.5t78 -138t29.5 -161z" />
    <glyph glyph-name="percent" unicode="%" horiz-adv-x="1380" 
d="M352 997q-115 0 -196.5 81.5t-81.5 197.5t81 197t197 81t197.5 -81.5t81.5 -196.5q0 -116 -81.5 -197.5t-197.5 -81.5zM1188 1536q18 0 25.5 -10t-1.5 -33l-788 -1450q-13 -26 -23 -34.5t-32 -8.5h-176q-18 0 -26 10t1 33l786 1450q13 25 23.5 34t32.5 9h178zM352 1171
q42 0 73.5 31.5t31.5 73.5q0 43 -31 74.5t-74 31.5t-74.5 -31.5t-31.5 -74.5q0 -42 32 -73.5t74 -31.5zM1028 -18q-116 0 -197 81t-81 197t81.5 197.5t196.5 81.5q116 0 197.5 -81.5t81.5 -197.5q0 -115 -81.5 -196.5t-197.5 -81.5zM1028 154q43 0 75 31.5t32 74.5
q0 41 -32 73t-75 32q-42 0 -74 -31.5t-32 -73.5q0 -43 31.5 -74.5t74.5 -31.5z" />
    <glyph glyph-name="ampersand" unicode="&#x26;" horiz-adv-x="1058" 
d="M954 778q23 0 33 -10t10 -33v-145q0 -23 -10 -33t-33 -10h-61q-23 0 -31 -8t-8 -31v-131q0 -90 -23 -161t-59.5 -114t-86 -71t-98.5 -38.5t-102 -10.5q-78 0 -145 23t-122.5 72t-87.5 136t-32 205v100q0 168 107 275q-107 103 -107 270v55q0 118 32 205t87.5 136
t122.5 72t145 23q49 0 94 -9t91 -31.5t81 -58t61 -92t34 -128.5q4 -37 -27 -37h-184q-27 0 -35 27q-11 36 -37.5 58t-64.5 22q-48 0 -83.5 -35t-35.5 -107v-96q0 -71 36 -106t83 -35q23 0 33 -10t10 -33v-178q0 -23 -10 -33t-33 -10q-47 0 -83 -36t-36 -108v-145
q0 -72 38 -107t89 -35q52 0 91.5 35t39.5 107v362q0 23 10 33t33 10h274z" />
    <glyph glyph-name="quotesingle" unicode="'" horiz-adv-x="362" 
d="M84 1071l-16 424q-1 24 8 32.5t33 8.5h145q24 0 33 -8.5t8 -32.5l-16 -424q-2 -23 -9.5 -32t-29.5 -9h-117q-22 0 -29.5 9t-9.5 32z" />
    <glyph glyph-name="parenleft" unicode="(" horiz-adv-x="716" 
d="M457 1268v-1184q0 -65 33.5 -100.5t97.5 -36.5q23 0 33 -10t10 -33v-164q0 -23 -10 -33t-33 -10q-212 0 -312 93.5t-100 291.5v1188q0 198 100 292t312 93q23 0 33 -10t10 -33v-164q0 -23 -10 -33t-33 -10q-64 -1 -97.5 -36.5t-33.5 -100.5z" />
    <glyph glyph-name="parenright" unicode=")" horiz-adv-x="716" 
d="M260 1270q0 134 -129 137q-23 0 -33 10t-10 33v162q0 23 10 33t33 10q210 3 311 -92t101 -293v-1188q0 -198 -100.5 -291.5t-311.5 -93.5q-23 0 -33 10t-10 33v164q0 23 10 33t33 10q129 3 129 137v1186z" />
    <glyph glyph-name="asterisk" unicode="*" horiz-adv-x="960" 
d="M862 1137q39 -22 17 -56l-101 -133q-25 -36 -55 -12l-139 121l20 -187q5 -43 -39 -43h-170q-44 0 -39 43l19 187l-137 -121q-30 -24 -58 12l-98 133q-24 33 14 56l172 96l-172 96q-38 23 -14 53l98 136q28 36 58 12l137 -123l-19 188q-6 43 39 43h170q45 0 39 -43
l-20 -188l139 123q30 24 55 -12l101 -136q22 -31 -17 -53l-170 -96z" />
    <glyph glyph-name="plus" unicode="+" horiz-adv-x="1085" 
d="M969 844q23 0 33 -10t10 -33v-123q0 -23 -10 -33t-33 -10h-283q-23 0 -31 -8t-8 -31v-283q0 -23 -10 -33t-33 -10h-123q-23 0 -33 10t-10 33v283q0 23 -8 31t-31 8h-282q-23 0 -33 10t-10 33v123q0 23 10 33t33 10h282q23 0 31 8t8 31v280q0 23 10 33t33 10h123
q23 0 33 -10t10 -33v-280q0 -23 8 -31t31 -8h283z" />
    <glyph glyph-name="comma" unicode="," horiz-adv-x="499" 
d="M215 -37q-5 15 -20 28t-32 24t-33.5 25t-27 37.5t-10.5 53.5q0 65 47 111.5t115 46.5q73 0 123.5 -53.5t59.5 -140t-34 -195.5q-50 -123 -165 -230q-26 -23 -50 -4l-57 47q-18 18 -2 43q25 34 37 51t28.5 44.5t22.5 44t6.5 35t-8.5 32.5z" />
    <glyph glyph-name="hyphen" unicode="-" horiz-adv-x="700" 
d="M584 696q23 0 33 -10t10 -33v-123q0 -23 -10 -33t-33 -10h-467q-23 0 -33 10t-10 33v123q0 23 10 33t33 10h467z" />
    <glyph glyph-name="period" unicode="." horiz-adv-x="528" 
d="M285 -18q-71 0 -120.5 50t-49.5 120q0 69 50 118t120 49q72 0 122 -49t50 -118q0 -71 -50 -120.5t-122 -49.5z" />
    <glyph glyph-name="slash" unicode="/" horiz-adv-x="1087" 
d="M956 1597q17 0 24.5 -10.5t0.5 -32.5l-580 -1749q-8 -24 -20 -33.5t-35 -9.5h-215q-17 0 -24.5 10.5t-0.5 32.5l580 1749q8 24 20 33.5t35 9.5h215z" />
    <glyph glyph-name="zero" unicode="0" 
d="M547 -18q-223 0 -336 140.5t-113 385.5v520q0 245 113 385.5t336 140.5q221 0 334.5 -140.5t113.5 -385.5v-520q0 -245 -113.5 -385.5t-334.5 -140.5zM547 254q151 0 151 254v520q0 254 -151 254q-154 0 -154 -254v-520q0 -254 154 -254z" />
    <glyph glyph-name="one" unicode="1" horiz-adv-x="804" 
d="M627 1536q23 0 33 -10t10 -33v-1450q0 -23 -10 -33t-33 -10h-209q-23 0 -33 10t-10 33v1053l-135 -138q-18 -16 -31 -16.5t-31 16.5l-135 136q-17 17 -17 30.5t17 30.5l354 354q17 17 26 22t23 5h181z" />
    <glyph glyph-name="two" unicode="2" horiz-adv-x="917" 
d="M125 0q-23 0 -33 10t-10 33v274q0 105 25.5 196t66.5 156t91 122t100 104t92 91t69 94.5t29 103.5q4 61 -27 97t-82 36q-39 0 -66 -25.5t-36 -70.5q-3 -25 -35 -25h-182q-27 0 -27 37q1 83 32.5 146.5t83 100.5t113 55.5t130.5 18.5q168 0 275 -99.5t100 -276.5
q-3 -78 -31.5 -148.5t-72 -126t-94.5 -108t-102 -102.5t-92.5 -101t-67.5 -113t-26 -129v-49q0 -23 8 -31t31 -8h397q23 0 33 -10t10 -33v-176q0 -23 -10 -33t-33 -10h-659z" />
    <glyph glyph-name="three" unicode="3" horiz-adv-x="944" 
d="M459 -18q-49 0 -94 9t-91 31.5t-81 58t-61 92t-34 128.5q-4 37 27 37h182q27 0 35 -27q13 -36 39.5 -58t64.5 -22q48 0 83.5 35t35.5 107v145q0 72 -36 108t-83 36h-84q-23 0 -33 10t-10 33v178q0 23 10 33t33 10h84q47 0 83 35t36 106v96q0 72 -35.5 107t-83.5 35
q-75 0 -104 -84q-6 -25 -35 -25h-182q-31 0 -27 37q10 90 46 155t88.5 100t108.5 50.5t118 15.5q78 0 145 -23t122.5 -72t87.5 -136t32 -205v-55q0 -168 -109 -270q109 -106 109 -275v-100q0 -118 -32 -205t-87.5 -136t-122.5 -72t-145 -23z" />
    <glyph glyph-name="four" unicode="4" horiz-adv-x="962" 
d="M858 623q23 0 33 -10t10 -33v-177q0 -23 -10 -33t-33 -10h-20q-23 0 -31 -7.5t-8 -30.5v-279q0 -23 -10 -33t-33 -10h-209q-23 0 -33 10t-10 33v279q0 23 -8 30.5t-31 7.5h-402q-23 0 -33 10t-10 33v156q0 34 25 82l475 868q13 27 49 27h187q23 0 33 -10t10 -33v-831
q0 -23 8 -31t31 -8h20zM504 662v352l-191 -391h152q23 0 31 8t8 31z" />
    <glyph glyph-name="five" unicode="5" horiz-adv-x="946" 
d="M532 1073q45 2 88 -10t85 -43t73 -78.5t50.5 -122t19.5 -168.5v-233q0 -118 -31.5 -205t-87 -136t-122.5 -72t-146 -23q-49 0 -94 9t-91 31.5t-81 58t-61 92t-34 128.5q-4 37 27 37h184q27 0 35 -27q11 -36 38 -58t65 -22q47 0 82.5 35t35.5 107v323q0 72 -35.5 107
t-82.5 35q-76 0 -105 -84q-8 -25 -35 -25h-166q-23 0 -33 10t-10 33l-2 721q0 23 10 33t33 10h629q23 0 33 -10t10 -33v-176q0 -23 -10 -33t-33 -10h-387q-23 0 -31 -8t-8 -31v-258q71 91 188 96z" />
    <glyph glyph-name="six" unicode="6" horiz-adv-x="991" 
d="M555 997q45 4 89.5 -4t90 -34t80 -68t56.5 -111t22 -157v-205q0 -92 -23.5 -167.5t-62.5 -124.5t-91 -82t-107 -47.5t-113 -14.5q-57 0 -112 14.5t-107.5 47.5t-91.5 82t-63 124.5t-24 167.5v700q0 118 32 205t87.5 136t122.5 72t145 23q49 0 94 -9t91 -31.5t81 -58
t61 -92t34 -128.5q4 -37 -27 -37h-184q-27 0 -35 27q-11 36 -37.5 58t-64.5 22q-48 0 -83.5 -35t-35.5 -107v-252q67 76 176 86zM612 375v231q0 73 -34.5 108.5t-81.5 35.5q-46 0 -81.5 -35.5t-35.5 -108.5v-231q0 -73 35.5 -108.5t81.5 -35.5q47 0 81.5 35.5t34.5 108.5z
" />
    <glyph glyph-name="seven" unicode="7" horiz-adv-x="819" 
d="M715 1536q23 0 33 -10t10 -33v-150q0 -40 -10 -75l-277 -1225q-11 -43 -55 -43h-223q-36 0 -25 43l270 1206q3 11 -1.5 18t-14.5 7h-330q-23 0 -33 10t-10 33v176q0 23 10 33t33 10h623z" />
    <glyph glyph-name="eight" unicode="8" horiz-adv-x="993" 
d="M496 -18q-83 0 -152.5 22.5t-126 69t-88 127t-31.5 188.5v100q0 75 23 139t49.5 98.5t65.5 72.5q-57 53 -90 120.5t-33 172.5v55q0 107 31.5 188t86 127.5t121 69t144.5 22.5q79 0 145.5 -22.5t121.5 -69t86.5 -127.5t31.5 -188v-55q0 -105 -33 -172.5t-90 -120.5
q61 -59 99 -131t38 -179v-100q0 -108 -31.5 -188.5t-88 -127t-126 -69t-153.5 -22.5zM496 934q48 0 83 34.5t35 106.5v94q0 72 -35.5 108t-82.5 36q-47 -2 -82 -37.5t-35 -106.5v-94q0 -72 35.5 -106.5t81.5 -34.5zM496 231q47 0 82.5 35.5t35.5 106.5v145q0 78 -35 114
t-83 36q-47 0 -82 -36.5t-35 -113.5v-145q0 -70 35.5 -106t81.5 -36z" />
    <glyph glyph-name="nine" unicode="9" horiz-adv-x="991" 
d="M438 547q-45 -4 -90 4.5t-90.5 35t-80.5 68t-57 110.5t-22 157v196q0 92 24 167.5t63 124.5t91.5 82t107.5 47.5t112 14.5q58 0 113 -14.5t107 -47.5t91 -82t62.5 -124.5t23.5 -167.5v-700q0 -118 -31.5 -205t-87 -136t-122 -72t-144.5 -23q-49 0 -94.5 9t-91.5 31.5
t-81.5 58t-61.5 92t-34 128.5q-4 37 27 37h184q27 0 35 -27q11 -36 38 -58t65 -22q47 0 82.5 35t35.5 107v260q-72 -76 -174 -86zM379 1161v-223q0 -73 35.5 -108t81.5 -35q47 0 81.5 35t34.5 108v223q0 73 -34.5 108.5t-81.5 35.5q-46 0 -81.5 -35.5t-35.5 -108.5z" />
    <glyph glyph-name="colon" unicode=":" horiz-adv-x="528" 
d="M285 598q-71 0 -120.5 50t-49.5 120q0 69 50 118.5t120 49.5t120 -49.5t50 -118.5q0 -70 -49.5 -120t-120.5 -50zM285 -18q-71 0 -120.5 50t-49.5 120q0 69 50 118t120 49t120 -49t50 -118q0 -70 -49.5 -120t-120.5 -50z" />
    <glyph glyph-name="semicolon" unicode=";" horiz-adv-x="514" 
d="M270 598q-71 0 -121.5 50t-50.5 120q0 69 50.5 118.5t121.5 49.5q70 0 120 -49.5t50 -118.5q0 -70 -50 -120t-120 -50zM223 -37q-6 17 -27.5 34t-42.5 29.5t-38 40t-17 64.5q0 65 47.5 111.5t114.5 46.5q73 0 124 -53.5t60.5 -140t-32.5 -195.5q-54 -125 -166 -230
q-15 -12 -25 -13t-24 9l-58 47q-18 18 -2 43q22 31 30 43l25 37.5t22.5 38.5t12 31.5t5 32t-8.5 24.5z" />
    <glyph glyph-name="less" unicode="&#x3c;" horiz-adv-x="774" 
d="M672 627l-230 -156q-9 -6 -9 -16.5t9 -16.5l230 -157q19 -14 23.5 -25.5t4.5 -36.5v-199q0 -15 -9.5 -19.5t-28.5 7.5l-574 416q-15 11 -15 30t15 31l574 414q19 12 28.5 7.5t9.5 -19.5v-199q0 -25 -4.5 -36t-23.5 -25z" />
    <glyph glyph-name="equal" unicode="=" horiz-adv-x="878" 
d="M762 1049q23 0 33 -10t10 -33v-123q0 -23 -10 -33t-33 -10h-645q-23 0 -33 10t-10 33v123q0 23 10 33t33 10h645zM762 639q23 0 33 -10t10 -33v-123q0 -23 -10 -33t-33 -10h-645q-23 0 -33 10t-10 33v123q0 23 10 33t33 10h645z" />
    <glyph glyph-name="greater" unicode="&#x3e;" horiz-adv-x="774" 
d="M102 627q-19 13 -23.5 24t-4.5 37v199q0 15 10 19.5t29 -7.5l571 -414q17 -12 17 -31.5t-17 -29.5l-571 -416q-19 -12 -29 -7.5t-10 19.5v199q0 26 4.5 37.5t23.5 24.5l230 157q9 6 9 16.5t-9 16.5z" />
    <glyph glyph-name="question" unicode="?" horiz-adv-x="952" 
d="M475 1554q170 0 287.5 -104t116.5 -274q0 -70 -22.5 -132.5t-56.5 -106t-74.5 -92t-75.5 -91t-60.5 -102t-28.5 -124.5q-2 -24 -11 -33.5t-32 -9.5h-147q-23 0 -33 10t-10 33q0 106 27.5 191.5t66.5 138.5t78 96.5t66.5 88.5t27.5 92q0 63 -42 104t-103 41
q-84 0 -156 -80q-18 -21 -32.5 -23t-31.5 13l-120 121q-16 17 -15.5 29t15.5 32q21 29 51.5 57.5t75.5 58.5t107.5 48t131.5 18zM446 -20q-72 0 -122 49.5t-50 120.5t50 120t122 49q69 0 118.5 -49.5t49.5 -119.5t-49.5 -120t-118.5 -50z" />
    <glyph glyph-name="at" unicode="@" horiz-adv-x="2314" 
d="M1163 1554q201 0 379 -77.5t304 -209t203 -308.5t87 -373q14 -235 -32.5 -424t-152.5 -307.5t-257 -133.5q-189 -19 -293.5 78.5t-104.5 263.5v87q-92 -57 -180 -64q-131 -15 -242 42t-176 166t-69 243q-4 135 55.5 249t170.5 182t247 68q103 0 194 -43v11q0 34 43 34
h150q23 0 33 -10t10 -33v-915q0 -82 44 -121.5t105 -34.5q68 7 119.5 71.5t78.5 160.5t37.5 203.5t4.5 211.5q-11 166 -69.5 308t-155 244.5t-234 161t-299.5 58.5q-217 0 -396 -102.5t-280.5 -279.5t-101.5 -390q0 -214 101.5 -391.5t278.5 -280t392 -102.5q23 0 33 -10
t10 -33v-123q0 -23 -10 -33t-33 -10q-200 0 -382 78t-313 209.5t-208.5 313.5t-77.5 382t77.5 381.5t209.5 313.5t315 210t385 78zM1128 319q93 0 168 52v379q-84 38 -161 38q-104 0 -173 -67t-69 -170q0 -101 67.5 -166.5t167.5 -65.5z" />
    <glyph glyph-name="A" unicode="A" horiz-adv-x="1067" 
d="M49 41l346 1454q6 25 18 33t38 8h165q26 0 38 -8t18 -33l346 -1454q11 -41 -31 -41h-215q-21 0 -32 8.5t-17 32.5l-39 176q-4 18 -12 23.5t-29 5.5h-219q-21 0 -29 -5.5t-12 -23.5l-39 -176q-6 -24 -17 -32.5t-32 -8.5h-215q-42 0 -31 41zM438 530q-3 -10 2 -16t15 -6
h159q8 0 13 6t4 16l-84 422q-3 10 -13 10t-12 -10z" />
    <glyph glyph-name="B" unicode="B" horiz-adv-x="1032" 
d="M152 0q-23 0 -33 10t-10 33v1450q0 23 10 33t33 10h407q165 0 271 -112t106 -275v-25q0 -106 -47 -191t-115 -128q91 -42 144 -141t53 -222v-30q0 -179 -110.5 -295.5t-295.5 -116.5h-413zM442 934h74q57 0 94 42.5t37 115.5v24q0 74 -36.5 116t-94.5 42h-74
q-24 0 -31.5 -9t-7.5 -38v-254q0 -23 8 -31t31 -8zM442 262h76q70 0 114 49.5t44 137.5v36q0 90 -43.5 138.5t-114.5 48.5h-76q-23 0 -31 -8t-8 -31v-332q0 -23 8 -31t31 -8z" />
    <glyph glyph-name="C" unicode="C" horiz-adv-x="1075" 
d="M547 -18q-223 0 -336 140.5t-113 385.5v520q0 245 113 385.5t336 140.5q104 0 186.5 -33t134.5 -90.5t79.5 -131.5t29.5 -160q4 -37 -27 -37h-223q-17 0 -25.5 7t-9.5 24q-10 64 -45 106.5t-100 42.5q-154 0 -154 -254v-520q0 -254 154 -254q65 0 100 42.5t45 106.5
q1 17 9.5 24t25.5 7h223q31 0 27 -37q-2 -86 -29.5 -160t-79.5 -131.5t-134.5 -90.5t-186.5 -33z" />
    <glyph glyph-name="D" unicode="D" horiz-adv-x="1105" 
d="M532 1536q240 0 358 -141t118 -394v-466q0 -253 -118 -394t-358 -141h-380q-23 0 -33 10t-10 33v1450q0 23 10 33t33 10h380zM713 522v492q0 125 -43 192.5t-152 67.5h-76q-23 0 -31 -8t-8 -31v-934q0 -23 8 -31t31 -8h76q109 0 152 67.5t43 192.5z" />
    <glyph glyph-name="E" unicode="E" horiz-adv-x="878" 
d="M403 1235v-285q0 -23 8 -31t31 -8h295q23 0 33 -10t10 -33v-176q0 -23 -10 -33t-33 -10h-295q-23 0 -31 -8t-8 -31v-309q0 -23 8 -31t31 -8h295q23 0 33 -10t10 -33v-176q0 -23 -10 -33t-33 -10h-585q-23 0 -33 10t-10 33v1450q0 23 10 33t33 10h585q23 0 33 -10t10 -33
v-176q0 -23 -10 -33t-33 -10h-295q-23 0 -31 -8t-8 -31z" />
    <glyph glyph-name="F" unicode="F" horiz-adv-x="847" 
d="M743 1536q23 0 33 -10t10 -33v-176q0 -23 -10 -33t-33 -10h-301q-23 0 -31 -8t-8 -31v-285q0 -23 8 -31t31 -8h199q23 0 33 -10t10 -33v-176q0 -23 -10 -33t-33 -10h-199q-23 0 -31 -8t-8 -31v-567q0 -23 -10 -33t-33 -10h-208q-23 0 -33 10t-10 33v1450q0 23 10 33
t33 10h591z" />
    <glyph glyph-name="G" unicode="G" horiz-adv-x="1079" 
d="M940 897q23 0 32 -9t9 -32v-434q0 -93 -27.5 -172.5t-80.5 -139.5t-136.5 -94t-189.5 -34q-223 0 -336 140.5t-113 385.5v520q0 245 113 385.5t336 140.5q104 0 186.5 -33t134.5 -90.5t80.5 -131.5t30.5 -160q0 -18 -5 -27.5t-22 -9.5h-225q-32 0 -37 31
q-9 64 -43.5 106.5t-99.5 42.5q-154 0 -154 -254v-520q0 -115 38.5 -184.5t119.5 -69.5q70 0 110.5 51t40.5 135v183q0 25 -7.5 33t-32.5 8h-91q-23 0 -32 9t-9 32v151q0 23 9 32t32 9h369z" />
    <glyph glyph-name="H" unicode="H" horiz-adv-x="1103" 
d="M952 1536q23 0 33 -10t10 -33v-1450q0 -23 -10 -33t-33 -10h-209q-23 0 -33 10t-10 33v567q0 23 -7.5 31t-30.5 8h-220q-23 0 -31 -8t-8 -31v-567q0 -23 -10 -33t-33 -10h-208q-23 0 -33 10t-10 33v1450q0 23 10 33t33 10h208q23 0 33 -10t10 -33v-543q0 -23 8 -31t31 -8
h220q23 0 30.5 8t7.5 31v543q0 23 10 33t33 10h209z" />
    <glyph glyph-name="I" unicode="I" horiz-adv-x="512" 
d="M109 43v1450q0 23 10 33t33 10h208q23 0 33 -10t10 -33v-1450q0 -23 -10 -33t-33 -10h-208q-23 0 -33 10t-10 33z" />
    <glyph glyph-name="J" unicode="J" horiz-adv-x="663" 
d="M104 0q-23 0 -33 10t-10 33v180q0 23 10 33t33 10h72q45 0 69.5 26t24.5 75v1126q0 24 9.5 33.5t33.5 9.5h209q23 0 33 -10t10 -33v-1151q0 -156 -102 -249t-256 -93h-103z" />
    <glyph glyph-name="K" unicode="K" horiz-adv-x="1052" 
d="M715 831l303 -796q9 -35 -17 -35h-241q-38 0 -47 25l-217 557q-4 10 -14 10t-15 -10l-43 -95q-21 -43 -21 -75v-369q0 -23 -10 -33t-33 -10h-208q-23 0 -33 10t-10 33v1450q0 23 10 33t33 10h208q23 0 33 -10t10 -33v-553q0 -7 4.5 -10t10 -1.5t8.5 7.5l252 577
q10 23 49 23h240q31 0 14 -35l-266 -624q-9 -21 0 -46z" />
    <glyph glyph-name="L" unicode="L" horiz-adv-x="800" 
d="M705 262q23 0 33 -10t10 -33v-176q0 -23 -10 -33t-33 -10h-553q-23 0 -33 10t-10 33v1450q0 23 10 33t33 10h208q23 0 33 -10t10 -33v-1192q0 -23 8 -31t31 -8h263z" />
    <glyph glyph-name="M" unicode="M" horiz-adv-x="1323" 
d="M152 0q-23 0 -33 10t-10 33v1450q0 23 10 33t33 10h143q36 0 47 -43l307 -913q3 -9 12.5 -9t12.5 9l307 913q5 14 9 22t13.5 14.5t24.5 6.5h143q23 0 33 -10t10 -33v-1450q0 -23 -10 -33t-33 -10h-208q-23 0 -33 10t-10 33v547q0 12 -10 13.5t-15 -9.5l-176 -553
q-8 -23 -18.5 -32t-34.5 -9h-9q-24 0 -34.5 9t-18.5 32l-176 553q-3 11 -14 9.5t-11 -13.5v-547q0 -23 -10 -33t-33 -10h-208z" />
    <glyph glyph-name="N" unicode="N" horiz-adv-x="1136" 
d="M987 1536q23 0 33 -10t10 -33v-1450q0 -23 -10 -33t-33 -10h-158q-25 0 -37.5 9.5t-23.5 33.5l-342 760q-4 10 -13.5 9.5t-9.5 -11.5v-758q0 -23 -10 -33t-33 -10h-208q-23 0 -33 10t-10 33v1450q0 23 10 33t33 10h157q24 0 37.5 -9.5t22.5 -33.5l342 -760
q5 -10 13.5 -9.5t8.5 11.5v758q0 23 10 33t33 10h211z" />
    <glyph glyph-name="O" unicode="O" 
d="M547 -18q-223 0 -336 140.5t-113 385.5v520q0 245 113 385.5t336 140.5q221 0 334.5 -140.5t113.5 -385.5v-520q0 -245 -113.5 -385.5t-334.5 -140.5zM547 254q151 0 151 254v520q0 254 -151 254q-154 0 -154 -254v-520q0 -254 154 -254z" />
    <glyph glyph-name="P" unicode="P" horiz-adv-x="1019" 
d="M152 0q-23 0 -33 10t-10 33v1450q0 23 10 33t33 10h387q182 0 300.5 -128.5t118.5 -336.5v-92q0 -208 -118 -335.5t-301 -127.5h-97q-23 0 -31 -8t-8 -31v-434q0 -23 -10 -33t-33 -10h-208zM442 793h66q66 0 111 51.5t45 148.5v80q0 97 -45 149t-111 52h-66q-23 0 -31 -8
t-8 -31v-404q0 -23 8 -30.5t31 -7.5z" />
    <glyph glyph-name="Q" unicode="Q" 
d="M995 508q0 -301 -161 -434l151 -258q10 -19 4 -30t-22 -11h-224q-34 0 -51 28l-106 181q-12 -2 -39 -2q-223 0 -336 140.5t-113 385.5v520q0 245 113 385.5t336 140.5q221 0 334.5 -140.5t113.5 -385.5v-520zM393 508q0 -254 154 -254q151 0 151 254v520q0 254 -151 254
q-154 0 -154 -254v-520z" />
    <glyph glyph-name="R" unicode="R" horiz-adv-x="1056" 
d="M1016 41q8 -19 2 -30t-23 -11h-229q-37 0 -49 29l-195 499h-80q-23 0 -31 -8t-8 -31v-446q0 -23 -10 -33t-33 -10h-208q-23 0 -33 10t-10 33v1450q0 23 10 33t33 10h387q182 0 300.5 -128.5t118.5 -336.5v-78q0 -125 -45.5 -224.5t-126.5 -160.5zM403 844q0 -23 8 -31
t31 -8h66q66 0 111 52t45 149v67q0 97 -45 149t-111 52h-66q-23 0 -31 -8t-8 -31v-391z" />
    <glyph glyph-name="S" unicode="S" horiz-adv-x="1073" 
d="M981 387q0 -81 -27.5 -149.5t-72.5 -115t-103.5 -78.5t-120 -47t-122.5 -15q-124 0 -224 51.5t-159 150t-60 226.5q0 18 5 27t22 9h209q34 0 37 -30q7 -71 50 -128t122 -57q63 0 102.5 38t42.5 100q6 54 -22 106t-78 97.5t-111 93t-123.5 101t-114.5 111.5t-85 135
t-33 161q0 166 110.5 273t294.5 107q129 0 221.5 -54.5t137.5 -143.5t47 -203q4 -37 -27 -37h-209q-17 0 -25.5 7t-9.5 24q-27 156 -127 156q-57 0 -88.5 -39t-25.5 -93q6 -41 40.5 -86.5t85 -88.5t110 -91t117.5 -103.5t106.5 -115.5t78 -138t29.5 -161z" />
    <glyph glyph-name="T" unicode="T" horiz-adv-x="946" 
d="M842 1536q23 0 33 -10t10 -33v-176q0 -23 -10 -33t-33 -10h-183q-23 0 -30.5 -8t-7.5 -31v-1192q0 -23 -10 -33t-33 -10h-209q-23 0 -33 10t-10 33v1192q0 23 -8 31t-31 8h-183q-23 0 -33 10t-10 33v176q0 23 10 33t33 10h738z" />
    <glyph glyph-name="U" unicode="U" 
d="M952 1536q23 0 33 -10t10 -33v-764v-221q0 -245 -113.5 -385.5t-334.5 -140.5q-223 0 -336 140.5t-113 385.5v350v635q0 23 10 33t33 10h209q23 0 33 -10t10 -33v-752v-233q0 -254 154 -254q151 0 151 254v352v633q0 23 10 33t33 10h211z" />
    <glyph glyph-name="V" unicode="V" horiz-adv-x="1073" 
d="M733 1495q6 23 17 32t32 9h219q40 0 29 -41l-358 -1454q-6 -25 -17 -33t-37 -8h-161q-26 0 -37 8t-17 33l-360 1454q-11 41 29 41h219q41 0 49 -41l184 -868q2 -11 13 -11t12 11z" />
    <glyph glyph-name="W" unicode="W" horiz-adv-x="1513" 
d="M381 0q-27 0 -38 8t-15 33l-279 1454q-4 24 2.5 32.5t26.5 8.5h217q42 0 49 -41l125 -762q2 -11 12 -11.5t13 9.5l159 764q4 25 16 33t38 8h102q26 0 36.5 -8t16.5 -33l158 -764q3 -10 12.5 -9.5t11.5 11.5l127 762q5 41 50 41h217q18 0 25 -8.5t3 -32.5l-280 -1454
q-4 -25 -15 -33t-38 -8h-138q-26 0 -37.5 8.5t-15.5 32.5l-172 817q-3 10 -13.5 10t-11.5 -10l-172 -817q-6 -24 -17 -32.5t-36 -8.5h-139z" />
    <glyph glyph-name="X" unicode="X" horiz-adv-x="1083" 
d="M743 41l-190 451q-3 9 -12.5 9t-12.5 -9l-188 -451q-11 -23 -22 -32t-31 -9h-230q-18 0 -24.5 11t2.5 30l334 737l-320 717q-8 19 -1.5 30t24.5 11h229q20 0 32 -9t21 -32l174 -424q3 -9 12.5 -9t12.5 9l176 424q9 23 21 32t32 9h230q17 0 23 -11t-1 -30l-319 -717
l334 -737q7 -19 0.5 -30t-23.5 -11h-229q-21 0 -33 9t-21 32z" />
    <glyph glyph-name="Y" unicode="Y" horiz-adv-x="1056" 
d="M969 1536q39 0 24 -41l-315 -889v-563q0 -23 -10 -33t-33 -10h-211q-23 0 -33 10t-10 33v563l-315 889q-15 41 24 41h219q40 0 53 -41l156 -483q3 -9 12.5 -9t12.5 9l155 483q11 41 54 41h217z" />
    <glyph glyph-name="Z" unicode="Z" horiz-adv-x="927" 
d="M842 1262l-447 -975q-5 -9 -2 -17t13 -8h411q23 0 33 -10t10 -33v-176q0 -23 -10 -33t-33 -10h-706q-23 0 -33 10t-10 33v164q0 29 18 67l459 975q5 9 1 17t-14 8h-421q-23 0 -33 10t-10 33v176q0 23 10 33t33 10h706q23 0 33 -10t10 -33v-168q0 -10 -1.5 -18.5t-3.5 -13
t-6.5 -15.5t-6.5 -16z" />
    <glyph glyph-name="bracketleft" unicode="[" horiz-adv-x="831" 
d="M457 1526v-1714q0 -23 8 -31t31 -8h204q23 0 33 -10t10 -33v-179q0 -23 -10 -33t-33 -10h-481q-23 0 -33 10t-10 33v2235q0 23 10 33t33 10h481q23 0 33 -10t10 -33v-178q0 -23 -10 -33t-33 -10h-204q-23 0 -31 -8t-8 -31z" />
    <glyph glyph-name="backslash" unicode="\" horiz-adv-x="1087" 
d="M131 1597h215q23 0 35 -9.5t20 -33.5l580 -1749q7 -22 -0.5 -32.5t-24.5 -10.5h-215q-23 0 -35 9.5t-20 33.5l-580 1749q-7 22 0.5 32.5t24.5 10.5z" />
    <glyph glyph-name="bracketright" unicode="]" horiz-adv-x="831" 
d="M375 1526q0 23 -8 31t-31 8h-205q-23 0 -33 10t-10 33v178q0 23 10 33t33 10h481q23 0 33 -10t10 -33v-2235q0 -23 -10 -33t-33 -10h-481q-23 0 -33 10t-10 33v179q0 23 10 33t33 10h205q23 0 31 8t8 31v1714z" />
    <glyph glyph-name="asciicircum" unicode="^" horiz-adv-x="1042" 
d="M688 883l-151 260q-6 11 -16.5 11t-16.5 -11l-152 -260q-10 -18 -23 -23.5t-38 -5.5h-197q-15 0 -19 10t7 29l407 647q10 17 31.5 17t30.5 -17l410 -647q11 -19 6.5 -29t-19.5 -10h-198q-25 0 -38 5.5t-24 23.5z" />
    <glyph glyph-name="underscore" unicode="_" horiz-adv-x="960" 
d="M844 -18q23 0 33 -10t10 -33v-134q0 -23 -10 -33t-33 -10h-727q-23 0 -33 10t-10 33v134q0 23 10 33t33 10h727z" />
    <glyph glyph-name="grave" unicode="`" horiz-adv-x="677" 
d="M553 1440q33 -29 0 -62l-98 -98q-31 -31 -62 0l-276 258q-17 18 -16.5 29.5t16.5 29.5l98 103q17 17 30.5 17t30.5 -17z" />
    <glyph glyph-name="a" unicode="a" horiz-adv-x="966" 
d="M444 -14q-91 -18 -173.5 15t-136.5 118t-54 205q0 64 16 116.5t42 90t66 66.5t81 47.5t95.5 31.5t100.5 19.5t103 11.5v69q0 58 -32 89.5t-79 31.5q-44 0 -71 -25.5t-35 -70.5q-5 -27 -35 -27h-178q-27 0 -27 37q1 83 32.5 146.5t84 100t115 54.5t133.5 18
q57 0 109 -13.5t100.5 -44t83.5 -75.5t56 -114t21 -154v-473q0 -112 21 -215q8 -41 -41 -41h-183q-23 0 -32 13.5t-15 58.5q-63 -66 -168 -86zM473 229q46 2 78.5 38t32.5 106v174q-115 -15 -172 -56.5t-54 -134.5q3 -63 36.5 -96.5t78.5 -30.5z" />
    <glyph glyph-name="b" unicode="b" horiz-adv-x="972" 
d="M532 1124q91 19 172 -15.5t133 -119t52 -201.5v-233v-231q0 -117 -52 -201.5t-133 -119t-172 -15.5q-108 23 -188 125l-16 -68q-5 -24 -15 -34.5t-32 -10.5h-144q-23 0 -33 10t-10 33v1450q0 23 10 33t33 10h193q23 0 33 -10t10 -33v-461q70 73 159 92zM610 739
q0 73 -37 109.5t-84 34.5q-47 0 -81.5 -37t-34.5 -107v-290v-76q0 -70 34.5 -107t81.5 -37q47 -2 84 34.5t37 109.5v366z" />
    <glyph glyph-name="c" unicode="c" horiz-adv-x="913" 
d="M803 338q30 0 26 -37q-10 -90 -46 -155t-88 -99t-108 -49.5t-118 -15.5q-78 0 -144.5 23t-122 72t-87 136t-31.5 205v276q0 118 31.5 205t87 136t122 72t144.5 23q62 0 118 -15.5t108 -49.5t88 -99t46 -155q4 -37 -26 -37h-182q-27 0 -35 27q-11 36 -38.5 59t-66.5 23
q-48 0 -83.5 -35t-35.5 -107v-370q0 -72 35.5 -107t83.5 -35q39 0 66.5 23t38.5 59q8 27 35 27h182z" />
    <glyph glyph-name="d" unicode="d" horiz-adv-x="972" 
d="M836 1536q23 0 33 -10t10 -33v-1450q0 -23 -10 -33t-33 -10h-146q-22 0 -31 10t-14 35l-16 68q-79 -102 -189 -125q-91 -19 -172 15.5t-132.5 119t-51.5 201.5v233v231q0 117 51.5 201.5t132.5 119t172 15.5t160 -92v461q0 23 10 33t33 10h193zM483 229q46 0 81.5 37
t35.5 107v291v75q0 70 -35.5 107t-81.5 37q-47 2 -84 -34.5t-37 -109.5v-184v-182q0 -73 37 -109.5t84 -34.5z" />
    <glyph glyph-name="e" unicode="e" horiz-adv-x="940" 
d="M477 1130q55 0 105.5 -12t101.5 -43t88.5 -78.5t60.5 -124.5t23 -176v-34q0 -44 -6 -105q-3 -24 -12 -33.5t-31 -9.5h-430q-12 0 -16.5 -4t-4.5 -16v-123q0 -72 36.5 -107t84.5 -35q41 0 69.5 23t39.5 59q8 27 35 27h190q31 0 27 -37q-8 -72 -34 -129t-61.5 -92
t-81.5 -57.5t-91 -31.5t-93 -9q-60 0 -113.5 14t-105.5 49t-90 88t-61 138t-23 192v188q0 107 23 191t61 137t90 88t105.5 49t113.5 14zM614 754q0 72 -40 107.5t-89 35.5q-48 0 -88.5 -35.5t-40.5 -107.5v-31q0 -12 4.5 -16.5t16.5 -4.5h217q12 0 16 4.5t4 16.5v31z" />
    <glyph glyph-name="f" unicode="f" horiz-adv-x="673" 
d="M215 0q-23 0 -33 10t-10 33v811q0 21 -6.5 28t-26.5 7h-41q-23 0 -33 10t-10 33v137q0 23 10 33t33 10h43q20 0 27.5 6t7.5 23v76q0 165 99 242t300 77q23 0 33 -10t10 -33v-150q0 -23 -10 -33t-33 -10q-63 0 -97 -21.5t-34 -61.5v-76q0 -29 29 -29h102q23 0 33 -10
t10 -33v-137q0 -23 -10 -33t-33 -10h-90q-20 0 -27 -7.5t-7 -27.5v-811q0 -23 -10 -33t-33 -10h-193z" />
    <glyph glyph-name="g" unicode="g" horiz-adv-x="972" 
d="M836 1112q23 0 33 -10t10 -33v-1094q0 -118 -31.5 -205t-87 -136t-122 -72t-144.5 -23q-49 0 -95.5 9t-94.5 32t-85 58t-64.5 92t-35.5 129q-4 37 26 37h197q27 0 35 -27q11 -36 38 -59t66 -23q48 0 83.5 34.5t35.5 106.5v152q-69 -73 -160 -92t-172 15.5t-132.5 119
t-51.5 201.5v233v231q0 120 53.5 204.5t135 117.5t173.5 16q104 -20 187 -114l12 55q5 25 14 35t31 10h146zM483 229q47 0 82 37t35 107v291v75q0 70 -35 107t-82 37q-47 2 -84 -34.5t-37 -109.5v-184v-182q0 -73 37 -109.5t84 -34.5z" />
    <glyph glyph-name="h" unicode="h" horiz-adv-x="983" 
d="M532 1124q91 19 172 -15.5t133 -119t52 -201.5v-745q0 -23 -10 -33t-33 -10h-193q-23 0 -33 10t-10 33v696q0 73 -37 109.5t-84 34.5q-47 0 -81.5 -37t-34.5 -107v-696q0 -23 -10 -33t-33 -10h-193q-23 0 -33 10t-10 33v1450q0 23 10 33t33 10h193q23 0 33 -10t10 -33
v-461q70 73 159 92z" />
    <glyph glyph-name="i" unicode="i" horiz-adv-x="464" 
d="M233 1309q-70 0 -118.5 48.5t-48.5 117.5q0 68 48.5 115.5t118.5 47.5q68 0 116 -48t48 -115q0 -69 -48 -117.5t-116 -48.5zM330 1112q23 0 33 -10t10 -33v-1026q0 -23 -10 -33t-33 -10h-193q-23 0 -33 10t-10 33v1026q0 23 10 33t33 10h193z" />
    <glyph glyph-name="j" unicode="j" horiz-adv-x="464" 
d="M233 1309q-70 0 -118.5 48.5t-48.5 117.5q0 68 48.5 115.5t118.5 47.5q68 0 116 -48t48 -115q0 -69 -48 -117.5t-116 -48.5zM-31 -193q125 0 125 130v1132q0 23 10 33t33 10h193q23 0 33 -10t10 -33v-1132q0 -198 -96 -288.5t-308 -90.5q-23 0 -33 10t-10 33v163
q0 23 10 33t33 10z" />
    <glyph glyph-name="k" unicode="k" horiz-adv-x="909" 
d="M885 41q14 -41 -25 -41h-201q-40 0 -53 37l-135 303q-5 12 -16 12.5t-17 -12.5l-45 -96q-20 -45 -20 -74v-127q0 -24 -9.5 -33.5t-33.5 -9.5h-193q-23 0 -33 10t-10 33v958v492q0 23 10 33t33 10h193q23 0 33 -10t10 -33v-788q0 -14 11 -16t17 11l183 377q19 35 55 35
h199q20 0 27.5 -12t0.5 -27l-209 -444q-11 -20 0 -45z" />
    <glyph glyph-name="l" unicode="l" horiz-adv-x="577" 
d="M479 236q24 -3 33.5 -12t9.5 -31v-150q0 -23 -10 -33t-33 -10q-213 0 -299 86.5t-86 302.5v1104q0 23 10 33t33 10h193q23 0 33 -10t10 -33v-1133q0 -116 106 -124z" />
    <glyph glyph-name="m" unicode="m" horiz-adv-x="1488" 
d="M1040 1124q90 19 171 -15.5t132.5 -119t51.5 -201.5v-745q0 -23 -10 -33t-33 -10h-193q-23 0 -33 10t-10 33v696q0 73 -36 109.5t-83 34.5q-46 0 -80 -37.5t-34 -110.5v-692q0 -23 -10 -33t-33 -10h-193q-23 0 -33 10t-10 33v696q0 74 -35 110t-82 34q-47 0 -80.5 -37
t-33.5 -107v-696q0 -23 -10 -33t-33 -10h-193q-23 0 -33 10t-10 33v1026q0 23 10 33t33 10h144q22 0 32 -10.5t15 -34.5l14 -68q80 102 188 125q93 19 176 -19t130 -122q86 115 204 141z" />
    <glyph glyph-name="n" unicode="n" horiz-adv-x="983" 
d="M532 1124q91 19 172 -15.5t133 -119t52 -201.5v-745q0 -23 -10 -33t-33 -10h-193q-23 0 -33 10t-10 33v696q0 73 -37 109.5t-84 34.5q-47 0 -81.5 -37t-34.5 -107v-696q0 -23 -10 -33t-33 -10h-193q-23 0 -33 10t-10 33v1026q0 23 10 33t33 10h144q22 0 32 -10.5
t15 -34.5l16 -68q80 102 188 125z" />
    <glyph glyph-name="o" unicode="o" horiz-adv-x="962" 
d="M481 -18q-73 0 -140.5 24t-126.5 73.5t-94.5 137t-35.5 201.5v276q0 114 35.5 201.5t94.5 137t126.5 73.5t140.5 24q57 0 112 -14.5t107.5 -47.5t91.5 -82t63 -124.5t24 -167.5v-276q0 -92 -24 -167.5t-63 -124.5t-91.5 -82t-107.5 -47.5t-112 -14.5zM600 739
q0 73 -36 108.5t-83 35.5q-48 0 -83.5 -35.5t-35.5 -108.5v-366q0 -73 35.5 -108.5t83.5 -35.5q47 0 83 35.5t36 108.5v366z" />
    <glyph glyph-name="p" unicode="p" horiz-adv-x="972" 
d="M532 1124q91 19 172 -15.5t133 -119t52 -201.5v-233v-231q0 -117 -52 -201.5t-133 -119t-172 -15.5q-89 19 -159 92v-479q0 -23 -10 -33t-33 -10h-193q-23 0 -33 10t-10 33v1468q0 23 10 33t33 10h144q22 0 32 -10.5t15 -34.5l16 -68q80 102 188 125zM610 739
q0 73 -37 109.5t-84 34.5q-47 0 -81.5 -37t-34.5 -107v-290v-76q0 -70 34.5 -107t81.5 -37q47 -2 84 34.5t37 109.5v366z" />
    <glyph glyph-name="q" unicode="q" horiz-adv-x="972" 
d="M836 1112q23 0 33 -10t10 -33v-1468q0 -23 -10 -33t-33 -10h-193q-23 0 -33 10t-10 33v479q-69 -73 -160 -92t-172 15.5t-132.5 119t-51.5 201.5v233v231q0 117 51.5 201.5t132.5 119t172 15.5q110 -23 189 -125l16 68q5 25 14 35t31 10h146zM483 229q47 0 82 37t35 107
v291v75q0 70 -35 107t-82 37q-47 2 -84 -34.5t-37 -109.5v-184v-182q0 -73 37 -109.5t84 -34.5z" />
    <glyph glyph-name="r" unicode="r" horiz-adv-x="677" 
d="M600 1126q23 0 33 -10t10 -33v-184q0 -23 -10 -33t-33 -10q-104 0 -165.5 -55t-61.5 -170v-588q0 -23 -10 -33t-33 -10h-193q-23 0 -33 10t-10 33v1026q0 23 10 33t33 10h144q22 0 32 -10.5t15 -34.5l14 -63q100 122 258 122z" />
    <glyph glyph-name="s" unicode="s" horiz-adv-x="851" 
d="M432 -18q-150 0 -247 83.5t-117 235.5q-4 37 26 37h193q30 0 35 -27q26 -96 104 -96q38 0 64 22t26 60q2 33 -20 62t-59 52t-82 47t-91.5 55t-85.5 67.5t-66 92t-32 122.5q-10 151 89 243t249 92q62 0 119.5 -18.5t107.5 -55.5t81 -100t32 -145q0 -37 -27 -37h-178
q-30 0 -35 27q-7 39 -28 67t-60 29q-37 3 -60.5 -19.5t-25.5 -54.5q-1 -30 23.5 -58.5t65.5 -53t90 -51.5t98.5 -61t90 -74.5t65 -98.5t22.5 -127q-3 -147 -108.5 -232t-258.5 -85z" />
    <glyph glyph-name="t" unicode="t" horiz-adv-x="673" 
d="M575 0q-214 0 -308.5 82.5t-94.5 279.5v492q0 21 -6.5 28t-26.5 7h-41q-23 0 -33 10t-10 33v137q0 23 10 33t33 10h56q20 0 27 7t7 28v156q0 23 10 33t33 10h170q23 0 33 -10t10 -33v-156q0 -22 6.5 -28.5t26.5 -6.5h98q23 0 33 -10t10 -33v-137q0 -23 -10 -33t-33 -10
h-90q-20 0 -27 -7.5t-7 -27.5v-492q0 -129 124 -129q23 0 33 -10t10 -33v-147q0 -23 -10 -33t-33 -10z" />
    <glyph glyph-name="u" unicode="u" horiz-adv-x="983" 
d="M846 1112q23 0 33 -10t10 -33v-1026q0 -23 -10 -33t-33 -10h-144q-22 0 -32 10.5t-15 34.5l-16 68q-80 -102 -188 -125q-91 -19 -172 15.5t-133 119t-52 201.5v745q0 23 10 33t33 10h193q23 0 33 -10t10 -33v-696q0 -73 37 -109.5t84 -34.5q47 0 81.5 37t34.5 107v696
q0 23 10 33t33 10h193z" />
    <glyph glyph-name="v" unicode="v" horiz-adv-x="942" 
d="M651 1071q12 41 47 41h207q18 0 26 -11t1 -30l-338 -1030q-7 -26 -17.5 -33.5t-35.5 -7.5h-140q-25 0 -34.5 7.5t-18.5 33.5l-340 1030q-12 41 27 41h207q35 0 47 -41l170 -584q3 -11 12 -11t12 11z" />
    <glyph glyph-name="w" unicode="w" horiz-adv-x="1273" 
d="M1237 1112q36 0 27 -41l-254 -1030q-6 -24 -17.5 -32.5t-36.5 -8.5h-133q-25 0 -37 9t-16 32l-121 465q-3 10 -12 10t-12 -10l-119 -465q-6 -23 -17 -32t-36 -9h-136q-25 0 -36 8.5t-17 32.5l-254 1030q-9 41 27 41h207q38 0 47 -41l108 -502q1 -11 11.5 -11t13.5 11
l115 502q4 23 16 32t37 9h92q25 0 36 -9t17 -32l113 -502q3 -11 12.5 -11t11.5 11l109 502q9 41 47 41h207z" />
    <glyph glyph-name="x" unicode="x" horiz-adv-x="911" 
d="M901 41q10 -20 1 -30.5t-25 -10.5h-203q-20 0 -31 9t-22 32l-154 332q-3 7 -10.5 7t-10.5 -7l-155 -332q-11 -23 -22 -32t-31 -9h-203q-16 0 -24 9.5t1 31.5l242 508q11 23 0 45l-234 477q-8 19 0 30t23 11h205q20 0 31 -9t22 -32l145 -313q3 -8 10.5 -8t10.5 8l143 313
q10 23 22.5 32t33.5 9h204q15 0 23 -11t0 -30l-234 -477q-14 -22 0 -45z" />
    <glyph glyph-name="y" unicode="y" horiz-adv-x="913" 
d="M125 -442q-43 0 -43 43v163q0 23 9.5 32t33.5 11q31 3 51 7t44.5 14t41 29.5t25.5 48.5q30 94 33 129t-13 80l-299 956q-12 41 27 41h207q38 0 47 -41l155 -584q3 -11 12.5 -11t12.5 11l154 584q12 41 47 41h207q38 0 26 -41l-411 -1298q-70 -215 -367 -215z" />
    <glyph glyph-name="z" unicode="z" horiz-adv-x="792" 
d="M61 43v135q0 23 15 53l344 631q5 6 2 12.5t-10 6.5h-308q-23 0 -33 10t-10 33v145q0 23 10 33t33 10h584q24 0 33.5 -9.5t9.5 -33.5v-135q0 -25 -14 -53l-344 -631q-5 -6 -2 -12.5t10 -6.5h307q23 0 33 -10t10 -33v-145q0 -23 -10 -33t-33 -10h-584q-24 0 -33.5 9.5
t-9.5 33.5z" />
    <glyph glyph-name="braceleft" unicode="{" horiz-adv-x="780" 
d="M532 823q0 -84 -25 -135.5t-69 -99.5q28 -31 45.5 -56t33 -73.5t15.5 -106.5v-463q0 -65 34 -100.5t98 -36.5q23 0 33 -10t10 -33v-164q0 -23 -10 -33t-33 -10q-212 0 -312 93.5t-100 291.5v400q0 31 -2 52.5t-9.5 47t-21.5 41t-40 26.5t-62 11q-23 0 -33 10t-10 33v160
q0 23 10 33t33 10q36 0 62 11t40 26.5t21.5 41t9.5 47t2 52.5v389q0 198 100 291.5t312 93.5q23 0 33 -10t10 -33v-164q0 -23 -9.5 -32t-33.5 -11q-64 0 -98 -35.5t-34 -99.5v-455z" />
    <glyph glyph-name="bar" unicode="|" horiz-adv-x="540" 
d="M205 -469v2087q0 23 10 33t33 10h45q23 0 33 -10t10 -33v-2087q0 -23 -10 -33t-33 -10h-45q-23 0 -33 10t-10 33z" />
    <glyph glyph-name="braceright" unicode="}" horiz-adv-x="780" 
d="M246 823v455q0 64 -33.5 99.5t-95.5 35.5q-24 2 -33.5 11t-9.5 32v164q0 23 10 33t33 10q211 0 311 -93.5t100 -291.5v-389q0 -30 2 -52t10 -47.5t22 -41t40 -26.5t62 -11q23 0 33 -10t10 -33v-160q0 -23 -10 -33t-33 -10q-36 0 -62 -11t-40 -26.5t-22 -41t-10 -47.5
t-2 -52v-400q0 -198 -100 -291.5t-311 -93.5q-23 0 -33 10t-10 33v164q0 23 10 33t33 10q63 1 96 36.5t33 100.5v463q0 58 16 106.5t33.5 73.5t46.5 56q-29 32 -46 56t-33.5 72.5t-16.5 106.5z" />
    <glyph glyph-name="asciitilde" unicode="~" horiz-adv-x="1075" 
d="M737 659q-73 -3 -198.5 37t-155.5 43q-86 8 -137 -57q-18 -24 -43 -10l-115 71q-24 16 -10 43q35 74 107.5 114t150.5 42q75 3 199 -37t155 -43q89 -6 137 60q19 25 43 10l115 -74q24 -12 10 -43q-33 -73 -105.5 -113t-152.5 -43z" />
    <glyph glyph-name="exclamdown" unicode="&#xa1;" horiz-adv-x="569" 
d="M285 1130q71 0 120.5 -49.5t49.5 -119.5q0 -69 -50 -118.5t-120 -49.5t-120 49.5t-50 118.5q0 70 49.5 119.5t120.5 49.5zM162 575q0 23 10 33t33 10h162q23 0 33 -10t10 -33l26 -956q0 -23 -10 -33t-33 -10h-215q-23 0 -33 10t-10 33z" />
    <glyph glyph-name="cent" unicode="&#xa2;" horiz-adv-x="913" 
d="M803 338q30 0 26 -37q-14 -130 -79.5 -203.5t-161.5 -101.5v-117q0 -23 -10 -33t-33 -10h-131q-23 0 -33 10t-10 33v113q-129 27 -208 131t-79 295v276q0 191 79 295t208 131v101q0 23 10 33t33 10h131q23 0 33 -10t10 -33v-105q96 -28 161.5 -101.5t79.5 -203.5
q4 -37 -26 -37h-182q-27 0 -35 27q-11 36 -38.5 59t-66.5 23q-48 0 -83.5 -35t-35.5 -107v-370q0 -72 35.5 -107t83.5 -35q39 0 66.5 23t38.5 59q8 27 35 27h182z" />
    <glyph glyph-name="sterling" unicode="&#xa3;" horiz-adv-x="985" 
d="M881 262q23 0 33 -10t10 -33v-176q0 -23 -10 -33t-33 -10h-633q-23 0 -33 10t-10 33v647h-101q-43 0 -43 43v131q0 43 43 43h101v287q0 156 102.5 249t257.5 93h101q23 0 33 -10t10 -33v-180q0 -23 -10 -33t-33 -10h-72q-94 0 -94 -101v-262h205q43 0 43 -43v-131
q0 -43 -43 -43h-205v-389q0 -23 8 -31t31 -8h342z" />
    <glyph glyph-name="currency" unicode="&#xa4;" horiz-adv-x="841" 
d="M664 662l81 -84q24 -21 22.5 -41.5t-34.5 -53.5q-31 -31 -51.5 -32t-40.5 22l-82 82q-61 -37 -139 -37q-76 0 -137 37l-82 -82q-20 -23 -40.5 -21.5t-51.5 33.5q-34 31 -36 52t23 43l82 82q-37 63 -37 135q0 70 37 133l-82 82q-25 22 -23 42.5t36 51.5q31 32 51.5 33.5
t40.5 -21.5l82 -82q64 39 137 39q75 0 139 -39l82 84q20 23 40.5 21.5t51.5 -33.5q33 -31 34.5 -51.5t-22.5 -42.5l-81 -82q34 -61 34 -135q0 -77 -34 -135zM420 692q43 0 74.5 31t31.5 74t-31.5 73.5t-74.5 30.5q-42 0 -73.5 -31t-31.5 -73t31.5 -73.5t73.5 -31.5z" />
    <glyph glyph-name="yen" unicode="&#xa5;" horiz-adv-x="1056" 
d="M993 1495l-315 -889v-100h153q23 0 33 -10t10 -33v-12q0 -23 -10 -33t-33 -10h-153v-123h153q23 0 33 -10t10 -33v-13q0 -23 -10 -33t-33 -10h-153v-143q0 -23 -10 -33t-33 -10h-211q-23 0 -33 10t-10 33v143h-158q-23 0 -33 10t-10 33v13q0 23 10 33t33 10h158v123h-158
q-23 0 -33 10t-10 33v12q0 23 10 33t33 10h158v100l-315 889q-15 41 24 41h219q40 0 53 -41l156 -483q3 -9 12.5 -9t12.5 9l155 483q11 41 54 41h217q39 0 24 -41z" />
    <glyph glyph-name="brokenbar" unicode="&#xa6;" horiz-adv-x="540" 
d="M293 1661q23 0 33 -10t10 -33v-735q0 -23 -10 -33t-33 -10h-45q-23 0 -33 10t-10 33v735q0 23 10 33t33 10h45zM293 281q23 0 33 -10t10 -33v-707q0 -23 -10 -33t-33 -10h-45q-23 0 -33 10t-10 33v707q0 23 10 33t33 10h45z" />
    <glyph glyph-name="section" unicode="&#xa7;" horiz-adv-x="1083" 
d="M985 416q0 -138 -78 -236q78 -113 78 -235q0 -81 -27 -149.5t-72 -115t-103 -79t-119.5 -47.5t-122.5 -15q-190 0 -316.5 117.5t-126.5 310.5q0 18 5 27.5t22 9.5h209q34 0 37 -31q2 -31 13 -62t30 -59t52 -45.5t75 -17.5q64 0 103 37.5t44 99.5q6 54 -21.5 105
t-77.5 94.5t-111 88.5t-124 96.5t-115 107.5t-85 131.5t-33 159.5q0 138 80 237q-80 103 -80 228q0 166 109.5 273t293.5 107q193 0 299 -112.5t109 -288.5q0 -18 -5 -27.5t-22 -9.5h-209q-32 0 -37 31q-9 65 -39 110.5t-88 45.5q-56 0 -87 -39t-25 -93q6 -41 40.5 -84.5
t84.5 -84.5t109.5 -85.5t117.5 -97t106 -110t77.5 -134t29.5 -159.5zM332 707q7 -55 67.5 -110t180.5 -134.5t178 -126.5q15 24 18 61q5 46 -17 88t-69.5 82.5t-94.5 72.5t-119.5 79t-117.5 80q-36 -36 -26 -92z" />
    <glyph glyph-name="dieresis" unicode="&#xa8;" horiz-adv-x="915" 
d="M258 1307q-65 0 -110.5 45.5t-45.5 109.5q0 63 46 108.5t110 45.5q63 0 108.5 -45.5t45.5 -108.5q0 -64 -45.5 -109.5t-108.5 -45.5zM657 1307q-65 0 -110 45.5t-45 109.5q0 63 45.5 108.5t109.5 45.5t110 -45.5t46 -108.5q0 -64 -45.5 -109.5t-110.5 -45.5z" />
    <glyph glyph-name="copyright" unicode="&#xa9;" horiz-adv-x="1796" 
d="M899 -16q-160 0 -305.5 62t-250.5 167t-167.5 250t-62.5 305t62.5 305t167.5 250t250.5 167t305.5 62q159 0 304 -62t250.5 -167t167.5 -250t62 -305t-62 -305t-167.5 -250t-250.5 -167t-304 -62zM899 129q172 0 318.5 85.5t231.5 232.5t85 321t-85 321t-231.5 232.5
t-318.5 85.5q-173 0 -320 -85.5t-232 -232.5t-85 -321t85 -321t232 -232.5t320 -85.5zM924 293q-204 0 -345 139.5t-141 335.5t141 335.5t345 139.5q135 0 272 -80q30 -16 8 -55l-74 -125q-13 -30 -55 -14q-58 28 -137 28q-102 0 -172 -66.5t-70 -162.5t70 -162.5t172 -66.5
q79 0 137 28q42 16 55 -14l74 -125q22 -39 -8 -55q-137 -80 -272 -80z" />
    <glyph glyph-name="guillemotleft" unicode="&#xab;" horiz-adv-x="1001" 
d="M442 565l-88 -98q-15 -15 0 -33l88 -96q19 -21 24 -30.5t5 -31.5v-225q0 -18 -12.5 -21.5t-26.5 11.5l-346 379q-26 32 0 61l346 381q14 15 26.5 10.5t12.5 -22.5v-223q0 -22 -5 -31.5t-24 -30.5zM899 565l-88 -98q-15 -15 0 -33l88 -96q19 -21 24 -30.5t5 -31.5v-225
q0 -18 -13 -21.5t-26 11.5l-346 379q-26 32 0 61l346 381q13 15 26 10.5t13 -22.5v-223q0 -22 -5 -31.5t-24 -30.5z" />
    <glyph glyph-name="logicalnot" unicode="&#xac;" horiz-adv-x="1157" 
d="M860 940q23 0 33 -10t10 -33v-477q0 -23 -10 -33t-33 -10h-123q-23 0 -33 10t-10 33v272q0 23 -8 31t-31 8h-538q-23 0 -33 10t-10 33v123q0 23 10 33t33 10h743z" />
    <glyph glyph-name="registered" unicode="&#xae;" horiz-adv-x="1787" 
d="M899 -16q-160 0 -305.5 62.5t-250.5 167.5t-167.5 250.5t-62.5 305.5q0 159 62.5 304t167.5 250.5t250.5 167.5t305.5 62q159 0 304 -62t250.5 -167.5t167.5 -250.5t62 -304q0 -160 -62 -305.5t-167.5 -250.5t-250.5 -167.5t-304 -62.5zM899 131q172 0 318.5 85.5
t231.5 232.5t85 321q0 130 -50.5 248t-135.5 204t-202.5 136.5t-246.5 50.5q-130 0 -248 -50.5t-203 -136.5t-135.5 -204t-50.5 -248q0 -174 85 -321t232 -232.5t320 -85.5zM653 326q-25 0 -35 10t-10 33v800q0 25 10 35t35 10h293q111 0 191 -85t80 -199q0 -178 -138 -262
l168 -301q11 -20 4.5 -30.5t-22.5 -10.5h-135q-40 0 -52 28l-155 291h-39q-25 0 -33 -8t-8 -33v-235q0 -23 -10 -33t-35 -10h-109zM848 817h51q53 0 86 30.5t33 82.5q0 51 -33 82.5t-86 31.5h-51q-25 0 -33 -7.5t-8 -32.5v-148q0 -23 8 -31t33 -8z" />
    <glyph glyph-name="macron" unicode="&#xaf;" horiz-adv-x="747" 
d="M645 1188q0 -23 -10 -33t-33 -10h-457q-23 0 -33 10t-10 33v137q0 23 10 33t33 10h457q23 0 33 -10t10 -33v-137z" />
    <glyph glyph-name="degree" unicode="&#xb0;" horiz-adv-x="761" 
d="M381 997q-115 0 -197 81.5t-82 197.5q0 115 81.5 196.5t197.5 81.5q115 0 196.5 -81t81.5 -197t-81.5 -197.5t-196.5 -81.5zM381 1171q43 0 74.5 31.5t31.5 73.5q0 43 -31.5 74.5t-74.5 31.5t-75 -31.5t-32 -74.5q0 -41 32 -73t75 -32z" />
    <glyph glyph-name="plusminus" unicode="&#xb1;" horiz-adv-x="1085" 
d="M969 1049q23 0 33 -10t10 -33v-123q0 -23 -10 -33t-33 -10h-283q-23 0 -31 -8t-8 -31v-283q0 -23 -10 -33t-33 -10h-123q-23 0 -33 10t-10 33v283q0 23 -8 31t-31 8h-282q-23 0 -33 10t-10 33v123q0 23 10 33t33 10h282q23 0 31 7.5t8 30.5v281q0 23 10 33t33 10h123
q23 0 33 -10t10 -33v-281q0 -23 8 -30.5t31 -7.5h283zM967 248q23 0 33 -10t10 -33v-123q0 -23 -10 -33t-33 -10h-850q-23 0 -33 10t-10 33v123q0 23 10 33t33 10h850z" />
    <glyph glyph-name="uni00B2" unicode="&#xb2;" horiz-adv-x="776" 
d="M119 422q-20 0 -28.5 8.5t-8.5 28.5v207q0 70 20.5 131t54 104t73.5 81t81 69.5t74.5 61.5t55.5 65t24 73q3 49 -23.5 79t-66.5 30q-32 0 -53 -21t-29 -57q-5 -20 -29 -20h-151q-23 0 -23 28q1 69 27 121t68 82.5t92.5 45.5t107.5 15q137 0 225 -81.5t82 -227.5
q-4 -88 -44 -161t-93 -121.5t-105.5 -91t-89 -90.5t-36.5 -101v-10q0 -19 5.5 -25t24.5 -6h305q19 0 27 -8.5t8 -28.5v-143q0 -20 -8 -28.5t-27 -8.5h-540z" />
    <glyph glyph-name="uni00B3" unicode="&#xb3;" horiz-adv-x="806" 
d="M393 406q-51 0 -96 12.5t-87.5 41t-72 81.5t-39.5 127q-4 30 21 30h151q24 0 29 -22q8 -29 30.5 -47.5t53.5 -18.5q39 0 67.5 29t28.5 88v55q0 58 -28.5 86.5t-67.5 28.5h-68q-19 0 -26.5 8t-7.5 27v123q0 19 7.5 27t26.5 8h68q39 0 67.5 29t28.5 87v27q0 58 -29 87.5
t-67 29.5q-32 0 -55 -20t-29 -50q-6 -20 -29 -20h-151q-25 0 -21 30q10 74 39.5 127.5t72 82t87.5 41.5t96 13q64 0 118.5 -19t100.5 -58t72.5 -107.5t26.5 -159.5v-8q0 -130 -88 -211q88 -85 88 -225v-31q0 -86 -26.5 -151.5t-72 -103t-101 -56t-118.5 -18.5z" />
    <glyph glyph-name="acute" unicode="&#xb4;" horiz-adv-x="677" 
d="M117 1440l278 260q17 17 31 17t31 -17l96 -103q17 -17 17 -29.5t-17 -29.5l-274 -258q-31 -31 -62 0l-100 98q-31 31 0 62z" />
    <glyph glyph-name="paragraph" unicode="&#xb6;" horiz-adv-x="1667" 
d="M1563 1610q23 0 33 -10t10 -33v-176q0 -23 -10 -33t-33 -10h-111q-23 0 -31 -8t-8 -31v-1778q0 -23 -10 -33t-33 -10h-209q-23 0 -33 10t-10 33v1778q0 23 -8 31t-31 8h-100q-23 0 -31 -8t-8 -31v-1778q0 -23 -10 -33t-33 -10h-209q-23 0 -33 10t-10 33v1092q0 23 -8 31
t-31 8h-53q-87 0 -171 34.5t-151 94.5t-108 150.5t-41 193.5q0 101 38 191t99.5 151.5t141.5 97t163 35.5h1039z" />
    <glyph glyph-name="periodcentered" unicode="&#xb7;" horiz-adv-x="569" 
d="M285 428q-71 0 -120.5 50t-49.5 120q0 69 50 118.5t120 49.5t120 -49.5t50 -118.5q0 -70 -49.5 -120t-120.5 -50z" />
    <glyph glyph-name="cedilla" unicode="&#xb8;" horiz-adv-x="610" 
d="M258 -88q56 26 109 17t94.5 -39t66.5 -81t25 -108q0 -107 -79 -179.5t-191 -72.5q-47 0 -115 27q-37 14 -25 49l39 94q7 19 17.5 23.5t27.5 -2.5q33 -11 56 -11q36 0 62 28t26 67q0 38 -27.5 64t-64.5 26q-45 0 -78 -39q-22 -22 -51 -8l-72 32q-27 12 -17 39l80 232
l162 -31z" />
    <glyph glyph-name="uni00B9" unicode="&#xb9;" horiz-adv-x="688" 
d="M518 1536q19 0 27 -8t8 -27v-1028q0 -19 -8 -27t-27 -8h-172q-20 0 -27.5 8t-7.5 27v703l-112 -113q-25 -25 -49 0l-109 111q-25 26 0 51l289 291q20 20 41 20h147z" />
    <glyph glyph-name="guillemotright" unicode="&#xbb;" horiz-adv-x="1001" 
d="M102 565q-19 19 -23.5 29t-4.5 33v223q0 18 13 22.5t26 -10.5l346 -381q26 -29 0 -61l-346 -379q-13 -15 -26 -11.5t-13 21.5v225q0 23 4.5 33t23.5 29l88 96q12 18 0 33zM559 565q-19 21 -24 30.5t-5 31.5v223q0 18 13 22.5t26 -10.5l346 -381q26 -29 0 -61l-346 -379
q-13 -15 -26 -11.5t-13 21.5v225q0 22 5 31.5t24 30.5l88 96q15 18 0 33z" />
    <glyph glyph-name="questiondown" unicode="&#xbf;" horiz-adv-x="952" 
d="M506 1130q72 0 122 -49t50 -120t-50 -120.5t-122 -49.5q-69 0 -119.5 50t-50.5 120t50.5 119.5t119.5 49.5zM477 -438q-170 0 -287 104.5t-116 276.5q0 69 22.5 131.5t56.5 106t74.5 92t75.5 90.5t60 101t28 124q0 23 10 33t33 10h148q23 0 33 -10t10 -33
q0 -90 -20 -165.5t-49.5 -123t-64 -91.5t-64 -75t-49.5 -70t-20 -79q0 -65 42.5 -106.5t103.5 -41.5q83 0 155 80q18 21 32.5 23t31.5 -13l121 -119q16 -17 15.5 -29t-15.5 -32q-21 -30 -51.5 -58.5t-76 -58.5t-108 -48.5t-131.5 -18.5z" />
    <glyph glyph-name="Agrave" unicode="&#xc0;" horiz-adv-x="1067" 
d="M279 2034l65 98q14 21 25 24t32 -10l373 -248q21 -14 24 -25t-10 -32l-67 -98q-15 -22 -26.5 -25.5t-30.5 8.5l-373 250q-20 14 -22.5 25t10.5 33zM49 41l346 1454q6 25 18 33t38 8h165q26 0 38 -8t18 -33l346 -1454q11 -41 -31 -41h-215q-21 0 -32 8.5t-17 32.5l-39 176
q-4 18 -12 23.5t-29 5.5h-219q-21 0 -29 -5.5t-12 -23.5l-39 -176q-6 -24 -17 -32.5t-32 -8.5h-215q-42 0 -31 41zM438 530q-3 -10 2 -16t15 -6h159q8 0 13 6t4 16l-84 422q-3 10 -13 10t-12 -10z" />
    <glyph glyph-name="Aacute" unicode="&#xc1;" horiz-adv-x="1067" 
d="M784 1960q13 -22 10.5 -32.5t-22.5 -24.5l-371 -250q-20 -12 -32 -9t-25 25l-68 98q-13 21 -9.5 32.5t24.5 25.5l371 248q21 13 32 9.5t25 -24.5zM49 41l346 1454q6 25 18 33t38 8h165q26 0 38 -8t18 -33l346 -1454q11 -41 -31 -41h-215q-21 0 -32 8.5t-17 32.5l-39 176
q-4 18 -12 23.5t-29 5.5h-219q-21 0 -29 -5.5t-12 -23.5l-39 -176q-6 -24 -17 -32.5t-32 -8.5h-215q-42 0 -31 41zM438 530q-3 -10 2 -16t15 -6h159q8 0 13 6t4 16l-84 422q-3 10 -13 10t-12 -10z" />
    <glyph glyph-name="Acircumflex" unicode="&#xc2;" horiz-adv-x="1067" 
d="M864 1792q18 -15 18 -28t-18 -31l-73 -74q-30 -30 -60 0l-199 182l-196 -182q-18 -16 -31 -16.5t-31 16.5l-73 74q-32 32 0 59l301 276q30 27 61 0zM49 41l346 1454q6 25 18 33t38 8h165q26 0 38 -8t18 -33l346 -1454q11 -41 -31 -41h-215q-21 0 -32 8.5t-17 32.5
l-39 176q-4 18 -12 23.5t-29 5.5h-219q-21 0 -29 -5.5t-12 -23.5l-39 -176q-6 -24 -17 -32.5t-32 -8.5h-215q-42 0 -31 41zM438 530q-3 -10 2 -16t15 -6h159q8 0 13 6t4 16l-84 422q-3 10 -13 10t-12 -10z" />
    <glyph glyph-name="Atilde" unicode="&#xc3;" horiz-adv-x="1067" 
d="M819 1819q25 -17 10 -43q-67 -115 -186 -115q-24 0 -45.5 7t-48.5 19.5t-45 18.5q-70 26 -113 -29q-20 -25 -43 -10l-100 64q-24 19 -10 43q69 114 188 114q24 0 45 -7t47.5 -19.5t44.5 -18.5q70 -26 115 29q17 25 43 10zM49 41l346 1454q6 25 18 33t38 8h165q26 0 38 -8
t18 -33l346 -1454q11 -41 -31 -41h-215q-21 0 -32 8.5t-17 32.5l-39 176q-4 18 -12 23.5t-29 5.5h-219q-21 0 -29 -5.5t-12 -23.5l-39 -176q-6 -24 -17 -32.5t-32 -8.5h-215q-42 0 -31 41zM438 530q-3 -10 2 -16t15 -6h159q8 0 13 6t4 16l-84 422q-3 10 -13 10t-12 -10z" />
    <glyph glyph-name="Adieresis" unicode="&#xc4;" horiz-adv-x="1067" 
d="M352 1661q-63 0 -107 44t-44 107q0 62 44 106t107 44q62 0 106 -44t44 -106q0 -63 -44 -107t-106 -44zM713 1661q-62 0 -106 44t-44 107q0 62 44.5 106t105.5 44q63 0 107 -44t44 -106q0 -63 -44 -107t-107 -44zM49 41l346 1454q6 25 18 33t38 8h165q26 0 38 -8t18 -33
l346 -1454q11 -41 -31 -41h-215q-21 0 -32 8.5t-17 32.5l-39 176q-4 18 -12 23.5t-29 5.5h-219q-21 0 -29 -5.5t-12 -23.5l-39 -176q-6 -24 -17 -32.5t-32 -8.5h-215q-42 0 -31 41zM438 530q-3 -10 2 -16t15 -6h159q8 0 13 6t4 16l-84 422q-3 10 -13 10t-12 -10z" />
    <glyph glyph-name="Aring" unicode="&#xc5;" horiz-adv-x="1067" 
d="M532 1642q-91 0 -155 65t-64 157q0 91 64 155t155 64q92 0 157 -64t65 -155q0 -92 -65 -157t-157 -65zM532 1784q33 0 56.5 23.5t23.5 56.5q0 32 -24 56t-56 24t-55.5 -24t-23.5 -56q0 -34 23.5 -57t55.5 -23zM49 41l346 1454q6 25 18 33t38 8h165q26 0 38 -8t18 -33
l346 -1454q11 -41 -31 -41h-215q-21 0 -32 8.5t-17 32.5l-39 176q-4 18 -12 23.5t-29 5.5h-219q-21 0 -29 -5.5t-12 -23.5l-39 -176q-6 -24 -17 -32.5t-32 -8.5h-215q-42 0 -31 41zM438 530q-3 -10 2 -16t15 -6h159q8 0 13 6t4 16l-84 422q-3 10 -13 10t-12 -10z" />
    <glyph glyph-name="AE" unicode="&#xc6;" horiz-adv-x="1404" 
d="M958 1274q-23 0 -30.5 -8t-7.5 -31v-285q0 -23 7.5 -31t30.5 -8h295q23 0 33 -10t10 -33v-176q0 -23 -10 -33t-33 -10h-295q-23 0 -30.5 -8t-7.5 -31v-309q0 -23 7.5 -31t30.5 -8h295q23 0 33 -10t10 -33v-176q0 -23 -10 -33t-33 -10h-585q-23 0 -33 10t-10 33v203h-183
q-20 0 -27.5 -5t-13.5 -24l-55 -176q-9 -25 -19 -33t-30 -8h-219q-40 0 -27 41l467 1454q7 26 17.5 33.5t35.5 7.5h682q23 0 33 -10t10 -33v-176q0 -23 -10 -33t-33 -10h-295zM504 508h121v459q-13 0 -13 -11l-125 -426q-7 -22 17 -22z" />
    <glyph glyph-name="Ccedilla" unicode="&#xc7;" horiz-adv-x="1075" 
d="M950 434q31 0 27 -37q-3 -161 -94.5 -275t-259.5 -136l-27 -74q56 26 109 17t94.5 -39t66.5 -81t25 -108q0 -107 -79 -179.5t-191 -72.5q-47 0 -115 27q-37 14 -25 49l39 94q7 19 17.5 23.5t27.5 -2.5q33 -11 56 -11q36 0 62 28t26 67q0 38 -28 64t-65 26q-44 0 -77 -39
q-23 -23 -52 -8l-71 32q-27 12 -17 39l52 152q-176 29 -264.5 164.5t-88.5 353.5v520q0 245 113 385.5t336 140.5q104 0 186.5 -33t134.5 -90.5t79.5 -131.5t29.5 -160q4 -37 -27 -37h-223q-17 0 -25.5 7t-9.5 24q-10 64 -45 106.5t-100 42.5q-154 0 -154 -254v-520
q0 -254 154 -254q65 0 100 42.5t45 106.5q1 17 9.5 24t25.5 7h223z" />
    <glyph glyph-name="Egrave" unicode="&#xc8;" horiz-adv-x="878" 
d="M190 2034l66 98q14 21 25 24t32 -10l373 -248q21 -14 24 -25t-10 -32l-67 -98q-15 -22 -27 -25.5t-31 8.5l-372 250q-21 14 -23.5 25t10.5 33zM403 1235v-285q0 -23 8 -31t31 -8h295q23 0 33 -10t10 -33v-176q0 -23 -10 -33t-33 -10h-295q-23 0 -31 -8t-8 -31v-309
q0 -23 8 -31t31 -8h295q23 0 33 -10t10 -33v-176q0 -23 -10 -33t-33 -10h-585q-23 0 -33 10t-10 33v1450q0 23 10 33t33 10h585q23 0 33 -10t10 -33v-176q0 -23 -10 -33t-33 -10h-295q-23 0 -31 -8t-8 -31z" />
    <glyph glyph-name="Eacute" unicode="&#xc9;" horiz-adv-x="878" 
d="M696 1960q13 -22 10.5 -32.5t-22.5 -24.5l-371 -250q-20 -12 -32 -9t-25 25l-68 98q-13 21 -9.5 32.5t24.5 25.5l370 248q21 13 32.5 9.5t25.5 -24.5zM403 1235v-285q0 -23 8 -31t31 -8h295q23 0 33 -10t10 -33v-176q0 -23 -10 -33t-33 -10h-295q-23 0 -31 -8t-8 -31
v-309q0 -23 8 -31t31 -8h295q23 0 33 -10t10 -33v-176q0 -23 -10 -33t-33 -10h-585q-23 0 -33 10t-10 33v1450q0 23 10 33t33 10h585q23 0 33 -10t10 -33v-176q0 -23 -10 -33t-33 -10h-295q-23 0 -31 -8t-8 -31z" />
    <glyph glyph-name="Ecircumflex" unicode="&#xca;" horiz-adv-x="878" 
d="M776 1792q18 -15 18 -28t-18 -31l-74 -74q-18 -17 -30.5 -16.5t-28.5 16.5l-199 182l-196 -182q-18 -16 -31 -16.5t-31 16.5l-73 74q-32 32 0 59l301 276q30 27 61 0zM403 1235v-285q0 -23 8 -31t31 -8h295q23 0 33 -10t10 -33v-176q0 -23 -10 -33t-33 -10h-295
q-23 0 -31 -8t-8 -31v-309q0 -23 8 -31t31 -8h295q23 0 33 -10t10 -33v-176q0 -23 -10 -33t-33 -10h-585q-23 0 -33 10t-10 33v1450q0 23 10 33t33 10h585q23 0 33 -10t10 -33v-176q0 -23 -10 -33t-33 -10h-295q-23 0 -31 -8t-8 -31z" />
    <glyph glyph-name="Edieresis" unicode="&#xcb;" horiz-adv-x="878" 
d="M264 1661q-63 0 -107 44t-44 107q0 62 44 106t107 44q62 0 106 -44t44 -106q0 -63 -44 -107t-106 -44zM625 1661q-62 0 -106 44t-44 107q0 62 44.5 106t105.5 44q63 0 107 -44t44 -106q0 -63 -44 -107t-107 -44zM403 1235v-285q0 -23 8 -31t31 -8h295q23 0 33 -10t10 -33
v-176q0 -23 -10 -33t-33 -10h-295q-23 0 -31 -8t-8 -31v-309q0 -23 8 -31t31 -8h295q23 0 33 -10t10 -33v-176q0 -23 -10 -33t-33 -10h-585q-23 0 -33 10t-10 33v1450q0 23 10 33t33 10h585q23 0 33 -10t10 -33v-176q0 -23 -10 -33t-33 -10h-295q-23 0 -31 -8t-8 -31z" />
    <glyph glyph-name="Igrave" unicode="&#xcc;" horiz-adv-x="512" 
d="M2 2034l66 98q14 21 25 24t32 -10l373 -248q21 -14 24 -25t-10 -32l-68 -98q-15 -22 -26.5 -25.5t-30.5 8.5l-373 250q-20 14 -22.5 25t10.5 33zM109 43v1450q0 23 10 33t33 10h208q23 0 33 -10t10 -33v-1450q0 -23 -10 -33t-33 -10h-208q-23 0 -33 10t-10 33z" />
    <glyph glyph-name="Iacute" unicode="&#xcd;" horiz-adv-x="512" 
d="M508 1960q13 -22 10.5 -32.5t-22.5 -24.5l-371 -250q-20 -12 -32 -9t-25 25l-68 98q-13 21 -10 32.5t24 25.5l371 248q21 13 32 9.5t25 -24.5zM109 43v1450q0 23 10 33t33 10h208q23 0 33 -10t10 -33v-1450q0 -23 -10 -33t-33 -10h-208q-23 0 -33 10t-10 33z" />
    <glyph glyph-name="Icircumflex" unicode="&#xce;" horiz-adv-x="512" 
d="M588 1792q18 -15 18 -28t-18 -31l-74 -74q-18 -17 -30.5 -16.5t-28.5 16.5l-199 182l-197 -182q-18 -16 -30.5 -16.5t-30.5 16.5l-74 74q-32 32 0 59l301 276q31 28 62 0zM109 43v1450q0 23 10 33t33 10h208q23 0 33 -10t10 -33v-1450q0 -23 -10 -33t-33 -10h-208
q-23 0 -33 10t-10 33z" />
    <glyph glyph-name="Idieresis" unicode="&#xcf;" horiz-adv-x="512" 
d="M76 1661q-63 0 -107.5 44t-44.5 107q0 62 44.5 106t107.5 44q61 0 105 -44t44 -106q0 -63 -43.5 -107t-105.5 -44zM436 1661q-62 0 -105.5 44t-43.5 107q0 62 44 106t105 44q63 0 107.5 -44t44.5 -106q0 -63 -44.5 -107t-107.5 -44zM109 43v1450q0 23 10 33t33 10h208
q23 0 33 -10t10 -33v-1450q0 -23 -10 -33t-33 -10h-208q-23 0 -33 10t-10 33z" />
    <glyph glyph-name="Eth" unicode="&#xd0;" horiz-adv-x="1140" 
d="M567 1536q241 0 358 -140.5t117 -394.5v-466q0 -254 -117 -394.5t-358 -140.5h-381q-23 0 -33 10t-10 33v651q0 23 -8 31t-31 8h-20q-23 0 -33 10t-10 33v109q0 23 10 33t33 10h20q23 0 31 8t8 31v526q0 23 10 33t33 10h381zM748 522v492q0 125 -43 192.5t-152 67.5h-76
q-23 0 -31 -8t-8 -31v-268q0 -23 8 -31t31 -8h92q23 0 33 -10t10 -33v-109q0 -23 -10 -33t-33 -10h-92q-23 0 -31 -8t-8 -31v-393q0 -23 8 -31t31 -8h76q109 0 152 67.5t43 192.5z" />
    <glyph glyph-name="Ntilde" unicode="&#xd1;" horiz-adv-x="1136" 
d="M854 1819q25 -17 10 -43q-67 -115 -186 -115q-24 0 -45.5 7t-48.5 19.5t-45 18.5q-70 26 -113 -29q-20 -25 -43 -10l-100 64q-25 19 -11 43q69 114 189 114q24 0 45 -7t47.5 -19.5t44.5 -18.5q70 -26 115 29q17 25 43 10zM987 1536q23 0 33 -10t10 -33v-1450
q0 -23 -10 -33t-33 -10h-158q-25 0 -37.5 9.5t-23.5 33.5l-342 760q-4 10 -13.5 9.5t-9.5 -11.5v-758q0 -23 -10 -33t-33 -10h-208q-23 0 -33 10t-10 33v1450q0 23 10 33t33 10h157q24 0 37.5 -9.5t22.5 -33.5l342 -760q5 -10 13.5 -9.5t8.5 11.5v758q0 23 10 33t33 10h211z
" />
    <glyph glyph-name="Ograve" unicode="&#xd2;" 
d="M293 2034l65 98q14 21 25.5 24t32.5 -10l372 -248q21 -14 24.5 -25t-9.5 -32l-68 -98q-15 -22 -26.5 -25.5t-30.5 8.5l-373 250q-20 14 -22.5 25t10.5 33zM547 -18q-223 0 -336 140.5t-113 385.5v520q0 245 113 385.5t336 140.5q221 0 334.5 -140.5t113.5 -385.5v-520
q0 -245 -113.5 -385.5t-334.5 -140.5zM547 254q151 0 151 254v520q0 254 -151 254q-154 0 -154 -254v-520q0 -254 154 -254z" />
    <glyph glyph-name="Oacute" unicode="&#xd3;" 
d="M799 1960q13 -22 10.5 -32.5t-23.5 -24.5l-370 -250q-20 -12 -32.5 -9t-25.5 25l-67 98q-13 21 -10 32.5t24 25.5l371 248q21 13 32 9.5t25 -24.5zM547 -18q-223 0 -336 140.5t-113 385.5v520q0 245 113 385.5t336 140.5q221 0 334.5 -140.5t113.5 -385.5v-520
q0 -245 -113.5 -385.5t-334.5 -140.5zM547 254q151 0 151 254v520q0 254 -151 254q-154 0 -154 -254v-520q0 -254 154 -254z" />
    <glyph glyph-name="Ocircumflex" unicode="&#xd4;" 
d="M879 1792q18 -15 18 -28t-18 -31l-74 -74q-30 -30 -60 0l-198 182l-197 -182q-18 -16 -30.5 -16.5t-30.5 16.5l-74 74q-32 32 0 59l301 276q31 28 62 0zM547 -18q-223 0 -336 140.5t-113 385.5v520q0 245 113 385.5t336 140.5q221 0 334.5 -140.5t113.5 -385.5v-520
q0 -245 -113.5 -385.5t-334.5 -140.5zM547 254q151 0 151 254v520q0 254 -151 254q-154 0 -154 -254v-520q0 -254 154 -254z" />
    <glyph glyph-name="Otilde" unicode="&#xd5;" 
d="M834 1819q25 -17 10 -43q-67 -115 -187 -115q-24 0 -45.5 7t-48.5 19.5t-45 18.5q-69 26 -112 -29q-21 -26 -44 -10l-100 64q-24 19 -10 43q69 114 188 114q24 0 45 -7t48 -19.5t45 -18.5q69 -26 114 29q17 25 43 10zM547 -18q-223 0 -336 140.5t-113 385.5v520
q0 245 113 385.5t336 140.5q221 0 334.5 -140.5t113.5 -385.5v-520q0 -245 -113.5 -385.5t-334.5 -140.5zM547 254q151 0 151 254v520q0 254 -151 254q-154 0 -154 -254v-520q0 -254 154 -254z" />
    <glyph glyph-name="Odieresis" unicode="&#xd6;" 
d="M367 1661q-63 0 -107.5 44t-44.5 107q0 62 44.5 106t107.5 44q61 0 105 -44t44 -106q0 -63 -43.5 -107t-105.5 -44zM727 1661q-62 0 -105.5 44t-43.5 107q0 62 44 106t105 44q63 0 107.5 -44t44.5 -106q0 -63 -44.5 -107t-107.5 -44zM547 -18q-223 0 -336 140.5
t-113 385.5v520q0 245 113 385.5t336 140.5q221 0 334.5 -140.5t113.5 -385.5v-520q0 -245 -113.5 -385.5t-334.5 -140.5zM547 254q151 0 151 254v520q0 254 -151 254q-154 0 -154 -254v-520q0 -254 154 -254z" />
    <glyph glyph-name="multiply" unicode="&#xd7;" horiz-adv-x="989" 
d="M721 1112q17 17 30.5 17t30.5 -17l88 -86q15 -17 15 -30.5t-15 -30.5l-200 -201q-17 -15 -17 -26.5t17 -28.5l200 -199q15 -17 15 -30.5t-15 -30.5l-88 -87q-17 -17 -30.5 -17t-30.5 17l-199 199q-17 15 -27.5 15t-27.5 -15l-201 -199q-28 -33 -61 0l-88 87
q-15 17 -15 30.5t15 30.5l202 199q15 17 15 28.5t-15 26.5l-200 199q-15 17 -15 30.5t15 30.5l88 86q17 17 30.5 17t30.5 -17l199 -197q17 -17 27.5 -17t27.5 17z" />
    <glyph glyph-name="Oslash" unicode="&#xd8;" 
d="M1024 1538q17 0 25 -10.5t0 -32.5l-103 -186q49 -119 49 -281v-520q0 -245 -113.5 -385.5t-334.5 -140.5q-174 0 -285 88l-14 -27q-12 -24 -24.5 -33.5t-35.5 -9.5h-112q-17 0 -26 10.5t1 32.5l99 180q-52 116 -52 285v520q0 245 113 385.5t336 140.5q175 0 287 -92
l18 33q13 24 25 33.5t34 9.5h113zM393 1028v-364l285 516q-37 102 -131 102q-154 0 -154 -254zM698 508v352l-280 -510q37 -96 129 -96q151 0 151 254z" />
    <glyph glyph-name="Ugrave" unicode="&#xd9;" 
d="M305 1976q-20 14 -22.5 25t10.5 33l65 98q14 21 25.5 24t32.5 -10l372 -248q21 -14 24.5 -25t-9.5 -32l-68 -98q-15 -22 -26.5 -25.5t-30.5 8.5zM952 1536q23 0 33 -10t10 -33v-764v-221q0 -245 -113.5 -385.5t-334.5 -140.5q-223 0 -336 140.5t-113 385.5v350v635
q0 23 10 33t33 10h209q23 0 33 -10t10 -33v-752v-233q0 -254 154 -254q151 0 151 254v352v633q0 23 10 33t33 10h211z" />
    <glyph glyph-name="Uacute" unicode="&#xda;" 
d="M358 1669l-67 98q-13 21 -10 32.5t24 25.5l371 248q21 13 32 9.5t25 -24.5l66 -98q13 -22 10.5 -32.5t-23.5 -24.5l-370 -250q-20 -12 -32.5 -9t-25.5 25zM952 1536q23 0 33 -10t10 -33v-764v-221q0 -245 -113.5 -385.5t-334.5 -140.5q-223 0 -336 140.5t-113 385.5v350
v635q0 23 10 33t33 10h209q23 0 33 -10t10 -33v-752v-233q0 -254 154 -254q151 0 151 254v352v633q0 23 10 33t33 10h211z" />
    <glyph glyph-name="Ucircumflex" unicode="&#xdb;" 
d="M289 1659l-74 74q-32 32 0 59l301 276q31 28 62 0l301 -276q18 -15 18 -28t-18 -31l-74 -74q-30 -30 -60 0l-198 182l-197 -182q-18 -16 -30.5 -16.5t-30.5 16.5zM952 1536q23 0 33 -10t10 -33v-764v-221q0 -245 -113.5 -385.5t-334.5 -140.5q-223 0 -336 140.5
t-113 385.5v350v635q0 23 10 33t33 10h209q23 0 33 -10t10 -33v-752v-233q0 -254 154 -254q151 0 151 254v352v633q0 23 10 33t33 10h211z" />
    <glyph glyph-name="Udieresis" unicode="&#xdc;" 
d="M367 1661q-63 0 -107.5 44t-44.5 107q0 62 44.5 106t107.5 44q61 0 105 -44t44 -106q0 -63 -43.5 -107t-105.5 -44zM727 1661q-62 0 -105.5 44t-43.5 107q0 62 44 106t105 44q63 0 107.5 -44t44.5 -106q0 -63 -44.5 -107t-107.5 -44zM952 1536q23 0 33 -10t10 -33v-764
v-221q0 -245 -113.5 -385.5t-334.5 -140.5q-223 0 -336 140.5t-113 385.5v350v635q0 23 10 33t33 10h209q23 0 33 -10t10 -33v-752v-233q0 -254 154 -254q151 0 151 254v352v633q0 23 10 33t33 10h211z" />
    <glyph glyph-name="Yacute" unicode="&#xdd;" horiz-adv-x="1056" 
d="M782 1960q13 -22 10.5 -32.5t-22.5 -24.5l-371 -250q-20 -12 -32 -9t-25 25l-68 98q-13 21 -9.5 32.5t24.5 25.5l370 248q21 13 32.5 9.5t25.5 -24.5zM969 1536q39 0 24 -41l-315 -889v-563q0 -23 -10 -33t-33 -10h-211q-23 0 -33 10t-10 33v563l-315 889q-15 41 24 41
h219q40 0 53 -41l156 -483q3 -9 12.5 -9t12.5 9l155 483q11 41 54 41h217z" />
    <glyph glyph-name="Thorn" unicode="&#xde;" horiz-adv-x="1011" 
d="M516 1292q110 0 195 -39t136 -108t77 -158t26 -194v-66q0 -105 -25.5 -193.5t-77 -157.5t-136.5 -108t-195 -39h-74q-23 0 -31 -8t-8 -31v-147q0 -23 -10 -33t-33 -10h-208q-23 0 -33 10t-10 33v1450q0 23 10 33t33 10h208q23 0 33 -10t10 -33v-162q0 -23 8 -31t31 -8h74
zM653 745v29q0 254 -151 254h-60q-23 0 -31 -8t-8 -31v-459q0 -23 8 -30.5t31 -7.5h60q151 0 151 253z" />
    <glyph glyph-name="germandbls" unicode="&#xdf;" horiz-adv-x="1054" 
d="M786 809q-5 -46 10.5 -92.5t42.5 -87.5t55 -82.5t50.5 -93.5t26.5 -105q12 -144 -107.5 -240t-335.5 -137q-22 -3 -31 8t-12 35l-32 160q-4 22 3 33.5t29 17.5q96 25 149.5 65.5t49.5 96.5q-2 29 -22.5 64.5t-47 70.5t-52 73.5t-41.5 87.5t-13 99q3 56 35.5 123.5t63 135
t30.5 126.5q0 68 -34 104t-89 36q-141 0 -141 -256v-1008q0 -23 -10 -33t-33 -10h-193q-23 0 -33 10t-10 33v1075q0 92 24 167.5t63.5 124.5t92.5 82t109.5 47.5t116.5 14.5q57 0 112.5 -12.5t108.5 -40.5t93 -68.5t64.5 -100t24.5 -130.5q0 -73 -27 -148.5t-56.5 -140.5
t-33.5 -104z" />
    <glyph glyph-name="agrave" unicode="&#xe0;" horiz-adv-x="966" 
d="M692 1440q33 -29 0 -62l-98 -98q-31 -31 -62 0l-276 258q-17 18 -16.5 29.5t16.5 29.5l98 103q17 17 31 17t31 -17zM444 -14q-91 -18 -173.5 15t-136.5 118t-54 205q0 64 16 116.5t42 90t66 66.5t81 47.5t95.5 31.5t100.5 19.5t103 11.5v69q0 58 -32 89.5t-79 31.5
q-44 0 -71 -25.5t-35 -70.5q-5 -27 -35 -27h-178q-27 0 -27 37q1 83 32.5 146.5t84 100t115 54.5t133.5 18q57 0 109 -13.5t100.5 -44t83.5 -75.5t56 -114t21 -154v-473q0 -112 21 -215q8 -41 -41 -41h-183q-23 0 -32 13.5t-15 58.5q-63 -66 -168 -86zM473 229q46 2 78.5 38
t32.5 106v174q-115 -15 -172 -56.5t-54 -134.5q3 -63 36.5 -96.5t78.5 -30.5z" />
    <glyph glyph-name="aacute" unicode="&#xe1;" horiz-adv-x="966" 
d="M254 1440l278 260q17 17 31 17t31 -17l96 -103q17 -17 17 -29.5t-17 -29.5l-274 -258q-31 -31 -62 0l-100 98q-31 31 0 62zM444 -14q-91 -18 -173.5 15t-136.5 118t-54 205q0 64 16 116.5t42 90t66 66.5t81 47.5t95.5 31.5t100.5 19.5t103 11.5v69q0 58 -32 89.5
t-79 31.5q-44 0 -71 -25.5t-35 -70.5q-5 -27 -35 -27h-178q-27 0 -27 37q1 83 32.5 146.5t84 100t115 54.5t133.5 18q57 0 109 -13.5t100.5 -44t83.5 -75.5t56 -114t21 -154v-473q0 -112 21 -215q8 -41 -41 -41h-183q-23 0 -32 13.5t-15 58.5q-63 -66 -168 -86zM473 229
q46 2 78.5 38t32.5 106v174q-115 -15 -172 -56.5t-54 -134.5q3 -63 36.5 -96.5t78.5 -30.5z" />
    <glyph glyph-name="acircumflex" unicode="&#xe2;" horiz-adv-x="966" 
d="M809 1413q32 -27 0 -59l-74 -74q-18 -17 -30.5 -16.5t-30.5 16.5l-197 182l-198 -182q-30 -30 -60 0l-74 74q-18 18 -18 31t18 28l301 277q29 29 62 0zM444 -14q-91 -18 -173.5 15t-136.5 118t-54 205q0 64 16 116.5t42 90t66 66.5t81 47.5t95.5 31.5t100.5 19.5
t103 11.5v69q0 58 -32 89.5t-79 31.5q-44 0 -71 -25.5t-35 -70.5q-5 -27 -35 -27h-178q-27 0 -27 37q1 83 32.5 146.5t84 100t115 54.5t133.5 18q57 0 109 -13.5t100.5 -44t83.5 -75.5t56 -114t21 -154v-473q0 -112 21 -215q8 -41 -41 -41h-183q-23 0 -32 13.5t-15 58.5
q-63 -66 -168 -86zM473 229q46 2 78.5 38t32.5 106v174q-115 -15 -172 -56.5t-54 -134.5q3 -63 36.5 -96.5t78.5 -30.5z" />
    <glyph glyph-name="atilde" unicode="&#xe3;" horiz-adv-x="966" 
d="M782 1520q26 -16 11 -43q-38 -72 -97 -110t-114 -36q-30 0 -57 7t-56.5 19.5t-44.5 16.5q-76 25 -117 -31q-18 -26 -43 -10l-110 64q-26 16 -11 43q39 72 97.5 109.5t115.5 37.5q30 -1 57 -8.5t55.5 -20t43.5 -16.5q77 -21 117 31q20 25 43 10zM444 -14
q-91 -18 -173.5 15t-136.5 118t-54 205q0 64 16 116.5t42 90t66 66.5t81 47.5t95.5 31.5t100.5 19.5t103 11.5v69q0 58 -32 89.5t-79 31.5q-44 0 -71 -25.5t-35 -70.5q-5 -27 -35 -27h-178q-27 0 -27 37q1 83 32.5 146.5t84 100t115 54.5t133.5 18q57 0 109 -13.5t100.5 -44
t83.5 -75.5t56 -114t21 -154v-473q0 -112 21 -215q8 -41 -41 -41h-183q-23 0 -32 13.5t-15 58.5q-63 -66 -168 -86zM473 229q46 2 78.5 38t32.5 106v174q-115 -15 -172 -56.5t-54 -134.5q3 -63 36.5 -96.5t78.5 -30.5z" />
    <glyph glyph-name="adieresis" unicode="&#xe4;" horiz-adv-x="966" 
d="M279 1307q-65 0 -110.5 45.5t-45.5 109.5q0 63 46 108.5t110 45.5q63 0 108 -45.5t45 -108.5q0 -64 -45 -109.5t-108 -45.5zM678 1307q-65 0 -110.5 45.5t-45.5 109.5q0 63 46 108.5t110 45.5t110 -45.5t46 -108.5q0 -64 -45.5 -109.5t-110.5 -45.5zM444 -14
q-91 -18 -173.5 15t-136.5 118t-54 205q0 64 16 116.5t42 90t66 66.5t81 47.5t95.5 31.5t100.5 19.5t103 11.5v69q0 58 -32 89.5t-79 31.5q-44 0 -71 -25.5t-35 -70.5q-5 -27 -35 -27h-178q-27 0 -27 37q1 83 32.5 146.5t84 100t115 54.5t133.5 18q57 0 109 -13.5t100.5 -44
t83.5 -75.5t56 -114t21 -154v-473q0 -112 21 -215q8 -41 -41 -41h-183q-23 0 -32 13.5t-15 58.5q-63 -66 -168 -86zM473 229q46 2 78.5 38t32.5 106v174q-115 -15 -172 -56.5t-54 -134.5q3 -63 36.5 -96.5t78.5 -30.5z" />
    <glyph glyph-name="aring" unicode="&#xe5;" horiz-adv-x="966" 
d="M477 1270q-100 0 -170.5 71t-70.5 172q0 100 70.5 171t170.5 71t171 -71t71 -171q0 -101 -71 -172t-171 -71zM477 1421q37 0 63.5 27t26.5 65q0 37 -27 65t-63 28q-38 0 -65 -28t-27 -65q0 -38 27 -65t65 -27zM444 -14q-91 -18 -173.5 15t-136.5 118t-54 205
q0 64 16 116.5t42 90t66 66.5t81 47.5t95.5 31.5t100.5 19.5t103 11.5v69q0 58 -32 89.5t-79 31.5q-44 0 -71 -25.5t-35 -70.5q-5 -27 -35 -27h-178q-27 0 -27 37q1 83 32.5 146.5t84 100t115 54.5t133.5 18q57 0 109 -13.5t100.5 -44t83.5 -75.5t56 -114t21 -154v-473
q0 -112 21 -215q8 -41 -41 -41h-183q-23 0 -32 13.5t-15 58.5q-63 -66 -168 -86zM473 229q46 2 78.5 38t32.5 106v174q-115 -15 -172 -56.5t-54 -134.5q3 -63 36.5 -96.5t78.5 -30.5z" />
    <glyph glyph-name="ae" unicode="&#xe6;" horiz-adv-x="1447" 
d="M983 1130q73 0 139 -24t122 -73.5t89 -136t33 -200.5v-34q0 -64 -8 -119q-3 -24 -12 -33.5t-31 -9.5h-432q-12 0 -16.5 -4.5t-4.5 -16.5v-108q0 -72 36 -107t85 -35q75 0 104 82q8 27 35 27h197q31 0 27 -37q-10 -89 -48.5 -154.5t-94 -99.5t-113 -49.5t-119.5 -15.5
q-203 0 -305 141q-90 -111 -222 -137q-91 -18 -173.5 15t-136.5 118t-54 205q0 64 16.5 117t42.5 90t67 66.5t82.5 47.5t95.5 31t99 19.5t101 11.5v34q0 72 -35.5 107t-83.5 35q-39 0 -66.5 -23t-38.5 -59q-8 -27 -34 -27h-183q-30 0 -26 37q10 90 46 155t88 99t108 49.5
t118 15.5q156 0 254 -88q104 88 252 88zM1102 709v30q0 73 -36 108.5t-83 35.5q-48 0 -84.5 -35.5t-36.5 -108.5v-30q0 -12 4.5 -16.5t16.5 -4.5h198q12 0 16.5 4.5t4.5 16.5zM584 373v174q-115 -15 -172 -56.5t-54 -134.5q3 -63 36.5 -96.5t78.5 -30.5q46 2 78.5 38
t32.5 106z" />
    <glyph glyph-name="ccedilla" unicode="&#xe7;" horiz-adv-x="913" 
d="M803 338q30 0 26 -37q-9 -75 -36 -133.5t-67 -94.5t-84.5 -56.5t-96.5 -28.5l-27 -76q56 26 109 17t94.5 -39t66.5 -81t25 -108q0 -107 -79 -179.5t-191 -72.5q-47 0 -115 27q-37 14 -25 49l39 94q7 19 17.5 23.5t27.5 -2.5q33 -11 56 -11q36 0 62 28t26 67
q0 38 -27.5 64t-64.5 26q-45 0 -78 -39q-22 -22 -51 -8l-72 32q-26 11 -16 39l53 152q-131 27 -211 131.5t-80 296.5v276q0 118 31.5 205t87 136t122 72t144.5 23q62 0 118 -15.5t108 -49.5t88 -99t46 -155q4 -37 -26 -37h-182q-27 0 -35 27q-11 36 -38.5 59t-66.5 23
q-48 0 -83.5 -35t-35.5 -107v-370q0 -72 35.5 -107t83.5 -35q39 0 66.5 23t38.5 59q8 27 35 27h182z" />
    <glyph glyph-name="egrave" unicode="&#xe8;" horiz-adv-x="940" 
d="M696 1440q33 -29 0 -62l-98 -98q-30 -30 -61 0l-277 258q-17 18 -16.5 29.5t16.5 29.5l98 103q17 17 31 17t31 -17zM477 1130q55 0 105.5 -12t101.5 -43t88.5 -78.5t60.5 -124.5t23 -176v-34q0 -44 -6 -105q-3 -24 -12 -33.5t-31 -9.5h-430q-12 0 -16.5 -4t-4.5 -16v-123
q0 -72 36.5 -107t84.5 -35q41 0 69.5 23t39.5 59q8 27 35 27h190q31 0 27 -37q-8 -72 -34 -129t-61.5 -92t-81.5 -57.5t-91 -31.5t-93 -9q-60 0 -113.5 14t-105.5 49t-90 88t-61 138t-23 192v188q0 107 23 191t61 137t90 88t105.5 49t113.5 14zM614 754q0 72 -40 107.5
t-89 35.5q-48 0 -88.5 -35.5t-40.5 -107.5v-31q0 -12 4.5 -16.5t16.5 -4.5h217q12 0 16 4.5t4 16.5v31z" />
    <glyph glyph-name="eacute" unicode="&#xe9;" horiz-adv-x="940" 
d="M258 1440l279 260q17 17 30.5 17t30.5 -17l96 -103q17 -17 17 -29.5t-17 -29.5l-274 -258q-31 -31 -62 0l-100 98q-31 31 0 62zM477 1130q55 0 105.5 -12t101.5 -43t88.5 -78.5t60.5 -124.5t23 -176v-34q0 -44 -6 -105q-3 -24 -12 -33.5t-31 -9.5h-430q-12 0 -16.5 -4
t-4.5 -16v-123q0 -72 36.5 -107t84.5 -35q41 0 69.5 23t39.5 59q8 27 35 27h190q31 0 27 -37q-8 -72 -34 -129t-61.5 -92t-81.5 -57.5t-91 -31.5t-93 -9q-60 0 -113.5 14t-105.5 49t-90 88t-61 138t-23 192v188q0 107 23 191t61 137t90 88t105.5 49t113.5 14zM614 754
q0 72 -40 107.5t-89 35.5q-48 0 -88.5 -35.5t-40.5 -107.5v-31q0 -12 4.5 -16.5t16.5 -4.5h217q12 0 16 4.5t4 16.5v31z" />
    <glyph glyph-name="ecircumflex" unicode="&#xea;" horiz-adv-x="940" 
d="M813 1413q32 -27 0 -59l-74 -74q-18 -17 -30.5 -16.5t-30.5 16.5l-197 182l-198 -182q-30 -30 -60 0l-73 74q-18 18 -18 31t18 28l301 277q29 29 61 0zM477 1130q55 0 105.5 -12t101.5 -43t88.5 -78.5t60.5 -124.5t23 -176v-34q0 -44 -6 -105q-3 -24 -12 -33.5t-31 -9.5
h-430q-12 0 -16.5 -4t-4.5 -16v-123q0 -72 36.5 -107t84.5 -35q41 0 69.5 23t39.5 59q8 27 35 27h190q31 0 27 -37q-8 -72 -34 -129t-61.5 -92t-81.5 -57.5t-91 -31.5t-93 -9q-60 0 -113.5 14t-105.5 49t-90 88t-61 138t-23 192v188q0 107 23 191t61 137t90 88t105.5 49
t113.5 14zM614 754q0 72 -40 107.5t-89 35.5q-48 0 -88.5 -35.5t-40.5 -107.5v-31q0 -12 4.5 -16.5t16.5 -4.5h217q12 0 16 4.5t4 16.5v31z" />
    <glyph glyph-name="edieresis" unicode="&#xeb;" horiz-adv-x="940" 
d="M283 1307q-65 0 -110.5 45.5t-45.5 109.5q0 63 46 108.5t110 45.5q63 0 108 -45.5t45 -108.5q0 -64 -45 -109.5t-108 -45.5zM682 1307q-65 0 -110.5 45.5t-45.5 109.5q0 63 46 108.5t110 45.5t110 -45.5t46 -108.5q0 -64 -45.5 -109.5t-110.5 -45.5zM477 1130
q55 0 105.5 -12t101.5 -43t88.5 -78.5t60.5 -124.5t23 -176v-34q0 -44 -6 -105q-3 -24 -12 -33.5t-31 -9.5h-430q-12 0 -16.5 -4t-4.5 -16v-123q0 -72 36.5 -107t84.5 -35q41 0 69.5 23t39.5 59q8 27 35 27h190q31 0 27 -37q-8 -72 -34 -129t-61.5 -92t-81.5 -57.5
t-91 -31.5t-93 -9q-60 0 -113.5 14t-105.5 49t-90 88t-61 138t-23 192v188q0 107 23 191t61 137t90 88t105.5 49t113.5 14zM614 754q0 72 -40 107.5t-89 35.5q-48 0 -88.5 -35.5t-40.5 -107.5v-31q0 -12 4.5 -16.5t16.5 -4.5h217q12 0 16 4.5t4 16.5v31z" />
    <glyph glyph-name="igrave" unicode="&#xec;" horiz-adv-x="464" 
d="M449 1440q33 -29 0 -62l-99 -98q-30 -30 -61 0l-277 258q-17 18 -16.5 29.5t16.5 29.5l99 103q17 17 30.5 17t30.5 -17zM330 1112q23 0 33 -10t10 -33v-1026q0 -23 -10 -33t-33 -10h-193q-23 0 -33 10t-10 33v1026q0 23 10 33t33 10h193z" />
    <glyph glyph-name="iacute" unicode="&#xed;" horiz-adv-x="464" 
d="M10 1440l279 260q17 17 30.5 17t30.5 -17l96 -103q17 -17 17 -29.5t-17 -29.5l-274 -258q-30 -30 -61 0l-101 98q-31 31 0 62zM330 1112q23 0 33 -10t10 -33v-1026q0 -23 -10 -33t-33 -10h-193q-23 0 -33 10t-10 33v1026q0 23 10 33t33 10h193z" />
    <glyph glyph-name="icircumflex" unicode="&#xee;" horiz-adv-x="464" 
d="M565 1413q32 -27 0 -59l-73 -74q-18 -17 -31 -16.5t-31 16.5l-197 182l-198 -182q-30 -30 -60 0l-73 74q-18 18 -18 31t18 28l301 277q29 29 61 0zM330 1112q23 0 33 -10t10 -33v-1026q0 -23 -10 -33t-33 -10h-193q-23 0 -33 10t-10 33v1026q0 23 10 33t33 10h193z" />
    <glyph glyph-name="idieresis" unicode="&#xef;" horiz-adv-x="464" 
d="M35 1307q-65 0 -110.5 45.5t-45.5 109.5q0 63 46 108.5t110 45.5q63 0 108 -45.5t45 -108.5q0 -64 -45 -109.5t-108 -45.5zM434 1307q-64 0 -109.5 45.5t-45.5 109.5q0 63 45.5 108.5t109.5 45.5t110 -45.5t46 -108.5q0 -64 -45.5 -109.5t-110.5 -45.5zM330 1112
q23 0 33 -10t10 -33v-1026q0 -23 -10 -33t-33 -10h-193q-23 0 -33 10t-10 33v1026q0 23 10 33t33 10h193z" />
    <glyph glyph-name="eth" unicode="&#xf0;" horiz-adv-x="991" 
d="M496 -18q-57 0 -112 14.5t-107.5 47.5t-91.5 82t-63 124.5t-24 167.5v205q0 88 22 157t57 111t80.5 68t90.5 34t90 4q109 -10 176 -86q0 119 -6.5 184t-29.5 115l-93 -86q-31 -30 -61 0l-98 101q-28 28 0 61l84 80q-46 18 -121 25q-24 3 -33.5 12t-9.5 31v133q0 23 10 33
t33 10q178 0 315 -64l86 82q32 30 62 0l98 -102q16 -19 17 -30t-17 -30l-68 -63q42 -62 63 -111t34.5 -144.5t13.5 -248.5v-481q0 -92 -23.5 -167.5t-62.5 -124.5t-91 -82t-107 -47.5t-113 -14.5zM496 229q48 0 83 35.5t35 108.5v235q0 73 -35 108.5t-83 35.5
q-47 0 -83 -35.5t-36 -108.5v-235q0 -73 36 -108.5t83 -35.5z" />
    <glyph glyph-name="ntilde" unicode="&#xf1;" horiz-adv-x="983" 
d="M158 1397q-26 16 -11 43q39 72 97.5 109.5t115.5 37.5q30 -1 57 -8.5t55.5 -20t43.5 -16.5q77 -21 117 31q20 25 43 10l110 -63q26 -16 11 -43q-38 -72 -97 -110t-114 -36q-30 0 -57 7t-56.5 19.5t-44.5 16.5q-76 25 -117 -31q-18 -26 -43 -10zM532 1124q91 19 172 -15.5
t133 -119t52 -201.5v-745q0 -23 -10 -33t-33 -10h-193q-23 0 -33 10t-10 33v696q0 73 -37 109.5t-84 34.5q-47 0 -81.5 -37t-34.5 -107v-696q0 -23 -10 -33t-33 -10h-193q-23 0 -33 10t-10 33v1026q0 23 10 33t33 10h144q22 0 32 -10.5t15 -34.5l16 -68q80 102 188 125z" />
    <glyph glyph-name="ograve" unicode="&#xf2;" horiz-adv-x="962" 
d="M696 1440q33 -29 0 -62l-98 -98q-30 -30 -61 0l-277 258q-17 18 -16.5 29.5t16.5 29.5l98 103q17 17 31 17t31 -17zM481 -18q-73 0 -140.5 24t-126.5 73.5t-94.5 137t-35.5 201.5v276q0 114 35.5 201.5t94.5 137t126.5 73.5t140.5 24q57 0 112 -14.5t107.5 -47.5
t91.5 -82t63 -124.5t24 -167.5v-276q0 -92 -24 -167.5t-63 -124.5t-91.5 -82t-107.5 -47.5t-112 -14.5zM600 739q0 73 -36 108.5t-83 35.5q-48 0 -83.5 -35.5t-35.5 -108.5v-366q0 -73 35.5 -108.5t83.5 -35.5q47 0 83 35.5t36 108.5v366z" />
    <glyph glyph-name="oacute" unicode="&#xf3;" horiz-adv-x="962" 
d="M258 1440l279 260q17 17 30.5 17t30.5 -17l96 -103q17 -17 17 -29.5t-17 -29.5l-274 -258q-31 -31 -62 0l-100 98q-31 31 0 62zM481 -18q-73 0 -140.5 24t-126.5 73.5t-94.5 137t-35.5 201.5v276q0 114 35.5 201.5t94.5 137t126.5 73.5t140.5 24q57 0 112 -14.5
t107.5 -47.5t91.5 -82t63 -124.5t24 -167.5v-276q0 -92 -24 -167.5t-63 -124.5t-91.5 -82t-107.5 -47.5t-112 -14.5zM600 739q0 73 -36 108.5t-83 35.5q-48 0 -83.5 -35.5t-35.5 -108.5v-366q0 -73 35.5 -108.5t83.5 -35.5q47 0 83 35.5t36 108.5v366z" />
    <glyph glyph-name="ocircumflex" unicode="&#xf4;" horiz-adv-x="962" 
d="M813 1413q32 -27 0 -59l-74 -74q-18 -17 -30.5 -16.5t-30.5 16.5l-197 182l-198 -182q-30 -30 -60 0l-73 74q-18 18 -18 31t18 28l301 277q29 29 61 0zM481 -18q-73 0 -140.5 24t-126.5 73.5t-94.5 137t-35.5 201.5v276q0 114 35.5 201.5t94.5 137t126.5 73.5t140.5 24
q57 0 112 -14.5t107.5 -47.5t91.5 -82t63 -124.5t24 -167.5v-276q0 -92 -24 -167.5t-63 -124.5t-91.5 -82t-107.5 -47.5t-112 -14.5zM600 739q0 73 -36 108.5t-83 35.5q-48 0 -83.5 -35.5t-35.5 -108.5v-366q0 -73 35.5 -108.5t83.5 -35.5q47 0 83 35.5t36 108.5v366z" />
    <glyph glyph-name="otilde" unicode="&#xf5;" horiz-adv-x="962" 
d="M786 1520q26 -16 11 -43q-38 -72 -97 -110t-114 -36q-30 0 -57 7t-56.5 19.5t-44.5 16.5q-76 25 -117 -31q-18 -26 -43 -10l-110 64q-26 16 -11 43q39 72 97.5 109.5t115.5 37.5q30 -1 57 -8.5t55.5 -20t43.5 -16.5q77 -21 117 31q20 25 43 10zM481 -18q-73 0 -140.5 24
t-126.5 73.5t-94.5 137t-35.5 201.5v276q0 114 35.5 201.5t94.5 137t126.5 73.5t140.5 24q57 0 112 -14.5t107.5 -47.5t91.5 -82t63 -124.5t24 -167.5v-276q0 -92 -24 -167.5t-63 -124.5t-91.5 -82t-107.5 -47.5t-112 -14.5zM600 739q0 73 -36 108.5t-83 35.5
q-48 0 -83.5 -35.5t-35.5 -108.5v-366q0 -73 35.5 -108.5t83.5 -35.5q47 0 83 35.5t36 108.5v366z" />
    <glyph glyph-name="odieresis" unicode="&#xf6;" horiz-adv-x="962" 
d="M283 1307q-65 0 -110.5 45.5t-45.5 109.5q0 63 46 108.5t110 45.5q63 0 108 -45.5t45 -108.5q0 -64 -45 -109.5t-108 -45.5zM682 1307q-65 0 -110.5 45.5t-45.5 109.5q0 63 46 108.5t110 45.5t110 -45.5t46 -108.5q0 -64 -45.5 -109.5t-110.5 -45.5zM481 -18
q-73 0 -140.5 24t-126.5 73.5t-94.5 137t-35.5 201.5v276q0 114 35.5 201.5t94.5 137t126.5 73.5t140.5 24q57 0 112 -14.5t107.5 -47.5t91.5 -82t63 -124.5t24 -167.5v-276q0 -92 -24 -167.5t-63 -124.5t-91.5 -82t-107.5 -47.5t-112 -14.5zM600 739q0 73 -36 108.5
t-83 35.5q-48 0 -83.5 -35.5t-35.5 -108.5v-366q0 -73 35.5 -108.5t83.5 -35.5q47 0 83 35.5t36 108.5v366z" />
    <glyph glyph-name="divide" unicode="&#xf7;" horiz-adv-x="1083" 
d="M543 985q-72 0 -122 49.5t-50 120.5t50 120.5t122 49.5q71 0 120.5 -49.5t49.5 -120.5t-49.5 -120.5t-120.5 -49.5zM967 844q23 0 33 -10t10 -33v-123q0 -23 -10 -33t-33 -10h-850q-23 0 -33 10t-10 33v123q0 23 10 33t33 10h850zM543 154q-72 0 -122 49.5t-50 120.5
t50 120.5t122 49.5q71 0 120.5 -50t49.5 -120t-49.5 -120t-120.5 -50z" />
    <glyph glyph-name="oslash" unicode="&#xf8;" horiz-adv-x="962" 
d="M918 1112q16 0 21.5 -12t-5.5 -31l-105 -143q50 -98 50 -232v-276q0 -92 -24 -167.5t-63 -124.5t-91.5 -82t-107.5 -47.5t-112 -14.5q-159 0 -266 96l-25 -35q-16 -24 -29.5 -33.5t-35.5 -9.5h-80q-16 0 -21.5 12t5.5 31l104 143q-49 96 -49 232v276q0 114 35.5 201.5
t94.5 137t126.5 73.5t140.5 24q160 0 267 -96l24 35q18 24 31.5 33.5t32.5 9.5h82zM362 739v-235l224 309q-14 36 -43 53t-62 17q-48 0 -83.5 -35.5t-35.5 -108.5zM600 373v235l-223 -309q14 -36 42.5 -53t61.5 -17q47 0 83 35.5t36 108.5z" />
    <glyph glyph-name="ugrave" unicode="&#xf9;" horiz-adv-x="983" 
d="M547 1280l-277 258q-17 18 -16.5 29.5t16.5 29.5l99 103q17 17 30.5 17t30.5 -17l277 -260q33 -29 0 -62l-99 -98q-30 -30 -61 0zM846 1112q23 0 33 -10t10 -33v-1026q0 -23 -10 -33t-33 -10h-144q-22 0 -32 10.5t-15 34.5l-16 68q-80 -102 -188 -125q-91 -19 -172 15.5
t-133 119t-52 201.5v745q0 23 10 33t33 10h193q23 0 33 -10t10 -33v-696q0 -73 37 -109.5t84 -34.5q47 0 81.5 37t34.5 107v696q0 23 10 33t33 10h193z" />
    <glyph glyph-name="uacute" unicode="&#xfa;" horiz-adv-x="983" 
d="M369 1280l-101 98q-31 31 0 62l279 260q17 17 30.5 17t30.5 -17l97 -103q17 -17 17 -29.5t-17 -29.5l-275 -258q-30 -30 -61 0zM846 1112q23 0 33 -10t10 -33v-1026q0 -23 -10 -33t-33 -10h-144q-22 0 -32 10.5t-15 34.5l-16 68q-80 -102 -188 -125q-91 -19 -172 15.5
t-133 119t-52 201.5v745q0 23 10 33t33 10h193q23 0 33 -10t10 -33v-696q0 -73 37 -109.5t84 -34.5q47 0 81.5 37t34.5 107v696q0 23 10 33t33 10h193z" />
    <glyph glyph-name="ucircumflex" unicode="&#xfb;" horiz-adv-x="983" 
d="M233 1280l-73 74q-18 18 -18 31t18 28l301 277q29 29 61 0l301 -277q32 -27 0 -59l-73 -74q-18 -17 -31 -16.5t-31 16.5l-196 182l-199 -182q-30 -30 -60 0zM846 1112q23 0 33 -10t10 -33v-1026q0 -23 -10 -33t-33 -10h-144q-22 0 -32 10.5t-15 34.5l-16 68
q-80 -102 -188 -125q-91 -19 -172 15.5t-133 119t-52 201.5v745q0 23 10 33t33 10h193q23 0 33 -10t10 -33v-696q0 -73 37 -109.5t84 -34.5q47 0 81.5 37t34.5 107v696q0 23 10 33t33 10h193z" />
    <glyph glyph-name="udieresis" unicode="&#xfc;" horiz-adv-x="983" 
d="M293 1307q-65 0 -110.5 45.5t-45.5 109.5q0 63 46 108.5t110 45.5q63 0 108 -45.5t45 -108.5q0 -64 -45 -109.5t-108 -45.5zM692 1307q-64 0 -109.5 45.5t-45.5 109.5q0 63 45.5 108.5t109.5 45.5t110 -45.5t46 -108.5q0 -64 -45.5 -109.5t-110.5 -45.5zM846 1112
q23 0 33 -10t10 -33v-1026q0 -23 -10 -33t-33 -10h-144q-22 0 -32 10.5t-15 34.5l-16 68q-80 -102 -188 -125q-91 -19 -172 15.5t-133 119t-52 201.5v745q0 23 10 33t33 10h193q23 0 33 -10t10 -33v-696q0 -73 37 -109.5t84 -34.5q47 0 81.5 37t34.5 107v696q0 23 10 33
t33 10h193z" />
    <glyph glyph-name="yacute" unicode="&#xfd;" horiz-adv-x="913" 
d="M231 1440l279 260q17 17 30.5 17t30.5 -17l97 -103q17 -17 17 -29.5t-17 -29.5l-275 -258q-31 -30 -61 0l-101 98q-31 31 0 62zM125 -442q-43 0 -43 43v163q0 23 9.5 32t33.5 11q31 3 51 7t44.5 14t41 29.5t25.5 48.5q30 94 33 129t-13 80l-299 956q-12 41 27 41h207
q38 0 47 -41l155 -584q3 -11 12.5 -11t12.5 11l154 584q12 41 47 41h207q38 0 26 -41l-411 -1298q-70 -215 -367 -215z" />
    <glyph glyph-name="thorn" unicode="&#xfe;" horiz-adv-x="972" 
d="M532 1124q91 19 172 -15.5t133 -119t52 -201.5v-233v-231q0 -117 -52 -201.5t-133 -119t-172 -15.5q-89 19 -159 92v-479q0 -23 -10 -33t-33 -10h-193q-23 0 -33 10t-10 33v1892q0 23 10 33t33 10h189q45 0 45 -45l2 -459q70 73 159 92zM610 739q0 73 -37 109.5t-84 34.5
q-47 0 -81.5 -37t-34.5 -107v-290v-76q0 -70 34.5 -107t81.5 -37q47 -2 84 34.5t37 109.5v366z" />
    <glyph glyph-name="ydieresis" unicode="&#xff;" horiz-adv-x="913" 
d="M256 1307q-65 0 -110.5 45.5t-45.5 109.5q0 63 46 108.5t110 45.5q63 0 108.5 -45.5t45.5 -108.5q0 -64 -45.5 -109.5t-108.5 -45.5zM655 1307q-65 0 -110 45.5t-45 109.5q0 63 45.5 108.5t109.5 45.5t110 -45.5t46 -108.5q0 -64 -45.5 -109.5t-110.5 -45.5zM125 -442
q-43 0 -43 43v163q0 23 9.5 32t33.5 11q31 3 51 7t44.5 14t41 29.5t25.5 48.5q30 94 33 129t-13 80l-299 956q-12 41 27 41h207q38 0 47 -41l155 -584q3 -11 12.5 -11t12.5 11l154 584q12 41 47 41h207q38 0 26 -41l-411 -1298q-70 -215 -367 -215z" />
    <glyph glyph-name="Amacron" unicode="&#x100;" horiz-adv-x="1067" 
d="M739 1878q23 0 33 -10t10 -33v-121q0 -23 -10 -33t-33 -10h-415q-23 0 -33 10t-10 33v121q0 23 10 33t33 10h415zM49 41l346 1454q6 25 18 33t38 8h165q26 0 38 -8t18 -33l346 -1454q11 -41 -31 -41h-215q-21 0 -32 8.5t-17 32.5l-39 176q-4 18 -12 23.5t-29 5.5h-219
q-21 0 -29 -5.5t-12 -23.5l-39 -176q-6 -24 -17 -32.5t-32 -8.5h-215q-42 0 -31 41zM438 530q-3 -10 2 -16t15 -6h159q8 0 13 6t4 16l-84 422q-3 10 -13 10t-12 -10z" />
    <glyph glyph-name="amacron" unicode="&#x101;" horiz-adv-x="966" 
d="M748 1393q0 -23 -10 -33t-33 -10h-457q-23 0 -33 10t-10 33v137q0 23 10 33t33 10h457q23 0 33 -10t10 -33v-137zM444 -14q-91 -18 -173.5 15t-136.5 118t-54 205q0 64 16 116.5t42 90t66 66.5t81 47.5t95.5 31.5t100.5 19.5t103 11.5v69q0 58 -32 89.5t-79 31.5
q-44 0 -71 -25.5t-35 -70.5q-5 -27 -35 -27h-178q-27 0 -27 37q1 83 32.5 146.5t84 100t115 54.5t133.5 18q57 0 109 -13.5t100.5 -44t83.5 -75.5t56 -114t21 -154v-473q0 -112 21 -215q8 -41 -41 -41h-183q-23 0 -32 13.5t-15 58.5q-63 -66 -168 -86zM473 229q46 2 78.5 38
t32.5 106v174q-115 -15 -172 -56.5t-54 -134.5q3 -63 36.5 -96.5t78.5 -30.5z" />
    <glyph glyph-name="Abreve" unicode="&#x102;" horiz-adv-x="1067" 
d="M858 1866q17 -18 16.5 -31t-16.5 -31q-132 -147 -326 -147q-189 0 -325 147q-16 18 -16.5 31t16.5 31l80 78q19 16 31.5 14t33.5 -19q40 -36 81 -57.5t99 -21.5q41 0 77.5 13.5t57 28t46.5 37.5q21 17 33.5 19t31.5 -14zM49 41l346 1454q6 25 18 33t38 8h165q26 0 38 -8
t18 -33l346 -1454q11 -41 -31 -41h-215q-21 0 -32 8.5t-17 32.5l-39 176q-4 18 -12 23.5t-29 5.5h-219q-21 0 -29 -5.5t-12 -23.5l-39 -176q-6 -24 -17 -32.5t-32 -8.5h-215q-42 0 -31 41zM438 530q-3 -10 2 -16t15 -6h159q8 0 13 6t4 16l-84 422q-3 10 -13 10t-12 -10z" />
    <glyph glyph-name="abreve" unicode="&#x103;" horiz-adv-x="966" 
d="M793 1520q17 -17 17 -31t-17 -31q-54 -54 -139.5 -93.5t-186.5 -39.5q-103 0 -187.5 39.5t-138.5 93.5q-17 17 -17 31t17 31l86 84q7 7 12.5 10t12.5 1t10 -3.5t13.5 -8.5t15.5 -10q47 -32 86 -48.5t90 -16.5q50 0 88.5 16t87.5 49q3 2 12 8.5t11.5 8t9.5 4.5t10.5 2
t9 -3.5t11.5 -8.5zM444 -14q-91 -18 -173.5 15t-136.5 118t-54 205q0 64 16 116.5t42 90t66 66.5t81 47.5t95.5 31.5t100.5 19.5t103 11.5v69q0 58 -32 89.5t-79 31.5q-44 0 -71 -25.5t-35 -70.5q-5 -27 -35 -27h-178q-27 0 -27 37q1 83 32.5 146.5t84 100t115 54.5
t133.5 18q57 0 109 -13.5t100.5 -44t83.5 -75.5t56 -114t21 -154v-473q0 -112 21 -215q8 -41 -41 -41h-183q-23 0 -32 13.5t-15 58.5q-63 -66 -168 -86zM473 229q46 2 78.5 38t32.5 106v174q-115 -15 -172 -56.5t-54 -134.5q3 -63 36.5 -96.5t78.5 -30.5z" />
    <glyph glyph-name="Aogonek" unicode="&#x104;" horiz-adv-x="1067" 
d="M1085 -334q12 -36 -24 -49q-75 -31 -149 -22.5t-133.5 41.5t-96.5 94.5t-37 134.5q0 109 74 190l-35 162q-4 18 -12 23.5t-29 5.5h-219q-21 0 -29 -5.5t-12 -23.5l-39 -176q-6 -24 -17 -32.5t-32 -8.5h-215q-42 0 -31 41l346 1454q6 25 18 33t38 8h165q26 0 38 -8t18 -33
l346 -1454q11 -41 -31 -41h-143q-13 -35 -15 -53q-8 -69 40 -114.5t132 -20.5q37 12 46 -21zM614 508q8 0 13 6t4 16l-84 422q-3 10 -13 10t-12 -10l-84 -422q-3 -10 2 -16t15 -6h159z" />
    <glyph glyph-name="aogonek" unicode="&#x105;" horiz-adv-x="966" 
d="M1028 -319q13 -36 -24 -50q-75 -31 -149 -22.5t-133.5 41.5t-96.5 94.5t-37 134.5t37 139q-7 11 -13 54q-63 -66 -168 -86q-91 -18 -173.5 15t-136.5 118t-54 205q0 64 16 116.5t42 90t66 66.5t81 47.5t95.5 31.5t100.5 19.5t103 11.5v69q0 58 -32 89.5t-79 31.5
q-44 0 -71 -25.5t-35 -70.5q-5 -27 -35 -27h-178q-27 0 -27 37q1 83 32.5 146.5t84 100t115 54.5t133.5 18q57 0 109 -13.5t100.5 -44t83.5 -75.5t56 -114t21 -154v-473q0 -112 21 -215q8 -41 -41 -41h-60q-8 -23 -10 -39q-8 -69 40 -114.5t132 -20.5q36 12 45 -21zM584 373
v174q-115 -15 -172 -56.5t-54 -134.5q3 -63 36.5 -96.5t78.5 -30.5q46 2 78.5 38t32.5 106z" />
    <glyph glyph-name="Cacute" unicode="&#x106;" horiz-adv-x="1075" 
d="M799 1960q13 -22 10.5 -32.5t-23.5 -24.5l-370 -250q-20 -12 -32.5 -9t-25.5 25l-67 98q-13 21 -10 32.5t24 25.5l371 248q21 13 32 9.5t25 -24.5zM547 -18q-223 0 -336 140.5t-113 385.5v520q0 245 113 385.5t336 140.5q104 0 186.5 -33t134.5 -90.5t79.5 -131.5
t29.5 -160q4 -37 -27 -37h-223q-17 0 -25.5 7t-9.5 24q-10 64 -45 106.5t-100 42.5q-154 0 -154 -254v-520q0 -254 154 -254q65 0 100 42.5t45 106.5q1 17 9.5 24t25.5 7h223q31 0 27 -37q-2 -86 -29.5 -160t-79.5 -131.5t-134.5 -90.5t-186.5 -33z" />
    <glyph glyph-name="cacute" unicode="&#x107;" horiz-adv-x="913" 
d="M246 1440l278 260q17 17 31 17t31 -17l96 -103q17 -17 17 -29.5t-17 -29.5l-274 -258q-31 -31 -62 0l-100 98q-31 31 0 62zM803 338q30 0 26 -37q-10 -90 -46 -155t-88 -99t-108 -49.5t-118 -15.5q-78 0 -144.5 23t-122 72t-87 136t-31.5 205v276q0 118 31.5 205t87 136
t122 72t144.5 23q62 0 118 -15.5t108 -49.5t88 -99t46 -155q4 -37 -26 -37h-182q-27 0 -35 27q-11 36 -38.5 59t-66.5 23q-48 0 -83.5 -35t-35.5 -107v-370q0 -72 35.5 -107t83.5 -35q39 0 66.5 23t38.5 59q8 27 35 27h182z" />
    <glyph glyph-name="Ccircumflex" unicode="&#x108;" horiz-adv-x="1075" 
d="M879 1792q18 -15 18 -28t-18 -31l-74 -74q-30 -30 -60 0l-198 182l-197 -182q-18 -16 -30.5 -16.5t-30.5 16.5l-74 74q-32 32 0 59l301 276q31 28 62 0zM547 -18q-223 0 -336 140.5t-113 385.5v520q0 245 113 385.5t336 140.5q104 0 186.5 -33t134.5 -90.5t79.5 -131.5
t29.5 -160q4 -37 -27 -37h-223q-17 0 -25.5 7t-9.5 24q-10 64 -45 106.5t-100 42.5q-154 0 -154 -254v-520q0 -254 154 -254q65 0 100 42.5t45 106.5q1 17 9.5 24t25.5 7h223q31 0 27 -37q-2 -86 -29.5 -160t-79.5 -131.5t-134.5 -90.5t-186.5 -33z" />
    <glyph glyph-name="ccircumflex" unicode="&#x109;" horiz-adv-x="913" 
d="M801 1413q32 -27 0 -59l-74 -74q-18 -17 -30.5 -16.5t-30.5 16.5l-197 182l-199 -182q-30 -30 -59 0l-74 74q-18 18 -18 31t18 28l301 277q29 29 62 0zM803 338q30 0 26 -37q-10 -90 -46 -155t-88 -99t-108 -49.5t-118 -15.5q-78 0 -144.5 23t-122 72t-87 136t-31.5 205
v276q0 118 31.5 205t87 136t122 72t144.5 23q62 0 118 -15.5t108 -49.5t88 -99t46 -155q4 -37 -26 -37h-182q-27 0 -35 27q-11 36 -38.5 59t-66.5 23q-48 0 -83.5 -35t-35.5 -107v-370q0 -72 35.5 -107t83.5 -35q39 0 66.5 23t38.5 59q8 27 35 27h182z" />
    <glyph glyph-name="Cdotaccent" unicode="&#x10a;" horiz-adv-x="1075" 
d="M547 1661q-62 0 -106 44t-44 107q0 62 44.5 106t105.5 44q63 0 107 -44t44 -106q0 -63 -44 -107t-107 -44zM547 -18q-223 0 -336 140.5t-113 385.5v520q0 245 113 385.5t336 140.5q104 0 186.5 -33t134.5 -90.5t79.5 -131.5t29.5 -160q4 -37 -27 -37h-223q-17 0 -25.5 7
t-9.5 24q-10 64 -45 106.5t-100 42.5q-154 0 -154 -254v-520q0 -254 154 -254q65 0 100 42.5t45 106.5q1 17 9.5 24t25.5 7h223q31 0 27 -37q-2 -86 -29.5 -160t-79.5 -131.5t-134.5 -90.5t-186.5 -33z" />
    <glyph glyph-name="cdotaccent" unicode="&#x10b;" horiz-adv-x="913" 
d="M469 1309q-70 0 -119 48.5t-49 117.5q0 68 49 115.5t119 47.5q68 0 116 -48t48 -115q0 -69 -48 -117.5t-116 -48.5zM803 338q30 0 26 -37q-10 -90 -46 -155t-88 -99t-108 -49.5t-118 -15.5q-78 0 -144.5 23t-122 72t-87 136t-31.5 205v276q0 118 31.5 205t87 136t122 72
t144.5 23q62 0 118 -15.5t108 -49.5t88 -99t46 -155q4 -37 -26 -37h-182q-27 0 -35 27q-11 36 -38.5 59t-66.5 23q-48 0 -83.5 -35t-35.5 -107v-370q0 -72 35.5 -107t83.5 -35q39 0 66.5 23t38.5 59q8 27 35 27h182z" />
    <glyph glyph-name="Ccaron" unicode="&#x10c;" horiz-adv-x="1075" 
d="M881 1935l-301 -276q-31 -31 -62 0l-301 276q-32 28 0 60l74 73q18 17 30.5 16.5t30.5 -16.5l197 -182l199 182q30 30 59 0l74 -73q18 -18 18 -31.5t-18 -28.5zM547 -18q-223 0 -336 140.5t-113 385.5v520q0 245 113 385.5t336 140.5q104 0 186.5 -33t134.5 -90.5
t79.5 -131.5t29.5 -160q4 -37 -27 -37h-223q-17 0 -25.5 7t-9.5 24q-10 64 -45 106.5t-100 42.5q-154 0 -154 -254v-520q0 -254 154 -254q65 0 100 42.5t45 106.5q1 17 9.5 24t25.5 7h223q31 0 27 -37q-2 -86 -29.5 -160t-79.5 -131.5t-134.5 -90.5t-186.5 -33z" />
    <glyph glyph-name="ccaron" unicode="&#x10d;" horiz-adv-x="913" 
d="M801 1554l-301 -276q-33 -29 -62 0l-301 276q-18 15 -18 28.5t18 31.5l74 74q29 30 59 0l199 -183l197 183q18 16 30.5 16.5t30.5 -16.5l74 -74q32 -32 0 -60zM803 338q30 0 26 -37q-10 -90 -46 -155t-88 -99t-108 -49.5t-118 -15.5q-78 0 -144.5 23t-122 72t-87 136
t-31.5 205v276q0 118 31.5 205t87 136t122 72t144.5 23q62 0 118 -15.5t108 -49.5t88 -99t46 -155q4 -37 -26 -37h-182q-27 0 -35 27q-11 36 -38.5 59t-66.5 23q-48 0 -83.5 -35t-35.5 -107v-370q0 -72 35.5 -107t83.5 -35q39 0 66.5 23t38.5 59q8 27 35 27h182z" />
    <glyph glyph-name="Dcaron" unicode="&#x10e;" horiz-adv-x="1105" 
d="M850 1935l-301 -276q-31 -31 -62 0l-301 276q-32 28 0 60l74 73q18 17 31 16.5t31 -16.5l196 -182l199 182q29 30 59 0l74 -73q18 -18 18 -31.5t-18 -28.5zM532 1536q240 0 358 -141t118 -394v-466q0 -253 -118 -394t-358 -141h-380q-23 0 -33 10t-10 33v1450q0 23 10 33
t33 10h380zM713 522v492q0 125 -43 192.5t-152 67.5h-76q-23 0 -31 -8t-8 -31v-934q0 -23 8 -31t31 -8h76q109 0 152 67.5t43 192.5z" />
    <glyph glyph-name="dcaron" unicode="&#x10f;" horiz-adv-x="1306" 
d="M1126 1554q71 0 120 -51t58 -133.5t-32 -187.5q-54 -128 -160 -221q-14 -12 -23.5 -13.5t-23.5 8.5l-53 45q-12 14 -11.5 21t9.5 20q66 98 79 129q19 46 1 72q-6 16 -26 32t-39.5 28.5t-35.5 38.5t-16 61q0 64 44 107.5t109 43.5zM836 1536q23 0 33 -10t10 -33v-1450
q0 -23 -10 -33t-33 -10h-144q-22 0 -32 10.5t-15 34.5l-12 55q-83 -94 -187 -114q-92 -17 -173.5 16t-135 117.5t-53.5 204.5v233v231q0 117 51.5 201.5t132.5 119t172 15.5t160 -92v461q0 23 10 33t33 10h193zM483 229q47 0 82 37t35 107v291v75q0 70 -35 107t-82 37
q-47 2 -84 -34.5t-37 -109.5v-184v-182q0 -73 37 -109.5t84 -34.5z" />
    <glyph glyph-name="Dcroat" unicode="&#x110;" horiz-adv-x="1140" 
d="M567 1536q241 0 358 -140.5t117 -394.5v-466q0 -254 -117 -394.5t-358 -140.5h-381q-23 0 -33 10t-10 33v651q0 23 -8 31t-31 8h-20q-23 0 -33 10t-10 33v109q0 23 10 33t33 10h20q23 0 31 8t8 31v526q0 23 10 33t33 10h381zM748 522v492q0 125 -43 192.5t-152 67.5h-76
q-23 0 -31 -8t-8 -31v-268q0 -23 8 -31t31 -8h92q23 0 33 -10t10 -33v-109q0 -23 -10 -33t-33 -10h-92q-23 0 -31 -8t-8 -31v-393q0 -23 8 -31t31 -8h76q109 0 152 67.5t43 192.5z" />
    <glyph glyph-name="dcroat" unicode="&#x111;" horiz-adv-x="1015" 
d="M952 1364q23 0 33 -10t10 -33v-8q0 -23 -10 -33t-33 -10h-39q-20 0 -27 -6.5t-7 -26.5v-1194q0 -23 -10 -33t-33 -10h-146q-22 0 -31 10t-14 35l-12 55q-83 -94 -187 -114q-92 -17 -173.5 16t-135 117.5t-53.5 204.5v233v231q0 117 51.5 201.5t132.5 119t172 15.5
t160 -92v205q0 20 -6.5 26.5t-26.5 6.5h-161q-23 0 -33.5 10t-10.5 33v8q0 23 10.5 33t33.5 10h161q20 0 26.5 6.5t6.5 26.5v96q0 23 10 33t33 10h193q23 0 33 -10t10 -33v-96q0 -20 7 -26.5t27 -6.5h39zM483 229q47 0 82 37t35 107v291v75q0 70 -35 107t-82 37
q-47 2 -84 -34.5t-37 -109.5v-184v-182q0 -73 37 -109.5t84 -34.5z" />
    <glyph glyph-name="Emacron" unicode="&#x112;" horiz-adv-x="878" 
d="M651 1878q23 0 33 -10t10 -33v-121q0 -23 -10 -33t-33 -10h-415q-23 0 -33 10t-10 33v121q0 23 10 33t33 10h415zM403 1235v-285q0 -23 8 -31t31 -8h295q23 0 33 -10t10 -33v-176q0 -23 -10 -33t-33 -10h-295q-23 0 -31 -8t-8 -31v-309q0 -23 8 -31t31 -8h295
q23 0 33 -10t10 -33v-176q0 -23 -10 -33t-33 -10h-585q-23 0 -33 10t-10 33v1450q0 23 10 33t33 10h585q23 0 33 -10t10 -33v-176q0 -23 -10 -33t-33 -10h-295q-23 0 -31 -8t-8 -31z" />
    <glyph glyph-name="emacron" unicode="&#x113;" horiz-adv-x="940" 
d="M752 1393q0 -23 -10 -33t-33 -10h-457q-23 0 -33 10t-10 33v137q0 23 10 33t33 10h457q23 0 33 -10t10 -33v-137zM477 1130q55 0 105.5 -12t101.5 -43t88.5 -78.5t60.5 -124.5t23 -176v-34q0 -44 -6 -105q-3 -24 -12 -33.5t-31 -9.5h-430q-12 0 -16.5 -4t-4.5 -16v-123
q0 -72 36.5 -107t84.5 -35q41 0 69.5 23t39.5 59q8 27 35 27h190q31 0 27 -37q-8 -72 -34 -129t-61.5 -92t-81.5 -57.5t-91 -31.5t-93 -9q-60 0 -113.5 14t-105.5 49t-90 88t-61 138t-23 192v188q0 107 23 191t61 137t90 88t105.5 49t113.5 14zM614 754q0 72 -40 107.5
t-89 35.5q-48 0 -88.5 -35.5t-40.5 -107.5v-31q0 -12 4.5 -16.5t16.5 -4.5h217q12 0 16 4.5t4 16.5v31z" />
    <glyph glyph-name="Ebreve" unicode="&#x114;" horiz-adv-x="878" 
d="M770 1866q17 -18 16.5 -31t-16.5 -31q-132 -147 -326 -147q-189 0 -325 147q-16 18 -16.5 31t16.5 31l80 78q19 16 31.5 14t33.5 -19q40 -36 81 -57.5t99 -21.5q41 0 77.5 13.5t57 28t46.5 37.5q21 17 33.5 19t31.5 -14zM403 1235v-285q0 -23 8 -31t31 -8h295
q23 0 33 -10t10 -33v-176q0 -23 -10 -33t-33 -10h-295q-23 0 -31 -8t-8 -31v-309q0 -23 8 -31t31 -8h295q23 0 33 -10t10 -33v-176q0 -23 -10 -33t-33 -10h-585q-23 0 -33 10t-10 33v1450q0 23 10 33t33 10h585q23 0 33 -10t10 -33v-176q0 -23 -10 -33t-33 -10h-295
q-23 0 -31 -8t-8 -31z" />
    <glyph glyph-name="ebreve" unicode="&#x115;" horiz-adv-x="940" 
d="M797 1520q17 -17 17 -31t-17 -31q-54 -54 -139.5 -93.5t-186.5 -39.5q-103 0 -187.5 39.5t-138.5 93.5q-17 17 -17 31t17 31l86 84q7 7 12.5 10t12.5 1t10 -3.5t13.5 -8.5t15.5 -10q47 -32 86 -48.5t90 -16.5q50 0 88.5 16t87.5 49q3 2 12 8.5t11.5 8t9.5 4.5t10.5 2
t9 -3.5t11.5 -8.5zM477 1130q55 0 105.5 -12t101.5 -43t88.5 -78.5t60.5 -124.5t23 -176v-34q0 -44 -6 -105q-3 -24 -12 -33.5t-31 -9.5h-430q-12 0 -16.5 -4t-4.5 -16v-123q0 -72 36.5 -107t84.5 -35q41 0 69.5 23t39.5 59q8 27 35 27h190q31 0 27 -37q-8 -72 -34 -129
t-61.5 -92t-81.5 -57.5t-91 -31.5t-93 -9q-60 0 -113.5 14t-105.5 49t-90 88t-61 138t-23 192v188q0 107 23 191t61 137t90 88t105.5 49t113.5 14zM614 754q0 72 -40 107.5t-89 35.5q-48 0 -88.5 -35.5t-40.5 -107.5v-31q0 -12 4.5 -16.5t16.5 -4.5h217q12 0 16 4.5t4 16.5
v31z" />
    <glyph glyph-name="Edotaccent" unicode="&#x116;" horiz-adv-x="878" 
d="M444 1661q-62 0 -105.5 44t-43.5 107q0 62 44 106t105 44q63 0 107.5 -44t44.5 -106q0 -63 -44.5 -107t-107.5 -44zM403 1235v-285q0 -23 8 -31t31 -8h295q23 0 33 -10t10 -33v-176q0 -23 -10 -33t-33 -10h-295q-23 0 -31 -8t-8 -31v-309q0 -23 8 -31t31 -8h295
q23 0 33 -10t10 -33v-176q0 -23 -10 -33t-33 -10h-585q-23 0 -33 10t-10 33v1450q0 23 10 33t33 10h585q23 0 33 -10t10 -33v-176q0 -23 -10 -33t-33 -10h-295q-23 0 -31 -8t-8 -31z" />
    <glyph glyph-name="edotaccent" unicode="&#x117;" horiz-adv-x="940" 
d="M481 1309q-70 0 -119 48.5t-49 117.5q0 68 49 115.5t119 47.5q68 0 116 -48t48 -115q0 -69 -48 -117.5t-116 -48.5zM477 1130q55 0 105.5 -12t101.5 -43t88.5 -78.5t60.5 -124.5t23 -176v-34q0 -44 -6 -105q-3 -24 -12 -33.5t-31 -9.5h-430q-12 0 -16.5 -4t-4.5 -16v-123
q0 -72 36.5 -107t84.5 -35q41 0 69.5 23t39.5 59q8 27 35 27h190q31 0 27 -37q-8 -72 -34 -129t-61.5 -92t-81.5 -57.5t-91 -31.5t-93 -9q-60 0 -113.5 14t-105.5 49t-90 88t-61 138t-23 192v188q0 107 23 191t61 137t90 88t105.5 49t113.5 14zM614 754q0 72 -40 107.5
t-89 35.5q-48 0 -88.5 -35.5t-40.5 -107.5v-31q0 -12 4.5 -16.5t16.5 -4.5h217q12 0 16 4.5t4 16.5v31z" />
    <glyph glyph-name="Eogonek" unicode="&#x118;" horiz-adv-x="878" 
d="M854 -317q13 -36 -25 -50q-75 -31 -149 -22.5t-133 41.5t-96 94.5t-37 134.5q0 59 26 119h-288q-23 0 -33 10t-10 33v1450q0 23 10 33t33 10h585q23 0 33 -10t10 -33v-176q0 -23 -10 -33t-33 -10h-295q-23 0 -31 -8t-8 -31v-285q0 -23 8 -31t31 -8h295q23 0 33 -10
t10 -33v-176q0 -23 -10 -33t-33 -10h-295q-23 0 -31 -8t-8 -31v-309q0 -23 8 -31t31 -8h295q23 0 33 -10t10 -33v-176q0 -23 -10 -33t-33 -10h-131q-4 -11 -8 -37q-8 -69 40 -114.5t132 -20.5q36 12 45 -21z" />
    <glyph glyph-name="eogonek" unicode="&#x119;" horiz-adv-x="940" 
d="M915 -338q12 -36 -24 -49q-75 -31 -149 -22.5t-133.5 41.5t-96.5 94.5t-37 134.5q0 59 27 121h-25q-60 0 -113.5 14t-105.5 49t-90 88t-61 138t-23 192v188q0 107 23 191t61 137t90 88t105.5 49t113.5 14q55 0 105.5 -12t101.5 -43t88.5 -78.5t60.5 -124.5t23 -176v-34
q0 -44 -6 -105q-3 -24 -12 -33.5t-31 -9.5h-430q-12 0 -16.5 -4t-4.5 -16v-123q0 -72 36.5 -107t84.5 -35q41 0 69.5 23t39.5 59q8 27 35 27h190q31 0 27 -37q-19 -178 -142 -258q-30 -53 -37 -100q-8 -69 40 -115t132 -21q38 12 46 -20zM356 754v-31q0 -12 4.5 -16.5
t16.5 -4.5h217q12 0 16 4.5t4 16.5v31q0 72 -40 107.5t-89 35.5q-48 0 -88.5 -35.5t-40.5 -107.5z" />
    <glyph glyph-name="Ecaron" unicode="&#x11a;" horiz-adv-x="878" 
d="M778 1935l-301 -276q-31 -31 -61 0l-301 276q-32 28 0 60l73 73q18 17 31 16.5t31 -16.5l196 -182l199 182q30 30 60 0l73 -73q18 -18 18 -31.5t-18 -28.5zM403 1235v-285q0 -23 8 -31t31 -8h295q23 0 33 -10t10 -33v-176q0 -23 -10 -33t-33 -10h-295q-23 0 -31 -8
t-8 -31v-309q0 -23 8 -31t31 -8h295q23 0 33 -10t10 -33v-176q0 -23 -10 -33t-33 -10h-585q-23 0 -33 10t-10 33v1450q0 23 10 33t33 10h585q23 0 33 -10t10 -33v-176q0 -23 -10 -33t-33 -10h-295q-23 0 -31 -8t-8 -31z" />
    <glyph glyph-name="ecaron" unicode="&#x11b;" horiz-adv-x="940" 
d="M813 1554l-301 -276q-32 -29 -61 0l-301 276q-18 15 -18 28.5t18 31.5l73 74q30 30 60 0l198 -183l197 183q18 16 30.5 16.5t30.5 -16.5l74 -74q32 -32 0 -60zM477 1130q55 0 105.5 -12t101.5 -43t88.5 -78.5t60.5 -124.5t23 -176v-34q0 -44 -6 -105q-3 -24 -12 -33.5
t-31 -9.5h-430q-12 0 -16.5 -4t-4.5 -16v-123q0 -72 36.5 -107t84.5 -35q41 0 69.5 23t39.5 59q8 27 35 27h190q31 0 27 -37q-8 -72 -34 -129t-61.5 -92t-81.5 -57.5t-91 -31.5t-93 -9q-60 0 -113.5 14t-105.5 49t-90 88t-61 138t-23 192v188q0 107 23 191t61 137t90 88
t105.5 49t113.5 14zM614 754q0 72 -40 107.5t-89 35.5q-48 0 -88.5 -35.5t-40.5 -107.5v-31q0 -12 4.5 -16.5t16.5 -4.5h217q12 0 16 4.5t4 16.5v31z" />
    <glyph glyph-name="Gcircumflex" unicode="&#x11c;" horiz-adv-x="1079" 
d="M879 1792q18 -15 18 -28t-18 -31l-74 -74q-30 -30 -60 0l-198 182l-197 -182q-18 -16 -30.5 -16.5t-30.5 16.5l-74 74q-32 32 0 59l301 276q31 28 62 0zM940 897q23 0 32 -9t9 -32v-434q0 -93 -27.5 -172.5t-80.5 -139.5t-136.5 -94t-189.5 -34q-223 0 -336 140.5
t-113 385.5v520q0 245 113 385.5t336 140.5q104 0 186.5 -33t134.5 -90.5t80.5 -131.5t30.5 -160q0 -18 -5 -27.5t-22 -9.5h-225q-32 0 -37 31q-9 64 -43.5 106.5t-99.5 42.5q-154 0 -154 -254v-520q0 -115 38.5 -184.5t119.5 -69.5q70 0 110.5 51t40.5 135v183
q0 25 -7.5 33t-32.5 8h-91q-23 0 -32 9t-9 32v151q0 23 9 32t32 9h369z" />
    <glyph glyph-name="gcircumflex" unicode="&#x11d;" horiz-adv-x="972" 
d="M233 1280l-73 74q-18 18 -18 31t18 28l301 277q29 29 61 0l301 -277q32 -27 0 -59l-73 -74q-18 -17 -31 -16.5t-31 16.5l-196 182l-199 -182q-30 -30 -60 0zM836 1112q23 0 33 -10t10 -33v-1094q0 -118 -31.5 -205t-87 -136t-122 -72t-144.5 -23q-49 0 -95.5 9t-94.5 32
t-85 58t-64.5 92t-35.5 129q-4 37 26 37h197q27 0 35 -27q11 -36 38 -59t66 -23q48 0 83.5 34.5t35.5 106.5v152q-69 -73 -160 -92t-172 15.5t-132.5 119t-51.5 201.5v233v231q0 120 53.5 204.5t135 117.5t173.5 16q104 -20 187 -114l12 55q5 25 14 35t31 10h146zM483 229
q47 0 82 37t35 107v291v75q0 70 -35 107t-82 37q-47 2 -84 -34.5t-37 -109.5v-184v-182q0 -73 37 -109.5t84 -34.5z" />
    <glyph glyph-name="Gbreve" unicode="&#x11e;" horiz-adv-x="1079" 
d="M872 1866q17 -18 16.5 -31t-16.5 -31q-132 -147 -325 -147q-190 0 -326 147q-16 18 -16.5 31t16.5 31l80 78q19 16 32 14t34 -19q40 -36 81 -57.5t99 -21.5q41 0 77.5 13.5t56.5 27.5t46 38q21 17 34 19t32 -14zM940 897q23 0 32 -9t9 -32v-434q0 -93 -27.5 -172.5
t-80.5 -139.5t-136.5 -94t-189.5 -34q-223 0 -336 140.5t-113 385.5v520q0 245 113 385.5t336 140.5q104 0 186.5 -33t134.5 -90.5t80.5 -131.5t30.5 -160q0 -18 -5 -27.5t-22 -9.5h-225q-32 0 -37 31q-9 64 -43.5 106.5t-99.5 42.5q-154 0 -154 -254v-520
q0 -115 38.5 -184.5t119.5 -69.5q70 0 110.5 51t40.5 135v183q0 25 -7.5 33t-32.5 8h-91q-23 0 -32 9t-9 32v151q0 23 9 32t32 9h369z" />
    <glyph glyph-name="gbreve" unicode="&#x11f;" horiz-adv-x="972" 
d="M481 1325q-102 0 -186 39t-139 94q-17 17 -17 31t17 31l86 84q7 7 12.5 10t12 1t10 -3.5t13.5 -8.5t15 -10q47 -32 86 -48.5t90 -16.5q50 0 88.5 16t87.5 49q3 2 12 8.5t11.5 8t9.5 4.5t10.5 2t9 -3.5t11.5 -8.5l86 -84q17 -17 17 -31t-17 -31q-54 -54 -139.5 -93.5
t-186.5 -39.5zM836 1112q23 0 33 -10t10 -33v-1094q0 -118 -31.5 -205t-87 -136t-122 -72t-144.5 -23q-49 0 -95.5 9t-94.5 32t-85 58t-64.5 92t-35.5 129q-4 37 26 37h197q27 0 35 -27q11 -36 38 -59t66 -23q48 0 83.5 34.5t35.5 106.5v152q-69 -73 -160 -92t-172 15.5
t-132.5 119t-51.5 201.5v233v231q0 120 53.5 204.5t135 117.5t173.5 16q104 -20 187 -114l12 55q5 25 14 35t31 10h146zM483 229q47 0 82 37t35 107v291v75q0 70 -35 107t-82 37q-47 2 -84 -34.5t-37 -109.5v-184v-182q0 -73 37 -109.5t84 -34.5z" />
    <glyph glyph-name="Gdotaccent" unicode="&#x120;" horiz-adv-x="1079" 
d="M547 1661q-62 0 -106 44t-44 107q0 62 44.5 106t105.5 44q63 0 107 -44t44 -106q0 -63 -44 -107t-107 -44zM940 897q23 0 32 -9t9 -32v-434q0 -93 -27.5 -172.5t-80.5 -139.5t-136.5 -94t-189.5 -34q-223 0 -336 140.5t-113 385.5v520q0 245 113 385.5t336 140.5
q104 0 186.5 -33t134.5 -90.5t80.5 -131.5t30.5 -160q0 -18 -5 -27.5t-22 -9.5h-225q-32 0 -37 31q-9 64 -43.5 106.5t-99.5 42.5q-154 0 -154 -254v-520q0 -115 38.5 -184.5t119.5 -69.5q70 0 110.5 51t40.5 135v183q0 25 -7.5 33t-32.5 8h-91q-23 0 -32 9t-9 32v151
q0 23 9 32t32 9h369z" />
    <glyph glyph-name="gdotaccent" unicode="&#x121;" horiz-adv-x="972" 
d="M492 1309q-70 0 -119 48.5t-49 117.5q0 68 49 115.5t119 47.5q68 0 115.5 -48t47.5 -115q0 -69 -47.5 -117.5t-115.5 -48.5zM836 1112q23 0 33 -10t10 -33v-1094q0 -118 -31.5 -205t-87 -136t-122 -72t-144.5 -23q-49 0 -95.5 9t-94.5 32t-85 58t-64.5 92t-35.5 129
q-4 37 26 37h197q27 0 35 -27q11 -36 38 -59t66 -23q48 0 83.5 34.5t35.5 106.5v152q-69 -73 -160 -92t-172 15.5t-132.5 119t-51.5 201.5v233v231q0 120 53.5 204.5t135 117.5t173.5 16q104 -20 187 -114l12 55q5 25 14 35t31 10h146zM483 229q47 0 82 37t35 107v291v75
q0 70 -35 107t-82 37q-47 2 -84 -34.5t-37 -109.5v-184v-182q0 -73 37 -109.5t84 -34.5z" />
    <glyph glyph-name="Gcommaaccent" unicode="&#x122;" horiz-adv-x="1079" 
d="M940 897q23 0 32 -9t9 -32v-434q0 -93 -27.5 -172.5t-80.5 -139.5t-136.5 -94t-189.5 -34q-223 0 -336 140.5t-113 385.5v520q0 245 113 385.5t336 140.5q104 0 186.5 -33t134.5 -90.5t80.5 -131.5t30.5 -160q0 -18 -5 -27.5t-22 -9.5h-225q-32 0 -37 31
q-9 64 -43.5 106.5t-99.5 42.5q-154 0 -154 -254v-520q0 -115 38.5 -184.5t119.5 -69.5q70 0 110.5 51t40.5 135v183q0 25 -7.5 33t-32.5 8h-91q-23 0 -32 9t-9 32v151q0 23 9 32t32 9h369zM487 -375q-7 16 -23 31.5t-30.5 25.5t-26.5 31t-14 49q-4 61 38 110t104 54
q55 2 99.5 -26.5t68.5 -91.5t-1 -162q-27 -122 -131 -238q-13 -15 -22 -17t-25 9l-65 47q-20 15 -2 39q33 49 40 75.5t-10 63.5z" />
    <glyph glyph-name="gcommaaccent" unicode="&#x123;" horiz-adv-x="972" 
d="M487 1284q-54 -3 -99 26t-69.5 92.5t0.5 162.5q26 119 132 237q12 14 22 16t25 -8l65 -47q20 -15 2 -39q-33 -49 -40 -75.5t10 -63.5q7 -16 23 -31.5t30.5 -26t27 -31.5t15.5 -48q5 -62 -38 -111.5t-106 -52.5zM836 1112q23 0 33 -10t10 -33v-1094q0 -118 -31.5 -205
t-87 -136t-122 -72t-144.5 -23q-49 0 -95.5 9t-94.5 32t-85 58t-64.5 92t-35.5 129q-4 37 26 37h197q27 0 35 -27q11 -36 38 -59t66 -23q48 0 83.5 34.5t35.5 106.5v152q-69 -73 -160 -92t-172 15.5t-132.5 119t-51.5 201.5v233v231q0 120 53.5 204.5t135 117.5t173.5 16
q104 -20 187 -114l12 55q5 25 14 35t31 10h146zM483 229q47 0 82 37t35 107v291v75q0 70 -35 107t-82 37q-47 2 -84 -34.5t-37 -109.5v-184v-182q0 -73 37 -109.5t84 -34.5z" />
    <glyph glyph-name="Hcircumflex" unicode="&#x124;" horiz-adv-x="1103" 
d="M885 1792q18 -15 18 -28t-18 -31l-74 -74q-18 -17 -30.5 -16.5t-28.5 16.5l-199 182l-197 -182q-18 -16 -30.5 -16.5t-30.5 16.5l-74 74q-32 32 0 59l301 276q31 28 62 0zM952 1536q23 0 33 -10t10 -33v-1450q0 -23 -10 -33t-33 -10h-209q-23 0 -33 10t-10 33v567
q0 23 -7.5 31t-30.5 8h-220q-23 0 -31 -8t-8 -31v-567q0 -23 -10 -33t-33 -10h-208q-23 0 -33 10t-10 33v1450q0 23 10 33t33 10h208q23 0 33 -10t10 -33v-543q0 -23 8 -31t31 -8h220q23 0 30.5 8t7.5 31v543q0 23 10 33t33 10h209z" />
    <glyph glyph-name="hcircumflex" unicode="&#x125;" horiz-adv-x="983" 
d="M430 1704l-197 182l-198 -182q-30 -30 -60 0l-73 74q-18 18 -18 31t18 28l301 277q29 29 61 0l301 -277q32 -27 0 -59l-73 -74q-18 -17 -31 -16.5t-31 16.5zM532 1124q91 19 172 -15.5t133 -119t52 -201.5v-745q0 -23 -10 -33t-33 -10h-193q-23 0 -33 10t-10 33v696
q0 73 -37 109.5t-84 34.5q-47 0 -81.5 -37t-34.5 -107v-696q0 -23 -10 -33t-33 -10h-193q-23 0 -33 10t-10 33v1450q0 23 10 33t33 10h193q23 0 33 -10t10 -33v-461q70 73 159 92z" />
    <glyph glyph-name="Hbar" unicode="&#x126;" horiz-adv-x="1173" 
d="M1090 1309q23 0 33 -10t10 -33v-80q0 -23 -10 -33t-33 -10h-21q-23 0 -31 -8t-8 -31v-1061q0 -23 -10 -33t-33 -10h-209q-23 0 -33 10t-10 33v567q0 23 -8 31t-31 8h-219q-23 0 -31 -8t-8 -31v-567q0 -23 -10 -33t-33 -10h-209q-23 0 -33 10t-10 33v1061q0 23 -8 31
t-31 8h-20q-23 0 -33 10t-10 33v80q0 23 10 33t33 10h20q23 0 31 8t8 31v145q0 23 10 33t33 10h209q23 0 33 -10t10 -33v-145q0 -23 8 -31t31 -8h219q23 0 31 8t8 31v145q0 23 10 33t33 10h209q23 0 33 -10t10 -33v-145q0 -23 8 -31t31 -8h21zM735 950v154q0 23 -8 31t-31 8
h-219q-23 0 -31 -8t-8 -31v-154q0 -23 8 -31t31 -8h219q23 0 31 8t8 31z" />
    <glyph glyph-name="hbar" unicode="&#x127;" horiz-adv-x="1026" 
d="M578 1124q91 19 172 -15.5t132.5 -119t51.5 -201.5v-745q0 -23 -10 -33t-33 -10h-193q-23 0 -33 10t-10 33v696q0 73 -36.5 109.5t-83.5 34.5q-47 0 -82 -37t-35 -107v-75h-2l2 -619q0 -45 -45 -45h-193q-23 0 -33 10t-10 33v1194q0 20 -6.5 26.5t-26.5 6.5h-41
q-23 0 -33 10t-10 33v8q0 23 10 33t33 10h41q20 0 26.5 6.5t6.5 26.5v96q0 23 10 33t33 10h193q23 0 33 -10t10 -33v-96q0 -20 7 -26.5t28 -6.5h159q23 0 33 -10t10 -33v-8q0 -23 -10 -33t-33 -10h-159q-21 0 -28 -6.5t-7 -26.5v-207q72 75 162 94z" />
    <glyph glyph-name="Itilde" unicode="&#x128;" horiz-adv-x="512" 
d="M543 1819q25 -17 10 -43q-67 -115 -186 -115q-24 0 -45.5 6.5t-49 19.5t-45.5 19q-69 26 -112 -29q-20 -25 -43 -10l-101 64q-24 19 -10 43q69 114 189 114q24 0 45 -7t47.5 -19.5t44.5 -18.5q69 -26 114 29q17 25 43 10zM109 43v1450q0 23 10 33t33 10h208q23 0 33 -10
t10 -33v-1450q0 -23 -10 -33t-33 -10h-208q-23 0 -33 10t-10 33z" />
    <glyph glyph-name="itilde" unicode="&#x129;" horiz-adv-x="464" 
d="M539 1520q25 -15 10 -43q-38 -72 -97 -110t-114 -36q-30 0 -57 7t-56.5 19.5t-44.5 16.5q-76 25 -117 -31q-18 -26 -43 -10l-110 64q-25 15 -10 43q39 72 97.5 109.5t115.5 37.5q30 -1 57 -8.5t55 -20t43 -16.5q77 -21 117 31q20 25 43 10zM330 1112q23 0 33 -10t10 -33
v-1026q0 -23 -10 -33t-33 -10h-193q-23 0 -33 10t-10 33v1026q0 23 10 33t33 10h193z" />
    <glyph glyph-name="Imacron" unicode="&#x12a;" horiz-adv-x="512" 
d="M463 1878q23 0 33 -10t10 -33v-121q0 -23 -10 -33t-33 -10h-416q-23 0 -33 10t-10 33v121q0 23 10 33t33 10h416zM109 43v1450q0 23 10 33t33 10h208q23 0 33 -10t10 -33v-1450q0 -23 -10 -33t-33 -10h-208q-23 0 -33 10t-10 33z" />
    <glyph glyph-name="imacron" unicode="&#x12b;" horiz-adv-x="464" 
d="M504 1393q0 -23 -10 -33t-33 -10h-457q-23 0 -33 10t-10 33v137q0 23 10 33t33 10h457q23 0 33 -10t10 -33v-137zM330 1112q23 0 33 -10t10 -33v-1026q0 -23 -10 -33t-33 -10h-193q-23 0 -33 10t-10 33v1026q0 23 10 33t33 10h193z" />
    <glyph glyph-name="Ibreve" unicode="&#x12c;" horiz-adv-x="512" 
d="M582 1866q17 -18 16.5 -31t-16.5 -31q-132 -147 -326 -147q-190 0 -326 147q-16 18 -16.5 31t16.5 31l80 78q19 16 32 14t34 -19q40 -36 81 -57.5t99 -21.5q41 0 77.5 13.5t56.5 27.5t46 38q21 17 34 19t32 -14zM109 43v1450q0 23 10 33t33 10h208q23 0 33 -10t10 -33
v-1450q0 -23 -10 -33t-33 -10h-208q-23 0 -33 10t-10 33z" />
    <glyph glyph-name="ibreve" unicode="&#x12d;" horiz-adv-x="464" 
d="M549 1520q17 -17 17 -31t-17 -31q-54 -54 -139.5 -93.5t-186.5 -39.5q-102 0 -186 39t-139 94q-17 17 -17 31t17 31l86 84q7 7 12.5 10t12 1t10 -3.5t13.5 -8.5t15 -10q47 -32 86 -48.5t90 -16.5q50 0 88.5 16t87.5 49q3 2 12 8.5t11.5 8t9.5 4.5t10.5 2t9 -3.5
t11.5 -8.5zM330 1112q23 0 33 -10t10 -33v-1026q0 -23 -10 -33t-33 -10h-193q-23 0 -33 10t-10 33v1026q0 23 10 33t33 10h193z" />
    <glyph glyph-name="Iogonek" unicode="&#x12e;" horiz-adv-x="512" 
d="M580 -317q13 -36 -25 -50q-75 -31 -149 -22.5t-133.5 41.5t-96.5 94.5t-37 134.5q0 57 27 119h-14q-23 0 -33 10t-10 33v1450q0 23 10 33t33 10h208q23 0 33 -10t10 -33v-1450q0 -23 -10 -33t-33 -10h-28q-4 -11 -8 -37q-8 -69 40 -114.5t132 -20.5q36 12 45 -21z" />
    <glyph glyph-name="iogonek" unicode="&#x12f;" horiz-adv-x="464" 
d="M233 1309q-70 0 -118.5 48.5t-48.5 117.5q0 68 48.5 115.5t118.5 47.5q68 0 116 -48t48 -115q0 -69 -48 -117.5t-116 -48.5zM545 -319q13 -36 -25 -50q-75 -31 -149 -22.5t-133.5 41.5t-96.5 94.5t-37 134.5q0 59 27 121q-20 1 -28.5 11t-8.5 32v1026q0 23 10 33t33 10
h193q23 0 33 -10t10 -33v-1026q0 -23 -10 -33t-33 -10h-31q-8 -23 -10 -39q-8 -69 40 -114.5t132 -20.5q36 12 45 -21z" />
    <glyph glyph-name="Idotaccent" unicode="&#x130;" horiz-adv-x="512" 
d="M256 1661q-62 0 -106 44t-44 107q0 62 44 106t106 44q63 0 107.5 -44t44.5 -106q0 -63 -44.5 -107t-107.5 -44zM109 43v1450q0 23 10 33t33 10h208q23 0 33 -10t10 -33v-1450q0 -23 -10 -33t-33 -10h-208q-23 0 -33 10t-10 33z" />
    <glyph glyph-name="dotlessi" unicode="&#x131;" horiz-adv-x="464" 
d="M330 1112q23 0 33 -10t10 -33v-1026q0 -23 -10 -33t-33 -10h-193q-23 0 -33 10t-10 33v1026q0 23 10 33t33 10h193z" />
    <glyph glyph-name="Jcircumflex" unicode="&#x134;" horiz-adv-x="663" 
d="M750 1792q18 -15 18 -28t-18 -31l-74 -74q-30 -30 -60 0l-198 182l-197 -182q-18 -16 -30.5 -16.5t-30.5 16.5l-74 74q-32 32 0 59l301 276q31 28 62 0zM104 0q-23 0 -33 10t-10 33v180q0 23 10 33t33 10h72q45 0 69.5 26t24.5 75v1126q0 24 9.5 33.5t33.5 9.5h209
q23 0 33 -10t10 -33v-1151q0 -156 -102 -249t-256 -93h-103z" />
    <glyph glyph-name="jcircumflex" unicode="&#x135;" horiz-adv-x="464" 
d="M565 1413q32 -27 0 -59l-73 -74q-18 -17 -31 -16.5t-31 16.5l-197 182l-198 -182q-30 -30 -60 0l-73 74q-18 18 -18 31t18 28l301 277q29 29 61 0zM-31 -193q125 0 125 130v1132q0 23 10 33t33 10h193q23 0 33 -10t10 -33v-1132q0 -198 -96 -288.5t-308 -90.5
q-23 0 -33 10t-10 33v163q0 23 10 33t33 10z" />
    <glyph glyph-name="Kcommaaccent" unicode="&#x136;" horiz-adv-x="1052" 
d="M715 831l303 -796q9 -35 -17 -35h-241q-38 0 -47 25l-217 557q-4 10 -14 10t-15 -10l-43 -95q-21 -43 -21 -75v-369q0 -23 -10 -33t-33 -10h-208q-23 0 -33 10t-10 33v1450q0 23 10 33t33 10h208q23 0 33 -10t10 -33v-553q0 -7 4.5 -10t10 -1.5t8.5 7.5l252 577
q10 23 49 23h240q31 0 14 -35l-266 -624q-9 -21 0 -46zM469 -375q-7 16 -23 31.5t-30.5 25.5t-26.5 31t-14 49q-5 62 37.5 111t103.5 53q55 2 100 -26.5t69 -91.5t-1 -162q-27 -122 -131 -238q-13 -15 -22 -17t-25 9l-66 47q-20 15 -2 39q23 34 32 53.5t11 43t-12 42.5z" />
    <glyph glyph-name="kcommaaccent" unicode="&#x137;" horiz-adv-x="909" 
d="M885 41q14 -41 -25 -41h-201q-40 0 -53 37l-135 303q-5 12 -16 12.5t-17 -12.5l-45 -96q-20 -45 -20 -74v-127q0 -24 -9.5 -33.5t-33.5 -9.5h-193q-23 0 -33 10t-10 33v958v492q0 23 10 33t33 10h193q23 0 33 -10t10 -33v-788q0 -14 11 -16t17 11l183 377q19 35 55 35
h199q20 0 27.5 -12t0.5 -27l-209 -444q-11 -20 0 -45zM471 -74q55 2 100 -26.5t69 -91.5t-1 -162q-27 -122 -131 -238q-13 -15 -22 -17t-25 9l-66 47q-20 15 -2 39q23 34 32 53.5t11 43t-12 42.5q-7 16 -23 31.5t-30.5 25.5t-26.5 31t-14 49q-5 62 37.5 111t103.5 53z" />
    <glyph glyph-name="Lacute" unicode="&#x139;" horiz-adv-x="800" 
d="M512 1960q13 -22 10.5 -32.5t-22.5 -24.5l-371 -250q-20 -12 -32 -9t-25 25l-68 98q-13 21 -10 32.5t24 25.5l371 248q21 13 32 9.5t25 -24.5zM705 262q23 0 33 -10t10 -33v-176q0 -23 -10 -33t-33 -10h-553q-23 0 -33 10t-10 33v1450q0 23 10 33t33 10h208q23 0 33 -10
t10 -33v-1192q0 -23 8 -31t31 -8h263z" />
    <glyph glyph-name="lacute" unicode="&#x13a;" horiz-adv-x="577" 
d="M10 1864l279 260q17 17 30.5 17t30.5 -17l96 -103q17 -17 17 -29.5t-17 -29.5l-274 -258q-30 -30 -61 0l-101 98q-31 31 0 62zM479 236q24 -3 33.5 -12t9.5 -31v-150q0 -23 -10 -33t-33 -10q-213 0 -299 86.5t-86 302.5v1104q0 23 10 33t33 10h193q23 0 33 -10t10 -33
v-1133q0 -116 106 -124z" />
    <glyph glyph-name="Lcommaaccent" unicode="&#x13b;" horiz-adv-x="800" 
d="M705 262q23 0 33 -10t10 -33v-176q0 -23 -10 -33t-33 -10h-553q-23 0 -33 10t-10 33v1450q0 23 10 33t33 10h208q23 0 33 -10t10 -33v-1192q0 -23 8 -31t31 -8h263zM367 -375q-7 16 -23.5 31.5t-30.5 25.5t-26.5 31t-14.5 49q-4 61 38 110t104 54q55 2 100 -26.5
t69 -91.5t-1 -162q-27 -122 -131 -238q-13 -15 -22.5 -17t-25.5 9l-65 47q-20 15 -2 39q23 34 32 53.5t11 43t-12 42.5z" />
    <glyph glyph-name="lcommaaccent" unicode="&#x13c;" horiz-adv-x="577" 
d="M479 236q24 -3 33.5 -12t9.5 -31v-150q0 -23 -10 -33t-33 -10q-213 0 -299 86.5t-86 302.5v1104q0 23 10 33t33 10h193q23 0 33 -10t10 -33v-1133q0 -116 106 -124zM264 -375q-7 16 -23 31.5t-30.5 25.5t-26.5 31t-14 49q-5 62 37.5 111t103.5 53q55 2 100 -26.5
t69 -91.5t-1 -162q-27 -122 -131 -238q-13 -15 -22 -17t-25 9l-65 47q-21 15 -3 39q23 34 32 53.5t11 43t-12 42.5z" />
    <glyph glyph-name="Lcaron" unicode="&#x13d;" horiz-adv-x="888" 
d="M672 1245q-6 17 -26 33t-39.5 28.5t-35.5 38.5t-16 62q2 63 47 106.5t109 42.5q67 -1 114.5 -48t58.5 -124.5t-26 -177.5q-26 -65 -70 -125.5t-92 -101.5q-14 -12 -23.5 -13t-23.5 11l-53 43q-19 19 0 41q18 26 27 39.5t22 34t18.5 33t10 27.5t4 27t-5.5 23zM705 262
q23 0 33 -10t10 -33v-176q0 -23 -10 -33t-33 -10h-553q-23 0 -33 10t-10 33v1450q0 23 10 33t33 10h208q23 0 33 -10t10 -33v-1192q0 -23 8 -31t31 -8h263z" />
    <glyph glyph-name="lcaron" unicode="&#x13e;" horiz-adv-x="577" 
d="M565 1978l-301 -276q-32 -29 -61 0l-301 276q-18 15 -18 28.5t18 31.5l73 73q30 30 60 0l198 -182l197 182q18 16 31 16.5t31 -16.5l73 -73q32 -32 0 -60zM479 236q24 -3 33.5 -12t9.5 -31v-150q0 -23 -10 -33t-33 -10q-213 0 -299 86.5t-86 302.5v1104q0 23 10 33t33 10
h193q23 0 33 -10t10 -33v-1133q0 -116 106 -124z" />
    <glyph glyph-name="Lslash" unicode="&#x141;" horiz-adv-x="858" 
d="M764 262q23 0 33 -10t10 -33v-176q0 -23 -10 -33t-33 -10h-553q-23 0 -33 10t-10 33v573l-43 -24q-20 -11 -32.5 -9t-22.5 19l-64 115q-17 32 19 53l143 82v641q0 23 10 33t33 10h209q23 0 33 -10t10 -33v-475l147 86q20 11 33.5 9.5t22.5 -19.5l65 -113q9 -19 5.5 -31
t-23.5 -22l-250 -142v-485q0 -23 8 -31t31 -8h262z" />
    <glyph glyph-name="lslash" unicode="&#x142;" horiz-adv-x="727" 
d="M694 1020q25 -32 -6 -57l-203 -177v-426q0 -116 107 -124q24 -3 33.5 -12t9.5 -31v-150q0 -23 -10 -33t-33 -10q-213 0 -299 86.5t-86 302.5v158l-51 -45q-35 -30 -60 2l-78 94q-26 29 7 57l182 158v680q0 23 10 33t33 10h192q23 0 33 -10t10 -33v-438l72 61
q19 15 32.5 15t26.5 -17z" />
    <glyph glyph-name="Nacute" unicode="&#x143;" horiz-adv-x="1136" 
d="M819 1960q13 -22 10.5 -32.5t-22.5 -24.5l-371 -250q-20 -12 -32 -9t-25 25l-68 98q-13 21 -9.5 32.5t24.5 25.5l370 248q21 13 32.5 9.5t25.5 -24.5zM987 1536q23 0 33 -10t10 -33v-1450q0 -23 -10 -33t-33 -10h-158q-25 0 -37.5 9.5t-23.5 33.5l-342 760
q-4 10 -13.5 9.5t-9.5 -11.5v-758q0 -23 -10 -33t-33 -10h-208q-23 0 -33 10t-10 33v1450q0 23 10 33t33 10h157q24 0 37.5 -9.5t22.5 -33.5l342 -760q5 -10 13.5 -9.5t8.5 11.5v758q0 23 10 33t33 10h211z" />
    <glyph glyph-name="nacute" unicode="&#x144;" horiz-adv-x="983" 
d="M358 1280l-100 98q-31 31 0 62l279 260q17 17 30.5 17t30.5 -17l96 -103q17 -17 17 -29.5t-17 -29.5l-274 -258q-31 -31 -62 0zM532 1124q91 19 172 -15.5t133 -119t52 -201.5v-745q0 -23 -10 -33t-33 -10h-193q-23 0 -33 10t-10 33v696q0 73 -37 109.5t-84 34.5
q-47 0 -81.5 -37t-34.5 -107v-696q0 -23 -10 -33t-33 -10h-193q-23 0 -33 10t-10 33v1026q0 23 10 33t33 10h144q22 0 32 -10.5t15 -34.5l16 -68q80 102 188 125z" />
    <glyph glyph-name="Ncommaaccent" unicode="&#x145;" horiz-adv-x="1136" 
d="M987 1536q23 0 33 -10t10 -33v-1450q0 -23 -10 -33t-33 -10h-158q-25 0 -37.5 9.5t-23.5 33.5l-342 760q-4 10 -13.5 9.5t-9.5 -11.5v-758q0 -23 -10 -33t-33 -10h-208q-23 0 -33 10t-10 33v1450q0 23 10 33t33 10h157q24 0 37.5 -9.5t22.5 -33.5l342 -760
q5 -10 13.5 -9.5t8.5 11.5v758q0 23 10 33t33 10h211zM528 -375q-7 16 -23 31.5t-30.5 25.5t-26.5 31t-14 49q-5 62 37.5 111t103.5 53q55 2 100 -26.5t69 -91.5t-1 -162q-27 -122 -131 -238q-13 -15 -22 -17t-25 9l-65 47q-20 15 -2 39q33 49 40 75.5t-10 63.5z" />
    <glyph glyph-name="ncommaaccent" unicode="&#x146;" horiz-adv-x="983" 
d="M532 1124q91 19 172 -15.5t133 -119t52 -201.5v-745q0 -23 -10 -33t-33 -10h-193q-23 0 -33 10t-10 33v696q0 73 -37 109.5t-84 34.5q-47 0 -81.5 -37t-34.5 -107v-696q0 -23 -10 -33t-33 -10h-193q-23 0 -33 10t-10 33v1026q0 23 10 33t33 10h144q22 0 32 -10.5
t15 -34.5l16 -68q80 102 188 125zM477 -74q55 2 100 -26.5t69 -91.5t-1 -162q-27 -122 -131 -238q-13 -15 -22 -17t-25 9l-66 47q-20 15 -2 39q23 34 32 53.5t11 43t-12 42.5q-7 16 -23 31.5t-30.5 25.5t-26.5 31t-14 49q-5 62 37.5 111t103.5 53z" />
    <glyph glyph-name="Ncaron" unicode="&#x147;" horiz-adv-x="1136" 
d="M901 1935l-301 -276q-30 -31 -61 0l-301 276q-32 28 0 60l73 73q18 17 31 16.5t31 -16.5l196 -182l199 182q30 30 59 0l74 -73q18 -18 18 -31.5t-18 -28.5zM987 1536q23 0 33 -10t10 -33v-1450q0 -23 -10 -33t-33 -10h-158q-25 0 -37.5 9.5t-23.5 33.5l-342 760
q-4 10 -13.5 9.5t-9.5 -11.5v-758q0 -23 -10 -33t-33 -10h-208q-23 0 -33 10t-10 33v1450q0 23 10 33t33 10h157q24 0 37.5 -9.5t22.5 -33.5l342 -760q5 -10 13.5 -9.5t8.5 11.5v758q0 23 10 33t33 10h211z" />
    <glyph glyph-name="ncaron" unicode="&#x148;" horiz-adv-x="983" 
d="M150 1554q-18 15 -18 28.5t18 31.5l73 74q30 30 60 0l198 -183l197 183q18 16 30.5 16.5t30.5 -16.5l74 -74q32 -32 0 -60l-301 -276q-32 -29 -61 0zM532 1124q91 19 172 -15.5t133 -119t52 -201.5v-745q0 -23 -10 -33t-33 -10h-193q-23 0 -33 10t-10 33v696
q0 73 -37 109.5t-84 34.5q-47 0 -81.5 -37t-34.5 -107v-696q0 -23 -10 -33t-33 -10h-193q-23 0 -33 10t-10 33v1026q0 23 10 33t33 10h144q22 0 32 -10.5t15 -34.5l16 -68q80 102 188 125z" />
    <glyph glyph-name="Eng" unicode="&#x14a;" horiz-adv-x="1126" 
d="M987 1536q23 0 33 -10t10 -33v-1450q0 -26 -12 -35v-90q0 -198 -96 -288.5t-308 -90.5q-23 0 -33 10t-10 33v166q0 22 9.5 31t33.5 12q60 4 85.5 35.5t25.5 93.5v219l-299 664q-4 10 -13.5 9.5t-9.5 -11.5v-758q0 -23 -10 -33t-33 -10h-208q-23 0 -33 10t-10 33v1450
q0 23 10 33t33 10h157q24 0 37.5 -9.5t22.5 -33.5l342 -760q5 -10 13.5 -9.5t8.5 11.5v758q0 23 10 33t33 10h211z" />
    <glyph glyph-name="eng" unicode="&#x14b;" horiz-adv-x="972" 
d="M532 1124q91 19 172 -15.5t133 -119t52 -201.5v-835q0 -198 -99.5 -291.5t-310.5 -93.5q-23 0 -33 10t-10 33v162q0 23 10 33t33 10q64 1 97.5 36.5t33.5 100.5v786q0 73 -37 109.5t-84 34.5q-47 0 -81.5 -37t-34.5 -107v-696q0 -23 -10 -33t-33 -10h-193q-23 0 -33 10
t-10 33v1026q0 23 10 33t33 10h144q22 0 32 -10.5t15 -34.5l16 -68q80 102 188 125z" />
    <glyph glyph-name="Omacron" unicode="&#x14c;" 
d="M754 1878q23 0 33 -10t10 -33v-121q0 -23 -10 -33t-33 -10h-416q-23 0 -33 10t-10 33v121q0 23 10 33t33 10h416zM547 -18q-223 0 -336 140.5t-113 385.5v520q0 245 113 385.5t336 140.5q221 0 334.5 -140.5t113.5 -385.5v-520q0 -245 -113.5 -385.5t-334.5 -140.5z
M547 254q151 0 151 254v520q0 254 -151 254q-154 0 -154 -254v-520q0 -254 154 -254z" />
    <glyph glyph-name="omacron" unicode="&#x14d;" horiz-adv-x="962" 
d="M752 1393q0 -23 -10 -33t-33 -10h-457q-23 0 -33 10t-10 33v137q0 23 10 33t33 10h457q23 0 33 -10t10 -33v-137zM481 -18q-73 0 -140.5 24t-126.5 73.5t-94.5 137t-35.5 201.5v276q0 114 35.5 201.5t94.5 137t126.5 73.5t140.5 24q57 0 112 -14.5t107.5 -47.5t91.5 -82
t63 -124.5t24 -167.5v-276q0 -92 -24 -167.5t-63 -124.5t-91.5 -82t-107.5 -47.5t-112 -14.5zM600 739q0 73 -36 108.5t-83 35.5q-48 0 -83.5 -35.5t-35.5 -108.5v-366q0 -73 35.5 -108.5t83.5 -35.5q47 0 83 35.5t36 108.5v366z" />
    <glyph glyph-name="Obreve" unicode="&#x14e;" 
d="M872 1866q17 -18 16.5 -31t-16.5 -31q-132 -147 -325 -147q-190 0 -326 147q-16 18 -16.5 31t16.5 31l80 78q19 16 32 14t34 -19q40 -36 81 -57.5t99 -21.5q41 0 77.5 13.5t56.5 27.5t46 38q21 17 34 19t32 -14zM547 -18q-223 0 -336 140.5t-113 385.5v520
q0 245 113 385.5t336 140.5q221 0 334.5 -140.5t113.5 -385.5v-520q0 -245 -113.5 -385.5t-334.5 -140.5zM547 254q151 0 151 254v520q0 254 -151 254q-154 0 -154 -254v-520q0 -254 154 -254z" />
    <glyph glyph-name="obreve" unicode="&#x14f;" horiz-adv-x="962" 
d="M797 1520q17 -17 17 -31t-17 -31q-54 -54 -139.5 -93.5t-186.5 -39.5q-103 0 -187.5 39.5t-138.5 93.5q-17 17 -17 31t17 31l86 84q7 7 12.5 10t12.5 1t10 -3.5t13.5 -8.5t15.5 -10q47 -32 86 -48.5t90 -16.5q50 0 88.5 16t87.5 49q3 2 12 8.5t11.5 8t9.5 4.5t10.5 2
t9 -3.5t11.5 -8.5zM481 -18q-73 0 -140.5 24t-126.5 73.5t-94.5 137t-35.5 201.5v276q0 114 35.5 201.5t94.5 137t126.5 73.5t140.5 24q57 0 112 -14.5t107.5 -47.5t91.5 -82t63 -124.5t24 -167.5v-276q0 -92 -24 -167.5t-63 -124.5t-91.5 -82t-107.5 -47.5t-112 -14.5z
M600 739q0 73 -36 108.5t-83 35.5q-48 0 -83.5 -35.5t-35.5 -108.5v-366q0 -73 35.5 -108.5t83.5 -35.5q47 0 83 35.5t36 108.5v366z" />
    <glyph glyph-name="Ohungarumlaut" unicode="&#x150;" 
d="M248 1659l-74 76q-17 17 -17 30.5t17 30.5l262 270q17 17 31 17t31 -17l73 -73q17 -17 17 -31t-17 -31l-262 -272q-17 -17 -30.5 -17t-30.5 17zM678 1659l-74 76q-17 17 -17 30.5t17 30.5l262 270q17 17 31 17t31 -17l73 -73q17 -17 17 -31t-17 -31l-262 -272
q-17 -17 -30.5 -17t-30.5 17zM547 -18q-223 0 -336 140.5t-113 385.5v520q0 245 113 385.5t336 140.5q221 0 334.5 -140.5t113.5 -385.5v-520q0 -245 -113.5 -385.5t-334.5 -140.5zM547 254q151 0 151 254v520q0 254 -151 254q-154 0 -154 -254v-520q0 -254 154 -254z" />
    <glyph glyph-name="ohungarumlaut" unicode="&#x151;" horiz-adv-x="962" 
d="M90 1440l277 260q33 33 61 0l98 -103q17 -17 17 -29.5t-17 -29.5l-274 -258q-31 -31 -62 0l-100 98q-31 31 0 62zM530 1440l277 260q17 17 30.5 17t30.5 -17l99 -103q16 -18 16.5 -29.5t-16.5 -29.5l-277 -258q-30 -30 -61 0l-99 98q-33 33 0 62zM481 -18
q-73 0 -140.5 24t-126.5 73.5t-94.5 137t-35.5 201.5v276q0 114 35.5 201.5t94.5 137t126.5 73.5t140.5 24q57 0 112 -14.5t107.5 -47.5t91.5 -82t63 -124.5t24 -167.5v-276q0 -92 -24 -167.5t-63 -124.5t-91.5 -82t-107.5 -47.5t-112 -14.5zM600 739q0 73 -36 108.5
t-83 35.5q-48 0 -83.5 -35.5t-35.5 -108.5v-366q0 -73 35.5 -108.5t83.5 -35.5q47 0 83 35.5t36 108.5v366z" />
    <glyph glyph-name="OE" unicode="&#x152;" horiz-adv-x="1468" 
d="M1034 1274q-23 0 -31 -8t-8 -31v-285q0 -23 8 -31t31 -8h293q23 0 33 -10t10 -33v-176q0 -23 -10 -33t-33 -10h-293q-23 0 -31 -8t-8 -31v-309q0 -23 8 -31t31 -8h293q23 0 33 -10t10 -33v-176q0 -23 -10 -33t-33 -10h-555q-23 0 -35 12l-12 4q-87 -34 -178 -34
q-223 0 -336 140.5t-113 385.5v520q0 245 113 385.5t336 140.5q91 0 178 -34l12 4q15 12 39 12h551q23 0 33 -10t10 -33v-176q0 -23 -10 -33t-33 -10h-293zM698 508v520q0 254 -151 254q-154 0 -154 -254v-520q0 -254 154 -254q151 0 151 254z" />
    <glyph glyph-name="oe" unicode="&#x153;" horiz-adv-x="1464" 
d="M997 1130q73 0 139 -24t122 -73.5t89 -136t33 -200.5v-34q0 -58 -6 -119q-3 -24 -12 -33.5t-31 -9.5h-432q-12 0 -16 -4.5t-4 -16.5v-108q0 -72 35.5 -107t82.5 -35q79 0 105 82q8 27 35 27h198q31 0 27 -37q-10 -89 -48.5 -154.5t-94 -99.5t-113 -49.5t-119.5 -15.5
q-154 0 -254 84q-105 -84 -252 -84q-73 0 -140.5 24t-126.5 73.5t-94.5 137t-35.5 201.5v276q0 114 35.5 201.5t94.5 137t126.5 73.5t140.5 24q149 0 258 -90q109 90 258 90zM600 373v321v45q0 73 -36 108.5t-83 35.5q-48 0 -83.5 -35.5t-35.5 -108.5v-366
q0 -73 35.5 -108.5t83.5 -35.5q47 0 83 35.5t36 108.5zM1118 709v30q0 73 -36.5 108.5t-84.5 35.5q-46 0 -82 -35.5t-36 -108.5v-30q0 -12 4 -16.5t16 -4.5h199q12 0 16 4.5t4 16.5z" />
    <glyph glyph-name="Racute" unicode="&#x154;" horiz-adv-x="1056" 
d="M305 1671l-67 98q-13 21 -10 32.5t24 25.5l371 248q21 13 32 9.5t25 -24.5l65 -98q13 -22 10.5 -32.5t-22.5 -24.5l-371 -250q-20 -12 -32 -9t-25 25zM1016 41q8 -19 2 -30t-23 -11h-229q-37 0 -49 29l-195 499h-80q-23 0 -31 -8t-8 -31v-446q0 -23 -10 -33t-33 -10h-208
q-23 0 -33 10t-10 33v1450q0 23 10 33t33 10h387q182 0 300.5 -128.5t118.5 -336.5v-78q0 -125 -45.5 -224.5t-126.5 -160.5zM403 844q0 -23 8 -31t31 -8h66q66 0 111 52t45 149v67q0 97 -45 149t-111 52h-66q-23 0 -31 -8t-8 -31v-391z" />
    <glyph glyph-name="racute" unicode="&#x155;" horiz-adv-x="677" 
d="M195 1280l-101 98q-31 31 0 62l279 260q17 17 30.5 17t30.5 -17l96 -103q17 -17 17 -29.5t-17 -29.5l-274 -258q-30 -30 -61 0zM600 1126q23 0 33 -10t10 -33v-184q0 -23 -10 -33t-33 -10q-104 0 -165.5 -55t-61.5 -170v-588q0 -23 -10 -33t-33 -10h-193q-23 0 -33 10
t-10 33v1026q0 23 10 33t33 10h144q22 0 32 -10.5t15 -34.5l14 -63q100 122 258 122z" />
    <glyph glyph-name="Rcommaaccent" unicode="&#x156;" horiz-adv-x="1056" 
d="M1016 41q8 -19 2 -30t-23 -11h-229q-37 0 -49 29l-195 499h-80q-23 0 -31 -8t-8 -31v-446q0 -23 -10 -33t-33 -10h-208q-23 0 -33 10t-10 33v1450q0 23 10 33t33 10h387q182 0 300.5 -128.5t118.5 -336.5v-78q0 -125 -45.5 -224.5t-126.5 -160.5zM403 844q0 -23 8 -31
t31 -8h66q66 0 111 52t45 149v67q0 97 -45 149t-111 52h-66q-23 0 -31 -8t-8 -31v-391zM537 -74q55 2 100 -26.5t69 -91.5t-1 -162q-27 -120 -132 -238q-13 -15 -22 -17t-25 9l-65 47q-20 15 -2 39q33 49 40 75.5t-10 63.5q-7 16 -23 31.5t-30.5 25.5t-26.5 31t-14 49
q-4 61 38 110t104 54z" />
    <glyph glyph-name="rcommaaccent" unicode="&#x157;" horiz-adv-x="677" 
d="M600 1126q23 0 33 -10t10 -33v-184q0 -23 -10 -33t-33 -10q-104 0 -165.5 -55t-61.5 -170v-588q0 -23 -10 -33t-33 -10h-193q-23 0 -33 10t-10 33v1026q0 23 10 33t33 10h144q22 0 32 -10.5t15 -34.5l14 -63q100 122 258 122zM221 -74q55 2 100 -26.5t69 -91.5t-1 -162
q-27 -122 -131 -238q-13 -15 -22 -17t-25 9l-66 47q-20 15 -2 39q23 34 32 53.5t11 43t-12 42.5q-7 16 -23 31.5t-30.5 25.5t-26.5 31t-14 49q-5 62 37.5 111t103.5 53z" />
    <glyph glyph-name="Rcaron" unicode="&#x158;" horiz-adv-x="1056" 
d="M164 1937q-32 28 0 60l74 74q18 17 30.5 16.5t30.5 -16.5l197 -183l198 183q30 30 60 0l73 -74q18 -18 18 -31.5t-18 -28.5l-301 -276q-30 -31 -61 0zM1016 41q8 -19 2 -30t-23 -11h-229q-37 0 -49 29l-195 499h-80q-23 0 -31 -8t-8 -31v-446q0 -23 -10 -33t-33 -10h-208
q-23 0 -33 10t-10 33v1450q0 23 10 33t33 10h387q182 0 300.5 -128.5t118.5 -336.5v-78q0 -125 -45.5 -224.5t-126.5 -160.5zM403 844q0 -23 8 -31t31 -8h66q66 0 111 52t45 149v67q0 97 -45 149t-111 52h-66q-23 0 -31 -8t-8 -31v-391z" />
    <glyph glyph-name="rcaron" unicode="&#x159;" horiz-adv-x="677" 
d="M649 1614q32 -32 0 -60l-301 -276q-32 -29 -61 0l-301 276q-18 15 -18 28.5t18 31.5l73 74q30 30 60 0l198 -183l197 183q18 16 30.5 16.5t30.5 -16.5zM600 1126q23 0 33 -10t10 -33v-184q0 -23 -10 -33t-33 -10q-104 0 -165.5 -55t-61.5 -170v-588q0 -23 -10 -33
t-33 -10h-193q-23 0 -33 10t-10 33v1026q0 23 10 33t33 10h144q22 0 32 -10.5t15 -34.5l14 -63q100 122 258 122z" />
    <glyph glyph-name="Sacute" unicode="&#x15a;" horiz-adv-x="1073" 
d="M772 1960q13 -22 10.5 -32.5t-22.5 -24.5l-371 -250q-20 -12 -32 -9t-25 25l-68 98q-13 21 -9.5 32.5t24.5 25.5l370 248q21 13 32.5 9.5t25.5 -24.5zM981 387q0 -81 -27.5 -149.5t-72.5 -115t-103.5 -78.5t-120 -47t-122.5 -15q-124 0 -224 51.5t-159 150t-60 226.5
q0 18 5 27t22 9h209q34 0 37 -30q7 -71 50 -128t122 -57q63 0 102.5 38t42.5 100q6 54 -22 106t-78 97.5t-111 93t-123.5 101t-114.5 111.5t-85 135t-33 161q0 166 110.5 273t294.5 107q129 0 221.5 -54.5t137.5 -143.5t47 -203q4 -37 -27 -37h-209q-17 0 -25.5 7t-9.5 24
q-27 156 -127 156q-57 0 -88.5 -39t-25.5 -93q6 -41 40.5 -86.5t85 -88.5t110 -91t117.5 -103.5t106.5 -115.5t78 -138t29.5 -161z" />
    <glyph glyph-name="sacute" unicode="&#x15b;" horiz-adv-x="851" 
d="M203 1440l278 260q17 17 31 17t31 -17l96 -103q17 -17 17 -29.5t-17 -29.5l-274 -258q-31 -31 -62 0l-100 98q-31 31 0 62zM432 -18q-150 0 -247 83.5t-117 235.5q-4 37 26 37h193q30 0 35 -27q26 -96 104 -96q38 0 64 22t26 60q2 33 -20 62t-59 52t-82 47t-91.5 55
t-85.5 67.5t-66 92t-32 122.5q-10 151 89 243t249 92q62 0 119.5 -18.5t107.5 -55.5t81 -100t32 -145q0 -37 -27 -37h-178q-30 0 -35 27q-7 39 -28 67t-60 29q-37 3 -60.5 -19.5t-25.5 -54.5q-1 -30 23.5 -58.5t65.5 -53t90 -51.5t98.5 -61t90 -74.5t65 -98.5t22.5 -127
q-3 -147 -108.5 -232t-258.5 -85z" />
    <glyph glyph-name="Scircumflex" unicode="&#x15c;" horiz-adv-x="1073" 
d="M852 1792q18 -15 18 -28t-18 -31l-74 -74q-18 -17 -30.5 -16.5t-28.5 16.5l-199 182l-196 -182q-18 -16 -31 -16.5t-31 16.5l-74 74q-32 32 0 59l301 276q31 28 62 0zM981 387q0 -81 -27.5 -149.5t-72.5 -115t-103.5 -78.5t-120 -47t-122.5 -15q-124 0 -224 51.5
t-159 150t-60 226.5q0 18 5 27t22 9h209q34 0 37 -30q7 -71 50 -128t122 -57q63 0 102.5 38t42.5 100q6 54 -22 106t-78 97.5t-111 93t-123.5 101t-114.5 111.5t-85 135t-33 161q0 166 110.5 273t294.5 107q129 0 221.5 -54.5t137.5 -143.5t47 -203q4 -37 -27 -37h-209
q-17 0 -25.5 7t-9.5 24q-27 156 -127 156q-57 0 -88.5 -39t-25.5 -93q6 -41 40.5 -86.5t85 -88.5t110 -91t117.5 -103.5t106.5 -115.5t78 -138t29.5 -161z" />
    <glyph glyph-name="scircumflex" unicode="&#x15d;" horiz-adv-x="851" 
d="M758 1413q32 -27 0 -59l-74 -74q-18 -17 -30.5 -16.5t-30.5 16.5l-197 182l-199 -182q-29 -30 -59 0l-74 74q-18 18 -18 31t18 28l301 277q29 29 62 0zM432 -18q-150 0 -247 83.5t-117 235.5q-4 37 26 37h193q30 0 35 -27q26 -96 104 -96q38 0 64 22t26 60q2 33 -20 62
t-59 52t-82 47t-91.5 55t-85.5 67.5t-66 92t-32 122.5q-10 151 89 243t249 92q62 0 119.5 -18.5t107.5 -55.5t81 -100t32 -145q0 -37 -27 -37h-178q-30 0 -35 27q-7 39 -28 67t-60 29q-37 3 -60.5 -19.5t-25.5 -54.5q-1 -30 23.5 -58.5t65.5 -53t90 -51.5t98.5 -61t90 -74.5
t65 -98.5t22.5 -127q-3 -147 -108.5 -232t-258.5 -85z" />
    <glyph glyph-name="Scedilla" unicode="&#x15e;" horiz-adv-x="1073" 
d="M584 -88q56 26 109 17t94.5 -39t66.5 -81t25 -108q0 -107 -79.5 -179.5t-191.5 -72.5q-46 0 -114 27q-37 14 -25 49l39 94q7 19 17.5 23.5t27.5 -2.5q33 -11 55 -11q36 0 62 28t26 67q0 38 -27.5 64t-64.5 26q-45 0 -78 -39q-22 -22 -51 -8l-72 32q-26 11 -16 39l53 152
q-154 28 -250.5 140.5t-97.5 279.5q0 18 5 27t22 9h209q34 0 37 -30q7 -71 50 -128t122 -57q63 0 102.5 38t42.5 100q6 54 -22 106t-78 97.5t-111 93t-123.5 101t-114.5 111.5t-85 135t-33 161q0 166 110.5 273t294.5 107q129 0 221.5 -54.5t137.5 -143.5t47 -203
q4 -37 -27 -37h-209q-17 0 -25.5 7t-9.5 24q-27 156 -127 156q-57 0 -88.5 -39t-25.5 -93q6 -41 40.5 -86.5t85 -88.5t110 -91t117.5 -103.5t106.5 -115.5t78 -138t29.5 -161q0 -89 -32 -162t-86.5 -120.5t-118.5 -76.5t-134 -40z" />
    <glyph glyph-name="scedilla" unicode="&#x15f;" horiz-adv-x="851" 
d="M799 299q-3 -127 -84 -208.5t-207 -102.5l-27 -76q56 26 109.5 17t94.5 -39t66 -81t25 -108q0 -107 -79 -179.5t-191 -72.5q-48 0 -115 27q-36 13 -24 49l39 94q7 19 17.5 23.5t27.5 -2.5q33 -11 55 -11q36 0 62 28t26 67q0 38 -27.5 64t-64.5 26q-45 0 -78 -39
q-22 -22 -51 -8l-72 32q-26 11 -16 39l53 154q-112 24 -182.5 103.5t-87.5 205.5q-4 37 26 37h193q30 0 35 -27q26 -96 104 -96q38 0 64 22t26 60q2 33 -20 62t-59 52t-82 47t-91.5 55t-85.5 67.5t-66 92t-32 122.5q-10 151 89 243t249 92q62 0 119.5 -18.5t107.5 -55.5
t81 -100t32 -145q0 -37 -27 -37h-178q-30 0 -35 27q-7 39 -28 67t-60 29q-37 3 -60.5 -19.5t-25.5 -54.5q-1 -30 23.5 -58.5t65.5 -53t90 -51.5t98.5 -61t90 -74.5t65 -98.5t22.5 -127z" />
    <glyph glyph-name="Scaron" unicode="&#x160;" horiz-adv-x="1073" 
d="M854 1935l-301 -276q-31 -31 -61 0l-302 276q-32 28 0 60l74 73q18 17 31 16.5t31 -16.5l196 -182l199 182q29 30 59 0l74 -73q18 -18 18 -31.5t-18 -28.5zM981 387q0 -81 -27.5 -149.5t-72.5 -115t-103.5 -78.5t-120 -47t-122.5 -15q-124 0 -224 51.5t-159 150
t-60 226.5q0 18 5 27t22 9h209q34 0 37 -30q7 -71 50 -128t122 -57q63 0 102.5 38t42.5 100q6 54 -22 106t-78 97.5t-111 93t-123.5 101t-114.5 111.5t-85 135t-33 161q0 166 110.5 273t294.5 107q129 0 221.5 -54.5t137.5 -143.5t47 -203q4 -37 -27 -37h-209q-17 0 -25.5 7
t-9.5 24q-27 156 -127 156q-57 0 -88.5 -39t-25.5 -93q6 -41 40.5 -86.5t85 -88.5t110 -91t117.5 -103.5t106.5 -115.5t78 -138t29.5 -161z" />
    <glyph glyph-name="scaron" unicode="&#x161;" horiz-adv-x="851" 
d="M758 1554l-301 -276q-33 -29 -62 0l-301 276q-18 15 -18 28.5t18 31.5l74 74q30 30 59 0l199 -183l197 183q18 16 30.5 16.5t30.5 -16.5l74 -74q32 -32 0 -60zM432 -18q-150 0 -247 83.5t-117 235.5q-4 37 26 37h193q30 0 35 -27q26 -96 104 -96q38 0 64 22t26 60
q2 33 -20 62t-59 52t-82 47t-91.5 55t-85.5 67.5t-66 92t-32 122.5q-10 151 89 243t249 92q62 0 119.5 -18.5t107.5 -55.5t81 -100t32 -145q0 -37 -27 -37h-178q-30 0 -35 27q-7 39 -28 67t-60 29q-37 3 -60.5 -19.5t-25.5 -54.5q-1 -30 23.5 -58.5t65.5 -53t90 -51.5
t98.5 -61t90 -74.5t65 -98.5t22.5 -127q-3 -147 -108.5 -232t-258.5 -85z" />
    <glyph glyph-name="uni0162" unicode="&#x162;" horiz-adv-x="946" 
d="M842 1536q23 0 33 -10t10 -33v-176q0 -23 -10 -33t-33 -10h-183q-23 0 -30.5 -8t-7.5 -31v-1192q0 -23 -10 -33t-33 -10h-25l-31 -88q56 26 109 17t94.5 -39t66.5 -81t25 -108q0 -107 -79 -179.5t-191 -72.5q-47 0 -115 27q-36 13 -24 49l38 94q7 19 18 23.5t28 -2.5
q33 -11 55 -11q36 0 62 28t26 67q0 38 -27.5 64t-64.5 26q-45 0 -78 -39q-22 -22 -51 -8l-72 32q-26 11 -16 39l55 162h-12q-23 0 -33 10t-10 33v1192q0 23 -8 31t-31 8h-183q-23 0 -33 10t-10 33v176q0 23 10 33t33 10h738z" />
    <glyph glyph-name="uni0163" unicode="&#x163;" horiz-adv-x="673" 
d="M436 -88q56 26 109 17t94.5 -39t66.5 -81t25 -108q0 -107 -79 -179.5t-191 -72.5q-47 0 -115 27q-36 13 -24 49l38 94q7 19 18 23.5t28 -2.5q33 -11 55 -11q36 0 62 28t26 67q0 38 -27.5 64t-64.5 26q-45 0 -78 -39q-22 -22 -51 -8l-72 32q-26 11 -16 39l73 213
q-141 78 -141 311v492q0 21 -6.5 28t-26.5 7h-41q-23 0 -33 10t-10 33v137q0 23 10 33t33 10h56q20 0 27 7t7 28v156q0 23 10 33t33 10h170q23 0 33 -10t10 -33v-156q0 -22 6.5 -28.5t26.5 -6.5h98q23 0 33 -10t10 -33v-137q0 -23 -10 -33t-33 -10h-90q-20 0 -27 -7.5
t-7 -27.5v-492q0 -129 124 -129q23 0 33 -10t10 -33v-147q0 -23 -10 -33t-33 -10q-57 0 -106 6z" />
    <glyph glyph-name="Tcaron" unicode="&#x164;" horiz-adv-x="946" 
d="M807 1935l-301 -276q-31 -31 -62 0l-301 276q-32 28 0 60l74 73q18 17 31 16.5t31 -16.5l196 -182l199 182q30 30 59 0l74 -73q18 -18 18 -31.5t-18 -28.5zM842 1536q23 0 33 -10t10 -33v-176q0 -23 -10 -33t-33 -10h-183q-23 0 -30.5 -8t-7.5 -31v-1192q0 -23 -10 -33
t-33 -10h-209q-23 0 -33 10t-10 33v1192q0 23 -8 31t-31 8h-183q-23 0 -33 10t-10 33v176q0 23 10 33t33 10h738z" />
    <glyph glyph-name="tcaron" unicode="&#x165;" horiz-adv-x="985" 
d="M770 1243q-6 16 -26.5 32t-40.5 28.5t-36 38.5t-16 61q0 64 45 107.5t111 43.5q70 0 118.5 -51t57.5 -133.5t-31 -187.5q-57 -129 -159 -221q-16 -12 -25.5 -13.5t-22.5 8.5l-55 45q-18 18 -2 41q21 30 29 42t24 36.5t21.5 37.5t11.5 30.5t4.5 30.5t-8.5 24zM575 0
q-214 0 -308.5 82.5t-94.5 279.5v492q0 21 -6.5 28t-26.5 7h-41q-23 0 -33 10t-10 33v137q0 23 10 33t33 10h56q20 0 27 7t7 28v156q0 23 10 33t33 10h170q23 0 33 -10t10 -33v-156q0 -22 6.5 -28.5t26.5 -6.5h98q23 0 33 -10t10 -33v-137q0 -23 -10 -33t-33 -10h-90
q-20 0 -27 -7.5t-7 -27.5v-492q0 -129 124 -129q23 0 33 -10t10 -33v-147q0 -23 -10 -33t-33 -10z" />
    <glyph glyph-name="Tbar" unicode="&#x166;" horiz-adv-x="888" 
d="M842 1536q23 0 33 -10t10 -33v-176q0 -23 -10 -33t-33 -10h-183q-23 0 -30.5 -8t-7.5 -31v-197h10h53q23 0 33 -10t10 -33v-139q0 -23 -10 -33t-33 -10h-53h-10v-770q0 -23 -10 -33t-33 -10h-209q-23 0 -33 10t-10 33v647h-29v84q0 23 -8 31t-31 8h-53q-23 0 -33 10
t-10 33v139q0 23 10 33t33 10h53q23 0 31 8t8 31v72h29v86q0 23 -8 31t-31 8h-183q-23 0 -33 10t-10 33v176q0 23 10 33t33 10h738z" />
    <glyph glyph-name="tbar" unicode="&#x167;" horiz-adv-x="690" 
d="M575 0q-211 0 -307 90.5t-96 288.5v147q0 20 -6.5 26.5t-26.5 6.5h-41q-23 0 -33 10t-10 33v139q0 23 10 33t33 10h41q20 0 26.5 6.5t6.5 26.5v37q0 21 -6.5 28t-26.5 7h-41q-23 0 -33 10t-10 33v137q0 23 10 33t33 10h56q20 0 27 7t7 28v113q0 23 10 33t33 10h170
q23 0 33 -10t10 -33v-113q0 -22 6.5 -28.5t26.5 -6.5h98q23 0 33 -10t10 -33v-137q0 -23 -10 -33t-33 -10h-90q-20 0 -27 -7.5t-7 -27.5v-37q0 -20 7 -26.5t27 -6.5h90q23 0 33 -10t10 -33v-139q0 -23 -10 -33t-33 -10h-90q-20 0 -27 -6.5t-7 -26.5v-147q0 -129 124 -129
q23 0 33 -10t10 -33v-164q0 -23 -10 -33t-33 -10z" />
    <glyph glyph-name="Utilde" unicode="&#x168;" 
d="M262 1731q-24 19 -10 43q69 114 188 114q24 0 45 -7t48 -19.5t45 -18.5q69 -26 114 29q17 25 43 10l99 -63q25 -17 10 -43q-67 -115 -187 -115q-24 0 -45.5 7t-48.5 19.5t-45 18.5q-69 26 -112 -29q-21 -26 -44 -10zM952 1536q23 0 33 -10t10 -33v-764v-221
q0 -245 -113.5 -385.5t-334.5 -140.5q-223 0 -336 140.5t-113 385.5v350v635q0 23 10 33t33 10h209q23 0 33 -10t10 -33v-752v-233q0 -254 154 -254q151 0 151 254v352v633q0 23 10 33t33 10h211z" />
    <glyph glyph-name="utilde" unicode="&#x169;" horiz-adv-x="983" 
d="M168 1397q-25 15 -10 43q39 72 97.5 109.5t115.5 37.5q30 -1 57 -8.5t55 -20t43 -16.5q77 -21 117 31q20 25 43 10l111 -63q25 -15 10 -43q-38 -72 -97 -110t-114 -36q-30 0 -57 7t-56.5 19.5t-44.5 16.5q-75 24 -116 -31q-18 -26 -43 -10zM846 1112q23 0 33 -10t10 -33
v-1026q0 -23 -10 -33t-33 -10h-144q-22 0 -32 10.5t-15 34.5l-16 68q-80 -102 -188 -125q-91 -19 -172 15.5t-133 119t-52 201.5v745q0 23 10 33t33 10h193q23 0 33 -10t10 -33v-696q0 -73 37 -109.5t84 -34.5q47 0 81.5 37t34.5 107v696q0 23 10 33t33 10h193z" />
    <glyph glyph-name="Umacron" unicode="&#x16a;" 
d="M338 1671q-23 0 -33 10t-10 33v121q0 23 10 33t33 10h416q23 0 33 -10t10 -33v-121q0 -23 -10 -33t-33 -10h-416zM952 1536q23 0 33 -10t10 -33v-764v-221q0 -245 -113.5 -385.5t-334.5 -140.5q-223 0 -336 140.5t-113 385.5v350v635q0 23 10 33t33 10h209q23 0 33 -10
t10 -33v-752v-233q0 -254 154 -254q151 0 151 254v352v633q0 23 10 33t33 10h211z" />
    <glyph glyph-name="umacron" unicode="&#x16b;" horiz-adv-x="983" 
d="M262 1350q-23 0 -33 10t-10 33v137q0 23 10 33t33 10h457q23 0 33 -10t10 -33v-137q0 -23 -10 -33t-33 -10h-457zM846 1112q23 0 33 -10t10 -33v-1026q0 -23 -10 -33t-33 -10h-144q-22 0 -32 10.5t-15 34.5l-16 68q-80 -102 -188 -125q-91 -19 -172 15.5t-133 119
t-52 201.5v745q0 23 10 33t33 10h193q23 0 33 -10t10 -33v-696q0 -73 37 -109.5t84 -34.5q47 0 81.5 37t34.5 107v696q0 23 10 33t33 10h193z" />
    <glyph glyph-name="Ubreve" unicode="&#x16c;" 
d="M547 1657q-190 0 -326 147q-16 18 -16.5 31t16.5 31l80 78q19 16 32 14t34 -19q40 -36 81 -57.5t99 -21.5q41 0 77.5 13.5t56.5 27.5t46 38q21 17 34 19t32 -14l79 -78q17 -18 16.5 -31t-16.5 -31q-132 -147 -325 -147zM952 1536q23 0 33 -10t10 -33v-764v-221
q0 -245 -113.5 -385.5t-334.5 -140.5q-223 0 -336 140.5t-113 385.5v350v635q0 23 10 33t33 10h209q23 0 33 -10t10 -33v-752v-233q0 -254 154 -254q151 0 151 254v352v633q0 23 10 33t33 10h211z" />
    <glyph glyph-name="ubreve" unicode="&#x16d;" horiz-adv-x="983" 
d="M481 1325q-102 0 -186 39t-139 94q-17 17 -17 31t17 31l86 84q7 7 12.5 10t12 1t10 -3.5t13.5 -8.5t15 -10q47 -32 86 -48.5t90 -16.5q50 0 88.5 16t87.5 49q3 2 12 8.5t11.5 8t9.5 4.5t10.5 2t9 -3.5t11.5 -8.5l86 -84q17 -17 17 -31t-17 -31q-54 -54 -139.5 -93.5
t-186.5 -39.5zM846 1112q23 0 33 -10t10 -33v-1026q0 -23 -10 -33t-33 -10h-144q-22 0 -32 10.5t-15 34.5l-16 68q-80 -102 -188 -125q-91 -19 -172 15.5t-133 119t-52 201.5v745q0 23 10 33t33 10h193q23 0 33 -10t10 -33v-696q0 -73 37 -109.5t84 -34.5q47 0 81.5 37
t34.5 107v696q0 23 10 33t33 10h193z" />
    <glyph glyph-name="Uring" unicode="&#x16e;" 
d="M547 1642q-91 0 -155 65t-64 157q0 91 64 155t155 64q92 0 156.5 -64t64.5 -155q0 -92 -64.5 -157t-156.5 -65zM547 1944q-32 0 -56 -24t-24 -56q0 -33 23.5 -56.5t56.5 -23.5t56.5 23.5t23.5 56.5q0 32 -24 56t-56 24zM952 1536q23 0 33 -10t10 -33v-764v-221
q0 -245 -113.5 -385.5t-334.5 -140.5q-223 0 -336 140.5t-113 385.5v350v635q0 23 10 33t33 10h209q23 0 33 -10t10 -33v-752v-233q0 -254 154 -254q151 0 151 254v352v633q0 23 10 33t33 10h211z" />
    <glyph glyph-name="uring" unicode="&#x16f;" horiz-adv-x="983" 
d="M492 1270q-100 0 -171 71t-71 172q0 100 71 171t171 71t170.5 -71t70.5 -171q0 -101 -70.5 -172t-170.5 -71zM492 1606q-38 0 -65.5 -28t-27.5 -65q0 -38 27.5 -65t65.5 -27q37 0 63.5 27t26.5 65q0 37 -27 65t-63 28zM846 1112q23 0 33 -10t10 -33v-1026q0 -23 -10 -33
t-33 -10h-144q-22 0 -32 10.5t-15 34.5l-16 68q-80 -102 -188 -125q-91 -19 -172 15.5t-133 119t-52 201.5v745q0 23 10 33t33 10h193q23 0 33 -10t10 -33v-696q0 -73 37 -109.5t84 -34.5q47 0 81.5 37t34.5 107v696q0 23 10 33t33 10h193z" />
    <glyph glyph-name="Uhungarumlaut" unicode="&#x170;" 
d="M248 1659l-74 76q-17 17 -17 30.5t17 30.5l262 270q17 17 31 17t31 -17l73 -73q17 -17 17 -31t-17 -31l-262 -272q-17 -17 -30.5 -17t-30.5 17zM1001 1993q17 -17 17 -31t-17 -31l-262 -272q-17 -17 -30.5 -17t-30.5 17l-74 76q-17 17 -17 30.5t17 30.5l262 270
q17 17 31 17t31 -17zM952 1536q23 0 33 -10t10 -33v-764v-221q0 -245 -113.5 -385.5t-334.5 -140.5q-223 0 -336 140.5t-113 385.5v350v635q0 23 10 33t33 10h209q23 0 33 -10t10 -33v-752v-233q0 -254 154 -254q151 0 151 254v352v633q0 23 10 33t33 10h211z" />
    <glyph glyph-name="uhungarumlaut" unicode="&#x171;" horiz-adv-x="983" 
d="M201 1280l-101 98q-31 31 0 62l277 260q33 33 61 0l99 -103q17 -17 17 -29.5t-17 -29.5l-275 -258q-30 -30 -61 0zM977 1597q16 -18 16.5 -29.5t-16.5 -29.5l-277 -258q-30 -30 -61 0l-98 98q-33 33 0 62l276 260q17 17 31 17t31 -17zM846 1112q23 0 33 -10t10 -33v-1026
q0 -23 -10 -33t-33 -10h-144q-22 0 -32 10.5t-15 34.5l-16 68q-80 -102 -188 -125q-91 -19 -172 15.5t-133 119t-52 201.5v745q0 23 10 33t33 10h193q23 0 33 -10t10 -33v-696q0 -73 37 -109.5t84 -34.5q47 0 81.5 37t34.5 107v696q0 23 10 33t33 10h193z" />
    <glyph glyph-name="Uogonek" unicode="&#x172;" 
d="M952 1536q23 0 33 -10t10 -33v-764v-221q0 -223 -93.5 -360.5t-278.5 -161.5l-7 -29q-8 -69 40 -114.5t132 -20.5q37 12 46 -21l38 -125q12 -36 -24 -49q-75 -31 -149 -22.5t-133.5 41.5t-96.5 94.5t-37 134.5q0 58 25 113q-179 29 -269 165t-90 355v350v635q0 23 10 33
t33 10h209q23 0 33 -10t10 -33v-752v-233q0 -254 154 -254q151 0 151 254v352v633q0 23 10 33t33 10h211z" />
    <glyph glyph-name="uogonek" unicode="&#x173;" horiz-adv-x="983" 
d="M1040 -317q13 -36 -24 -50q-75 -31 -149 -22.5t-133.5 41.5t-96.5 94.5t-37 134.5q0 95 55 166l-16 66q-80 -102 -188 -125q-91 -19 -172 15.5t-133 119t-52 201.5v745q0 23 10 33t33 10h193q23 0 33 -10t10 -33v-696q0 -73 37 -109.5t84 -34.5q47 0 81.5 37t34.5 107
v696q0 23 10 33t33 10h193q23 0 33 -10t10 -33v-1026q0 -23 -10 -33t-33 -10h-53q-6 -17 -9 -37q-8 -69 40 -114.5t132 -20.5q36 12 45 -21z" />
    <glyph glyph-name="Wcircumflex" unicode="&#x174;" horiz-adv-x="1513" 
d="M1090 1792q18 -15 18 -28t-18 -31l-74 -74q-30 -30 -60 0l-198 182l-197 -182q-18 -16 -30.5 -16.5t-30.5 16.5l-74 74q-32 32 0 59l301 276q31 27 61 0zM381 0q-27 0 -38 8t-15 33l-279 1454q-4 24 2.5 32.5t26.5 8.5h217q42 0 49 -41l125 -762q2 -11 12 -11.5t13 9.5
l159 764q4 25 16 33t38 8h102q26 0 36.5 -8t16.5 -33l158 -764q3 -10 12.5 -9.5t11.5 11.5l127 762q5 41 50 41h217q18 0 25 -8.5t3 -32.5l-280 -1454q-4 -25 -15 -33t-38 -8h-138q-26 0 -37.5 8.5t-15.5 32.5l-172 817q-3 10 -13.5 10t-11.5 -10l-172 -817
q-6 -24 -17 -32.5t-36 -8.5h-139z" />
    <glyph glyph-name="wcircumflex" unicode="&#x175;" horiz-adv-x="1273" 
d="M969 1413q32 -27 0 -59l-74 -74q-18 -17 -30.5 -16.5t-30.5 16.5l-197 182l-199 -182q-30 -30 -59 0l-74 74q-18 18 -18 31t18 28l301 277q29 29 62 0zM1237 1112q36 0 27 -41l-254 -1030q-6 -24 -17.5 -32.5t-36.5 -8.5h-133q-25 0 -37 9t-16 32l-121 465q-3 10 -12 10
t-12 -10l-119 -465q-6 -23 -17 -32t-36 -9h-136q-25 0 -36 8.5t-17 32.5l-254 1030q-9 41 27 41h207q38 0 47 -41l108 -502q1 -11 11.5 -11t13.5 11l115 502q4 23 16 32t37 9h92q25 0 36 -9t17 -32l113 -502q3 -11 12.5 -11t11.5 11l109 502q9 41 47 41h207z" />
    <glyph glyph-name="Ycircumflex" unicode="&#x176;" horiz-adv-x="1056" 
d="M862 1792q18 -15 18 -28t-18 -31l-74 -74q-18 -17 -30.5 -16.5t-28.5 16.5l-199 182l-196 -182q-18 -16 -31 -16.5t-31 16.5l-73 74q-32 32 0 59l301 276q30 27 61 0zM969 1536q39 0 24 -41l-315 -889v-563q0 -23 -10 -33t-33 -10h-211q-23 0 -33 10t-10 33v563l-315 889
q-15 41 24 41h219q40 0 53 -41l156 -483q3 -9 12.5 -9t12.5 9l155 483q11 41 54 41h217z" />
    <glyph glyph-name="ycircumflex" unicode="&#x177;" horiz-adv-x="913" 
d="M786 1413q32 -27 0 -59l-73 -74q-18 -17 -31 -16.5t-31 16.5l-196 182l-199 -182q-30 -30 -59 0l-74 74q-18 18 -18 31t18 28l301 277q29 29 61 0zM125 -442q-43 0 -43 43v163q0 23 9.5 32t33.5 11q31 3 51 7t44.5 14t41 29.5t25.5 48.5q30 94 33 129t-13 80l-299 956
q-12 41 27 41h207q38 0 47 -41l155 -584q3 -11 12.5 -11t12.5 11l154 584q12 41 47 41h207q38 0 26 -41l-411 -1298q-70 -215 -367 -215z" />
    <glyph glyph-name="Ydieresis" unicode="&#x178;" horiz-adv-x="1056" 
d="M350 1661q-63 0 -107 44t-44 107q0 62 44 106t107 44q62 0 106 -44t44 -106q0 -63 -44 -107t-106 -44zM711 1661q-62 0 -106 44t-44 107q0 62 44.5 106t105.5 44q63 0 107 -44t44 -106q0 -63 -44 -107t-107 -44zM969 1536q39 0 24 -41l-315 -889v-563q0 -23 -10 -33
t-33 -10h-211q-23 0 -33 10t-10 33v563l-315 889q-15 41 24 41h219q40 0 53 -41l156 -483q3 -9 12.5 -9t12.5 9l155 483q11 41 54 41h217z" />
    <glyph glyph-name="Zacute" unicode="&#x179;" horiz-adv-x="927" 
d="M731 1960q13 -22 10.5 -32.5t-22.5 -24.5l-371 -250q-20 -12 -32 -9t-25 25l-68 98q-13 21 -9.5 32.5t24.5 25.5l370 248q21 13 32.5 9.5t25.5 -24.5zM842 1262l-447 -975q-5 -9 -2 -17t13 -8h411q23 0 33 -10t10 -33v-176q0 -23 -10 -33t-33 -10h-706q-23 0 -33 10
t-10 33v164q0 29 18 67l459 975q5 9 1 17t-14 8h-421q-23 0 -33 10t-10 33v176q0 23 10 33t33 10h706q23 0 33 -10t10 -33v-168q0 -10 -1.5 -18.5t-3.5 -13t-6.5 -15.5t-6.5 -16z" />
    <glyph glyph-name="zacute" unicode="&#x17a;" horiz-adv-x="792" 
d="M172 1440l279 260q17 17 30.5 17t30.5 -17l96 -103q17 -17 17 -29.5t-17 -29.5l-274 -258q-31 -31 -62 0l-100 98q-31 31 0 62zM61 43v135q0 23 15 53l344 631q5 6 2 12.5t-10 6.5h-308q-23 0 -33 10t-10 33v145q0 23 10 33t33 10h584q24 0 33.5 -9.5t9.5 -33.5v-135
q0 -25 -14 -53l-344 -631q-5 -6 -2 -12.5t10 -6.5h307q23 0 33 -10t10 -33v-145q0 -23 -10 -33t-33 -10h-584q-24 0 -33.5 9.5t-9.5 33.5z" />
    <glyph glyph-name="Zdotaccent" unicode="&#x17b;" horiz-adv-x="927" 
d="M479 1661q-62 0 -105.5 44t-43.5 107q0 62 44 106t105 44q63 0 107.5 -44t44.5 -106q0 -63 -44.5 -107t-107.5 -44zM842 1262l-447 -975q-5 -9 -2 -17t13 -8h411q23 0 33 -10t10 -33v-176q0 -23 -10 -33t-33 -10h-706q-23 0 -33 10t-10 33v164q0 29 18 67l459 975
q5 9 1 17t-14 8h-421q-23 0 -33 10t-10 33v176q0 23 10 33t33 10h706q23 0 33 -10t10 -33v-168q0 -10 -1.5 -18.5t-3.5 -13t-6.5 -15.5t-6.5 -16z" />
    <glyph glyph-name="zdotaccent" unicode="&#x17c;" horiz-adv-x="792" 
d="M395 1309q-70 0 -119 48.5t-49 117.5q0 68 49 115.5t119 47.5q68 0 116 -48t48 -115q0 -69 -48 -117.5t-116 -48.5zM61 43v135q0 23 15 53l344 631q5 6 2 12.5t-10 6.5h-308q-23 0 -33 10t-10 33v145q0 23 10 33t33 10h584q24 0 33.5 -9.5t9.5 -33.5v-135q0 -25 -14 -53
l-344 -631q-5 -6 -2 -12.5t10 -6.5h307q23 0 33 -10t10 -33v-145q0 -23 -10 -33t-33 -10h-584q-24 0 -33.5 9.5t-9.5 33.5z" />
    <glyph glyph-name="Zcaron" unicode="&#x17d;" horiz-adv-x="927" 
d="M813 1935l-301 -276q-30 -31 -61 0l-301 276q-32 28 0 60l73 73q18 17 31 16.5t31 -16.5l196 -182l199 182q30 30 59 0l74 -73q18 -18 18 -31.5t-18 -28.5zM842 1262l-447 -975q-5 -9 -2 -17t13 -8h411q23 0 33 -10t10 -33v-176q0 -23 -10 -33t-33 -10h-706q-23 0 -33 10
t-10 33v164q0 29 18 67l459 975q5 9 1 17t-14 8h-421q-23 0 -33 10t-10 33v176q0 23 10 33t33 10h706q23 0 33 -10t10 -33v-168q0 -10 -1.5 -18.5t-3.5 -13t-6.5 -15.5t-6.5 -16z" />
    <glyph glyph-name="zcaron" unicode="&#x17e;" horiz-adv-x="792" 
d="M727 1554l-301 -276q-32 -29 -61 0l-302 276q-18 15 -18 28.5t18 31.5l74 74q30 30 60 0l198 -183l197 183q18 16 30.5 16.5t30.5 -16.5l74 -74q32 -32 0 -60zM61 43v135q0 23 15 53l344 631q5 6 2 12.5t-10 6.5h-308q-23 0 -33 10t-10 33v145q0 23 10 33t33 10h584
q24 0 33.5 -9.5t9.5 -33.5v-135q0 -25 -14 -53l-344 -631q-5 -6 -2 -12.5t10 -6.5h307q23 0 33 -10t10 -33v-145q0 -23 -10 -33t-33 -10h-584q-24 0 -33.5 9.5t-9.5 33.5z" />
    <glyph glyph-name="AEacute" unicode="&#x1fc;" horiz-adv-x="1404" 
d="M1167 1960q13 -22 10.5 -32.5t-22.5 -24.5l-371 -250q-20 -12 -32 -9t-25 25l-68 98q-13 21 -9.5 32.5t24.5 25.5l370 248q21 13 32.5 9.5t25.5 -24.5zM958 1274q-23 0 -30.5 -8t-7.5 -31v-285q0 -23 7.5 -31t30.5 -8h295q23 0 33 -10t10 -33v-176q0 -23 -10 -33t-33 -10
h-295q-23 0 -30.5 -8t-7.5 -31v-309q0 -23 7.5 -31t30.5 -8h295q23 0 33 -10t10 -33v-176q0 -23 -10 -33t-33 -10h-585q-23 0 -33 10t-10 33v203h-183q-20 0 -27.5 -5t-13.5 -24l-55 -176q-9 -25 -19 -33t-30 -8h-219q-40 0 -27 41l467 1454q7 26 17.5 33.5t35.5 7.5h682
q23 0 33 -10t10 -33v-176q0 -23 -10 -33t-33 -10h-295zM504 508h121v459q-13 0 -13 -11l-125 -426q-7 -22 17 -22z" />
    <glyph glyph-name="aeacute" unicode="&#x1fd;" horiz-adv-x="1447" 
d="M508 1440l278 260q17 17 31 17t31 -17l96 -103q17 -17 17 -29.5t-17 -29.5l-274 -258q-31 -31 -62 0l-100 98q-31 31 0 62zM983 1130q73 0 139 -24t122 -73.5t89 -136t33 -200.5v-34q0 -64 -8 -119q-3 -24 -12 -33.5t-31 -9.5h-432q-12 0 -16.5 -4.5t-4.5 -16.5v-108
q0 -72 36 -107t85 -35q75 0 104 82q8 27 35 27h197q31 0 27 -37q-10 -89 -48.5 -154.5t-94 -99.5t-113 -49.5t-119.5 -15.5q-203 0 -305 141q-90 -111 -222 -137q-91 -18 -173.5 15t-136.5 118t-54 205q0 64 16.5 117t42.5 90t67 66.5t82.5 47.5t95.5 31t99 19.5t101 11.5
v34q0 72 -35.5 107t-83.5 35q-39 0 -66.5 -23t-38.5 -59q-8 -27 -34 -27h-183q-30 0 -26 37q10 90 46 155t88 99t108 49.5t118 15.5q156 0 254 -88q104 88 252 88zM1102 709v30q0 73 -36 108.5t-83 35.5q-48 0 -84.5 -35.5t-36.5 -108.5v-30q0 -12 4.5 -16.5t16.5 -4.5h198
q12 0 16.5 4.5t4.5 16.5zM584 373v174q-115 -15 -172 -56.5t-54 -134.5q3 -63 36.5 -96.5t78.5 -30.5q46 2 78.5 38t32.5 106z" />
    <glyph glyph-name="Scommaaccent" unicode="&#x218;" horiz-adv-x="1073" 
d="M981 387q0 -81 -27.5 -149.5t-72.5 -115t-103.5 -78.5t-120 -47t-122.5 -15q-124 0 -224 51.5t-159 150t-60 226.5q0 18 5 27t22 9h209q34 0 37 -30q7 -71 50 -128t122 -57q63 0 102.5 38t42.5 100q6 54 -22 106t-78 97.5t-111 93t-123.5 101t-114.5 111.5t-85 135
t-33 161q0 166 110.5 273t294.5 107q129 0 221.5 -54.5t137.5 -143.5t47 -203q4 -37 -27 -37h-209q-17 0 -25.5 7t-9.5 24q-27 156 -127 156q-57 0 -88.5 -39t-25.5 -93q6 -41 40.5 -86.5t85 -88.5t110 -91t117.5 -103.5t106.5 -115.5t78 -138t29.5 -161zM475 -375
q-7 16 -23 31.5t-30.5 25.5t-26.5 31t-14 49q-5 62 37.5 111t103.5 53q55 2 100 -26.5t69 -91.5t-1 -162q-27 -122 -131 -238q-13 -15 -22 -17t-25 9l-66 47q-20 15 -2 39q23 34 32 53.5t11 43t-12 42.5z" />
    <glyph glyph-name="scommaaccent" unicode="&#x219;" horiz-adv-x="851" 
d="M432 -18q-150 0 -247 83.5t-117 235.5q-4 37 26 37h193q30 0 35 -27q26 -96 104 -96q38 0 64 22t26 60q2 33 -20 62t-59 52t-82 47t-91.5 55t-85.5 67.5t-66 92t-32 122.5q-10 151 89 243t249 92q62 0 119.5 -18.5t107.5 -55.5t81 -100t32 -145q0 -37 -27 -37h-178
q-30 0 -35 27q-7 39 -28 67t-60 29q-37 3 -60.5 -19.5t-25.5 -54.5q-1 -30 23.5 -58.5t65.5 -53t90 -51.5t98.5 -61t90 -74.5t65 -98.5t22.5 -127q-3 -147 -108.5 -232t-258.5 -85zM373 -375q-7 16 -23 31.5t-30.5 25.5t-26.5 31t-14 49q-5 62 37.5 111t103.5 53
q55 2 100 -26.5t69 -91.5t-1 -162q-27 -122 -131 -238q-13 -15 -22 -17t-25 9l-66 47q-20 15 -2 39q23 34 32 53.5t11 43t-12 42.5z" />
    <glyph glyph-name="uni021A" unicode="&#x21a;" horiz-adv-x="946" 
d="M842 1536q23 0 33 -10t10 -33v-176q0 -23 -10 -33t-33 -10h-183q-23 0 -30.5 -8t-7.5 -31v-1192q0 -23 -10 -33t-33 -10h-209q-23 0 -33 10t-10 33v1192q0 23 -8 31t-31 8h-183q-23 0 -33 10t-10 33v176q0 23 10 33t33 10h738zM414 -375q-7 16 -23.5 31.5t-30.5 25.5
t-26.5 31t-14.5 49q-4 61 38 110t104 54q55 2 100 -26.5t69 -91.5t-1 -162q-27 -122 -131 -238q-13 -15 -22 -17t-25 9l-66 47q-20 15 -2 39q23 34 32 53.5t11 43t-12 42.5z" />
    <glyph glyph-name="uni021B" unicode="&#x21b;" horiz-adv-x="673" 
d="M575 0q-214 0 -308.5 82.5t-94.5 279.5v492q0 21 -6.5 28t-26.5 7h-41q-23 0 -33 10t-10 33v137q0 23 10 33t33 10h56q20 0 27 7t7 28v156q0 23 10 33t33 10h170q23 0 33 -10t10 -33v-156q0 -22 6.5 -28.5t26.5 -6.5h98q23 0 33 -10t10 -33v-137q0 -23 -10 -33t-33 -10
h-90q-20 0 -27 -7.5t-7 -27.5v-492q0 -129 124 -129q23 0 33 -10t10 -33v-147q0 -23 -10 -33t-33 -10zM328 -375q-7 16 -23.5 31.5t-30.5 25.5t-26.5 31t-14.5 49q-4 61 38 110t104 54q55 2 100 -26.5t69 -91.5t-1 -162q-27 -122 -131 -238q-13 -15 -22 -17t-25 9l-66 47
q-20 15 -2 39q23 34 32 53.5t11 43t-12 42.5z" />
    <glyph glyph-name="uni0237" unicode="&#x237;" horiz-adv-x="464" 
d="M-31 -193q125 0 125 130v1132q0 23 10 33t33 10h193q23 0 33 -10t10 -33v-1132q0 -198 -96 -288.5t-308 -90.5q-23 0 -33 10t-10 33v163q0 23 10 33t33 10z" />
    <glyph glyph-name="circumflex" unicode="&#x2c6;" horiz-adv-x="921" 
d="M793 1413q32 -27 0 -59l-74 -74q-18 -17 -31 -16.5t-31 16.5l-196 182l-199 -182q-30 -30 -59 0l-74 74q-18 18 -18 31t18 28l301 277q29 29 62 0z" />
    <glyph glyph-name="caron" unicode="&#x2c7;" horiz-adv-x="921" 
d="M793 1554l-301 -276q-33 -29 -62 0l-301 276q-18 15 -18 28.5t18 31.5l74 74q29 30 59 0l199 -183l196 183q18 16 31 16.5t31 -16.5l74 -74q32 -32 0 -60z" />
    <glyph glyph-name="breve" unicode="&#x2d8;" horiz-adv-x="915" 
d="M784 1520q17 -17 17 -31t-17 -31q-54 -54 -139 -93.5t-186 -39.5q-103 0 -187.5 39.5t-138.5 93.5q-17 17 -17 31t17 31l86 84q7 7 12.5 10t12.5 1t10 -3.5t13.5 -8.5t15.5 -10q47 -32 86 -48.5t90 -16.5q50 0 88.5 16t87.5 49q4 3 12.5 8.5t11 7.5t9 4.5t10.5 2t9 -3
t11 -8.5z" />
    <glyph glyph-name="dotaccent" unicode="&#x2d9;" horiz-adv-x="514" 
d="M258 1309q-70 0 -119 48.5t-49 117.5q0 68 49 115.5t119 47.5q68 0 116 -48t48 -115q0 -69 -48 -117.5t-116 -48.5z" />
    <glyph glyph-name="ring" unicode="&#x2da;" horiz-adv-x="593" 
d="M297 1065q-100 0 -171 71.5t-71 172.5q0 100 71 170.5t171 70.5t171 -70.5t71 -170.5q0 -101 -71 -172.5t-171 -71.5zM297 1217q37 0 63.5 27t26.5 65q0 37 -26.5 64.5t-63.5 27.5q-38 0 -65 -27.5t-27 -64.5q0 -38 27 -65t65 -27z" />
    <glyph glyph-name="ogonek" unicode="&#x2db;" horiz-adv-x="638" 
d="M340 94q-12 -12 -32.5 -50.5t-26.5 -82.5q-8 -69 40 -114.5t132 -20.5q36 12 45 -21l39 -124q13 -36 -25 -50q-75 -31 -149 -22.5t-133.5 41.5t-96.5 94.5t-37 134.5q0 100 62.5 177t154.5 94z" />
    <glyph glyph-name="tilde" unicode="&#x2dc;" horiz-adv-x="829" 
d="M729 1315q25 -15 10 -43q-38 -72 -97 -110t-114 -36q-30 0 -57 7t-56 19.5t-44 16.5q-76 25 -117 -30q-18 -26 -43 -11l-111 64q-25 15 -10 43q39 72 97.5 109.5t115.5 37.5q30 -1 57 -8.5t55.5 -20t43.5 -16.5q76 -21 116 31q20 25 43 10z" />
    <glyph glyph-name="hungarumlaut" unicode="&#x2dd;" horiz-adv-x="1136" 
d="M143 1440l277 260q33 33 61 0l99 -103q17 -17 17 -29.5t-17 -29.5l-275 -258q-31 -30 -61 0l-101 98q-31 31 0 62zM584 1440l276 260q17 17 31 17t31 -17l98 -103q16 -18 16.5 -29.5t-16.5 -29.5l-277 -258q-31 -30 -61 0l-98 98q-33 33 0 62z" />
    <glyph glyph-name="gravecomb" unicode="&#x300;" horiz-adv-x="0" 
d="M-635 1931l66 99q14 21 25 24t32 -10l373 -248q21 -14 24 -25t-10 -32l-68 -99q-15 -22 -26.5 -25t-30.5 9l-373 250q-20 14 -22.5 24.5t10.5 32.5z" />
    <glyph glyph-name="acutecomb" unicode="&#x301;" horiz-adv-x="0" 
d="M-121 1931q13 -22 10.5 -32.5t-22.5 -24.5l-371 -250q-20 -12 -32 -9t-25 25l-68 99q-13 21 -9.5 32t24.5 25l370 248q21 13 32.5 10t25.5 -24z" />
    <glyph glyph-name="uni0302" unicode="&#x302;" horiz-adv-x="0" 
d="M-143 1763q18 -15 18 -28t-18 -31l-74 -74q-29 -30 -59 0l-199 182l-197 -182q-18 -16 -30.5 -16.5t-30.5 16.5l-74 74q-32 32 0 59l301 277q31 28 62 0z" />
    <glyph glyph-name="tildecomb" unicode="&#x303;" horiz-adv-x="0" 
d="M-168 1790q25 -17 10 -43q-67 -115 -186 -115q-24 0 -45.5 7t-48.5 19.5t-45 18.5q-70 27 -113 -28q-21 -26 -43 -11l-100 64q-25 19 -11 43q69 115 189 115q24 0 45 -7t47.5 -19.5t44.5 -18.5q70 -27 115 28q17 25 43 10z" />
    <glyph glyph-name="uni0304" unicode="&#x304;" horiz-adv-x="0" 
d="M-166 1849q23 0 33 -10t10 -33v-120q0 -23 -10 -33.5t-33 -10.5h-416q-23 0 -33 10.5t-10 33.5v120q0 23 10 33t33 10h416z" />
    <glyph glyph-name="uni0306" unicode="&#x306;" horiz-adv-x="0" 
d="M-145 1837q17 -18 16.5 -30.5t-16.5 -30.5q-133 -148 -326 -148q-189 0 -326 148q-16 18 -16.5 30.5t16.5 30.5l80 78q19 16 32.5 14t33.5 -18q26 -24 46.5 -38.5t57 -28t76.5 -13.5q41 0 77.5 13.5t56 28t46.5 38.5q20 16 33.5 18t32.5 -14z" />
    <glyph glyph-name="uni0307" unicode="&#x307;" horiz-adv-x="0" 
d="M-266 1632q-62 0 -106 44.5t-44 107.5q0 61 44 105t106 44q63 0 107 -43.5t44 -105.5q0 -63 -44 -107.5t-107 -44.5z" />
    <glyph glyph-name="uni0308" unicode="&#x308;" horiz-adv-x="0" 
d="M-676 1632q-63 0 -107 44.5t-44 107.5q0 62 44 105.5t107 43.5q62 0 106 -44t44 -105q0 -63 -44 -107.5t-106 -44.5zM-315 1632q-62 0 -106 44.5t-44 107.5q0 61 44 105t106 44q63 0 107 -43.5t44 -105.5q0 -63 -44 -107.5t-107 -44.5z" />
    <glyph glyph-name="uni030A" unicode="&#x30a;" horiz-adv-x="0" 
d="M-369 1614q-91 0 -155 64.5t-64 156.5q0 91 64 155t155 64q92 0 157 -64t65 -155q0 -92 -65 -156.5t-157 -64.5zM-369 1755q33 0 56.5 23.5t23.5 56.5q0 32 -24 56t-56 24t-56 -24t-24 -56q0 -33 23.5 -56.5t56.5 -23.5z" />
    <glyph glyph-name="uni030B" unicode="&#x30b;" horiz-adv-x="0" 
d="M-987 1630l-74 76q-17 17 -17 30.5t17 30.5l262 271q17 17 31 17t31 -17l73 -74q17 -17 17 -30.5t-17 -30.5l-262 -273q-17 -17 -30.5 -17t-30.5 17zM-557 1630l-74 76q-17 17 -17 30.5t17 30.5l262 271q17 17 31 17t31 -17l74 -74q17 -17 17 -30.5t-17 -30.5l-263 -273
q-17 -17 -30.5 -17t-30.5 17z" />
    <glyph glyph-name="uni030C" unicode="&#x30c;" horiz-adv-x="0" 
d="M-172 1907l-301 -277q-31 -31 -62 0l-301 277q-32 27 0 59l74 74q18 17 31 16.5t31 -16.5l196 -182l199 182q29 30 59 0l74 -74q18 -18 18 -31t-18 -28z" />
    <glyph glyph-name="uni0312" unicode="&#x312;" horiz-adv-x="0" 
d="M-199 1380q7 -16 23.5 -31.5t31 -26t27 -31.5t15.5 -48q5 -62 -38 -111.5t-106 -52.5q-54 -3 -99 26t-69.5 92.5t0.5 162.5q27 121 131 237q13 14 22 16.5t25 -7.5l66 -47q20 -15 2 -39q-22 -33 -31.5 -53t-11.5 -44t12 -43z" />
    <glyph glyph-name="uni0326" unicode="&#x326;" horiz-adv-x="0" 
d="M-328 -375q-7 16 -23 31.5t-30.5 25.5t-26.5 31t-14 49q-5 62 37.5 111t103.5 53q55 2 100 -26.5t69 -91.5t-1 -162q-27 -122 -131 -238q-13 -15 -22 -17t-25 9l-65 47q-20 15 -2 39q33 49 40 75.5t-10 63.5z" />
    <glyph glyph-name="uni0327" unicode="&#x327;" horiz-adv-x="0" 
d="M-352 -88q56 26 109 17t94.5 -39t66.5 -81t25 -108q0 -107 -79.5 -179.5t-191.5 -72.5q-46 0 -114 27q-37 14 -25 49l39 94q7 19 17.5 23.5t27.5 -2.5q33 -11 55 -11q36 0 62 28t26 67q0 38 -27.5 64t-64.5 26q-45 0 -78 -39q-22 -22 -51 -8l-71 32q-27 12 -17 39l80 232
l162 -31z" />
    <glyph glyph-name="uni0328" unicode="&#x328;" horiz-adv-x="0" 
d="M-299 94q-12 -12 -32.5 -50.5t-26.5 -82.5q-8 -69 40 -114.5t132 -20.5q36 12 45 -21l39 -124q13 -36 -25 -50q-75 -31 -149 -22.5t-133.5 41.5t-96.5 94.5t-37 134.5q0 100 62.5 177t154.5 94z" />
    <glyph glyph-name="uni0335" unicode="&#x335;" horiz-adv-x="0" 
 />
    <glyph glyph-name="uni0336" unicode="&#x336;" horiz-adv-x="0" 
 />
    <glyph glyph-name="uni0337" unicode="&#x337;" horiz-adv-x="0" 
d="M-150 1085q40 21 56 -10l65 -114q9 -19 5.5 -31.5t-23.5 -22.5l-588 -336q-20 -11 -32.5 -8.5t-22.5 19.5l-64 114q-17 33 19 54z" />
    <glyph glyph-name="uni0338" unicode="&#x338;" horiz-adv-x="0" 
d="M-287 1538q17 0 25 -10.5t0 -32.5l-801 -1452q-13 -24 -25 -33.5t-34 -9.5h-113q-17 0 -26 10.5t1 32.5l801 1452q12 24 24.5 33.5t35.5 9.5h112z" />
    <glyph glyph-name="Wgrave" unicode="&#x1e80;" horiz-adv-x="1513" 
d="M504 2034l65 98q14 21 25.5 24t32.5 -10l372 -248q21 -14 24.5 -25t-9.5 -32l-68 -98q-15 -22 -26.5 -25.5t-30.5 8.5l-373 250q-20 14 -22.5 25t10.5 33zM381 0q-27 0 -38 8t-15 33l-279 1454q-4 24 2.5 32.5t26.5 8.5h217q42 0 49 -41l125 -762q2 -11 12 -11.5t13 9.5
l159 764q4 25 16 33t38 8h102q26 0 36.5 -8t16.5 -33l158 -764q3 -10 12.5 -9.5t11.5 11.5l127 762q5 41 50 41h217q18 0 25 -8.5t3 -32.5l-280 -1454q-4 -25 -15 -33t-38 -8h-138q-26 0 -37.5 8.5t-15.5 32.5l-172 817q-3 10 -13.5 10t-11.5 -10l-172 -817
q-6 -24 -17 -32.5t-36 -8.5h-139z" />
    <glyph glyph-name="wgrave" unicode="&#x1e81;" horiz-adv-x="1273" 
d="M852 1440q33 -29 0 -62l-98 -98q-31 -31 -62 0l-276 258q-17 18 -16.5 29.5t16.5 29.5l98 103q17 17 30.5 17t30.5 -17zM1237 1112q36 0 27 -41l-254 -1030q-6 -24 -17.5 -32.5t-36.5 -8.5h-133q-25 0 -37 9t-16 32l-121 465q-3 10 -12 10t-12 -10l-119 -465
q-6 -23 -17 -32t-36 -9h-136q-25 0 -36 8.5t-17 32.5l-254 1030q-9 41 27 41h207q38 0 47 -41l108 -502q1 -11 11.5 -11t13.5 11l115 502q4 23 16 32t37 9h92q25 0 36 -9t17 -32l113 -502q3 -11 12.5 -11t11.5 11l109 502q9 41 47 41h207z" />
    <glyph glyph-name="Wacute" unicode="&#x1e82;" horiz-adv-x="1513" 
d="M1010 1960q13 -22 10.5 -32.5t-23.5 -24.5l-370 -250q-20 -12 -32.5 -9t-25.5 25l-67 98q-13 21 -10 32.5t24 25.5l371 248q21 13 32 9.5t25 -24.5zM381 0q-27 0 -38 8t-15 33l-279 1454q-4 24 2.5 32.5t26.5 8.5h217q42 0 49 -41l125 -762q2 -11 12 -11.5t13 9.5
l159 764q4 25 16 33t38 8h102q26 0 36.5 -8t16.5 -33l158 -764q3 -10 12.5 -9.5t11.5 11.5l127 762q5 41 50 41h217q18 0 25 -8.5t3 -32.5l-280 -1454q-4 -25 -15 -33t-38 -8h-138q-26 0 -37.5 8.5t-15.5 32.5l-172 817q-3 10 -13.5 10t-11.5 -10l-172 -817
q-6 -24 -17 -32.5t-36 -8.5h-139z" />
    <glyph glyph-name="wacute" unicode="&#x1e83;" horiz-adv-x="1273" 
d="M414 1440l278 260q17 17 31 17t31 -17l96 -103q17 -17 17 -29.5t-17 -29.5l-275 -258q-31 -30 -61 0l-100 98q-31 31 0 62zM1237 1112q36 0 27 -41l-254 -1030q-6 -24 -17.5 -32.5t-36.5 -8.5h-133q-25 0 -37 9t-16 32l-121 465q-3 10 -12 10t-12 -10l-119 -465
q-6 -23 -17 -32t-36 -9h-136q-25 0 -36 8.5t-17 32.5l-254 1030q-9 41 27 41h207q38 0 47 -41l108 -502q1 -11 11.5 -11t13.5 11l115 502q4 23 16 32t37 9h92q25 0 36 -9t17 -32l113 -502q3 -11 12.5 -11t11.5 11l109 502q9 41 47 41h207z" />
    <glyph glyph-name="Wdieresis" unicode="&#x1e84;" horiz-adv-x="1513" 
d="M578 1661q-63 0 -107.5 44t-44.5 107q0 62 44.5 106t107.5 44q61 0 105 -44t44 -106q0 -63 -43.5 -107t-105.5 -44zM938 1661q-62 0 -106 44t-44 107q0 62 44 106t106 44q63 0 107.5 -44t44.5 -106q0 -63 -44.5 -107t-107.5 -44zM381 0q-27 0 -38 8t-15 33l-279 1454
q-4 24 2.5 32.5t26.5 8.5h217q42 0 49 -41l125 -762q2 -11 12 -11.5t13 9.5l159 764q4 25 16 33t38 8h102q26 0 36.5 -8t16.5 -33l158 -764q3 -10 12.5 -9.5t11.5 11.5l127 762q5 41 50 41h217q18 0 25 -8.5t3 -32.5l-280 -1454q-4 -25 -15 -33t-38 -8h-138q-26 0 -37.5 8.5
t-15.5 32.5l-172 817q-3 10 -13.5 10t-11.5 -10l-172 -817q-6 -24 -17 -32.5t-36 -8.5h-139z" />
    <glyph glyph-name="wdieresis" unicode="&#x1e85;" horiz-adv-x="1273" 
d="M438 1307q-64 0 -109.5 45.5t-45.5 109.5q0 63 45.5 108.5t109.5 45.5q63 0 108.5 -45.5t45.5 -108.5q0 -64 -45.5 -109.5t-108.5 -45.5zM838 1307q-65 0 -110.5 45.5t-45.5 109.5q0 63 46 108.5t110 45.5t109.5 -45.5t45.5 -108.5q0 -64 -45.5 -109.5t-109.5 -45.5z
M1237 1112q36 0 27 -41l-254 -1030q-6 -24 -17.5 -32.5t-36.5 -8.5h-133q-25 0 -37 9t-16 32l-121 465q-3 10 -12 10t-12 -10l-119 -465q-6 -23 -17 -32t-36 -9h-136q-25 0 -36 8.5t-17 32.5l-254 1030q-9 41 27 41h207q38 0 47 -41l108 -502q1 -11 11.5 -11t13.5 11
l115 502q4 23 16 32t37 9h92q25 0 36 -9t17 -32l113 -502q3 -11 12.5 -11t11.5 11l109 502q9 41 47 41h207z" />
    <glyph glyph-name="Ygrave" unicode="&#x1ef2;" horiz-adv-x="1056" 
d="M276 2034l66 98q14 21 25 24t32 -10l373 -248q21 -14 24 -25t-10 -32l-67 -98q-15 -22 -26.5 -25.5t-30.5 8.5l-373 250q-21 14 -23.5 25t10.5 33zM969 1536q39 0 24 -41l-315 -889v-563q0 -23 -10 -33t-33 -10h-211q-23 0 -33 10t-10 33v563l-315 889q-15 41 24 41h219
q40 0 53 -41l156 -483q3 -9 12.5 -9t12.5 9l155 483q11 41 54 41h217z" />
    <glyph glyph-name="ygrave" unicode="&#x1ef3;" horiz-adv-x="913" 
d="M670 1440q33 -29 0 -62l-99 -98q-31 -30 -61 0l-277 258q-17 18 -16.5 29.5t16.5 29.5l99 103q17 17 30.5 17t30.5 -17zM125 -442q-43 0 -43 43v163q0 23 9.5 32t33.5 11q31 3 51 7t44.5 14t41 29.5t25.5 48.5q30 94 33 129t-13 80l-299 956q-12 41 27 41h207
q38 0 47 -41l155 -584q3 -11 12.5 -11t12.5 11l154 584q12 41 47 41h207q38 0 26 -41l-411 -1298q-70 -215 -367 -215z" />
    <glyph glyph-name="endash" unicode="&#x2013;" horiz-adv-x="1165" 
d="M1049 696q23 0 33 -10t10 -33v-123q0 -23 -10 -33t-33 -10h-932q-23 0 -33 10t-10 33v123q0 23 10 33t33 10h932z" />
    <glyph glyph-name="emdash" unicode="&#x2014;" horiz-adv-x="1431" 
d="M1315 696q23 0 33 -10t10 -33v-123q0 -23 -10 -33t-33 -10h-1198q-23 0 -33 10t-10 33v123q0 23 10 33t33 10h1198z" />
    <glyph glyph-name="quoteleft" unicode="&#x2018;" horiz-adv-x="485" 
d="M276 1249q6 -17 27.5 -34.5t42.5 -30.5t38 -40t17 -63q0 -66 -46.5 -111.5t-114.5 -45.5q-73 0 -124 53t-61 139t33 195q60 138 168 229q14 14 23.5 15t23.5 -11l57 -47q19 -16 2 -43q-7 -11 -19.5 -28.5t-19 -28t-16.5 -25.5t-15.5 -25t-12 -23t-8.5 -22t-3.5 -19
t1 -18.5t7.5 -15.5z" />
    <glyph glyph-name="quoteright" unicode="&#x2019;" horiz-adv-x="485" 
d="M209 1231q-6 15 -21.5 28t-32.5 24t-33.5 25t-27 37.5t-10.5 53.5q0 66 46.5 111.5t115.5 45.5q73 0 124 -53t60.5 -139t-33.5 -195q-59 -140 -168 -231q-24 -22 -47 -4l-57 49q-20 16 -2 41q9 13 25 37l24 36t19.5 31t16 30.5t8 26t1.5 25.5t-8 21z" />
    <glyph glyph-name="quotesinglbase" unicode="&#x201a;" horiz-adv-x="483" 
d="M209 -37q-6 15 -21.5 28t-32.5 24t-33.5 25t-27 37.5t-10.5 53.5q0 65 47 111.5t115 46.5q72 0 123 -53.5t60.5 -140t-32.5 -195.5q-56 -130 -168 -230q-24 -22 -47 -4l-57 47q-12 14 -11.5 21.5t9.5 21.5q22 31 30 43l25 37.5t22.5 38.5t12 31.5t5 32t-8.5 24.5z" />
    <glyph glyph-name="quotedblleft" unicode="&#x201c;" horiz-adv-x="917" 
d="M276 1251q6 -18 26.5 -35.5t41 -30t37 -40t16.5 -64.5q0 -65 -46 -111t-113 -46q-73 0 -124.5 53.5t-61 140t33.5 195.5q63 146 166 229q15 12 25 13t24 -9l57 -47q12 -14 11.5 -21.5t-9.5 -21.5l-24 -36t-23.5 -36t-19 -31t-16 -30.5t-8 -26t-1.5 -25.5t8 -20zM709 1251
q6 -18 27 -35.5t41.5 -30t37 -40t16.5 -64.5q0 -65 -46 -111t-113 -46q-73 0 -124.5 53.5t-61 140t33.5 195.5q63 146 166 229q15 12 25 13t24 -9l56 -47q9 -8 11 -15.5t0 -12t-9 -15.5q-7 -10 -24 -36t-23.5 -36t-18.5 -30.5t-15.5 -31.5t-8 -25.5t-2.5 -25.5t8 -20z" />
    <glyph glyph-name="quotedblright" unicode="&#x201d;" horiz-adv-x="917" 
d="M207 1231q-5 15 -20 28t-32 24t-33.5 25t-27 37.5t-10.5 53.5q0 66 46.5 111.5t113.5 45.5q74 0 124.5 -53t60 -139t-33.5 -195q-62 -147 -166 -231q-27 -22 -47 -4l-57 49q-20 16 -2 41q7 11 18.5 28.5t18.5 28t16.5 26t14.5 25t11.5 22.5t8.5 22.5t3.5 19.5t-0.5 18.5
t-7 16.5zM641 1231q-5 15 -20 28t-32 24t-33.5 25t-27 37.5t-10.5 53.5q0 66 46.5 111.5t113.5 45.5q74 0 124.5 -53t60 -139t-33.5 -195q-63 -148 -165 -231q-27 -22 -50 -4l-55 49q-20 16 -2 41q7 11 18.5 28.5t18.5 28t16.5 26t14.5 25t11.5 22.5t8.5 22.5t3.5 19.5
t-0.5 18.5t-7 16.5z" />
    <glyph glyph-name="quotedblbase" unicode="&#x201e;" horiz-adv-x="917" 
d="M174 -39q-6 17 -26.5 34.5t-41 30.5t-37 40t-16.5 63q0 66 46.5 112t113.5 46q74 0 124.5 -53t59.5 -139t-35 -195q-52 -126 -163 -230q-29 -24 -49 -4l-58 47q-12 13 -11.5 21t9.5 22q22 31 30 43l25 37.5t22.5 38.5t11.5 31t4.5 31t-9.5 24zM608 -39q-5 15 -19.5 28
t-31.5 24t-33.5 25t-27.5 37.5t-11 53.5q0 66 47 112t113 46q75 0 126 -53t60 -139t-34 -195q-54 -127 -164 -230q-18 -14 -27.5 -15t-21.5 11l-58 47q-20 16 -2 41q69 103 82 136q19 45 2 71z" />
    <glyph glyph-name="dagger" unicode="&#x2020;" horiz-adv-x="1130" 
d="M985 1112q23 0 33 -10t10 -33v-182q0 -23 -10 -33t-33 -10h-260q-12 0 -16 -4.5t-4 -16.5v-1257q0 -23 -10 -33t-33 -10h-195q-23 0 -33 10t-10 33v1257q0 12 -4.5 16.5t-16.5 4.5h-258q-23 0 -33 10t-10 33v182q0 23 10 33t33 10h258q12 0 16.5 4.5t4.5 16.5v360
q0 23 10 33t33 10h195q23 0 33 -10t10 -33v-360q0 -12 4 -16.5t16 -4.5h260z" />
    <glyph glyph-name="daggerdbl" unicode="&#x2021;" horiz-adv-x="1099" 
d="M690 319q0 -12 4.5 -16t16.5 -4h243q23 0 33 -10t10 -33v-182q0 -23 -10 -33t-33 -10h-243q-12 0 -16.5 -4.5t-4.5 -16.5v-444q0 -23 -10 -33t-33 -10h-194q-23 0 -33 10t-10 33v444q0 12 -4.5 16.5t-16.5 4.5h-244q-23 0 -33 10t-10 33v182q0 23 10 33t33 10h244
q12 0 16.5 4t4.5 16v502q0 12 -4.5 16.5t-16.5 4.5h-244q-23 0 -33 10t-10 33v182q0 23 10 33t33 10h244q12 0 16.5 4t4.5 16v363q0 23 10 33t33 10h194q23 0 33 -10t10 -33v-363q0 -12 4.5 -16t16.5 -4h243q23 0 33 -10t10 -33v-182q0 -23 -10 -33t-33 -10h-243
q-12 0 -16.5 -4.5t-4.5 -16.5v-502z" />
    <glyph glyph-name="bullet" unicode="&#x2022;" horiz-adv-x="794" 
d="M397 274q-127 0 -218 91t-91 219t91 218.5t218 90.5q128 0 219 -91t91 -218q0 -128 -91.5 -219t-218.5 -91z" />
    <glyph glyph-name="ellipsis" unicode="&#x2026;" horiz-adv-x="1536" 
d="M285 -18q-71 0 -120.5 50t-49.5 120q0 69 50 118t120 49q72 0 122 -49t50 -118q0 -71 -50 -120.5t-122 -49.5zM788 -18q-71 0 -121.5 50t-50.5 120q0 69 50.5 118t121.5 49q72 0 122.5 -49t50.5 -118q0 -71 -50.5 -120.5t-122.5 -49.5zM1292 -18q-72 0 -122 49.5
t-50 120.5q0 69 50 118t122 49q70 0 120 -49t50 -118q0 -70 -50 -120t-120 -50z" />
    <glyph glyph-name="perthousand" unicode="&#x2030;" horiz-adv-x="2045" 
d="M352 997q-115 0 -196.5 81.5t-81.5 197.5t81 197t197 81t197.5 -81.5t81.5 -196.5q0 -116 -81.5 -197.5t-197.5 -81.5zM1188 1536q18 0 25.5 -10t-1.5 -33l-788 -1450q-13 -26 -23 -34.5t-32 -8.5h-176q-18 0 -26 10t1 33l786 1450q13 25 23.5 34t32.5 9h178zM352 1171
q42 0 73.5 31.5t31.5 73.5q0 43 -31 74.5t-74 31.5t-74.5 -31.5t-31.5 -74.5q0 -42 32 -73.5t74 -31.5zM1028 -18q-116 0 -197 81t-81 197t81.5 197.5t196.5 81.5q116 0 197.5 -81.5t81.5 -197.5q0 -115 -81.5 -196.5t-197.5 -81.5zM1696 -18q-116 0 -197.5 81.5
t-81.5 196.5q0 116 81.5 197.5t197.5 81.5q115 0 196.5 -81.5t81.5 -197.5t-81 -197t-197 -81zM1028 154q43 0 75 31.5t32 74.5q0 41 -32 73t-75 32q-42 0 -74 -31.5t-32 -73.5q0 -43 31.5 -74.5t74.5 -31.5zM1696 154q43 0 74.5 31.5t31.5 74.5q0 42 -32 73.5t-74 31.5
q-43 0 -75 -32t-32 -73q0 -43 32 -74.5t75 -31.5z" />
    <glyph glyph-name="guilsinglleft" unicode="&#x2039;" horiz-adv-x="542" 
d="M442 565l-88 -98q-15 -15 0 -33l88 -96q19 -21 24 -30.5t5 -31.5v-225q0 -18 -12.5 -21.5t-26.5 11.5l-346 379q-26 32 0 61l346 381q14 15 26.5 10.5t12.5 -22.5v-223q0 -22 -5 -31.5t-24 -30.5z" />
    <glyph glyph-name="guilsinglright" unicode="&#x203a;" horiz-adv-x="542" 
d="M102 565q-19 19 -23.5 29t-4.5 33v223q0 18 13 22.5t26 -10.5l346 -381q26 -29 0 -61l-346 -379q-13 -15 -26 -11.5t-13 21.5v225q0 23 4.5 33t23.5 29l88 96q12 18 0 33z" />
    <glyph glyph-name="uni2070" unicode="&#x2070;" horiz-adv-x="917" 
d="M459 406q-178 0 -269.5 113.5t-91.5 314.5v292q0 201 91.5 314.5t269.5 113.5t269 -113.5t91 -314.5v-292q0 -201 -91 -314.5t-269 -113.5zM459 629q119 0 119 202v295q0 205 -119 205q-117 0 -117 -205v-295q0 -202 117 -202z" />
    <glyph glyph-name="uni2074" unicode="&#x2074;" horiz-adv-x="804" 
d="M709 840q19 0 26.5 -8t7.5 -27v-129q0 -19 -7.5 -27t-26.5 -8h-19q-18 0 -24.5 -7t-6.5 -26v-153q0 -19 -7.5 -27t-26.5 -8h-172q-20 0 -28.5 8t-8.5 27v153q0 19 -6.5 26t-24.5 7h-330q-19 0 -27 8t-8 27v110q0 33 21 68l389 662q11 20 41 20h154q19 0 26.5 -8t7.5 -27
v-631q0 -19 6 -24.5t25 -5.5h19zM416 870v275l-164 -307h133q19 0 25 6t6 26z" />
    <glyph glyph-name="uni2075" unicode="&#x2075;" horiz-adv-x="811" 
d="M455 1196q47 3 90.5 -14t82 -55t62 -109.5t23.5 -167.5v-74q0 -96 -26 -167t-72 -111t-100.5 -59t-119.5 -19q-50 0 -95.5 13t-87.5 41t-72 81t-40 125q-4 31 23 31h149q23 0 29 -21q8 -29 30.5 -48t53.5 -19q39 0 68.5 29t29.5 87v150q0 58 -29.5 86.5t-68.5 28.5
q-62 0 -84 -68q-9 -21 -29 -21h-137q-19 0 -27 8t-8 27l-2 551q0 20 8 27.5t27 7.5h516q19 0 27 -7.5t8 -27.5v-143q0 -20 -8 -28.5t-27 -8.5h-317q-19 0 -25 -6t-6 -25v-172q23 31 62.5 53t91.5 25z" />
    <glyph glyph-name="uni2076" unicode="&#x2076;" horiz-adv-x="849" 
d="M473 1122q46 5 92.5 -8.5t89.5 -46.5t70 -98.5t27 -153.5v-53q0 -94 -29.5 -166t-78 -112.5t-104.5 -60.5t-116 -20t-115.5 20t-104 60.5t-77.5 112.5t-29 166v434q0 96 26 167.5t72 112t100.5 59.5t119.5 19q50 0 95 -12.5t87.5 -41t72.5 -81.5t40 -127q4 -30 -23 -30
h-149q-23 0 -29 22q-8 29 -30.5 47.5t-53.5 18.5q-38 0 -67 -29.5t-29 -87.5v-182q55 64 143 71zM520 727v74q0 61 -28.5 90t-67.5 29q-38 0 -66 -29t-28 -90v-74q0 -61 28 -90t66 -29q39 0 67.5 29t28.5 90z" />
    <glyph glyph-name="uni2077" unicode="&#x2077;" horiz-adv-x="690" 
d="M594 1536q19 0 27 -8t8 -27v-123q0 -37 -8 -61l-228 -858q-8 -35 -45 -35h-178q-32 0 -23 35l222 841q3 9 -1 15t-12 6h-270q-20 0 -28.5 8t-8.5 27v145q0 19 8.5 27t28.5 8h508z" />
    <glyph glyph-name="uni2078" unicode="&#x2078;" horiz-adv-x="849" 
d="M426 406q-88 0 -160.5 33.5t-120 109t-47.5 182.5v25q0 148 113 243q-92 78 -92 228v6q0 150 88.5 235.5t218.5 85.5q128 0 216.5 -85.5t88.5 -235.5v-6q0 -150 -92 -228q113 -95 113 -243v-25q0 -107 -47.5 -182.5t-119.5 -109t-159 -33.5zM426 1108q38 0 65 28.5
t27 86.5v18q0 58 -27 86.5t-65 28.5t-66 -28.5t-28 -86.5v-18q0 -58 28 -86.5t66 -28.5zM426 610q39 0 66.5 28.5t27.5 88.5v43q0 64 -27.5 93.5t-66.5 29.5t-67.5 -30t-28.5 -93v-43q0 -59 28.5 -88t67.5 -29z" />
    <glyph glyph-name="uni2079" unicode="&#x2079;" horiz-adv-x="849" 
d="M377 836q-47 -4 -93 9.5t-89 46.5t-70 98t-27 153v53q0 94 29 166t77.5 112t104 60t115.5 20t116 -20t104.5 -60t78 -112t29.5 -166v-434q0 -96 -26.5 -167.5t-72.5 -112t-100.5 -60t-118.5 -19.5q-40 0 -76.5 7.5t-73.5 26.5t-66 48t-51 75.5t-30 105.5q-4 30 23 30h151
q23 0 29 -20q8 -30 30 -49t54 -19q38 0 67 29.5t29 87.5v182q-55 -64 -143 -71zM330 1231v-74q0 -61 28 -90t66 -29q39 0 67.5 29t28.5 90v74q0 61 -28.5 90t-67.5 29q-38 0 -66 -29t-28 -90z" />
    <glyph glyph-name="uni2080" unicode="&#x2080;" horiz-adv-x="917" 
d="M459 -461q-178 0 -269.5 113.5t-91.5 314.5v293q0 201 91.5 315.5t269.5 114.5q177 0 268.5 -114t91.5 -316v-293q0 -201 -91 -314.5t-269 -113.5zM459 -238q119 0 119 203v295q0 205 -119 205q-117 0 -117 -205v-295q0 -203 117 -203z" />
    <glyph glyph-name="uni2081" unicode="&#x2081;" horiz-adv-x="688" 
d="M518 674q19 0 27 -8t8 -27v-1047q0 -19 -8 -26.5t-27 -7.5h-172q-20 0 -27.5 7.5t-7.5 26.5v721l-112 -110q-24 -27 -49 0l-109 108q-13 15 -13 26t13 25l289 291q21 21 41 21h147z" />
    <glyph glyph-name="uni2082" unicode="&#x2082;" horiz-adv-x="776" 
d="M119 -442q-21 0 -29 7t-8 27v207q0 70 20.5 131t54 104t73.5 81t81 70t74.5 62t55.5 65t24 73q3 50 -23.5 79.5t-66.5 29.5q-66 0 -82 -78q-5 -21 -29 -21h-151q-23 0 -23 31q1 68 27 120t68 82.5t93 46t107 15.5q137 0 225 -82t82 -227q-3 -65 -25 -122t-54.5 -98
t-71 -77t-77 -67.5t-70 -61.5t-51 -66t-19.5 -75v-11q0 -19 5.5 -24.5t24.5 -5.5h305q19 0 27 -8.5t8 -28.5v-144q0 -20 -8 -27t-27 -7h-540z" />
    <glyph glyph-name="uni2083" unicode="&#x2083;" horiz-adv-x="806" 
d="M393 -461q-51 0 -96 12.5t-87.5 41t-72 81.5t-39.5 127q-4 31 21 31h151q24 0 29 -22q8 -28 30.5 -47t53.5 -19q38 0 67 29.5t29 87.5v55q0 59 -28.5 87t-67.5 28h-68q-19 0 -26.5 8t-7.5 27v122q0 19 7.5 27t26.5 8h68q38 0 67 29.5t29 87.5v27q0 59 -28.5 87.5
t-67.5 28.5q-32 0 -55 -19.5t-29 -49.5q-5 -19 -29 -19h-151q-25 0 -21 29q10 74 39.5 127.5t71.5 82.5t87.5 42.5t96.5 13.5q64 0 118.5 -19t100.5 -58t72.5 -108t26.5 -161v-8q0 -130 -88 -211q88 -81 88 -225v-31q0 -86 -26.5 -151.5t-72 -103.5t-101 -56.5t-118.5 -18.5
z" />
    <glyph glyph-name="uni2084" unicode="&#x2084;" horiz-adv-x="804" 
d="M709 -23q19 0 26.5 -7.5t7.5 -26.5v-129q0 -19 -7.5 -27t-26.5 -8h-19q-18 0 -24.5 -7t-6.5 -26v-154q0 -19 -7.5 -26.5t-26.5 -7.5h-172q-20 0 -28.5 7.5t-8.5 26.5v154q0 19 -6.5 26t-24.5 7h-330q-19 0 -27 8t-8 27v112q0 28 21 68l389 659q10 21 41 21h154
q19 0 26.5 -8t7.5 -27v-629q0 -20 6 -26.5t25 -6.5h19zM416 8v275l-164 -306h133q19 0 25 6t6 25z" />
    <glyph glyph-name="uni2085" unicode="&#x2085;" horiz-adv-x="811" 
d="M455 315q47 3 90.5 -14t82 -55t62 -109.5t23.5 -167.5v-73q0 -96 -26 -167.5t-72 -111.5t-100.5 -59t-119.5 -19q-50 0 -95.5 13t-87.5 41t-72 81t-40 125q-4 31 23 31h149q23 0 29 -20q8 -29 30.5 -48.5t53.5 -19.5q39 0 68.5 29.5t29.5 87.5v149q0 58 -29.5 86.5
t-68.5 28.5q-62 0 -84 -68q-9 -20 -29 -20h-137q-19 0 -27 8t-8 27l-2 565q0 20 8 27.5t27 7.5h516q19 0 27 -7.5t8 -27.5v-143q0 -20 -8 -28.5t-27 -8.5h-317q-19 0 -25 -6t-6 -25v-186q52 71 154 77z" />
    <glyph glyph-name="uni2086" unicode="&#x2086;" horiz-adv-x="849" 
d="M473 256q46 5 92.5 -8.5t89.5 -46t70 -98t27 -154.5v-53q0 -94 -29.5 -166t-78 -112.5t-104.5 -60.5t-116 -20t-115.5 20t-104 60.5t-77.5 112.5t-29 166v434q0 97 26 169t72 112.5t100.5 59.5t119.5 19q50 0 95 -13t87.5 -41.5t72.5 -82t40 -127.5q4 -31 -23 -31h-149
q-23 0 -29 23q-8 29 -30.5 47t-53.5 18q-39 0 -67.5 -28.5t-28.5 -87.5v-183q56 65 143 72zM520 -139v73q0 61 -28.5 90t-67.5 29q-38 0 -66 -29t-28 -90v-73q0 -59 28.5 -89t65.5 -30q39 0 67.5 29.5t28.5 89.5z" />
    <glyph glyph-name="uni2087" unicode="&#x2087;" horiz-adv-x="675" 
d="M580 670q19 0 26.5 -8t7.5 -27v-123q0 -37 -8 -61l-227 -859q-8 -34 -47 -34h-176q-32 0 -23 34l221 842q3 9 -0.5 15t-11.5 6h-270q-20 0 -28.5 7.5t-8.5 26.5v146q0 19 8.5 27t28.5 8h508z" />
    <glyph glyph-name="uni2088" unicode="&#x2088;" horiz-adv-x="849" 
d="M426 -461q-65 0 -123 20t-104.5 59t-73.5 102.5t-27 144.5v24q0 149 113 244q-92 81 -92 227v7q0 151 89 237t218 86q128 0 216.5 -86.5t88.5 -236.5v-7q0 -146 -92 -227q113 -95 113 -244v-24q0 -158 -95 -242t-231 -84zM426 242q38 0 65 28t27 86v19q0 58 -27 86
t-65 28q-39 0 -66.5 -28t-27.5 -86v-19q0 -58 27.5 -86t66.5 -28zM426 -256q39 0 66.5 28.5t27.5 88.5v43q0 64 -27.5 93.5t-66.5 29.5t-67.5 -30t-28.5 -93v-43q0 -59 28.5 -88t67.5 -29z" />
    <glyph glyph-name="uni2089" unicode="&#x2089;" horiz-adv-x="849" 
d="M377 -31q-47 -4 -93 9.5t-89 46.5t-70 98t-27 153v54q0 94 29 166t77.5 113t104 61t115.5 20t116 -20t104.5 -61t78 -113t29.5 -166v-434q0 -96 -26.5 -167.5t-72.5 -111.5t-100.5 -59t-118.5 -19q-40 0 -76.5 7.5t-73.5 26t-66 47t-51 74.5t-30 105q-4 31 23 31h151
q23 0 29 -20q8 -30 30 -49t54 -19q38 0 67 29.5t29 87.5v182q-53 -62 -143 -72zM330 365v-74q0 -61 28 -90t66 -29q39 0 67.5 29t28.5 90v74q0 61 -28.5 89.5t-67.5 28.5q-38 0 -66 -29t-28 -89z" />
    <glyph glyph-name="Euro" unicode="&#x20ac;" horiz-adv-x="1107" 
d="M979 434q31 0 27 -37q-2 -86 -29.5 -160t-80 -131.5t-135 -90.5t-186.5 -33q-222 0 -335 140t-113 386v104h-84q-23 0 -33 10t-10 33v13q0 23 10 33t33 10h84v123h-84q-23 0 -33 10t-10 33v12q0 23 10 33t33 10h84v96q0 246 113 386t335 140q104 0 186.5 -33t135 -90.5
t80 -131.5t29.5 -160q4 -37 -27 -37h-223q-17 0 -25.5 7t-9.5 24q-10 64 -45.5 106.5t-100.5 42.5q-153 0 -153 -254v-96h305q23 0 33 -10t10 -33v-12q0 -23 -10 -33t-33 -10h-305v-123h305q23 0 33 -10t10 -33v-13q0 -23 -10 -33t-33 -10h-305v-104q0 -254 153 -254
q65 0 100.5 42.5t45.5 106.5q1 17 9.5 24t25.5 7h223z" />
    <glyph glyph-name="trademark" unicode="&#x2122;" horiz-adv-x="1540" 
d="M561 1536q17 0 24 -7t7 -26v-100q0 -33 -31 -33h-104q-17 0 -23 -6t-6 -23v-387q0 -18 -7.5 -25t-25.5 -7h-108q-18 0 -25.5 7t-7.5 25v387q0 17 -6 23t-23 6h-104q-33 0 -33 33v100q0 18 7.5 25.5t25.5 7.5h440zM1452 954q3 -18 -4 -25t-25 -7h-106q-19 0 -26.5 6.5
t-10.5 25.5l-37 260q-2 9 -9.5 10.5t-10.5 -7.5l-109 -265q-6 -18 -13.5 -24t-25.5 -6h-61q-18 0 -25.5 6t-13.5 24l-109 265q-3 9 -10.5 7.5t-9.5 -10.5l-37 -260q-3 -19 -10.5 -25.5t-26.5 -6.5h-106q-18 0 -25 7t-4 25l86 549q3 19 10.5 26t24.5 7h106q18 0 24.5 -6.5
t14.5 -26.5l131 -323q3 -8 10.5 -8t10.5 8l131 323q8 20 14.5 26.5t24.5 6.5h106q17 0 24.5 -7t10.5 -26z" />
    <glyph glyph-name="partialdiff" unicode="&#x2202;" horiz-adv-x="991" 
d="M496 -18q-57 0 -112 14.5t-107.5 47.5t-91.5 82t-63 124.5t-24 167.5v205q0 88 22 157t57 111t80.5 68t90.5 34t90 4q109 -10 176 -86v70q0 182 -69.5 250.5t-243.5 68.5q-23 0 -33 10t-10 33v150q0 23 10 33t33 10q120 0 207.5 -13t155 -45.5t110.5 -81t70 -125
t38 -172.5t11 -229v-452q0 -92 -23.5 -167.5t-62.5 -124.5t-91 -82t-107 -47.5t-113 -14.5zM496 229q48 0 83 35.5t35 108.5v235q0 73 -35 108.5t-83 35.5q-47 0 -83 -35.5t-36 -108.5v-235q0 -73 36 -108.5t83 -35.5z" />
    <glyph glyph-name="emptyset" unicode="&#x2205;" horiz-adv-x="1155" 
d="M954 768q109 -135 109 -305q0 -199 -142 -340t-343 -141q-176 0 -304 106l-90 -90q-17 -17 -30.5 -17t-30.5 17l-10 10q-17 17 -17 31t17 31l90 90q-109 131 -109 303q0 132 64.5 243t176 175.5t243.5 64.5q174 0 305 -106l90 90q17 17 30.5 17t30.5 -17l10 -10
q17 -17 17 -31t-17 -31zM358 463q0 -59 29 -119l315 315q-55 39 -124 39q-96 0 -158 -69.5t-62 -165.5zM578 229q97 0 159 69.5t62 164.5q0 61 -29 121l-315 -316q51 -39 123 -39z" />
    <glyph glyph-name="product" unicode="&#x220f;" horiz-adv-x="1142" 
d="M991 1536q23 0 33 -10t10 -33v-1450q0 -23 -10 -33t-33 -10h-213q-23 0 -33 10t-10 33v1192q0 23 -8 31t-31 8h-254q-23 0 -31 -8t-8 -31v-1192q0 -23 -10 -33t-33 -10h-208q-23 0 -33 10t-10 33v1450q0 23 10 33t33 10h839z" />
    <glyph glyph-name="summation" unicode="&#x2211;" horiz-adv-x="1187" 
d="M94 1489q0 47 43 47h914q23 0 33 -10t10 -33v-176q0 -23 -10 -33t-33 -10h-471q-11 0 -14 -9t7 -16l480 -397q31 -23 36 -33t5 -26v-50q0 -15 -5 -25t-10.5 -14.5t-25.5 -19.5l-480 -397q-10 -7 -7 -16t14 -9h471q23 0 33 -10t10 -33v-176q0 -23 -10 -33t-33 -10h-914
q-43 0 -43 47v178q0 6 1 11t2.5 9t5 9t5 7.5t7 7t7 6t8 6.5t7.5 6l580 469q15 12 0 24l-580 469q-2 1 -7 5t-6.5 5.5t-6 5.5t-6.5 6.5t-5.5 6t-5 7t-3.5 8t-2.5 9t-0.5 9.5v178z" />
    <glyph glyph-name="minus" unicode="&#x2212;" horiz-adv-x="1083" 
d="M967 844q23 0 33 -10t10 -33v-123q0 -23 -10 -33t-33 -10h-850q-23 0 -33 10t-10 33v123q0 23 10 33t33 10h850z" />
    <glyph glyph-name="radical" unicode="&#x221a;" horiz-adv-x="1599" 
d="M1489 1536q23 0 33 -10t10 -33v-176q0 -23 -10 -33t-33 -10h-326q-20 0 -29 -9t-18 -30l-469 -1194q-9 -26 -18.5 -33.5t-34.5 -7.5h-107q-24 0 -33 7t-20 34l-362 825q-16 41 26 41h209q20 0 30.5 -9.5t18.5 -31.5l172 -420q3 -9 11.5 -9.5t13.5 9.5l383 1049
q9 23 21 32t32 9h500z" />
    <glyph glyph-name="infinity" unicode="&#x221e;" horiz-adv-x="1226" 
d="M838 1018q115 0 196.5 -81.5t81.5 -197.5q0 -115 -81 -196.5t-197 -81.5q-70 0 -130.5 32t-97.5 87q-39 -55 -99.5 -87t-129.5 -32q-116 0 -197.5 81.5t-81.5 196.5t82 197t197 82q69 0 129.5 -32t99.5 -87q37 55 97.5 87t130.5 32zM381 635q43 0 74.5 30.5t31.5 73.5
t-31.5 74t-74.5 31t-75 -31t-32 -74q0 -42 32 -73t75 -31zM838 635q43 0 74.5 30.5t31.5 73.5t-31.5 74t-74.5 31t-75 -31t-32 -74q0 -42 32 -73t75 -31z" />
    <glyph glyph-name="integral" unicode="&#x222b;" horiz-adv-x="1193" 
d="M1104 1415q16 -20 17 -32.5t-15 -28.5l-129 -109q-11 -10 -21.5 -10.5t-16.5 3t-24 15.5q-36 29 -73 29q-42 0 -69.5 -28t-27.5 -76v-1325q0 -151 -105.5 -251t-254.5 -100q-101 0 -176.5 44.5t-118.5 97.5q-16 20 -17 31.5t15 27.5l129 111q11 10 21.5 10t16.5 -4
t24 -17q35 -28 73 -28q42 0 69.5 29t27.5 77v1325q0 150 105.5 249t254.5 99q101 0 177 -43.5t118 -95.5z" />
    <glyph glyph-name="approxequal" unicode="&#x2248;" horiz-adv-x="1075" 
d="M737 907q-70 -3 -197 37t-157 43q-86 8 -137 -57q-10 -14 -20 -16t-23 6l-115 71q-24 16 -10 43q35 74 107.5 114t150.5 42q75 3 199 -37t155 -43q87 -8 137 57q18 26 43 11l115 -72q24 -12 10 -43q-33 -73 -105.5 -113t-152.5 -43zM737 512q-73 -3 -198.5 37t-155.5 43
q-84 8 -137 -60q-18 -24 -43 -10l-115 74q-23 13 -10 43q35 73 107 113t151 43q75 3 199 -37t155 -43q89 -8 137 57q18 26 43 10l115 -71q24 -15 10 -43q-33 -74 -106 -114t-152 -42z" />
    <glyph glyph-name="notequal" unicode="&#x2260;" horiz-adv-x="878" 
d="M762 840h-193l-65 -201h258q23 0 33 -10t10 -33v-123q0 -23 -10 -33t-33 -10h-326l-55 -166q-8 -24 -20 -33.5t-35 -9.5h-115q-17 0 -24.5 10.5t-0.5 32.5l56 166h-125q-23 0 -33 10t-10 33v123q0 23 10 33t33 10h192l66 201h-258q-23 0 -33 10t-10 33v123q0 23 10 33
t33 10h325l56 165q8 24 20 33.5t35 9.5h115q38 0 24 -43l-55 -165h125q23 0 33 -10t10 -33v-123q0 -23 -10 -33t-33 -10z" />
    <glyph glyph-name="lessequal" unicode="&#x2264;" horiz-adv-x="788" 
d="M684 1001l-235 -151q-9 -6 -9 -16.5t9 -16.5l235 -151q20 -12 24.5 -24t4.5 -38v-198q0 -15 -10 -20t-29 7l-584 410q-17 10 -17 29.5t17 31.5l584 408q19 12 29 7.5t10 -19.5v-197q0 -19 -1 -27t-7.5 -17t-20.5 -18zM117 248h555q23 0 33 -10t10 -33v-123q0 -23 -10 -33
t-33 -10h-555q-23 0 -33 10t-10 33v123q0 23 10 33t33 10z" />
    <glyph glyph-name="greaterequal" unicode="&#x2265;" horiz-adv-x="788" 
d="M102 1001q-19 13 -23.5 24.5t-4.5 37.5v197q0 15 10 19.5t29 -7.5l585 -408q17 -12 17 -31.5t-17 -29.5l-585 -410q-19 -12 -29 -7t-10 20v198q0 26 4.5 37.5t23.5 24.5l236 151q9 6 9 16.5t-9 16.5zM672 248q23 0 33 -10t10 -33v-123q0 -23 -10 -33t-33 -10h-555
q-23 0 -33 10t-10 33v123q0 23 10 33t33 10h555z" />
    <glyph glyph-name="lozenge" unicode="&#x25ca;" horiz-adv-x="1112" 
d="M1028 807q25 -39 0 -78l-440 -731q-10 -17 -31.5 -17t-30.5 17l-442 731q-22 39 0 78l442 731q9 17 30.5 17t31.5 -17zM745 739q12 19 12 28.5t-12 29.5l-172 288q-7 12 -16.5 12t-15.5 -12l-174 -288q-11 -20 -11 -29.5t11 -28.5l174 -288q6 -12 15.5 -12t16.5 12z" />
    <glyph glyph-name="i.loclTRK" horiz-adv-x="464" 
d="M233 1309q-70 0 -118.5 48.5t-48.5 117.5q0 68 48.5 115.5t118.5 47.5q68 0 116 -48t48 -115q0 -69 -48 -117.5t-116 -48.5zM330 1112q23 0 33 -10t10 -33v-1026q0 -23 -10 -33t-33 -10h-193q-23 0 -33 10t-10 33v1026q0 23 10 33t33 10h193z" />
    <glyph glyph-name="zero.tf" horiz-adv-x="962" 
d="M481 -18q-74 0 -142 24.5t-127 74.5t-94.5 138.5t-35.5 204.5v264q0 116 35.5 204.5t94.5 138.5t127 74.5t142 24.5q59 0 114 -14.5t107 -48.5t91 -84t62.5 -126t23.5 -169v-264q0 -93 -23.5 -169t-62.5 -126t-91 -84t-107 -48.5t-114 -14.5zM481 231q47 0 82 36.5
t35 115.5v346q0 79 -35 115.5t-82 36.5q-48 0 -82 -36.5t-34 -115.5v-346q0 -79 34 -115.5t82 -36.5z" />
    <glyph glyph-name="one.tf" horiz-adv-x="759" 
d="M584 1112q22 0 31.5 -9.5t9.5 -31.5v-1030q0 -22 -9.5 -31.5t-31.5 -9.5h-201q-39 0 -39 41v721l-104 -107q-18 -17 -30 -16.5t-28 16.5l-104 111q-18 19 -18 30t18 29l260 262q17 17 25 21t22 4h199z" />
    <glyph glyph-name="two.tf" horiz-adv-x="894" 
d="M102 0q-22 0 -31.5 9.5t-9.5 31.5v133q0 41 31 64q168 137 221 187q199 187 207 337q3 60 -28 95.5t-82 35.5q-40 0 -68 -26t-35 -70q-3 -25 -35 -25h-182q-27 0 -27 37q1 83 32.5 146.5t83 100.5t113 55.5t130.5 18.5q166 0 273 -97t100 -265q-2 -55 -18.5 -108.5
t-37.5 -95.5t-59 -88t-65 -75t-73.5 -68t-67.5 -55t-64 -47h356q22 0 31.5 -9.5t9.5 -31.5v-149q0 -22 -9.5 -31.5t-31.5 -9.5h-664z" />
    <glyph glyph-name="three.tf" horiz-adv-x="944" 
d="M459 -358q-49 0 -94 9t-91 31.5t-81 58t-61 92t-34 128.5q-4 37 27 37h184q27 0 35 -27q11 -36 37.5 -58t64.5 -22q48 0 83.5 35t35.5 107v117q0 72 -35.5 106.5t-83.5 34.5h-84q-23 0 -33 10t-10 33v137q0 23 10 33t33 10h84q47 0 83 35.5t36 107.5v82q0 72 -35.5 107
t-83.5 35q-38 0 -65.5 -22.5t-36.5 -57.5q-8 -27 -35 -27h-184q-31 0 -27 37q8 72 34 128.5t61 92t81 58t91 31.5t94 9q78 0 145 -23t122.5 -72t87.5 -136t32 -205v-26q0 -166 -107 -273q107 -107 107 -272v-45q0 -118 -32 -205t-87.5 -136t-122.5 -72t-145 -23z" />
    <glyph glyph-name="four.tf" horiz-adv-x="1032" 
d="M950 233q23 0 32 -8.5t9 -31.5v-152q0 -23 -9 -32t-32 -9h-90q-22 0 -29.5 -7.5t-7.5 -29.5v-262q0 -22 -9.5 -31.5t-31.5 -9.5h-186q-39 0 -39 41v262q0 22 -7.5 29.5t-29.5 7.5h-424q-22 0 -31.5 9t-9.5 32v147q0 8 2.5 16.5t4.5 13t8 15.5t8 15l473 839q13 25 45 25
h186q22 0 31.5 -9.5t9.5 -31.5v-801q0 -22 7.5 -29.5t29.5 -7.5h90zM557 270v369l-213 -406h176q22 0 29.5 7.5t7.5 29.5z" />
    <glyph glyph-name="five.tf" horiz-adv-x="946" 
d="M532 672q45 2 88 -10t85 -42.5t73 -78t50.5 -122.5t19.5 -169v-172q0 -118 -31.5 -205t-87 -136t-122.5 -72t-146 -23q-49 0 -94 9t-91 31.5t-81 58t-61 92t-34 128.5q-4 37 27 37h184q27 0 35 -27q11 -36 38 -58t65 -22q47 0 82.5 35t35.5 107v262q0 72 -35 106.5
t-83 34.5q-76 0 -105 -82q-8 -26 -35 -26h-166q-23 0 -33 10t-10 33l-2 698q0 23 10 33t33 10h629q23 0 33 -10t10 -33v-176q0 -23 -10 -33t-33 -10h-387q-23 0 -31 -8t-8 -31v-233q72 89 188 94z" />
    <glyph glyph-name="six.tf" horiz-adv-x="991" 
d="M555 868q45 4 89.5 -4.5t90 -34.5t80 -67.5t56.5 -110.5t22 -157v-76q0 -92 -23.5 -167.5t-62.5 -124.5t-91 -82t-107 -47.5t-113 -14.5q-57 0 -112 14.5t-107.5 47.5t-91.5 82t-63 124.5t-24 167.5v543q0 118 32 205t87.5 136t122.5 72t145 23q62 0 118 -15.5t108.5 -50
t88.5 -99.5t46 -155q4 -37 -27 -37h-184q-27 0 -35 27q-11 36 -37.5 58t-64.5 22q-48 0 -83.5 -34.5t-35.5 -106.5v-224q70 79 176 86zM612 375v102q0 73 -34.5 109.5t-81.5 36.5q-46 0 -81.5 -36.5t-35.5 -109.5v-102q0 -73 35.5 -108.5t81.5 -35.5q47 0 81.5 35.5
t34.5 108.5z" />
    <glyph glyph-name="seven.tf" horiz-adv-x="839" 
d="M727 1112q23 0 33 -10t10 -33v-149q0 -41 -10 -76l-279 -1139q-6 -24 -17.5 -33.5t-35.5 -9.5h-223q-35 0 -25 43l269 1120q7 25 -15 25h-330q-23 0 -33 10t-10 33v176q0 23 10 33t33 10h623z" />
    <glyph glyph-name="eight.tf" horiz-adv-x="993" 
d="M496 -18q-79 0 -149 24.5t-126.5 71.5t-89.5 124.5t-33 176.5v31q0 185 138 297q-115 100 -115 282v17q0 181 109 286t266 105q158 0 267 -104.5t109 -286.5v-17q0 -182 -114 -282q137 -111 137 -297v-31q0 -99 -33 -176.5t-89.5 -124.5t-126.5 -71.5t-150 -24.5z
M496 842q47 0 82.5 35t35.5 106v29q0 72 -35.5 107.5t-82.5 35.5q-47 -2 -82 -37t-35 -106v-29q0 -70 35.5 -105.5t81.5 -35.5zM496 231q47 0 82.5 35.5t35.5 106.5v53q0 78 -35 113.5t-83 35.5q-47 0 -82 -36t-35 -113v-53q0 -70 35.5 -106t81.5 -36z" />
    <glyph glyph-name="nine.tf" horiz-adv-x="1011" 
d="M438 170q-45 -4 -90 4.5t-90.5 35t-80.5 68t-57 110.5t-22 157v149q0 92 24 167.5t63 124.5t91.5 82t107.5 47.5t112 14.5q58 0 113 -14.5t107 -47.5t91 -82t62.5 -124.5t23.5 -167.5v-616q0 -118 -31.5 -205t-87 -136t-122 -72t-144.5 -23q-49 0 -94.5 9t-91.5 31.5
t-81.5 58t-61.5 92t-34 128.5q-4 37 27 37h184q27 0 35 -27q11 -36 38 -58t65 -22q47 0 82.5 35t35.5 107v223q-70 -79 -174 -86zM379 737v-176q0 -73 35.5 -108t81.5 -35q47 0 81.5 35t34.5 108v176q0 73 -34.5 108.5t-81.5 35.5q-46 0 -81.5 -35.5t-35.5 -108.5z" />
    <glyph glyph-name="GC_koniec" horiz-adv-x="1251" 
 />
    <glyph glyph-name="brzuch_bdpq_gora" horiz-adv-x="1097" 
d="M651 555v184q0 73 -37 109.5t-84 34.5q-47 0 -81.5 -37t-34.5 -107v-75l-107 24v160q8 32 26.5 70t50 81t81.5 77.5t108 47.5q91 19 172 -15.5t133 -119t52 -201.5v-233h-279z" />
    <glyph glyph-name="Brzuchy_nh" horiz-adv-x="1173" 
d="M377 819q160 117 323 117q143 0 240.5 -89.5t97.5 -246.5v-219h-278v127q0 87 -44 133.5t-118 46.5q-93 0 -184 -67l-25 124z" />
    <glyph glyph-name="brzuch_mu" horiz-adv-x="1339" 
d="M377 821q154 115 317 115q143 0 240.5 -89.5t97.5 -246.5v-219h-278v127q0 87 -44 133.5t-118 46.5q-93 0 -178 -65z" />
    <glyph glyph-name="brzuch_bdpq_dol" horiz-adv-x="1228" 
d="M651 557h279v-233q0 -91 -31.5 -162.5t-82.5 -113t-116 -58t-133 -4.5q-61 13 -112.5 48t-83.5 78t-51 81.5t-27 70.5v160l121 25v-76q0 -70 34.5 -107t81.5 -37q47 -2 84 34.5t37 109.5v184z" />
    <glyph glyph-name="noga_dluga_male" horiz-adv-x="1228" 
d="M330 1536q23 0 33 -10t10 -33v-1249l-45 -199q-5 -24 -15 -34.5t-32 -10.5h-144q-23 0 -33 10t-10 33v1450q0 23 10 33t33 10h193z" />
    <glyph glyph-name="noga_krotka_male" horiz-adv-x="1228" 
d="M281 1112q22 0 32 -10.5t15 -34.5l45 -199v-825q0 -23 -10 -33t-33 -10h-193q-23 0 -33 10t-10 33v1026q0 23 10 33t33 10h144z" />
    </font>
</defs>
</svg>
